<mxfile host="app.diagrams.net" modified="2022-08-05T09:24:52.451Z" agent="5.0 (Macintosh; Intel Mac OS X 10_15_7) AppleWebKit/605.1.15 (KHTML, like Gecko) Version/15.5 Safari/605.1.15" etag="q5qDosOfOfGBXtZQ2E0r" version="20.2.3" type="github">
  <diagram id="COXc9VKlkOYncHNrJUy5" name="Page-1">
    <mxGraphModel dx="2861" dy="1406" grid="1" gridSize="10" guides="1" tooltips="1" connect="1" arrows="1" fold="1" page="0" pageScale="1" pageWidth="850" pageHeight="1100" math="0" shadow="0">
      <root>
        <mxCell id="0" />
        <mxCell id="1" parent="0" />
        <mxCell id="3tKYfOBs04xEkgBUD2MP-10" value="" style="group;fillColor=none;" parent="1" vertex="1" connectable="0">
          <mxGeometry x="-240" y="-60" width="280" height="190" as="geometry" />
        </mxCell>
        <mxCell id="Co6Q3oRFIBekqbzRCRj0-8" value="" style="rounded=1;whiteSpace=wrap;html=1;fillColor=#FFFFFF;strokeWidth=0;shadow=1;sketch=0;glass=0;strokeColor=none;" parent="3tKYfOBs04xEkgBUD2MP-10" vertex="1">
          <mxGeometry x="30" y="20" width="230" height="170" as="geometry" />
        </mxCell>
        <mxCell id="Co6Q3oRFIBekqbzRCRj0-7" value="" style="shape=image;verticalLabelPosition=bottom;labelBackgroundColor=default;verticalAlign=top;aspect=fixed;imageAspect=0;image=data:image/png,iVBORw0KGgoAAAANSUhEUgAAAgAAAAHwCAMAAADn3CdMAAABL1BMVEUAAAAva+QQVMUybeYybeYybeYkXN0ybeYybeYxbeYybeYxbOYxbOYxbeYuauMtZ+MxbeYxbeYwa+QxbOUxbOUwa+UuZ98ybeYxbOYxbOYxbOYxbOYva+QxbeYxbOYybeYvaeMxbeYwbOUwauQnZNoxbOYybeb///82cOc+duj3+v9/pPDz9/78/f84cec7c+jM2/lgjuxym+7s8v3F1vllku37/f+0yvZRg+rR3/pLf+pHfelEe+ni6/xumO5ple3o7/3l7fysxPbx9f5CeOi4zfexx/Z6oe92nu+auPOowfWgvPTa5fuDp/D6+//X4/u+0fjJ2PmQsPLu8/2TsvKNrvLC1PiXtfOJrPGGqfFUhuvc5/tXiOtci+zU4fqkvvRPgurf6fy7z/edufRaiuvVU/8xAAAAJnRSTlMASAT5/ewJ8+TT225mwxwRpLM0XVA7Fst/jJx2KJRWuyKsQy4NhS14dRcAACaMSURBVHja7N2LVhJRFAbgIww3wRsqqAiI2t5UWlRaYXbxkmlrZVe7m9b7P0RStiLmQAw6M3vv2d8rMLqY/z/nx0RRbDQ/VJnMZbPZUjabqywuJY2KinypNhyHDk66VsrHjBJvsQpdpWfnjRJtaAR6ciamjZIqVsnA/40MGSVRbDID/SlW9MuAOMncMPQvM6mPgCjJbBq8Gc7pi6EYY6UEeJcuLRslwNhMAgaTmBkzirnR2RQMLjVbMIqx0XIcLiZeHjWKqfm5OFxcfE7jQZaWxh24HE5tyShm8hMOeKEJsSjTVfBEE2JRhkbAD8UpjQcZiE0VwRNNiCVpNT6eaEIsSSw3DH5LZ/URIMpz46MJsSTLpQQEJXVFE2JiPDc+mhBLUvDa+GhCLEmr8QmDM64JMQELXhsfTYglmR93IFTVRaNCk685ELrilFGhmJ4g8PFrQuwV8cZn0IRYH4FgTRWBFk2IfWO/4kVPoqQJcS+sGh9NiMlK5tJAV2pWE2ILfoXfRRLiBaPaMW58NCEmpXAlBTw4E3mjfqFyxatvmhDT1Gp8mBnRhPgSGx92H39LRodGLsUShcZHE2JvBDY+mhCHYbEK3CV0aERG4afHyPshvvHRhLg3Nle8ghYva0LsQZJs4Te4+LgeIxfT+AzGqWlCTOyKV+CqeoxcROGnQyPtotv4dNApaqZXvPqlx8gtIl346dAIxVE/JnSKul2ed+OjCTG5UT8edIpaUOOjCTG5UT8eIj00QqDxubH+6ejZcR1CE+GEmMAVr9O9FWxZ2bsPoYno0AiBxqd+cBf/WD2pQ3iilxBTaHw2m9iucRVCFK0pahKNz8YW/qt5A8IUnYS4QKLx2X2InZ5DuKKREFNpfNbQ7RhCJ/0YOZnGZx8t3gMBkhPi0Ef9/vqCFqsPgAKpQyMkRv3O3UKr60CDxClqWle8PmALwa+Bv8lLiKk1Pj/Q6gfQIenHCuk1Pg20egqUCEmISV7xaqLVPSCG/9AIgcbHjc8DwH2KmuyoH58HgHNCTKDw66aBVntAEs+hERKNTzev0OojEMUvISY+6neCVutAFq8pavJXvF6g1QYQxichXiBS+PXwFW0OgTYeQyMsRv3qK2jxHaijP0XNZdRvjXoSbEd9ippW49PLdbR4BxzQnaLmNOp3ihaPgAmSCTG1wq+3m+xeAtrRm6KOVcgVfr3V0e0acEJpiprAFS/PVtBlC3ihkhDzHPX7hi4N4IZCQky48enpHrpsAz9hT1HHmH78AAfo8gY4CvUY+RDHf/4t1jbgGfCUKiVNKJbngK9H6HILuBoOJRfI8/3zP3OMLqfAllNeNkGrEG98/2MDXa4CY5mgK4Icl9S/i6vYaRVYS1VMkLLMP39LFLgDvDkzJjiT3D9/gEPuQaBb2QRlmsGZj94sWfAXYK9sglHgmv60u4MdXgJ/syYQEyDAE+zQBAGyJgCTIMEW/y7IwhkyvhsjfOHDA9cD8BokSIwav10BER5ihzUQoWp8VuCdAJ6T+wBAzvhrBmQQ+wAkCsZPMRnfAAQ/AD6nAVMgw+5dkW8BLfEF46MayHDkLoM2QYg545+kkK+AN56gywcQIl4wvlkEGbbRbUfMv4CSaaMhgMUJ2jR3QYaM8Q2r+1/dfcNfZIaBZ+aNT2ICeuCWLTzD/25QVznjkzyIUF9Fq9U6yDBufJIFETYQGY4EeZA2bTQFcFnHLhonR7ePWZ8OPudXJyjgKNCDW/tHr7Cnt43to8e83wkrxhcLwNjm+qeTte+H2K8n7w8esX0vLJs2kT8LtLn+cbu5g4N4uPfiMzBUNL4oAzcP9p83dvBi7ty7TuPHhH6Sd5/bbRtREIAVl/TuOInT6wxAEuxd7E2UxCKJqlQv7/8MKU5iWSYW2MUSWJ58v+Uji5RAEjt3roQnyxkVW60ikOq41KYmp9uF1fqIuJRs4G+rMw6SamxdU69uaZjCyrg3JvT/OwnqxQ8nXIbYzTCJ1XAvGvg/S4P1TnYdLk+i1FiJ14J3llEgZX4RZHJ4WOSytbbLMN8S6kQfmR4GueskGI7KhvGXgSXMCP0Kk6XiU4Yot2n4R8Of17T7EOaqXnYZsuKNAdvG3SzlPOhTmOqu7zAKaZPrpfVng00thWqmGZlTc98MPFvT7EsYqVlhpK5NrRd8GQ43aiTEOmtkG2XoE/3T/5fTIbSxmpfpdm40CH6zQX8y9AWCOe/H+JdEvwlNznZphGkBWqT2WvxHO46AnvxbIWtGINja0v6AVUs0Rv4MwTXbvCdvIxjNOyXefowgdviaLQsBpbYnNIjT6SGgMV93aiOQ39e0eo4g9vhAfh2BbLRomO6JhQBq29Q8r/zRmlbfIoBqjA8lmlA3T9NA0wyUrdf5pjiCePxXibghgeAO35Q4h6LkbZFm6thQU6tzgZaFIJ6v6fQU6lIJLpCrQknmmsZqNaDCHnGhLIL4ds2UQHCDC41syEtt0Wj9HqRZu1xsgCA+W/uTEYHgTS6WtyArU6fhcg3IuqWLEYJ4uqbRNwigRBd9C1KsTYfm66QgpUA3XQTy3dqaGYHgHbpJ9yDh6oIroX4OCc0E3SQQgNYh4U+eIIASXVUs+DZMcEVMjuFb3KGrNtToPw96C0Hc0l0HPiU7XCE3NvxpOHR3iEDeNyUQnKXAJnypTrlS6mfwoxCjwAECefKlIYFge0KBPfjQ7FKLen9vRHcxatM9h7dMjALFGoL5wpRAcJ8ix/B04Gh57gs2gIrov5KaZw86lQQ1SGTgpZCgSAcBvTClGuaMDHKlSw4YTO7m7+f+pRHdHeGlanYz32VAiQLEmjGKzGoI6CtjqmE6FDqCSK/CABI3J2Xc16a7S9xTjpdyDCLWhMhGkSJOE0E9ftuUQHDqlELbcHdVp7LT24yFB2Z0N8AD8+Mgc4aTLNwdUMiJI7jnxlTDrNcpVLLg4nxGRdP9MhaY0N0N3pQalrpUVNyAC6tDsThU6T8P+hjB2RcUSttYKBtTneCbYyGLArtYyGr0Y1RzgoV6aYo5BajSfx70AzTolSh0XcUCcUdtaqcJNzYFLuAmFd+lkj0scN6m2OgOOjx9ZEQg+B+ZKUVyGbzhhApa+zW4q1LgGgLl7S4VbOINxxMKtcYW9NCzU/oraBJvUaA4xgN7lHfhMawzp0AOQsn4iPK28Lr1PIViRyno8qEBgeD7ksc5CnQs3LdJafkCPGQoMIGXZp7SBhb+1rMB2HtdijiDGvT5NPpA8APiX4HKOV45oqzDc3hqUiQJT2c7lFWyAFgHiVmpcxij0M0cOr0feSD4TcmDHN1dbO71u5UygH1Kyt/BhyxFavDh7pCS+hbupn6+bg7NPjZxV3DyKEax2AEOKKdSgC9xilzBl0yacnYuHXqqnEG7H6IKBItd5enhmlJaG/DphCLn8GlYp2bdMbTTUhr7HZYh26I+sc0U/NqnSBN+JfcS1KlUwzJ8ZWw1jMZ8d74K/24pMoR/6zfUptXAMmgpjf0GS6FtwiM3hIwtjXfgG23qMbCxLL8Y3BCc3HTCf+wG1BjCSnU0jxLo97XGQLB+mXbol84bimxCUrPNoA57WKIfo6+GEbF3GETfhqw8RS4hyx4wkOIeluqdR4bvitxzqCoWh7wKRQaQt5GgulwGS/a56bsiGwmqGV1BwYgiO1BQnlJVZR3L9oHxDcFnOaoYJKGiTZE0FKinVktJLN3P5u+KLLeULv9qZhSZQs1JUS0qEIJ3V2BXZDlGSa1zKJpQpA5FhRmldRCKn1ZgV+Qe5VzUoMii0AyqqqeUFOshFM9WYFekPaGMfhKqbAoVocxOU84hwvG9/kCwfhVK2Ia6KsWSUJbsU8o+wvFe5IFgHw7pmzNGAHOK1RDAFmVsIBxPPlmBXZG1a6lpG3UZipURxC0lNBGSt0wIBHupXctMXKprUiyDQI5kXsjCEag09rfHCIfv34ADBJNd8p9l2rznHx+txq7IDv1wbi0EEafYEEGsm/j84/GjVdgVeefQn4srBHBCsTECGHbpUyKFED03JxDs7oJ+xcZQt0+xPSizS/TvEiH6Vvkk6CnCMqaEnR5U3S7p9rxsuMW5Q3h+Nn9XZK1LGbkmFG1RbAsqFEpMLxCep4YFghcoUdJlEkoGFCtBgVKJ6Rjh+c70XZEZShvNoeKGYjtQEU9Q2sxGaJ4ZvivSmlJe7BgK8qT2REhvhyq2EJpvDN8VOaaSfA3SKqTuREizRSXFMsLyvomB4FfsXHiB+hHF2pCUvOR/DD0PVi6NfYFw3FLZVhJy2hTrQs58RHUFhOULMwPBL63HqO70DFJmFHMg5WHbj6kfBV9EWw0j1mEQkwPImNBDCv7V8gxmiJB8FHk1jLuyQwHN7wUtelmHb9kZA7q2EI7Hb0dfDeOmz6BmWfhl08scvmgaDI0jJM+NDQTPGeaepiqpKRFyXqcGdQvh+NbYQHCfOlzfwZc5vTTgh7VfJLlCl4DPVHZFhqFMPYr78COjJ6pZTZPkKl0CFEpjnyEMA+qSXoe3Jr2cwIvnPLCR2eBfzQwEV4vUpjuEpywZOBFi96nRFOH40KBqmHsuqdMgBQ9xermFh0KLngxMh39qVDXMv+wEhXKblFLPQOwk6BmddetQSv6QYrsIxfvyuyJDcECxMeJFynCOLIjskwESIQpdECXrakKxM4TiYxMDwW0KjSygEaOUShUCt8GO6MYxyrn08T0HCMUPgXdF6tfwPi2TXxqU2IC7LVI9EdI7VFoXkmpRaNJDGF4YVw0D5H39MV7V9XWHDehlBDeNHOUU4/hb3Igx4a/MCwRXfb441i4op52Bix1SMRGS3KKkWAMvWafy31K/x78ZFwi+pdAN/pXKU46zaWGhKb3EsNDZKSXNMvhXlmINhOEX0wLBVo4iTvnelw7oQm6ArOdQ7Tx4b0JJ7TJeuaDQDsLwtWmB4IbM57FNSkrE8aYDteKO9V3KOl3HPU0KOTWE4EfTqmFupA7mxw4l3dh4oDejt9gZHhh2Kati4zVTCu0hBO88Mqsaxp7IXRaz8l1yBbxuh360argvNaC0nSRel6XQKcLwuVmB4LhsMCMzo6xtC69YJfozWscrmbrSnriHTil0jhB8YFY1zK70/Zhym7Km5Vf/ukK/ZnELL9nbjp4C0LgBU0KfGhUI7jkUyWKB2pSyJjvDFIBks+RQQutyeHdWOLmJUd4xFkjOKJKzsHzvGhUIHlOkbWERe5fynPq0XmRYJkMstGnAjMjHJgWC80pvi60SzZZoYrH1YvS9wc8Mqoaxi4o1uts0We4ObvoUmVlYvu+Vd0XqN1Q+lD+muepXcNWM/jXgPeVdkfqV1B+N4YSGmtYg0I78c8CTT8wJBM8CtPYXujRS2obIUfRHgm8p7orU75wiRxCbt2ignSSEqhSaY/l+NyYQvE+RKjysj2icjgUP6chjIR8ZEwhOU6ACT3aahtmEpxOKpLF87zwyJBCcnFDgGN6SfZrEOYE38c3Poo3l+9yIXZFAQcOI/iXN4XOJwS5Fsli+DwyphjnScS3coyn8LjEYR/5B8GdDAsF5LemIjSKNkDuDP7XIQwFPzdgVaSX0bG1pJmiAehV+XVCkhuX7yYhdkXNduxvPcozcRQ++HUX+JuCZEYHguLYm/eo1I5ZPwb+7yDfJfmNENUxH37i0XWGk+hZk5KJuDn3PiEBwhe6KKUhJ7jBCl5DTp0ALy/fkSxMCwTGdN8SsDiOzD0ljivSwfF8YUA1zpfmFcJ/RcOLyP3rkmYAXBgSCs7ofhHiREYg1IK9FgQMs30cGBIKP6K6YhIJmjKHrZqCgH3VVxOO3o98VWdJfmnU+Y8hac6g4iPpAEM+jr4a5WEI69qrOUJ2uQ0mGAjmE4NvIA8HoLqM6tXbBEFVsqEn+wd59tqdxRFEAJpLlktiOnTiO0/s5y9J7FwgQIEAFVAFJVvv/vyGPHSVRZNgZdmZ3Nnnyfpc+SDA7O/fMvXk6CMN7L43Pigx7M749UaJvjhJwa2j6iuCa8UDwDRfbseBau0GfjCy4VjDeOvpb061h0l41Tk1TXnJ0zzmltapw78B0NQBPDQeCccLFClAxpML09j3KOoaCtOn3QLww3Rpm4NlRyKHKGp64pJh6Q5cL4++Bjk1jXz+A5wqe9cs6o5xGG3MUo37M+rLyilkIda8Nz4rMcrEiVLQpZecMc6UpZRNKNriYDT98bzQQ7NgwKRaHirDimJZryuhASdL0QQC+MjwrcsOzC3JFymhioSwl7EFJx/D9MMemsSur8F7Us01QlxJKFhYKb1BsBiVbpgvCWH1odFak5dlbIPYolqnCwalNsQpUTMyPEv3ZYCDY+UE9gAKpGaT5FBx1KXYAFT06mMAPb4zOiqxwsRMosJIUm0CgT6FWGApyqmdM6n4wOivywqsVcItiBYhYSY+3gVPVkKm6RysmZ0VOPdoDbVNsNw6hakOlF4BYxfhZMPCLyVmRN17MT7LqRxRrlSEhtUOhURluhengCr74xOSsyDMuVoYb1chVVOeIvgnF8oV0Aq7E6eAIvnhhclZkSutBmJXa2qWsG0jpUUo+eXAKF2Kmq0ELm8b++gA+SHExLKfdLexzCSeQ0qe0RqcXxpJsLlaCP54rBIJVpTTVQs6OSzEuZw9ShlxGbNmFIBqAScLfG5sV6bgHiEJSuNfJcHn7kBHm0jKdbhiyolxsCH98Z2xWJHCq+g86PUjG6E4REtbpRqx0fAYpUeOjQ4AnxmZFAkWV67GJdLNB97YhYUC39gvdNgSC8QGY2zT2F/ii7LoaXDwc7VBJARLOqSBW2kpZcGQH4BGAjxQCwYrCrlaAxHp/g8oaEEvkKSJeCKpYLBaED8AbhdYwiqzlr0ZdnGRtalGGUJ067C5cCOIMwFsAflAIBKuyl/oAxOtva9QmAqEtatLajFTxoTADcA4wrx70Gj5pcJEW7ilPjmzq1IFQkhoNrz9YCCrGc+HvfaYQCFY0lDsIsnKDGXW7hEjcpl7Rq+0K7pgGoBaAefWgr+CTJBeycKuyfRWlF6oQSNEDw0HOwq2cIHLuk58UAsGKNgXFICt1PaRXehA4oDeie7cLQS8AeQAAjxVawyh66xS3rEY2W/RQHwJZemc2qMexbT4R9N6PCoFgNWMu1Dynx4ZwZkXpKfsoK8ib+uVzhVmRano0qQJHORq1Dd98rdAaRk2KJtn9ChYqFmL0mvF+0beeKMyKVFOlWfnmBea62aNpKfjlfj3oR/jHpmGxzSk+kMrSvDL880ohEKwmCDPf9m7wD/VgjCGLwz+/KbSGUXPFIMjm8Jf0OQMhAx89EwSCvWGljkfGHwG3knW8Y3WDsCS9V4KPVh8KZ0XqdxKUf/4fztOwIjUGRtaCj74QzYrU74ZBM9tgkNij45QFn3zjc2sYoG18ws+/wQA+eel3IHgaoMU2wOwi/LHmbyDYCtjzP7hqZfjjW99mRVpnh0eBGPL477DfteCHp760hin3Bsn/v/tLymxuF+G5r70NBCem6XGn9P8X3639o+N6G1762JvWMPH0Vr+QHbb4P3WN7GA7V4FHXmudFVmJHAw2S43/9Fe+NepsDnfoN3uW7WydnEK3V/pmRZabGZpln3cO66e5yZVNjzQGKQsArGL6+GqWp++il7PZsHTUPKmfhaHDV5oCweGDSxq0M9w8SJfxp/CWTQ/kD+K4yzrtbu3VYjRjVoYGX+qZFRlp0ZBYbW+rN7VwT3FG7ewc5onfRAbZDRrQ6pxB1epDDYFgq0MTGtlB5CaO+cIz6paGg8RZ5G02Q78dlaHoZw2tYQr0WWbU306F4ai4Q706EAuntvvJffoomoaaN+qB4BP6p5VsTnJtyHhLrWJlyKrmTprJFgUCEiN+qRwIrtgU0LfFr0DelFqNsKRK/bBzbtNJEHLEj1ZUA8EDeix/u8VfVos6HcCV8vq4sGvTS9EyVPyiOitynwLqW3x3jqhTDy7dHhtsDvP0yB5UPFVsDXNDAaUtvooBdVqHKmvaO6InzqDghWIgOEIvRKDuOjArgMZFSf+YlceKgeAxvZCFugJ1Ooa6ap4SNt5G1iP98x1Ki1pQ8FwtEDxe7i2uP97ai1IoVoEqK0OdZlB3SLHYgYX3rJvDvZYfz4Dv1VrDRChp2OwW8V5iK0aRA6japl45KJvR0WS6fjKY4K6b8Sjv9VnAd2odgs8oYaPZa+OOVLJwPUnvcbFLqJpRryuoStFRPox5Er3NKAW6UPBMMQ3UoEDpYIq51umgDjU5apavQlHB7b4n3tvL08GGBQVPFHsDjemkdFjBIlbLw25Zm3wnSNvA6o7Cm0/7cDPv0VngmmJ/yHiNC8xGx2U4aeo4exdsuPVpWFByTEd2As4qB3u2B32lHqyqdoa4sTlH9LoCkZyW6zHiv3YgDt3jGfWR5NX+jv7rhKuhVajJRXlfKZKAhAYXi4bhntWgfiOo2NZy1Fhp2vynQhxqHoQeQFHxnHdtDIqQs+XVm2CaXijCPatGRxkLcsKRo507P9aFAtEKIK9b4h/OrXIR0sp0sJ+Aa1l6oQ/3ehovhFqngxjf2T1JQNmanu5QlfTJeBKZYjkjejJH+IKeiCbglnVJZxdYSqU7idSr0OFJ6GMY06WDTAKynNJAgUjfRIT7C2OehZ7BmPg+HYzhTrxFOZfHuWKxvrVBSUO4FN8QFhuN+Tr0AuZcezGlPUKBexsoa2J73MVvLD5jMOZN6A3MqeTp4BqunFPGbhV/KdY8rbxXoyQD0iH4A69Cr2DQJh3YFbhwQxm1MO5on1PGThtuFOjMbsOc56HnMChF7eMTOm4yXomSd9nQOgWaMOex2t1wdSXdVfiw7epYLzGjA5XCW6JGZ7ELmKKcCVSXpuYpaoeUcYr71r0Kh/bFUQODPlecFqVuRicTLOvS7W5u5E1asU6RG5iz+um7u6GPYFCXTqIVLKdOCTtlfOiGMi6wnMQGSQZjUNgcL1UbRauzNrT+efbct2IseNHFsU+RMxj0vfK4IHURnYdklRjF9sOYp2JTrBXHMnIM9AKw9lCxQYQ6YaFkv4olbFHCCeYbaL+0In4A8BQGvRH0CPJHV99XxMpQrGZhvvA+xc6xhCbfCcakyDke/dklbOUJTBpqK8L11K55nWi+hpGmSP4CBt32iDL+JrhOR/YFZCXVhjJYNYp1IKvSokgfBq19KugW7pskHe3GIaeoWtJLU8wOQ45Voki0DYOe3h0atgqDTmN6Dsv7ytfpSxQbQ85bCh3CoC9XQnd8ApM6Wi4/JaIUyhfhJEWxGqT0KHRpwZzVb0N3rbyEMeKKebQICdsakp1XFKtDwjQq84sMehr6p08/hkFjcflebJfqD92LPLWc3bRrZKCrQF+H7vv2EcyxhnQ2siCS0lLQ72vpGWclKRStwJxnK6EPvHoAc1LqL0wFCjXiEGlHKXQNkQKDvQN8/Do0xxsY1KHABM7aO3rOcccU2o/D2TXFzi0Ys/pZaK6fYE57n85iaTga68l1izPc4reSE4rlT2HO56H5fn0Cc3oUsFNwUtO16+6qjnjtUsIxzPkqtMiPazBnkwKtKRZb1xfn2aVSDS+dp9iuBWN+WAkt9PMqjGlnKJC5wEJH1FZ5zZEKQd71HYrtTGHMxx9sAINyItijSKOMBcoxjVWcI4WCQN2WiyQY8+iXkKMXMKdAkY0K5rumiF2BrGnM5X9Q8vvPLIx58H3I2cMvYUyi5nasqrVPkWvIa1LkEnOl85SQqcKY30Iiz9dgzFmeIo0LzNGVCQLKq9ruOkdux0gGugbwciUk9MUqjBlTKDPFh0oUmWAZx67KygeUcg1jnnwakvAU5hxRqJXCfadyQUB5iczy/YytJqUkLZjy6NuQlO9gTLhGITuNe5ram7xtU2QL/5TIUkqjClMevArJWXkGY07t5d+ixEmQEpZkzcilGnuVZ5Syk4Ix34RkvX4MY7qU0Ldwx8SD3h7ry6WL6y3KicCYn0LyPluFMW8pYRTG32ZeRC9GFEjibwcxynkLY548DC3hcxhjZSmhNsWfcp6k728oMsWt8B4lZS2YsvZjaClfwZjwkBKiXdza9CZ9X5D9tSn5PmNhmLL6c2g5Kz/AmHKGMppxvFPNe5O+r9hSnSOt4xglZcow5pOQUIBSoimbMoZFQOLQZgx3BjKHS8VzyoqewpgXoeX98gjGrOcpw54AVkMcBHRFfFl0COvQpqx8HcZ8KbEBDFZKtEs52UrauxevEwpMzikt1oMxj5+HXPkN5hxSTmtGZ7twzaqRDNI0TJdWvwhJC851oa0ADHz7nb07UU4aCqMAfN33fcZxd3T0/IGwFbpAW7Etpdgigm2Voq206vs/g3LVqiXYkNzk/y/mewJmCiQ055xbJH+Eh8Avq2NJTIk2BZxCWiFDNsHnoQruwRnwaVJ42Q8IY4p8ErwGrEtAgZ04DT59Cm0N4Xy2/vOvS0Ah3AejJoWUXkA4+7OWX/91CegYclOi6FI46whrg0LrgdEtFdbZC2C0Q2GU8ghrNUPhzDbA6K7yTWZdCG6W+bO3SaGkq2CjS0C+yawLAS8z5C2mCZbcMoWwNQVGF68p36TWhYDdJQqoCBMaFNyLfbDRGdDw+OeksdCmQAowo01BFVbBRmdAfRNcFwKQ71AQVZgxQwHN5cDpjjLn6nmw6lIQ7fUpByE55VfrGQoiuwlGugTkm+y60EAxQ4Fk3r/bRVBld6WSpoBqVbC68Ez5Jr0uNFA+oKBq77svUxjTB7deohBe74PReBlQ8XUhLV+nMA7q29UF+OHsuv1ChsKZy4PV6RPKNwvqQj/szFJItU9z3cbUvANPufmZVrNzMEuhpVtgdl/5ZkVdSNP5axOypfZ0feXL9rtey3XdVm/7y0Z9ur1FpnzcBbPrKgo3z4FZqk4WWMmBlc6ARuLRaXBzMyTcVhHczlxVvllTF/plv0KidVbBy18G1MaU6E/OZprE2mqA3yXlm1V1oUPz0yRUnf/jD9xTBskalT9UfEECLVchwJWzyjfb6kK/OTslkmYtDwF0CcgYcaPyv+2SNCsQQGdAjZE3Kn/I+UTSZNh//mOsDKiddaFfvpA8An4B+CgBWZ8S1WayJM80eI2XAbW2LqR1SCD2N4AegvfJ4rrQQF7ejwCiMjjpIXjfrK4LDfRJnAI46SH4Y01KShRokDh98HquDBI9Kj9QJXG6YOQ3AzoxKVGXxNkAH98loIlJia6MGI+czlLEXq93ydMnsBmvBDQJdaF8bVQbfGHzNUUmW3g3j5FVoQ9gMlYJaDJSoi3ykklh4MP6R4pAuuOuQpsRdw24o3ybjJTowTFzEOVuhYxaXinmcejzqPcfkyfKIBtG5Ys+/gCr7lyJjCjVe2X8ZbEgagpGD8EbY8OofJs8fHJx1O7O5y0KI9tuFucxLOcu0bAlBwzGLwFZnxItjhPH2W9sBCv4van0iymMkq9LWQPVQ/DGWDEq/5qGVFIYSbe9mu9fZMmvTGWlt+fg3+qeZ5PFLVgG1O6UqEtDXqRwPKdc3Wl+riynaZTZpcrnZmtmAX7kl0V8BRgtAVkxKp9fCrsFkZrfe/nK3dleb/b7Gxv95pfuZs8tTpVXMZYWDVnOIVYhSkD21oXWaUgbHJwl/k3Q81cVu+eI1f4bGlIEi57n8TTx0SUgfjHXhd5L+QIAcks0ZA5xuqwkuHYB8amSmC8A71MtZhCfh0qG2EblvW+9D8DD+5nUizzioYfghYgvJbpBw1pgs873TEgPwYtxH/GYomGlHNgspmlYFTHQJSBBniAOzkdhpzF4BlNqi4jDLSVJPKPyZRqWToHRB+K6D7yrZImjLuQU5HUyCzSskEPkHou5AYxxVH6NPHwFqwZ56CBaOgMqziVErE8k559Av+QyDKdEDkpAAt1DpBrkZQfM1shDZg/R0RlQiaKtCy3WyEN2EcxekpetBUTojpIp0lH5Dnl5C25OjbxUHETmhrgbwBjqQq9I5hUAmIv3lekheLEuIyILNfI0D3YuaTE9GNYZUMEeIhrT5Ok1+O3F2RXUQ/CSRVQXasls5P6wTN5cROG+ki2SutBuSegoh9Ykb6V9mMafAeUZle+Q3CsAsBfbcqCEDChHXSj/RvIVAKiRtxJMOyMgA8pQF3opdZbppw6NsA+ThGRAGepCPaGzTL+4NEIVZl1SdjBdF+qSt1eQYfVNPL8D7ilbGB6V75KnLQdC1MlbCyZdseAGMJpR+RZ5WoMU5Wzk68EySkBMo/JT5KUk4N/AvzSJos2GScuAxpsSdWqS7wAGcgfkZRWmSMuAxjwqvyIvC3jEXo2ibKzIKQHxpETLs3RUKQVRXBq2DUMkZkDjrQv16YjZGQizRkct5WHKRUElIJa6UK5Nf8kKOJ3jiNx0VO9RqRnQWEflFz/SHzL8x7MOc+boT2+KMEMPwdvJZEo01aFDBSHPAI5yt+jQwVcY81zZyuiofPUtDWSnRZzP6Cm1/eLna3QdGCI5Axp3SnTx1bteVdjd/1Hlxrsdk69RZglIQEr0v3HugbLaPSSCE1sCYk+J/jekloCsGJWfAE+U/W6eQiIQ2SUg+aPy9pNdApI+Km+/U0/VZDj5GImx2ZMBPd7ti0iMyYYSkORRefvZUAISPCpvPTtKQGJH5a1nSQlI7Ki89WQMwf9k36i89ezLgB7vQXIj6JOkIXilpNaFJpmkIXilRKZEJ5ptJSBpo/LWs60EJG1U3nbShuC/E1kXmlQ2loBEjcpbzu4MqIBRecvZWgLy7zoSE5wB9VUXSkxwBvR4V5OU6Ah2l4BEjMpbbjIyoEldKKgzlpeA+Efl7SZ8CP67pC4UIflD8N8ldaEhSQY0qQslGdCkLpRkQJO6UFICSupCSQloLNeSutBPNg3BqyQlapxdQ/BKJSlRs2wbgldK6Kj8t3bOLQVhGAqiJNoUjWgbX1Q0YHH/a9RPUcFb2o9mZs4WAu3k5swtFrgSkOpCckCtPGSJQpaAZImyl4DsOPIgiFoCUl3IRg1bApIl+p+CF8G/kCU6mpIXwU/JifYqgF0CsrMjFYTQS0B2AmUO4HFADUQ+Q6jSBeCdxPY4rPP/IHRUI6G1vv9fJKIs2Cr//SKT/AdqvC2AE+Ezw1ToTiuAWDhesE2xZcvrfxgJuYF9JK5uCn8WfIrNCm00sDh3vWa/A/Db1DsADpsY495d53n4T0DTw3bLTwOwAAAAAElFTkSuQmCC;" parent="3tKYfOBs04xEkgBUD2MP-10" vertex="1">
          <mxGeometry width="61.94" height="60" as="geometry" />
        </mxCell>
        <mxCell id="Co6Q3oRFIBekqbzRCRj0-14" value="" style="sketch=0;points=[[0,0,0],[0.25,0,0],[0.5,0,0],[0.75,0,0],[1,0,0],[0,1,0],[0.25,1,0],[0.5,1,0],[0.75,1,0],[1,1,0],[0,0.25,0],[0,0.5,0],[0,0.75,0],[1,0.25,0],[1,0.5,0],[1,0.75,0]];outlineConnect=0;fontColor=#232F3E;gradientColor=#F78E04;gradientDirection=north;fillColor=#D05C17;strokeColor=#ffffff;dashed=0;verticalLabelPosition=bottom;verticalAlign=top;align=center;html=1;fontSize=12;fontStyle=0;aspect=fixed;shape=mxgraph.aws4.resourceIcon;resIcon=mxgraph.aws4.ec2;labelBackgroundColor=default;fillStyle=auto;pointerEvents=1;opacity=80;" parent="3tKYfOBs04xEkgBUD2MP-10" vertex="1">
          <mxGeometry x="50" y="60" width="48" height="48" as="geometry" />
        </mxCell>
        <mxCell id="Co6Q3oRFIBekqbzRCRj0-15" value="" style="sketch=0;points=[[0,0,0],[0.25,0,0],[0.5,0,0],[0.75,0,0],[1,0,0],[0,1,0],[0.25,1,0],[0.5,1,0],[0.75,1,0],[1,1,0],[0,0.25,0],[0,0.5,0],[0,0.75,0],[1,0.25,0],[1,0.5,0],[1,0.75,0]];outlineConnect=0;fontColor=#232F3E;gradientColor=#F78E04;gradientDirection=north;fillColor=#D05C17;strokeColor=#ffffff;dashed=0;verticalLabelPosition=bottom;verticalAlign=top;align=center;html=1;fontSize=12;fontStyle=0;aspect=fixed;shape=mxgraph.aws4.resourceIcon;resIcon=mxgraph.aws4.ec2;labelBackgroundColor=default;fillStyle=auto;pointerEvents=1;opacity=80;" parent="3tKYfOBs04xEkgBUD2MP-10" vertex="1">
          <mxGeometry x="121" y="60" width="48" height="48" as="geometry" />
        </mxCell>
        <mxCell id="Co6Q3oRFIBekqbzRCRj0-16" value="" style="sketch=0;points=[[0,0,0],[0.25,0,0],[0.5,0,0],[0.75,0,0],[1,0,0],[0,1,0],[0.25,1,0],[0.5,1,0],[0.75,1,0],[1,1,0],[0,0.25,0],[0,0.5,0],[0,0.75,0],[1,0.25,0],[1,0.5,0],[1,0.75,0]];outlineConnect=0;fontColor=#232F3E;gradientColor=#F78E04;gradientDirection=north;fillColor=#D05C17;strokeColor=#ffffff;dashed=0;verticalLabelPosition=bottom;verticalAlign=top;align=center;html=1;fontSize=12;fontStyle=0;aspect=fixed;shape=mxgraph.aws4.resourceIcon;resIcon=mxgraph.aws4.ec2;labelBackgroundColor=default;fillStyle=auto;pointerEvents=1;opacity=80;" parent="3tKYfOBs04xEkgBUD2MP-10" vertex="1">
          <mxGeometry x="192" y="60" width="48" height="48" as="geometry" />
        </mxCell>
        <mxCell id="vJi5SJJjgkvMFI4-lIAW-4" value="" style="shape=image;verticalLabelPosition=bottom;labelBackgroundColor=default;verticalAlign=top;aspect=fixed;imageAspect=0;image=data:image/png,iVBORw0KGgoAAAANSUhEUgAABwgAAAFYCAYAAABHzahLAAAACXBIWXMAAC4jAAAuIwF4pT92AAAgAElEQVR42uzdS3YiR/r38V/X8Ry9E6aiB4xFr0DpFUh9WIBwbKDwCopaQVEbiEotgGO0AqdWYDRm0GjK5C9W4HeQkS5KpQsRec/8fs7RsbstEDwZGRkRT1z+9ffffwsAAAAAAAAAAABAP3wgBAAAAAAAAAAAAEB/kCAEAAAAAAAAAAAAeoQEIQAAAAAAAAAAANAjJAgBAAAAAAAAAACAHiFBCAAAAAAAAAAAAPQICUIAAAAAAAAAAACgR0gQAgAAAAAAAAAAAD1CghAAAAAAAAAAAADoERKEAAAAAAAAAAAAQI+QIAQAAAAAAAAAAAB6hAQhAAAAAAAAAAAA0CMkCAEAAAAAAAAAAIAeIUEIAAAAAAAAAAAA9AgJQgAAAAAAAAAAAKBHSBACAAAAAAAAAAAAPUKCEAAAAAAAAAAAAOgREoQAAAAAAAAAAABAj5AgBAAAAAAAAAAAAHqEBCEAAAAAAAAAAADQIyQIAQAAAAAAAAAAgB75hRCgifbT8UTS2bP/ezNcbZ+IDgAAAAAAAAAAQLh//f3330QBpdhPx5H71+NkX3T0KyNJ5wX9ufujf9+5H0naSHqStBuutjuuCgAAAAAAAAAA6DsShAi2n47PlCb/sgRg5P550eCP/ajvCcSd0gTibrjabriiAAAAAAAAAACgD0gQ4iRuy8/nP4OOfc0HuYShpERsaQoAAAAAAAAAADqIBCF+sp+OR0oTgJH752WPw5ElDTeSElYaAgAAAAAAAACAtiNBiCwhGB39nBOVVx2Uri5MRMIQAAAAAAAAAAC0EAnCntpPx9dKk4HXIiGYx0HSWmnCcM2WpAAAAAAAAAAAoOlIEPaEWyWYJQWviEhpHiTFYnUhAAAAAAAAAABoKBKEHXaUFJxJuiAilXtUurowJlkIAAAAAAAAAACaggRhx5AUbKwsWbgcrrY7wgEAAAAAAAAAAOpCgrAj9tPxTGlikO1Dm+9B0lKcWQgAAAAAAAAAAGpAgrDF9tPxRNJcaWJwQERa6VbpFqQJoQAAAAAAAAAAAFUgQdhCbrXgXGwh2iWPSlcVxqwqBAAAAAAAAAAAZSJB2BLubMGZ0sQgqwW766D0rMIFZxUCAAAAAAAAAIAykCBsuKNtRG+IRu/cSVqy/SgAAAAAAAAAACgSCcKG2k/HkaSFpEui0Xv3ShOFa0IBAAAAAAAAAADyIkHYMCQG8YZHpVuPxoQCAAAAAAAAAACEIkHYECQG4YFEIQAAAAAAAAAACEaCsGYkBpHDvdJEYUIoAAAAAAAAAADAqUgQ1mQ/HY8kxSIx+JpHSUtJXwjFu+4lzYer7YZQAAAAAAAAAACA93wgBNXaT8dn++k4lvQ/kRx8yUHS5+FqO5L0RDhOcinpr/10HLvEMwAAAAAAAAAAwKtIEFZoPx0vJO0k3RCNF91LmgxX24X739eExMuNpM1+Ol7sp+MzwgEAAAAAAAAAAF7CFqMV2E/H10q3yzwnGq/6Olxt58/i9iRpQGiCPCrddnRNKAAAAAAAAAAAwDEShCVy2z0uJV0RjTf9Nlxt4xdi9z9Ck9ud0kThjlAAAAAAAAAAAACJLUZL47YT3Yjk4Ht+f54cdEaEphBXSrcdnRMKAAAAAAAAAAAgSb8QgmLtp+OJpFjSBdF41+1wtV2+8t8iwlOYgaQv++l4Jmk2XG03hAQAAAAAAAAAgP5iBWGB3KrBv0Ry8BQPkljVVq0LSX+5cgoAAAAAAAAAAHqKFYQFYNVgkNlwtX0iDLX4tJ+Or8VqQgAAAAAAAAAAeokVhDmxajDIZxJTtctWE7KKEwAAAAAAAACAnmEFYaD9dDxSumrwkmh4eRyutgvC0Bhf3GrCa1Z0AgAAAAAAAADQD6wgDOASKhuRHAzBirXmuZS0c+UaAAAAAAAAAAB0HAlCT/vpeCnpD0kDouHtfrjark/8XVazVWsg6Q9XvgEAAAAAAAAAQIexxeiJ3Jaia3HWYB6xx+9yRmE9Pu6n40hSxJajAAAAAAAAAAB0EysIT3C0pSjJwXCPw9U29vj9HSGrzYXSLUcjQgEAAAAAAAAAQPeQIHzHfjpeiC1Fi+C1deVwtd1JOhC22gwk/bmfjjkzEgAAAAAAAACAjiFB+Ir9dHy2n47Xkj4RjUKsA16TELbafdlPxzFhAAAAAAAAAACgO0gQvsCdN5hIuiIahbhzKwJ9JYSuEW720/FmPx2fEQoAAAAAAAAAANqPBOEz++l4Is4bLFpS8etQvAtJG3d/AAAAAAAAAACAFiNBeGQ/Hc+UJqU4b7BYIduLarjabiQ9Er7GOJeUkCQEAAAAAAAAAKDdSBA6Ljn4TSQHi/YYuL1oZk0IG2Ug6S93vwAAAAAAAAAAgBYiQShpPx3HSpODKF6S8/UxIWykbyQJAQAAAAAAAABop94nCF1y8IaiUJpNnhezzWijfdtPx0vCAAAAAAAAAABAu/Q6QUhysBKbAt6DJFRzfXT3EQAAAAAAAAAAaIl//f3337370vvp+Ezp1pcXFIFyDVfbfxV0vf6PaDba7XC1nREGAAAAAAAAAACar3crCEkOVupQxJsMV9snSbcN+U4PXNYX3bCSEAAAAAAAAACAduhVgpDkYOU2Bb5X3IDv8yBpwWV9FUlCAAAAAAAAAABaoDcJQpKDtXgq6o2Gq20i6b7G7/IoKZI04rK+iSQhAAAAAAAAAAAN14sEIcnB2mwKfr+4pu9xkHTttjo947K+iyQhAAAAAAAAAAAN1pcVhIlIDrbecLWNla7kq9p8uNpmyc6IK3ESkoQAAAAAAAAAADRU5xOELklBcrA7lhX/vTuXmIQ/koQAAAAAAAAAADRQpxOELjlxw2WuTVLCe8ZKt/yswkHS7Nn/xxajfm720/GcMAAAAAAAAAAA0BydTRCSHOwmdw5gXNGfm7m/d4zVqP6+7KfjGWEAAAAAAAAAAKAZOpkgdMkIkoPdVcU2o/fD1XZNqAvzbT8dXxMGAAAAAAAAAADq17kEoUsOfuPS1m+42iYlve9O0l3JH3/GFSxcvJ+OJ4QBAAAAAAAAAIB6dSpB6JIPSy7rq35Tdef3la3M63zrkpAo1kBSsp+OR4QCAAAAAAAAAID6dCZB6JIOidIkBF62kxSpA0lCtzrxsaS3X1BUSjOQtN5Px2eEAgAAAAAAAACAenQiQeiSDWuRHHzP2XC13UiaSHoo+W/dV/B9ylhFyOrB8l1IigkDAAAAAAAAAAD16MoKwlhp0gFvm0j/nOEXqfwkYRXXvWiLd/77PcWoEFf76XhBGAAAAAAAAAAAqN4vbf8CLslwxaX0M1xtn/bTcaR029EyVl7uKvoOdwVe/3tWD1bq03463gxX2zWhAAAAAACgfNbaiSSfYz82xpgnIgcAQPe0OkG4n46vJX3iMoY5ShImKj5JuKvoa8QqLkEYn/A7NIoLvn776ThyW98CAAAAAIByLSVdevz+r0rHjQAAQMe0dovR/XQ8EueY+Zo8/z9cYmZewt+qJJHmVp8dCnirw3C1PaU8kcgq1kBpkvCMUAAAAAAAAAAAUI02n0G4VjlbY3bZi0kYlxi7LfhvbSouC1W9x45iVLgLpTMYAQAAAAAAAABABVqZINxPx0ulSQX42b3x3+YqZiVepsqtOKtMELKCsBw3++l4RhgAAAAAAAAAAChf684gdOcOfuTSBdm99h/ceYRzSd+K+ENVnik3XG3X++n4oPAVpQe3VelJ32s/HVOSyrHcT8cbziNEHtbaqGvfyRiTcGUBAAAAAAAAFKlVCULOHSzXcLWN3Squy5xvdajh468l3eR4rY/7AmKEnw3c/T0hFMjhz659IWvt8f981PfJHsnRP5+MMSTXAQAAAAAAAJykbSsIY3HuYNkWyj/AXscgdZ4EYRLw/UgQluNiPx0vh6vtnFAALzp3Pzqqhz5J/yQSH5QmEDeSElYfAgAAAAAAAHhJa84gdNtfkpTJ593E3XC1TZSukMtjV/UXO3WL0Ff4vjahKJXq4346jggDEORC0pXSpOGf1tq/rbUba+3SWntNeAAAAAAAAABILVlBuJ+OJ5K+cLlyezrx92LlS8buavp+d0oHxn08DFfbJ8/XJBSl0sX76XgScG0A/OzC/Xx0qwzvlE6MWBtjuMcAAAAAAACAHmrLCsKYS1WIk7b+HK62sfKdI5jU9P2SKl7jklb3FKdSnXPfA6W5kvRN0v9Za9fW2pm19oywAAAAAAAAAP3R+AThfjpeKF35gHwOnqux4hx/a1fTdwzZZjSp8G/Bz9V+OmZLRKDk+0xpsnDntiEdERIAAAAAAACg+xqdIHRbi37iMhVi4/n7cegfGq62uzq+oPu7jyXHJUOCsBrL/XTMyiagfANJHyX9z60qjAgJAAAAAAAA0F1NX0G45BIVJvH55eFqu5F/sk2qf+tNn+/5GJrMdK97oFiV7lzSgjAAlbqS9Ke1NmFFIQAAAAAAANBNvzT1g+2n47mkSy5RYUJWyq2Vrigp++8UaS3ppqLPulS6NR/K9XE/Ha+Hq21CKIBKXSpdUXgraW6MeSIkAAAAqIq19lrS5IX/tDPGxEQIAAAgn0YmCN2WggsuT6GSwNe0LUGYVPhZ1yJBWJXlKx1DAOW7kXRtrZ0zEAMAAICyWWsnrr99/sqv3CvHsSgAAABINXUF4VLpeUgoxsNwtQ1Z+ZEEvKbWBOFwtX3aT8cPki5K+n7P/9atTl+xiHAX++l4Plxt2XYYRbs3xkRN+1Bua8/R0f+Vfcbs/59U/JwcSPrmZnHPWE0IAACAEs31enIQAAAABWlcgnA/HUci4VK0JORFnsk2STq4swvrtjnxM+8K+Fsx5bUyi/10HAcmu4FWMcbsntVRL9bj1tpIabIw+7ko+aNdSdpZa6+NMQlXCgAAACWgjw0AAFCBDw38TKwQKl5S0WuTFn3fw3C13eX9Q+5cvAeKWCUG1A/Aj4wxiTFmaYyZGWMmkv6fpP9K+irpscR78U9r7ZwrAAAAgCK57UUBAABQgUYlCPfT8Uzlr37oneFqu87xcp8VgUlDvvKm4O/1HpJW1blxq4wBvMAY82SMWRtj5saYkaT/qLxk4RdrbUzUAQAAUKAzQgAAAFCNxiQI99PxmUi0lOEu5+tblyA8cZvTTYF/L5Z0oKhVZkEIgNMYYzZHycL/FvBMeO7GWhtbaxnIAQAAAAAAAFqkSSsI50q3LUOx8qwelMeZgo8NOX8wc//Of98V/PdIblfn0q02BuDBrSy8lvRvSbcFvvWNpIQkIQAAAAAAANAejUgQ7qfjkdIEIYq3LuA9TjljL2nY997k/O++lmIVYZUWhAAIY4zZGWNmKjZReCEmSgAAACC/iBAAAABUoykrCBdi9WAZ7oar7VMB77M74XfWDfvulSYIXZwZHK/OOasIgXyOEoW/6rSJIO+54UxCAAAAAAAAoB1qTxC61YM3XIpSFJW0ey+Zdhiutm1KEB4KSpw+xyrCai3d2aUAcjDGJMaYiaTPBbzdjbV2QVQBAAAAAACAZmvCCsIFl6EUBxWXINy989/jpn35d85D3JT0N1lFWK2B2JoYKIwxZqF0NWHeiQ6frLXXRBQAAAABmAQKAABQkVoThKweLNW6wFVyu3f+e9zQGDwEfp88WEVYrTmrCIHiGGMSSSPl33I0ttaOiCgAAAA8TQgBAABANepeQbjgEpQmLvC93lpxd//Oar067Tz//9xYRVg5VhECBTPGPEmKlC9JOFBzJ48AAAAAAAAAvVdbgpDVg6V6HK62SVFv9s5KxLjBcXgtcZmU/HdZRVgtVhECBTPGPLlzCW9zvM2ltZYEPgAAAAAAANBAda4gXBD+0pSxgu3+hf/vcbjaxg2Ow+6V//+pzD/KKsLKsYoQKIkxZqZ8KwkX1loS+AAAADjViBAAAABUo5YEIasHS7eu6O8sGh6H3Uv/ZxVbog5X24WkR4piZWaEAChNpPAk4UBMmAAAAMDpzgkBAABANepaQchqn/LcDVfbXQnvmzz7301fPSi9vMVolUm7BcWxuk7kfjqeEQageO5MwmuFb518Y60dEUkAAAAAAACgOSpPELqzwmaEvjRxRX+n8dfwlbMTdxX+/Vj5tuaDnwUhAMphjNnlrPe5PwEAAAAAAIAGqWMF4UzplmMo3mG42pa1vWhy9O/3w9U2aUlMnifodhX/fVbLVud8Px1HhAEohzFmLelr4MtZRQgAAIA3WWsnRAEAAKA6dSQISZiUp4qzBw9q1wrQ56sId1X+cZdIvadoVmZBCIDS77FH7k8AAACU4IwQAAAAVKfSBOF+Or4WB06XaVnWGx+tGFyUdMZhWTbv/O8qLCialbncT8cjwgCUw51HGDrR58Zay6APAAAAAAAA0ABVryBk9WB5HoerbdnJr/vhartsWVye3vnfpWMVYeWoZ4ASua1GQ+u0GREEAAAAAAAA6ldZgtCt6rkk5KUpfXvR4WobtTAuT8++Q1LT5yBpVZ0ZIQBKt+D+BAAAQMEiQgAAAFCdKlcQkiAp15oQvGjThA/hVneyirAag/10PCMMQHmMMUlgnXZhrZ0QQQAAAAAAAKBeVSYIZ4S7NIcaV8a1Sd0JugWXgPoG6JDQLaevCR0AAAAAAABQr0oShPvp+FrSgHCXJiEEr3p65d8rx1mElbp02xoDKIk7i/Ax4KUkCAEAAPCSM0IAAABQnapWEM4IdakSQvAyt7VnpgnbjcZclcqwrTFQvpDtrS+stQz+AAAA4Dm2ogcAAKhQ6QnC/XR8JumKUJeK8wdP81T3BxiutrHCVtzAH6uUgPLFga+LCB0AAAAAAABQnypWEDJIX67H4Wq7Iwwn2TTkc8Rcikqc76fjiDAA5THGbBQ26YF7EwAAAAAAAKhRFQlCtvkrV0II3vXg/rlryOeJuSSVmRECoHQhq9jZPgoAAADPjQgBAABAdUpNEO6n45GkC8JcKrYXfd+TJDVlpaX7HPdclkqwghkoXxLwmkvCBgAAgGfOCQEAAEB1yl5ByOB8+RJCcJKHhn2emEtSicF+OqYeAhr4HLLWsooQAAAAAAAAqAkJwnZ7GK62T4ThXRu5VYQNwsrP6lAPASUyxjwp7BzCEdEDAAAAAAAA6lFagnA/HZ+JLcTKRpLpNDulScLGcIndOy5NJUgQAuULqWNZQQgAAABJ7C4BAABQhzJXEDIoX76EEJwkVjOTqSR4qzHYT8d0NoFyhSQIzwgbAAAAaBsCAADUgwRhiw1X24QonBSnp4bGigRhdWaEACjVLuA1JO4BAAAAAACAmpSZIIwIb6nYnrLl3DajD0SiEkxYAMq1IwQAAAAAAABAe5SSINxPx5GkAeEtVUIIuI442fl+Oh4RBqA0TwGv4Z4EAABAJiIEAAAA1SprBSGrdcqXEIJOYJtROpxA6xljQs4gPCdyAAAAAAAAQD3KShBGhLZUh+FquyEM7cc5kpVi4gIAAAAAAAAAAJJ+KfoN99PxmaQLQluqhBB0ygP3TCUiQgCgz6y1z+vBjTHmicgAAIAGOCMEAAAA1fqlhPeMCGvpWD3YLYlIEFZhsJ+OJ6y+BdBV1tqJpInS8x0jpQNtF++8JvvXR0k718bYKU0eJkS18Gt05q7RxF2f7J9y/37KGd4P+n7u58b9+0bSLnC7X3Tj3o/cvT854d7P7ves7GwkJV2cMGCtHR3Vidm/nzKh9d79c+d+EneP7ShxrS4Px+Ug+/Gpf5+Xi417XlIuijEhBDjheTc6au9m9/Bl4P1L26k75eLsqP+T1SWnLmDJ2tZPR32hHX0hoBPtvax+OLU+yPpJveprkyBsJx5S3UKDtDoR8QZK8yjOFay64XumdPvkyP1zkOPtzt3P5dH7S9Kda3esGQAN7pxkP5Oc1yhz3LG5fPb3pHQA7Djpw3Xr7r2f3f+DwPtdkq6O3vfB3e9xWzvAz+rFKMdz6fLZPz+59390McrqRVZhN7csjJ7Vv0VMyLx8pe49ZHWuq3fprwPFt6MuS7p/s7ZTVq8zXtD85/xx3X5ZwNsePx+unpWNh6PnfsJzH2h0nRAV0N477ie99LzI6oRO9bX/9ffffxf6hvvpeCNWQ5VquNr+iyh0x346jiT9SSQqcTdcbTmLsNuNA9+H2r0xJiJyhcR+J8+BWGPMv1ry3ZJ3Op8PkhbGmHVFnyeSNJN0U3Eo7iXFYlD8rWsz0vfkxFVDPtajpLW7bglXyfuaLuSSQ684SFoaYxYVfJaZK19XFZWbpdJk4VPDr1GWFJzX0A+9c/dWzN3SiLJwnDivc9LS4ajeXXNlCmtv0YavJ9aS9GtVbYij+zjv5Le8929Mu6kx5XVyVCbqHm++O6rfn3p+XbzGXtrS9294v4NnoX6aLFl3n7v1EyylclYQkhws1z0h6Jbhapvsp2MCUQ06kUB5+rx68ELSH9baf5c5g8wlBxY1xvrS/SyttUulSZHeJwprTk6cem9+lPTRrXKJ296BaZiBpE/WWpWRJHTla650UsB5xeXmi6SFtbaSBGhAbEauTqxrEFluUOIqqxOpF2spBxN3j9RZDl6qF24k3RzVu0tWdL9rRAh6ex+Pjp51gwbdv4/uOcPkuHrKRNa+blI/88r9fLPW3rm6PeGKAb1t8124n49uN5asr92qZ0ahCUK3EgrlYjCnmw4Nqty6jHMIAZRp5gYRim4IR0oHnpuSfBoondk4t9bO+ro6oiHJiZBr9/GoA7Nk5VMz7/+jxOC85vKVJUBnkmZNGAQ7uvduGnZvZfUiicJqysFMzZ2Y8Vq9e690x4GEK/gitqrv330cufr8ssFl8pvc5LgmTpbpaJmYNewZ/5psktCjq9tpUwP9fFZkLvR9guXa1Qu7NsS46BWEEcW2dCQ2untdLwlDJSbcRwBKUmg7yCUIYjVnq8rnejmxxXVQ5g2+Lj4dmG9uK5uFmB2f13mBZexa6aSA84Z9vz+ttV+NMfOa7r0zV1Y/NrgcMIGi/HIwU72r6fO4dPcRicLv13Mi6SzgpWfuedxET6zSP6kttVB7xkCOJ8vMqdspEy+0kf5pU5MoBHpfLxyvRL9VCxKFRScIJxTf0tHQ7KadSBBWhXoKKL7hdkYUCo/ptdLkYNOTcJseXZORuyZde15ns+MX1loGNXLWhXmSrC2YFCClq6AiSVGVCeUW1YnHAwN/uO3HZiTfCykDM7U3Mfhclii8U5ps2HXg+hwn+s6e9bme/7ciVn1eSPqzoeG4F5Pn32pLLdXeSVbn1O2Fl4lI7U0MvtimttbOXd2ecIWBzvaJTpUlCr8qTRQ28rlBgrBl2Bqxs3aEoDLUU0Az7ivO1H29QbxUs1fIZA59OE+pJauWinA8+3nGoEZwXZgElrM2JcAuJG2stddlr5LpwADBlaSdtTZiRVFwGYjUrG22iy4fkZucsWzRNZlIWostQeFXbhaqf9vsouv2a9pLuZ7vS7VjK9GQdtKfbuXQnEQy0Nk+kY+PkmZN3WHkQ1FvtJ+Oz2gglu6BEAC5sVITKB4rCAvqKLu96tuSiNr04JpcK53E87FHRTHbSjJmdXBl5Wwp6Y+WdYTPJSUuUVBWXLJt4ds+e3gg6S+3Ag5+z8Sl0lViFx3+qgNJX6y1iVtd1ZZ2H2M/OLkut9ZulG6/POjYvfunWy0GvzIxd+3rm45/1Ru5SUJcdeCkdl/cwj6R73PjD2vtumn97CJXELIqp3w7QsC1RX776XjCalygUCFtgC7We8GNPNdATNSuQdCkyx0UVbtq6UFSNrt4c/Tvz++zs6N/L7vjdCPpmtnxpZezIu/7+3fq6aLLzEBS7FbHPRUcmzJmDx/09sSGsu+rb9ZasY3vSdc/cte/rCTUg2uHbNw/szbJi2fHPds+M9L3LTSLnHh4qXRlLmdXokv38kJpYrDsttNb91XZvlhrJ8aYGVf8pHbPusTr8ujq88SVjX/q85fasm5SxuhZOzsquD2QJZI/G2MWlALgxbph5OqGMsZCDi+0917qbz/fHj1r75XxmbJV6I1p8xWZIIwo0qUjodFdO0JQqQn3E1D4PUW9F9h4bGlysLPtkpK3TntwcfvnJ+eZdROlAxsTFT+gIX0f1PhqjGGG/PvOKixnd64MJT7lyCVeRq68XBdQXi7cZ5gUeA/OlJ6Lmcej+1yJpJ1Pkttdm8nRfVVk3UyS8P34L1R8QuHu6F5JfF/8LGmYvFBeIkmzAspKNrP89zZtOQq80rYtKhGUu+109Owro16X0vOlRJLwzWtQxsSfB1fOkpBy4Y5K2L1Stx+3laICPvcn97zg7Erg53ZUUmDdcDiqFxLPI1HW7/QNiuo/Hbf5GjF5oMgE4YhiXToSGgD1FdBEIQPDPNNUanLwcEKM8yaTNh28HnNJXwq+DlkHZV30gIAbtN4cd2bcINi1+ykqyfnRvW/EoMa799T6hHIW2hG+kxTnmWl6lByJj8rLTPm2+bqw1sZFDIzmTA4+uu+1znPe39F9lX2mkbufZgXV1SQJX38eFrmy5NaVhVJnZh+Vl+VRWZnnrH9ZkYQ238uRu5dD25iFt52eTwxw9U3WVipqtwiShK+XiYWKm/jxcPSs35VYt+/c34mP2id5y8uV0u3ZaU8DKjQ5mD034jJ2vjlq62X1wfXRM6QTkwdIELYLDxCgGBEhAApr1I0UNgi2I3aFJQcf9ONKmY3n53i+Cu2UwdlDmZ3ymq5HrOLOQrl3HZS46u/hOkWJpHnW2XA/RawU27gtR0nwV9cRPkhauvK0K6u8uOR49hNSVm6stbmSMTmSg/eSFmVthevivlSaAIokLZQ/ifXNWvvEVpI/3BdxAc/Dx6P7pfK+c8FlpcnJho2rmwaUXjy7l/NMtMo9CcbjXn1ydU523nKe59/z+3bDCuAf+jrLAtrX2eD/oq7+h2vTx67vu8jxnS5cu2tGexq0/XInB2tp97nn1Np9j2wSYasnDxSZILykeFfSEGQ70ZQAACAASURBVAeQ34gQAIWJAhtVPNPy7bN/516fe2Z14Cq0pEOdkyLPG7xVjYMXr1zbuZu5fa10QCPPqpbzo84L93C5HeEsMbisoqPo/sbCJcqXgfdDbK0dhXxeV+f4JgdLTQy+EqdEUuQ+71L5Elox91KhA0SLJq3KfFZWFgobL2lkktAY82StXau4STXoxr0cB5SJg2uDLWtM/GTPv6WKSRR+cUnCpOfloYiJkJW2hU4sLztJM9e2XgTWg1mScNK1CZdARW2/g2v3LRtQJ6wlrQuaPBC7PnvlCkkQ7qfjM4p3+YarLSsIgWKcEwKgMFHAa+5pFNtY/oOFpa4ketbQTfTjKrTs/I2sMT/ryHUoahXnnaR5Uzv5z2bKz13nJbRDNhBJwtecFdQRrq08ub957VbzLT3LycC9ZuZ5H560NeuzunBW5+o7V0dOcm6bNnD35aSvN0yXBojeKStR4D0lNXcl4Vzp5KKZ2neGMopvS/luD9zExE8RE2Uy69AJM7Sv/3Hr2kKNjOFRonCpsBXwA1dO2G4Ufawf4hxtv0bWDQVNHljU9fmLWkE4oYiX7kAIgOLsp+NouNomRALILWSGU6/vPTdI6NNgrHUQ5fl5XB3rnCTKN3jxqDRR0ZoybYxZusGvhaSPgW9DktCjT+SRBKk98XVUTmJr7Ub+yZsbdx5h4nEf+gwS3KnmMzqexWnhVlL5xilzYa1dGGMWfbtZCkgONqosnHhPrRW2Yr1xSUIX96X7KaI8RJL+9HjJvTEm4rHTyrZUo3ZbeKFs75ROlMmzXepAadI0okx4e3B1eyval+5zhk4YuhBnEqJ/QnfgaEw/6YRnyOyov33q5JmvddZ7Hwp6nxHlu3QMvgDFYuUzkL8DGHooc9LhmExO+O8+g2l3kibGmAUdx8Ll2eJVkj4bY0Zt3ELKGPNkjJlL+lVpkjNEliRkouDb93w2UPZeXXkvadSkTq/rpEZKB+t8LEoaJPjdGHPdwBnDG6XJ4YfAt/jUt/soZ3LwIOm/TSwLJ9a915J+D3j5jZtgBDTt+XZqHf4o6VdjzKwN2yq6lcn/Ufhk/cu+3bMFJAc/G2MmbZx85ib6hJSXbFtBoA91xLXCVtY9KB0TWbeoTkjcRKbfT6gXHlXj6kGJBCGA/mJAE8gvpNN76PiZHO9NPoh1+vlj2QDojqJWeOckVvj52QelA1yLtsch2yZR6Wz+EFmSkL7Ay+Xs1OTgV2NMI2ePu0G6mfwGvC7daqCiBgmy+rDJ20juFJZMzSx7dF/kSQ62boDolfISmnj4xqQMNOz5dmoiqJWTqo4myoQmCZcuVn0ROvmuE21rV15GAW2BK7cCEej6cyMObPtFbR0TcW2+kd4+Zqf2HTFIEALNQEeveqwgBPI18EYKO5tj3eOYnbpSJmsErylppVyHhcIPD39Qusor6Uo83IqWmcJWtEjfz1Dhufpz2yI+4Z7/za3mbHIZyQZIfSwKGiQ4tKU+dB37SGEDyb1YaZLz3JlbtXiA6I37yre8UN+iCfdxcmKbNls1uOjhvZq1keY9KRexwibfZf2eTrStj9oCvknCT6dMrgJaLOQc5qx+eGp7veBWE/72wrPktgn1HwlCoBno5FWPpCyQT2hnN+ljsNyM/1POe7t3jWC2Fi/nOlzL/3yQzF0XOihvdFyWr3RaTnGhHq2AeicOWVlb6O1JFNmquLgl5WMjvyTy5TsrnRY67UzGVtWHOZOEix7cI7HCVpfcum0JO1X/BiYezsV2dKivHeWTHMy2yU86cq/OAl/+qes7LQScr5556GK/J0eSMGYCCDpaR4wC6ohOJAef1Q2xMeZM6TEfv0n6T1POly4qQUgFBgBAvwYHQhoyh7YMhpfglO9929RtBjvUMQktf7dtPO8qpNOi8OTGjbV2TkmT3AzwtxLRrVkV96x8LJUO+J5q/sa9eMqEiXlLzyHaKGwSzXmXVxGekDR/q/7tbFwCk4RXbsILULVTt5D8vWvtJvfM/hz48kWH6/aJpG8BL+3c4P+z8hKSJDxXPyYLoX98y/VBDdh2s8T6IXHJwsb0c4pKEF5Q1oFcIkJQuUtCAASbK2x7sF5umemSJu+1lTo9ANoQcWC57dW1CdxO8p/OX9/Px3ITKNbvdHjbPFt+rtMTGdevzIQ/ZZDgc5snlLjPfhdyD3X0vpgobPV2L+pfVx/4JvyWrDRBxfdxfEIfuvFnxua8VxcKO2v2pov36wltntd0Ojl4VF6yJOGjx8s+stUoOlZPjOS/enDBjkrV+kAIWoNkBgCgKQ280FVCfdiC8OyFjvPihE4yK6/KLbeLwLbUQx8Tt65D9lvASwdi67u1Xk9Etz05KHf+29KjPFwHDBLct/m8qiM+ydTMedcGBnMMIPdtckYiv218z2k7oOL67L26u5Wr4wPMcsSwaxauLvLxqB4kB4/q9icFTAChykGP68z7rk4yabLcCcL9dDwijEBuJIBrQP0FBAk5XDpr6PVhFtjEM169mEFbpxxJ7Qf1eIW/WwH1e8BLL1xCljbdz+YdqQeX8lhF+Ox/v1c2DgoffG3aPbRT2CDfrGP3xEL+A8i9nDjjBsTuPV7S+bPN0BhXJ9yzkz609d13DNlqtFN1u5vM8tHzZQdJ133r9wSc43zR5S3H0Tu+ZXlByKpXxApCGqQV2U/HE6LQyevKPVQfYg/4dwSvAl8e9zBeI70927rTe+s3SCz/pDbXRkFnzmXmDFr/5LeunMHq7otTE19XR3Ximd6fRb9wibWu8EmmZjqzFZ3bWpQBZD/XnmVmQfWKmmWT3XY9+s4hdft5x84ODWnTzPu6bWDABBDqdnSlHegzSeze7aiAirHFaLtwxkA3jQgBgBY07kK3CJOkx64MjHt6r2M3Y2/90svttcJW6c+5Nt/LqfzOTpHShCxbw3x328E68OTB0aMB0ZneWVHdtS2FPJOpx647VE6865yeJRpeKjM+qydvmJCBGvVyJ4y+1+1upwjfleFfe9offN6mPjWxfM4qQnSkzPtYELJ6kCBsl4gQcF1RKJLuwOlihW0tKvVwm7ATVg9+7cEZLU0QMnhzxwDGd24QbBbw0quunaUWqJPnWLpycWodFp04SNDVZ0UvB5HdwKbvBA2ejfpni2dWmqDxzzf1e5v8kFWEXajbzwKe14/UU0Fbj1O3o+18+oKPrB6sz4eKLzbyYYtRriuIPVBHR3Cu8K1F73s62Legk1x7uV3If3ZzZ84/K5LrrH0t+D7og4O6sxLsJacOckVu0sTFO8+KpKP3z5OkW8+XXXVgm1Hf+59nY3j8OrMtLVr1fOv1GdqeE2Uygw5sMxpyHj1HKvwYP1YRoi8uPH6XydM1YgVhu5DM6KaIEABoKteJ/ZLjLRY9jNlIb68epJNc/jUImd0spVuLcm1ev5d9txq97Pkqwk5vlei24T2lTFzo/cR717ekDRn0aO294wY0fSdoUP/+eH8l8ltFOCdqqEjvk4M5n11trtvf6+O85JZVQT/U7b7bSM+IGlpaX/jWddQTNSJB2C7n++l4RBi6w13PAZEA0NBG3URhB9BnvvawQzh6pyP3lU5yJWYBz9d7thZ9nRvQWAS8dNHTkPVlq8RTv+OnN/7bY9dj5b6f71Z0UYu/su99f8/WornjOCNcqMg15zT/U7efOlGmr3X7QUxeeKncxB5tgkvXJwfaZuT5+zxXakSCsH0iQsD1BICyuY5IovBJDH3dKmz0Rkf4ILZPq0rIYATX5h0B52JJ/VxF2Kf6LyngPZY9iZVvAqyV903g6kHq35fr3ETpOW+nOO/A1oVovt+Y6Ja7br9o45bAgasHl6w0LaTtMyNcaKGRZ5tnR8jqQ4KwfWj0cz0BoOwOYN7koNTfbTQv34gb26dVU35n8h+cvmfA62SLgNf0bfZ4n+q/Iu6bNbF60UVLv6dvHcH2c2/zGUSmb4ky3bLTwotCYhK1sW3j+fsH9WcCUNnlZka40HGPhKBeJAjbJyIEXE8Qf6AsBSUH2UbzhUYvgyqVYfVgiQLOxZKkKzfzvA96lWx2idCHHG/x0KMZw96J0LatvnWfl9WDxd5jsU7fio4EIcryYIyZEYYX79GN/LeQbuOWkb7ta1YPvl1udpLuTvz1ASvE0XE7QlAvEoTtM9hPxzwYOmA/HUfi/EEADeJWXv2Vs256MMZw1sTPZoSgkjI8kf+qG1YP+ou5B3AkqbgstZIbKPWdId22QWTf+/yeLaVOcmpymUFklIW2fbHPwaiFfUSf/iGrB4tvA1G3o20iQtAeRSQIOSy1ejwYuI4AUHTHL5b0LefbHGgIvogEVHVmJXfOoX9WtDxWcG3QDpscr02IVTf62u5MLd/zqRbcPifxWX1KHxNoft0+6nj7es3qwZPa02udvvqUPja6XC9eEq56FZEgPCOMlbvZT8fEvf3ovAGonbV2Yq3dyH9Q77mDpIjO4IsWhKAyM8/fZ+vXcL5xO2dlS2ftQp8bbmu2PunyILLv/f3I5JnTMIgMNJ5vXXbeli/mtoj3Hbyn71N82Tl3O6UAbcG4UIuwxWh7zQhBe+2n40mbGoUAuslau1C6pehFAW933cOB3lMwAFpdeb6W//a4ayIXLA6pJwhb9+So4/pYN/p+5zYNBnqfT8XdU0rZOe/Rma9AU3j3gVp0xqxv2+2BraNL64tEhAsd7suTAK9REQlCBgPb0QED1w8A/umQWmt3kj4V9Ja/kQR71YIQVCYk+cQAdSA3+HNXwTVCd/WxH+k7m7oV55W7hJTvZCMmaPjxaWdFhAuotE30pNNX+bbNjLY1dTtQAcp3jYpIELJktB7n++l4Rhjax20PywAZgMq5xGAi6U8Vt4r5N7ZofBXbV1aLGc7V8x3gH7DNaGfdB7ymdwnCkJX2LVkNFlH/li4p8XoAyK9zZ8wy+aOSdsFOp5/rTd2OrrZbQvryKBBbjLbbjBC09roNCAOACjt3x4nBog6APkj6lQTYm4hNdWV8EvBs5frkFzIIFBE2OEw0Pc2oBZ/Rd1CH+teTZ3KZbbqA5j/TzjpYt99zHn2QU+v3AVtIo0V2nr9/SfmuDwnCdrvcT8cRYWgdthcFUDpr7Zm1du62Ei0yMSilycGIbUXfFROCyoTMOKT85uQGgR4quFbo3iCAevwMue/gd7ry/H1WmJRbdi4IFVC5Lq6Kj6jbG1d2RoQLLekn7uS/9fKCyNWDBGH7cfO0iNsW9pxI0IgHyuCSgjNr7VrS/0n6UkKd8yBpFLJNWs/csX1apSLP33+kDBfGdzDonNmhnUR9V55G3y/W2pD6l/JSct/FrawH0J22axs+IwnCMEnHyg0QUrYl6SagXYkC/EIIWu9yPx3PhqttTChaYUEIGoXtL9B6bgAocj9XJf+5r8YYVkGfhudyxe2hkjsreDuWnzxfE3GP9N4jITjZqOGfL/L8fQaQw+08yw0TYYDqdGpsIWD7fiZ/VFe3A22xlv8YVWytnbBdcbVIEHbDQgyyNB6rBwEU1FEbKT1bJnL/rOJM04OkmTGGQb0T40WsKr0vooCXJUSuGMaYxFrr+zJWtmDX8+9+2aHv41sHU/+G8z2HkLYI0Mz7k7odx23pnUdbekTE0CJrSd88X3MuKbHWRiQJq1NEgpCLVb/z/XS8GK62C0LRTPvp+EztWT34IM6tQH+cNWgLg4l+Pqw+Ovpvg5o+153S5CDP+9PFhKBSIfdwQtgKdS+/hEdEyNBju459H99kJ6vaKmrjEgIAFbavqdvzedRpCwqYZIfWMMY8WWtvJd14vvRC0tJaO2ccqhpFJAj79BC4lzRzFXLVqzfeM99Px/Fwtd1RrBtprmauHrx39/BO0ma42ib76fha0h9cMvTEhaQ/CcOrnZSZMSYhFN6YsV8t344yWyAVL5FfkoCJSN1D572HAs65o/7NwXPFNoPIAKpsX5MgzGen08YMB4QKLRPLP0Eo95oJKwmrwRajnlwCbqejwb/9dJwlDLOfOraMGUhaSrrmKjWLWz3YhDO7smTgRmky8LUGXJ/K0I4SCvzkIGlpjFkQCrQEAxj1846p6+wlhK6/ZQC9rH9pewNAw1lrz+Q5wZ02XaXXZ8RkG7SFm9x0J/+zCKV0UmlirZ0ZY+hrlIgEYQEdIJdo+aGguqRhpO9JwypmSl/tp+Pr4WrLyoVmWaraWT4HVx4T98/dG8nAl5AgBPrp4OqrJTO00KIOsvcAhkhklCEkphOx1SvQdiPP3+eerw4rCAFUVX88ELJC2tKnLjYZibEstMtcaY4kZGw8SxIujDFLQlkOthj1M9hPx7Phahu/94uvJA0j/Zg0LGPLyXg/HY+Gqy2Duw2wn45HCltKfarnycBNnm1m99PxTGxZAPQNiUG0WcgAaELYimWM2Xlse5cZETmg9SLGDip36pmv9OkAVNW+3hGy3OiHo+t9xYWkL4FvMZD0xVp7LWnOasLi5U4QDlfbp/103KeYXSvdPzckVomOBqXc1pPZSsNIxZxnOHCfj61GmyEu8L0e9X2L0ETpysBdCeWbRhjQDw9Kk4IxoUCLhSQId4StFKcOWue5dgCa5Yy2NwD0vm5nsB7Am4wxS2ttpLCtRjOXkv6y1t5KWrDVbnHYYtTflVuhl7sQulV+iX5MGo70PWkYep7h1akrHVEet2I09DzK58nATdmrQl3Zu+rTNfLcehXogoPSiQsxs67QEb4DGKIjUZqdZ7tnRMiA1vM6RoMzqgCgFaKANiCqwzb9aKuZK7t5j2G7kXRDorA4RSUIfWcMd6FAL8p4Y5d43En65xxBd55h9hOdeCMt99NxUsIKM5zu1DLyoO/JwI1baVpXuQbQPY+uEbY2xnBGLbrYQfbBGSnl8W1znhMyoL3cGbC+r0mIXHXPPWvtGdvHA6jA3Fo7Iwy5jDx+94xwoY2MMU+urkhUzFboWaLwTunuWLQzA7GCMPDhp5IShC954zzD46Th80GWgdIkI9s31cCd5fdS0vxe6QBa3cnA18p1nzxSUtFR2dmka0kJKwXRcWxv1xw73xdYa0fM+ARaK6SfeUnYKr9GCWEAUHL9fkHIAJzCGLNxW40mKu685CtJV9baR33fMYs+poeiEoS7njX2B3Vv4fnOeYZZ4vBiPx0vh6vtnKJeuYXSZODxysDGDtK7hGbfDrLnYYGuOJ54QEIQfeM7gMH90azn6ojnMQAAQKMMCAGAspSUJJTSxVOfJH2y1j4oTRauSRa+r8gEYd8sXEFrhHfOM0T112PUso/cxyQyq0jQBo9Hz9id+3lSmuTY0dABvDsU1P08VwEUg34mAAAAvLkk4UjFnEn4kgtJXyR9IVn4PhKE4c7rXkX4nqPzDIFXue1q+7glBKtIIEn3xpiIMAC9QRKr3E6e78sisf0d0FacgdR8jAUA8OJW9QBAFf3HJ0kTa+1S0scS/9RxsvBR6XE8MbtvffeBhmcuC4oQKMetxSAxALRY4AAGnQAAQC8wSx4AOikhBOhYe2Uu6VelO2iV7VxpMvIva+3OWru01l73/RoUlSDs62DLuTu7DWglt3rwsqdfn0FiAAAAAF10TwgAoJMYy0LnGGMSpdvXf63wz2bJwj+stU/W2thaO7PW9m6XjEIShO78u75acBuD8ttKOy4/AACFevD8fbYoBIDiPaqfZ8wDQJcdJP3mtmUEOscY8+RWE/5H1U90Gki6kfRN0v9Za9d9Shb+UuB73aufK5EafxYh8JKerx7MzugEAPQLHepmxXdCyIDWGnn+/q0k+swV1MOcqQOgQg9iQkIl3AoroA9lfSMpckeKLFTP2PWV+/lmrb1Tem7huqsJ+iIThDv1N9mw3E/H656vpET7LHreiAUA9LOzAQDIb+T5+zsGNwGgc56o2wGU1HdPlCYKJ0onItzU9FGOk4W3ShOF6y7F+kOB77XrcZkdiBkzaBF3duZlj0OwoxQAQOtFhAAAAAAAgG4yxmyMMTNJ/0/S76p30ceN0jMLd9bapbV21IUYF5kgTHpeXj/tp+MRty2abj8dn4mzM1lBAgAAAAAAAAAN584oXBpjJkrPKfyq9NzlOpxL+ijpf9baxFo7a3NsWUFYrJgQoAXmriLrMxKEAAAAQDiO1wAAAEDl3KrCuTFmJOm/Ss+6PtT0cS6Vbj+6a2uisLAE4XC13dV4IZri0m3dCDSSW+X6iUiQIAQAAABoTwMAAKCtjDFrY8zMGHOmepOF52ppovBDwe9HJ0Faui0cgSaKCYEObkIDAAAAAAAAAKDlniULf1U925AeJwqjNsSt6ARhQlHUQCRh0ED76XiudNlz3zGRAQAAAAAAAAA6yBiTHG1D+h9Jv0t6qPAjnEv601q7ttY2ejEZKwjLcbWfjq8JA5rCbS26IBKSmMgAANTnAAAAAPKaEAIATefOLFwaYyaS/i3pN0l3Ff35K0mNXk1IgrA8sUvKAI0oj0pXt4J6CgB6y1rLIAYA1CMiBADQeE+ev884E4BWMcbsjDGxMeZa0v/T92RhmecWDpSuJlw0MSaFJgjduV6PFLV/LnxMGFA3thb9CQlCAOgvzoluVnwTQga01o4QAEC3GGMYLwHQpzrvKUsWunML/yvpVuUlCz81ccvRDyW8Jw+T7y730/GCMKAu++l4IukLkfjHo5vIAAAAindBCIDeoE0NAFDTz9YCgFMZY9bGmNlRsrCMbUivJCVNqjvLSBAmFKcffNpPxxFhQNX20/GZWMVK/QQAAADUjy2eAYD6HQBawSULs21IP6vYXTMv1KAkIQnCaqxdsgao0lLM5Kd+AoDuNthD6nQGMJrliRAArbXz/H3OqQKAdrgnBACQctuQLowxI6XnFRaVKLxQQxb2FJ4gHK62G5V7qGMbDSStCQOq4s4dvCESP0kIAQD0GhO2SmKtDUm+cjQB0FLGmF1APTEicgDQOUzAA9CX9m9ccKLwylq7rPt7fSjpfROKzE84jxCVcFvacu7gzzh/EAC6x3dSGgnC8hBbgDr4PSNCBgCN5zuBizYggF45ShR+Vv6Fch+ttVGd36esBCGr5V72aT8dXxMGlGU/HU+4/16VEAIA6BzfAQxmOJdnVMH1A9DuOnhEyACg8Xy3gI8IGYA+MsYslI4x5N2aeV3neYSsIKxe7JI4QKHcOZexON+DegkA+sN3AIMZzuUZBXSoOIMQaLdd2fUEAKByrCAEgNP7tDtjTCTp9xxvM5C0qOs7lJIgdNv4PVJEXr3ga5fMAQrhylOi9IBTvIyVlQDQPb4DGDwnyzPy/P0HQga03s7z9yNCBgCdq9tpXwPoPWPMUtKvCt9y9GNd53V/KPG9GYx/3TnxQcGWNMre9DBcbVmlAADds/N9QV2N7h7wjSvPZaD9kpLrCQBAxYwx3lvAW2vZKQ0A9acxidIJcaFJwkUdn5sEYX0u99NxTBiQlytHN0SC+ggAemgX8BoGMEpq23r+fkLIgN7Vwed1nq8CADiZ704PtK8BQP9MsogUliS8qaOtXFqCcLjaJgrPlvbFzX46XhIGhCI5eDIShADQzcZ3EvAyBjAKFrgqc0fkgNbXwbuAPj91MAA0n+8qQup2APjeRt5ImgW+fFb15/2l5Pdfi+TFez7up+NrFyuSGPBpfM3EtqKneByuthvCAADdreeVbt/u8wxF8e0SXzybgW7YyG8FcSRWEANAG+p2n/HciJABwHfGmLW19rOkT54vjZQeJVYZEoTNcC7po/sBUHw9BADoro1IENbNO6Yh59sAaKRE/glCAEDz29c+Lqy1Z8YYzpgGgO993oW1dia/8Yqrqj9nmWcQarjaMjAPoG4xIQCATks8f/88cEtMvC7y/P17QgZ0hu8g8iUhA4BmC9zGPyJyAPCThe8LrLWV1qcfKvgbt5QDADVhe1EA6L6Qej4ibIW6rOCaAWimxPcF1tprwgYAjec7oYv2NQA8Y4yJlR6L4qPSXY+qSBCyihBAXah/AKD7De4k4GURkStG4OzGhMgBnamDnyQ9UAcDQOf4tteY/IGi+wxAV/ieKXhW5YcrPUHothk9UA4A1CAmBADQC8xwrk9ILBPCBnSK76Q8BpEBoHt1+7m1lrO++4OxfqC8/m/nVhCGPFQAIC+2FwWA/mAAoz6+A/0PbsURAOpgAEBDGWM28k8CRUSuNxhvA/zqUx/dWkHoxBQFABWj3gGA/kgCXsMKlpystSNJF54vY+Ig0DGBg8gzIgcAjefbbpsTMrwiIgToufumfrBKEoTD1TaR/2GMAJBHTAgAoB/c4LRvW5MEYX4hMSRBCHQT24wCAHU7K8T7gx1BgI7cMx8q/Fsx5QBARe6Hq+2OMABAr/gOYFwwgJHbzPP3HwO2VwHQzTr43FpLkhAAGswYs5b/CnFWEfaDb5s+ImTgnmkmEoQAuoj6BgCo+08xI2xh2F4UwDE3iOy7kps6GACaz3uFuLX2jLB1nu9qKMoE0FCVJQjdap47Qg6gZIfhahsTBgDol8BtRmdELlhI7Hg+A93mO4h85SYbAACay7f9NhDbSPeB72qoC0IGNNOHiv8egwIAqGcAAE15BgystTPCFsR3+yi2FwW6bxnwmgVhA4DmMsYk8p+ER93efTvfF1hrI8KGHjsr8/7Ko9IE4XC1Ddl2BAB8LAkBAPRWHPAazknx79zPlM4O5/kM4B/GmJ2ke8+XsRUdADSfbzvunEl4vXjm++L8d/SZT/nfVfnBfqnpofKFMvGDx6ovPDpTsQwIww/u3HbGAICedlSttXeSrjxedmGtjdzsaJxmEfCamLABvbCUdOnx+wOlEzUWhA4AGit29bTPGNSC9l/n3Xs+8yMxafC9+ACS/xmfudSRIAx5qHT+QTtcbekQwct+Ok48H8R9QEMDALCUX4JQrm1Kh+wEbjb4uefLbo0xT0QP6D5jzNpa++hZT3yy1saBqxEAAOXX7U/W2rWkG4+XnVtrZ8aYmAh21kb+CUK83MfypvHPRgAAGP5JREFUnWCF9rn0vLcqU/UZhBqutk/yP7wcAN7zMFxtE8IAAP0WeE7KpbX2muidZFHRawBQTwAAWl63s410pyWevz+gz/UzNwHzI5Ho9DUeeb6k2wlCGv8ASsLqQQBAnrYmz5H3OzZzha0e3BE9oD/cahHfiRo31tqI6AFAY+v2naRbz5edi/O+uywJeA0Jwh/7VxP6ob3g08Z9rHr3nVoShO6MsFvKBoCCPA5X25gwAACk4MHpc2vtgui92nk9E4lXAKcLqS9ozwNA9+r2Ty4Jgu71uZ4kPXi+jATh9/7VRGmSlWPYui/y+N2k6g/3ocbA0PgHUBQGHwEAzy0CXjMP2P6jL+KAzuutMWZD6ID+YaIGAHSybt9J+hrYjkQ3JZ6/P3Bbavaam3wZ0r9CO12XeE/lVluC0J0Vdk/5AJDTgcYmAOA5Nzjt29Yc8Ex5sQN7Lekq4KULogf0Wsi2cp/YahQnuCQEQG0WSsdhfFxYa5nY3U0hfadZz/tWZ0qTQBcUn970pX0SwUnVn/FDzTFi0ABAXsvhavtEGAAABbU1L1nB8kOHZhTY8f/K2YNAvxlj1gqbFLx2g2cAgObV7U+BbeyPbqAc3SoPG/nvGHDZ18lAJAd7aebxuw919KFrTRCyihBATgexvSgA4PUOa6KwbZBYwfLdWv5b3xzEREAAqVnAawaqYfY0arXzfQFnmgG1trGX8j97TpJi7t3O9hd89a6vQHKwf9xkW5+deGoZ4/7QgFgxeAAgFKsHAQCntDUPAa9b930Aw1obB3ZgZ252OYCec7OgPwe89MLVQXi5fo7cz6hD5cTXiJIA1GoW8JqBWCX+Vt0+cXV72/ogIUmNyz6tKPVIDh64Ezpl4fG7B4Ul23OrPUHIKkIAgVg9CAB4l0tUzQJeOlA6y7mXAxjW2rmkm4CX3rltBQEgq4cXCltpckOS8Ke6ObLW7iT96X7+Z62d9TQcESUCqLVu3yhsAsi5pIQk4Q91+8ham0j6y9Xtf7n/3ZaysFPY2P6yD+XAJXx3ej85+FXShjuiO202z/70uq5Jth8aErMFxQaApzmrBwEAJ3Za1wrbavRCPRzAcIPNXwJeelBYMhZA910rbFY8ScK0Xj6z1i6VDhyfP/vP3zqyCsN3cDnitgJqb2MvFDYBpJdt7Dfa3RtJl8/+02XLnn+LgNecq+M5Afd8TvT+kQ13xph5B7//yFo7s9Yuerg7z7KCe6gQjUgQulWEdzxaAZzocbjaxoQBAODZ4GYA4/1O3EzSt8CXX7O1KICXuNUFoQNfvU4SugG1RNLHN36tC+d6+T4/LrqyxSrQcqETQHqdJHQTP9au3T144/k3a8lzPpH0GPDSj13datTtyPKH3k8OPuj7JMtNh75/LOl/rox/klsZ24dnt7V2Ib+jOm4Dt1svxIcGxW4uADjNghAAADw7rdlWo3kGMDo969GtTglNDn52AwMA8Fo9HCtsNbeUDpKue7iie6F0y7n3Bpm6sC12yKDojDsLqL1u3ylNEoa4kLTp28oilxDbSbo64de/ua0K22AR+Lq4S2XgKPl7yo4sD5Kio0mWTx2JwWvHVVy6ez7q+P39qaJ7pxCNSRAOV9udpFserQDecc/qQQBACHdWyizw5VmSsHOdmaNO7MfAt7h1W0wBwHv18Fxh5xRJ6UBq0oeB5KOzBn0GmC4ktfkM2CTgNfOmJEVZzYie1+2JpN8CX56dSTjrepyOzho8ZVXZsXUb6hg3ESjkGd+Zs99dX3Gj05K/z5ODXSnnE72dHB1I+tMlEdXB7x57vuxznasHpWatIJTSVYQHAcDrFoQAAJCj47pW+ABG1pnpzLPoaOu6q8C3eBA7gQDwc62wLZ+l75M1OlnvHA0ev3TWYNefz0ngc3le8zWbuWTu/6y1S85UQ4/b2LHCF34MlK6Ui7t4D7nJeAul2y1edrwohPaTWr3l7DtnBb/Wh4o6ejxDfOLvfXFbjp515D7P+tU+yf9H+Z9VWLhGJQiHq+1TE4ICoLFu3ZmlAAAEy7nNnSR96sL5CR5b1/WxYwugvDr4SVKk8CThQN8HlUZdiIlLDMbKN3j8oPBt/poiZOXJvI5y8Oz8sGww+KP8Vw4AXarfZ8q3O9yNOrb9oJvQspP/loOZg2tv71pSBpIc/awsSThq2TWOlK4aPHU3lrf6ULuWl/eFZ9/yUtKu7SuIA5ODkjRrQl+6aSsINVxtFwo71BRAtx3E6kEAQHGd17nyDWBcKl0tsGjbrMfAret8OrYA8F4dnDdJ2Op6+Kg+Pk4M3lAnB22ROlC6/d5ZhdftrdX3V+78IaCv9fssZxv7XOmOHeu2TgJxEwjmrr39Rf5Jg0yWHNy0LAQLhY/tZ+dSRi15hq/lt+r/vef1rq33vrtfQ/qX2QriVk78cpMA/gq4zz8H7p5QuA8Nje2MRyqAZ5burFIAAApRwACGXCeoFbMeXWIwUf6t60gOAiiiDi4iSXhcD7cmUWitvXaDinkTg12rk0PPULxQRSv3Tlx9z1ajoI2dv419pXQSSNyWpIFLGC2VJnm+5GxvtzU5mD3f8/SNsmMdGlmXPpvc43NMQ9f7UE8KP2daatnEr6OdBL4EvPzOGLNoyndpZILQbSF4xyMVQPYQdauLAQAougM7k/R7zrfJZj0+NbFD8ywxmPfcE5KDAIqsg4tKEg70PVG4bOJgcjZw7FaU/KHws1+P3XapTnZb6IUmFa6stZuynsHuWbrRaasjzsXuN6B+nyl/klBKJ1H8z60obNzqXJckmLn64X9Kt5kc5HzbrL29afH1TyR9zvk2H5WuJpw16DkeK2xyz60xZtLlPpQx5skYE6m4CbiNTRQebR18FXh/z5r0fX5pcLmau47CQAD6bk4IAAAldmaW1tonpecI5ZENUH+y1t5KWhtj1nV8Jzc4PnM/5wW97Z0ack4CgE7VwU9uK7FY+ZNmA6UDih+ttQ/uPdd1nd3ktqKMXF18UfDb/26MWXawSMQKX1WZbU03K2rbLvc8XQR8po/W2rjNA/xAAfV7ljj7UsDbXSmdCPCodLVxbfeXqxcipee+XhX89p1pbxtjFi5WeVbKnyudiLmQtHBnyVd5rc/cdZ4pfKKlz/N615H7PsnZt8761XO3Sm/RhHM4XbJ6kaN/3cjJto1NEA5X291+Ol4U9BAB0F5f3apiAADK7MjEbgAjUTET1G4k3VhrD+49E0lJWQMZrvMaHQ1WnBf8J766cxsBoIw6+EnStRsA/FTQ21648YQvLll4XBeXMjDjEoKTo/r4vIQ/86B08HjT0bKQWGvvFT4Qm51fdq90QDEJvJbZgHCewf9rSSQI0ff6fena2OuC2tjn+j4R5PFZ3b4rqW4fPavbL0r4MwdJ86oTYBWYu9hdFHDdv7ktXNcqcSJmgQngg6Rrn+eQMWZnre1S33qdsy00OOpX3+v7xK/KEmwFTrxt7E48TV5BqOFqu9xPx7OSKl4AzXcQW7MAAKrryGxcByBWcbOBB+69rlwH46B0sHCj9JyGrMO4OaWz4AafzySN3E82GH1eUlgOSgei15QQABXUwws367yogeTMhfv56OrSR6Wz9LM6OPvn01uJN7fSMZPVx9k/LysI0ecmnVlTopnSLdzyuFSaKDxOIGxeu77u2o5UXHL3tifXCjilbk9cG3atYsd4z+WSB6+0s7N/vtnWPmpf66iNfdzWLnt3uzulycFdB699tktAUtC1P04YSemZd4m71jvfyTNukuXk6KeI+j/7XNd93nnF9a0nBfatL93PN2vtnatPSpkYUMIOEI0+puOXFpSnmdIDoAH0z2y42rKNGQCg0k6s0lUsc6WTVIoeEBgcdW6ko5UyDZwt2vuOLYBa6uGkhMkaz527nzbUxVl9POvi4PErZWBnrf2sYlaTPk8gVPEVbt35awCO7mtJk4JXir/Xzv5BA+v3R6WJwXXHr33RScJjP1xvd42zRPFbzlTegqTPTBD5qW997dp1RfWtjyfgPur7xICd+3k6JVn8wuTbSMVPCmh8m6DxCcLharvZT8dFNQwBtMfdcLVltQIAoK7OzNKddxCrmlUhTdLVLY4AtKcOLmtAqW0eXH2c9LAMLNzA3VXLPnpXz4YEiry315KWPWxjH7e1l31KIh0lCZfKdybhKQY1la2itgB/VHm7w9R1/dclTv7KJn398L4NmBDQmj51G1YQarjaLvbT8bW6u9Xop/10TAIU+LESnREGAEDNHZmdpMgNUC+71lF7xVelZzaxahBAE+rhbEBpIbc9aE88KB08jnteBGYqZ8VJaX1YtuQGTqrbN66NPXNt7L5MAjm477vsY1vbfeeZO5vuS8eu66LAySG7LvY7jyZ/Re4+6PKRcq3a+eFDyxqGAPrhmq1FAQAN6sysjTEjSb8pndHZRbeS/m2MmZMcBNCwOvjJGDOX9G9XV3XZnaRfjTETkoP/DCZGShOmTb9uI5KDgPc9Hivd1u+z0iRLVz1K+s0Yc2aM6f1EPJdI+08L6vZT+1AjVo57Xf/EGDPpaN/64O71qE3bwrcmQThcbTeSfuc2Ajrv63C1TQgDAKCBnZm4g4nCLDHYm7OtALS2Dt65M1y6lih8VDo4/m9jzHUftxN957pnScK7hl67/7rrxuQaIPAed1ttjtStROHBPat+NcaMmPTx03XfuCRRW6/5vaT/uD4U9X9g31rpeX9duO8P7nu08l7/pU0fdrjaLt1Wo5fcRkAnPSjdPggAgKZ3ZmK39ehM7Tsf6VHp+Q9LOrQAWlgH75RuUTaXNHf1cNu24jpIWktas+rspGuebUs2d/3FQQOuX2+3CQRKvM8XkhZu69GZ2jn+e3dUv1M/vH/dF9ba2F37mxZ85FtJccmTeTbqSe7jhft+0bI2XSfaA7+08DPP3I3S10PKga46SJqxtSgAoEUdmrWk7HysLFnY1LMUssHomNUpADpSBx8PKkWuDr5u8FjBg9Lz9NbUw8HXfGmtXSud5FLH4CmJQaCaez1WOhlv5Or2mZqbNMja2Fn9Tt3gf713Sif+LPR94k+TnuXZ5Mq4oh1X1urXucvP7/s2TMJ9cO2BTtzzrUsQDlfb3X46nkn6gyoU6JSF20oYAIA2dmqXkpZuICNSOkgd1dy5vdf3wQqesQC6XA8nrr6TSxZmdXCdkzYelE5uTiQlbONc6DM3ctd5rmoGEO/cszTmCgCV3+8LpRNBRkd1e52Jg8dndTtt7GKv91zS3K0mu67xWte20t8Yk1hrf1P7VtMV9f2zSbhnrgxcqxnJwmyi17Jrbbp//f3336384PvpeKkeZtOBjrodrrYzwgAA6JqjhOHk6KeMpGE2EL1TOliR/P/27iarjeUMA/AbbcDKpKeQgcYmK7CyApOjBRjvAO+Au4LgDSRiAX0O3oHYgRj3IGKqSdAKnEG37tXFP/wYkFr1POfoyGAPXF9VtyRevirVB9yD/z3s7rvr+/BhXiY0vOruv4u0Pzya6yJ51dfZ5+7iX3XzeBnhLuzqtX/33v4SXcXX3X19vn64H2zldXzc3eeP8nK/+LPKH8GvX67czbUw7tbC+AU/U2+66dbDbN/fC/Q2IEyS5WQ0z+5u4wQ8/A3X2NaiABT4ASfdh5vhxl/d/XptnmTztXK2/r4fQgM8+h58mPYHyuvH2t2v795z3YN3e17vBsLDbj4P7vk8eps/BwB+MAz9vgekuw+sbX5/06J73H2/vRAE7vznqPU9frzx+v2QbrurO3Mv+O3/e7m7a2GYh+dF6/cAtxvX/7y093d9DwgP4zxC6LNV2nDQBzAAAAAAAHglgz7/56u6WaRtMQb66VQ4CAAAAAAAr2vQ9wFUdTNL8slUQu98rupmqgwAAAAAAPC6er3F6KblZDRN8sGUQi98qepG9y8AAAAAAGzBYI/Gcpr2YElgt10nOVEGAAAAAADYjr3pIEyS5WQ0TLJI8sbU/tRVVTdjZXj29fdVFe61SnLUnR8KAAAAAABswT51EKaqm9sk47QhBLBbVknGwkEAAAAAANiuwb4NqKqbeWxfeJ+hErAFJ931CQAAAAAAbNFgHwdV1c1lko+m94feKgGv7GN3XQIAAAAAAFs22NeBVXUzTfKbKf6+5WR0qArPWs+xKvzQp+56BAAAAAAAdsBgnwdX1c1ZkgvT/F2HSvCsbNv6fRdV3ZwrAwAAAAAA7I7Bvg+wqpuTCAm/Z6wEz+pICb5x0V1/AAAAAADADhmUMEgh4XeNlUA9X5BwEAAAAAAAdtRfvn79Wsxgl5PRLMk70/67v1Z1c6sMv7yuhkn+pxK/Ew4CAAAAAMAOGxQ23uMk16b9T/VAHZ+TcBAAAAAAAHZcUQFh1y03jpBw7UQJ1PEZCQcBAAAAAKAHitpidK3bEvI8yQdLIH+r6mahDE9eS4dJ/qsSwkEAAAAAAOiLQYmDrurmtgszLiyBnCmB+v0i4SAAAAAAAPRIkR2Em5aT0TQ6CXURPm3tHEb34Keqbs6tBgAAAAAA6I9B6QXQSZik3W6Vx5sWPv6PwkEAAAAAAOifgRL8HhJ+KrgE75eT0dhKeLjlZHSc5F2hw18l+WdVN1MrAQAAAAAA+qf4LUY3LSejkyT/KXT4N0mOqrq5tRLuXSfDJIskbwoc/irJuKqbuZUAAAAAAAD9pINwQ9cR9fe0IUhpDmLLzIe6TJnh4HXaEFk4CAAAAAAAPSYgvKMLP8Zpw5DSvF9ORqdWwY8tJ6PzlLm16Je0nYMLqwAAAAAAAPrNFqM/0G0jeZkyw6B/VHUzswq+WRMnKXML2s9V3QiOAQAAAABgTwgI77GcjKZJPhQ2bOfMfbsOTlJeOLhKctptvQsAAAAAAOwJAeEDFBwOCQnLnf/rJCfmHwAAAAAA9o+A8IGWk9FR2i1HDwoadvEhYaHh4Je04eCtKx8AAAAAAPaPgPARunMJp0neFzb0jyVuM7mcjE6T/KuwYX+q6ubc1Q4AAAAAAPtLQPgEhQZHn6u6OS1kfodJzlPW2ZO2FAUAAAAAgEIICJ+o0C1Hr5McV3Wz2PN5nSZ5W9C8fk5yZktRAAAAAAAog4DwFxTaabZKGyad7+F8niY5S/KmoLk8qerm0tUMAAAAAADlEBA+g+VkdJy26+xNQcO+TnJa1c1sD+bvKG3Q+66g+fuSNhzUNQgAAAAAAIURED6TrptwmuR9YUP/kjYoXPR0zkrsANU1CAAAAAAABRMQPrNCuwmT5CLJtA8dhV0weNo9SponXYMAAAAAAICA8CUU3E2YtFuPnie53LUgajkZHaY9Y/A4ZQWDN2mDwZmrEwAAAAAAEBC+oOVkNE4bFB4UOPxVksu0QeHlFudgmDYQPElZZwyu/ZbkXNcgAAAAAACwJiB8BcvJ6CzlbWd515cksySzqm7mL1zvw7Sh4DhldnEmyVXarsGFKxAAAAAAANgkIHwlXWh1nnIDq7uuksyTLNbPTwmzlpPRUZJh2jDwqHsuOYi1nSgAAAAAAPBTAsJX1m07ep7krWr80NUD/s1Ryg4C71olOavq5lwpAAAAAACAnxEQbslyMjpJcpYyzyfk+azSBs7OGQQAAAAAAB5EQLhFy8lomPZswtLPJ+RpLpKcCgYBAAAAAIDHEBDuAEEhj3SRdjvRhVIAAAAAAACPJSDcIYJC7iEYBAAAAAAAfpmAcAcJCtngjEEAAAAAAOBZCQh3WBcUHic5S3KgIkW5SRsMTgWDAAAAAADAcxIQ9sRyMjpO21H4TjX22lXabsFLpQAAAAAAAF6CgLBnlpPRUdqg8Di2H90XqyTTtMHgQjkAAAAAAICXJCDsqY3tR0+TvFWRXrpKu4XoVCkAAAAAAIDXIiDcA11X4Un30FW4227SdgtOdQsCAAAAAADbICDcM91ZheuHsHA33CS5TBsKzpUDAAAAAADYJgHhHhMWbpVQEAAAAAAA2EkCwkJshIXjJAcq8iKu024fOhMKAgAAAAAAu0pAWKDuzMJx2sDwnYo82U2SWdpOwVlVN7dKAgAAAAAA7DoBIVlORuO0geE4AsOfWQeCs7SB4EJJAAAAAACAvhEQ8o2NwPCoe5S4JekqyTxtGDiPDkEAAAAAAGBPCAi513IyGqYNCsfd82GSt3s0xOski7RB4DzJXHcgAAAAAACwrwSEPFl3luEwbXC4DhEPs5sdh9dJbtMGgOvnRVU3czMJAAAAAACUREDIi9joOkz3POz+fNg9Nj323MObtB1/m9bBX7q/WyRJVTczswEAAAAAAPAHASEAAAAAAAAUZKAEAAAAAAAAUA4BIQAAAAAAABREQAgAAAAAAAAFERACAAAAAABAQQSEAAAAAAAAUBABIQAAAAAAABREQAgAAAAAAAAFERACAAAAAABAQQSEAAAAAAAAUBABIQAAAAAAABREQAgAAAAAAAAFERACAAAAAABAQQSEAAAAAAAAUBABIQAAAAAAABREQAgAAAAAAAAFERACAAAAAABAQQSEAAAAAAAAUBABIQAAAAAAABREQAgAAAAAAAAFERACAAAAAABAQQSEAAAAAAAAUJD/A5dp2GhitIoQAAAAAElFTkSuQmCC;" vertex="1" parent="3tKYfOBs04xEkgBUD2MP-10">
          <mxGeometry x="50" y="127" width="190" height="36.31" as="geometry" />
        </mxCell>
        <mxCell id="3tKYfOBs04xEkgBUD2MP-35" value="" style="group;fillColor=none;" parent="1" vertex="1" connectable="0">
          <mxGeometry x="-240" y="220" width="280" height="190" as="geometry" />
        </mxCell>
        <mxCell id="3tKYfOBs04xEkgBUD2MP-36" value="" style="rounded=1;whiteSpace=wrap;html=1;fillColor=#FFFFFF;strokeWidth=0;shadow=1;sketch=0;glass=0;strokeColor=none;" parent="3tKYfOBs04xEkgBUD2MP-35" vertex="1">
          <mxGeometry x="30" y="20" width="230" height="170" as="geometry" />
        </mxCell>
        <mxCell id="3tKYfOBs04xEkgBUD2MP-37" value="" style="shape=image;verticalLabelPosition=bottom;labelBackgroundColor=default;verticalAlign=top;aspect=fixed;imageAspect=0;image=data:image/png,iVBORw0KGgoAAAANSUhEUgAAAgAAAAHwCAMAAADn3CdMAAABL1BMVEUAAAAva+QQVMUybeYybeYybeYkXN0ybeYybeYxbeYybeYxbOYxbOYxbeYuauMtZ+MxbeYxbeYwa+QxbOUxbOUwa+UuZ98ybeYxbOYxbOYxbOYxbOYva+QxbeYxbOYybeYvaeMxbeYwbOUwauQnZNoxbOYybeb///82cOc+duj3+v9/pPDz9/78/f84cec7c+jM2/lgjuxym+7s8v3F1vllku37/f+0yvZRg+rR3/pLf+pHfelEe+ni6/xumO5ple3o7/3l7fysxPbx9f5CeOi4zfexx/Z6oe92nu+auPOowfWgvPTa5fuDp/D6+//X4/u+0fjJ2PmQsPLu8/2TsvKNrvLC1PiXtfOJrPGGqfFUhuvc5/tXiOtci+zU4fqkvvRPgurf6fy7z/edufRaiuvVU/8xAAAAJnRSTlMASAT5/ewJ8+TT225mwxwRpLM0XVA7Fst/jJx2KJRWuyKsQy4NhS14dRcAACaMSURBVHja7N2LVhJRFAbgIww3wRsqqAiI2t5UWlRaYXbxkmlrZVe7m9b7P0RStiLmQAw6M3vv2d8rMLqY/z/nx0RRbDQ/VJnMZbPZUjabqywuJY2KinypNhyHDk66VsrHjBJvsQpdpWfnjRJtaAR6ciamjZIqVsnA/40MGSVRbDID/SlW9MuAOMncMPQvM6mPgCjJbBq8Gc7pi6EYY6UEeJcuLRslwNhMAgaTmBkzirnR2RQMLjVbMIqx0XIcLiZeHjWKqfm5OFxcfE7jQZaWxh24HE5tyShm8hMOeKEJsSjTVfBEE2JRhkbAD8UpjQcZiE0VwRNNiCVpNT6eaEIsSSw3DH5LZ/URIMpz46MJsSTLpQQEJXVFE2JiPDc+mhBLUvDa+GhCLEmr8QmDM64JMQELXhsfTYglmR93IFTVRaNCk685ELrilFGhmJ4g8PFrQuwV8cZn0IRYH4FgTRWBFk2IfWO/4kVPoqQJcS+sGh9NiMlK5tJAV2pWE2ILfoXfRRLiBaPaMW58NCEmpXAlBTw4E3mjfqFyxatvmhDT1Gp8mBnRhPgSGx92H39LRodGLsUShcZHE2JvBDY+mhCHYbEK3CV0aERG4afHyPshvvHRhLg3Nle8ghYva0LsQZJs4Te4+LgeIxfT+AzGqWlCTOyKV+CqeoxcROGnQyPtotv4dNApaqZXvPqlx8gtIl346dAIxVE/JnSKul2ed+OjCTG5UT8edIpaUOOjCTG5UT8eIj00QqDxubH+6ejZcR1CE+GEmMAVr9O9FWxZ2bsPoYno0AiBxqd+cBf/WD2pQ3iilxBTaHw2m9iucRVCFK0pahKNz8YW/qt5A8IUnYS4QKLx2X2InZ5DuKKREFNpfNbQ7RhCJ/0YOZnGZx8t3gMBkhPi0Ef9/vqCFqsPgAKpQyMkRv3O3UKr60CDxClqWle8PmALwa+Bv8lLiKk1Pj/Q6gfQIenHCuk1Pg20egqUCEmISV7xaqLVPSCG/9AIgcbHjc8DwH2KmuyoH58HgHNCTKDw66aBVntAEs+hERKNTzev0OojEMUvISY+6neCVutAFq8pavJXvF6g1QYQxichXiBS+PXwFW0OgTYeQyMsRv3qK2jxHaijP0XNZdRvjXoSbEd9ippW49PLdbR4BxzQnaLmNOp3ihaPgAmSCTG1wq+3m+xeAtrRm6KOVcgVfr3V0e0acEJpiprAFS/PVtBlC3ihkhDzHPX7hi4N4IZCQky48enpHrpsAz9hT1HHmH78AAfo8gY4CvUY+RDHf/4t1jbgGfCUKiVNKJbngK9H6HILuBoOJRfI8/3zP3OMLqfAllNeNkGrEG98/2MDXa4CY5mgK4Icl9S/i6vYaRVYS1VMkLLMP39LFLgDvDkzJjiT3D9/gEPuQaBb2QRlmsGZj94sWfAXYK9sglHgmv60u4MdXgJ/syYQEyDAE+zQBAGyJgCTIMEW/y7IwhkyvhsjfOHDA9cD8BokSIwav10BER5ihzUQoWp8VuCdAJ6T+wBAzvhrBmQQ+wAkCsZPMRnfAAQ/AD6nAVMgw+5dkW8BLfEF46MayHDkLoM2QYg545+kkK+AN56gywcQIl4wvlkEGbbRbUfMv4CSaaMhgMUJ2jR3QYaM8Q2r+1/dfcNfZIaBZ+aNT2ICeuCWLTzD/25QVznjkzyIUF9Fq9U6yDBufJIFETYQGY4EeZA2bTQFcFnHLhonR7ePWZ8OPudXJyjgKNCDW/tHr7Cnt43to8e83wkrxhcLwNjm+qeTte+H2K8n7w8esX0vLJs2kT8LtLn+cbu5g4N4uPfiMzBUNL4oAzcP9p83dvBi7ty7TuPHhH6Sd5/bbRtREIAVl/TuOInT6wxAEuxd7E2UxCKJqlQv7/8MKU5iWSYW2MUSWJ58v+Uji5RAEjt3roQnyxkVW60ikOq41KYmp9uF1fqIuJRs4G+rMw6SamxdU69uaZjCyrg3JvT/OwnqxQ8nXIbYzTCJ1XAvGvg/S4P1TnYdLk+i1FiJ14J3llEgZX4RZHJ4WOSytbbLMN8S6kQfmR4GueskGI7KhvGXgSXMCP0Kk6XiU4Yot2n4R8Of17T7EOaqXnYZsuKNAdvG3SzlPOhTmOqu7zAKaZPrpfVng00thWqmGZlTc98MPFvT7EsYqVlhpK5NrRd8GQ43aiTEOmtkG2XoE/3T/5fTIbSxmpfpdm40CH6zQX8y9AWCOe/H+JdEvwlNznZphGkBWqT2WvxHO46AnvxbIWtGINja0v6AVUs0Rv4MwTXbvCdvIxjNOyXefowgdviaLQsBpbYnNIjT6SGgMV93aiOQ39e0eo4g9vhAfh2BbLRomO6JhQBq29Q8r/zRmlbfIoBqjA8lmlA3T9NA0wyUrdf5pjiCePxXibghgeAO35Q4h6LkbZFm6thQU6tzgZaFIJ6v6fQU6lIJLpCrQknmmsZqNaDCHnGhLIL4ds2UQHCDC41syEtt0Wj9HqRZu1xsgCA+W/uTEYHgTS6WtyArU6fhcg3IuqWLEYJ4uqbRNwigRBd9C1KsTYfm66QgpUA3XQTy3dqaGYHgHbpJ9yDh6oIroX4OCc0E3SQQgNYh4U+eIIASXVUs+DZMcEVMjuFb3KGrNtToPw96C0Hc0l0HPiU7XCE3NvxpOHR3iEDeNyUQnKXAJnypTrlS6mfwoxCjwAECefKlIYFge0KBPfjQ7FKLen9vRHcxatM9h7dMjALFGoL5wpRAcJ8ix/B04Gh57gs2gIrov5KaZw86lQQ1SGTgpZCgSAcBvTClGuaMDHKlSw4YTO7m7+f+pRHdHeGlanYz32VAiQLEmjGKzGoI6CtjqmE6FDqCSK/CABI3J2Xc16a7S9xTjpdyDCLWhMhGkSJOE0E9ftuUQHDqlELbcHdVp7LT24yFB2Z0N8AD8+Mgc4aTLNwdUMiJI7jnxlTDrNcpVLLg4nxGRdP9MhaY0N0N3pQalrpUVNyAC6tDsThU6T8P+hjB2RcUSttYKBtTneCbYyGLArtYyGr0Y1RzgoV6aYo5BajSfx70AzTolSh0XcUCcUdtaqcJNzYFLuAmFd+lkj0scN6m2OgOOjx9ZEQg+B+ZKUVyGbzhhApa+zW4q1LgGgLl7S4VbOINxxMKtcYW9NCzU/oraBJvUaA4xgN7lHfhMawzp0AOQsn4iPK28Lr1PIViRyno8qEBgeD7ksc5CnQs3LdJafkCPGQoMIGXZp7SBhb+1rMB2HtdijiDGvT5NPpA8APiX4HKOV45oqzDc3hqUiQJT2c7lFWyAFgHiVmpcxij0M0cOr0feSD4TcmDHN1dbO71u5UygH1Kyt/BhyxFavDh7pCS+hbupn6+bg7NPjZxV3DyKEax2AEOKKdSgC9xilzBl0yacnYuHXqqnEG7H6IKBItd5enhmlJaG/DphCLn8GlYp2bdMbTTUhr7HZYh26I+sc0U/NqnSBN+JfcS1KlUwzJ8ZWw1jMZ8d74K/24pMoR/6zfUptXAMmgpjf0GS6FtwiM3hIwtjXfgG23qMbCxLL8Y3BCc3HTCf+wG1BjCSnU0jxLo97XGQLB+mXbol84bimxCUrPNoA57WKIfo6+GEbF3GETfhqw8RS4hyx4wkOIeluqdR4bvitxzqCoWh7wKRQaQt5GgulwGS/a56bsiGwmqGV1BwYgiO1BQnlJVZR3L9oHxDcFnOaoYJKGiTZE0FKinVktJLN3P5u+KLLeULv9qZhSZQs1JUS0qEIJ3V2BXZDlGSa1zKJpQpA5FhRmldRCKn1ZgV+Qe5VzUoMii0AyqqqeUFOshFM9WYFekPaGMfhKqbAoVocxOU84hwvG9/kCwfhVK2Ia6KsWSUJbsU8o+wvFe5IFgHw7pmzNGAHOK1RDAFmVsIBxPPlmBXZG1a6lpG3UZipURxC0lNBGSt0wIBHupXctMXKprUiyDQI5kXsjCEag09rfHCIfv34ADBJNd8p9l2rznHx+txq7IDv1wbi0EEafYEEGsm/j84/GjVdgVeefQn4srBHBCsTECGHbpUyKFED03JxDs7oJ+xcZQt0+xPSizS/TvEiH6Vvkk6CnCMqaEnR5U3S7p9rxsuMW5Q3h+Nn9XZK1LGbkmFG1RbAsqFEpMLxCep4YFghcoUdJlEkoGFCtBgVKJ6Rjh+c70XZEZShvNoeKGYjtQEU9Q2sxGaJ4ZvivSmlJe7BgK8qT2REhvhyq2EJpvDN8VOaaSfA3SKqTuREizRSXFMsLyvomB4FfsXHiB+hHF2pCUvOR/DD0PVi6NfYFw3FLZVhJy2hTrQs58RHUFhOULMwPBL63HqO70DFJmFHMg5WHbj6kfBV9EWw0j1mEQkwPImNBDCv7V8gxmiJB8FHk1jLuyQwHN7wUtelmHb9kZA7q2EI7Hb0dfDeOmz6BmWfhl08scvmgaDI0jJM+NDQTPGeaepiqpKRFyXqcGdQvh+NbYQHCfOlzfwZc5vTTgh7VfJLlCl4DPVHZFhqFMPYr78COjJ6pZTZPkKl0CFEpjnyEMA+qSXoe3Jr2cwIvnPLCR2eBfzQwEV4vUpjuEpywZOBFi96nRFOH40KBqmHsuqdMgBQ9xermFh0KLngxMh39qVDXMv+wEhXKblFLPQOwk6BmddetQSv6QYrsIxfvyuyJDcECxMeJFynCOLIjskwESIQpdECXrakKxM4TiYxMDwW0KjSygEaOUShUCt8GO6MYxyrn08T0HCMUPgXdF6tfwPi2TXxqU2IC7LVI9EdI7VFoXkmpRaNJDGF4YVw0D5H39MV7V9XWHDehlBDeNHOUU4/hb3Igx4a/MCwRXfb441i4op52Bix1SMRGS3KKkWAMvWafy31K/x78ZFwi+pdAN/pXKU46zaWGhKb3EsNDZKSXNMvhXlmINhOEX0wLBVo4iTvnelw7oQm6ArOdQ7Tx4b0JJ7TJeuaDQDsLwtWmB4IbM57FNSkrE8aYDteKO9V3KOl3HPU0KOTWE4EfTqmFupA7mxw4l3dh4oDejt9gZHhh2Kati4zVTCu0hBO88Mqsaxp7IXRaz8l1yBbxuh360argvNaC0nSRel6XQKcLwuVmB4LhsMCMzo6xtC69YJfozWscrmbrSnriHTil0jhB8YFY1zK70/Zhym7Km5Vf/ukK/ZnELL9nbjp4C0LgBU0KfGhUI7jkUyWKB2pSyJjvDFIBks+RQQutyeHdWOLmJUd4xFkjOKJKzsHzvGhUIHlOkbWERe5fynPq0XmRYJkMstGnAjMjHJgWC80pvi60SzZZoYrH1YvS9wc8Mqoaxi4o1uts0We4ObvoUmVlYvu+Vd0XqN1Q+lD+muepXcNWM/jXgPeVdkfqV1B+N4YSGmtYg0I78c8CTT8wJBM8CtPYXujRS2obIUfRHgm8p7orU75wiRxCbt2ignSSEqhSaY/l+NyYQvE+RKjysj2icjgUP6chjIR8ZEwhOU6ACT3aahtmEpxOKpLF87zwyJBCcnFDgGN6SfZrEOYE38c3Poo3l+9yIXZFAQcOI/iXN4XOJwS5Fsli+DwyphjnScS3coyn8LjEYR/5B8GdDAsF5LemIjSKNkDuDP7XIQwFPzdgVaSX0bG1pJmiAehV+XVCkhuX7yYhdkXNduxvPcozcRQ++HUX+JuCZEYHguLYm/eo1I5ZPwb+7yDfJfmNENUxH37i0XWGk+hZk5KJuDn3PiEBwhe6KKUhJ7jBCl5DTp0ALy/fkSxMCwTGdN8SsDiOzD0ljivSwfF8YUA1zpfmFcJ/RcOLyP3rkmYAXBgSCs7ofhHiREYg1IK9FgQMs30cGBIKP6K6YhIJmjKHrZqCgH3VVxOO3o98VWdJfmnU+Y8hac6g4iPpAEM+jr4a5WEI69qrOUJ2uQ0mGAjmE4NvIA8HoLqM6tXbBEFVsqEn+wd59tqdxRFEAJpLlktiOnTiO0/s5y9J7FwgQIEAFVAFJVvv/vyGPHSVRZNgZdmZ3Nnnyfpc+SDA7O/fMvXk6CMN7L43Pigx7M749UaJvjhJwa2j6iuCa8UDwDRfbseBau0GfjCy4VjDeOvpb061h0l41Tk1TXnJ0zzmltapw78B0NQBPDQeCccLFClAxpML09j3KOoaCtOn3QLww3Rpm4NlRyKHKGp64pJh6Q5cL4++Bjk1jXz+A5wqe9cs6o5xGG3MUo37M+rLyilkIda8Nz4rMcrEiVLQpZecMc6UpZRNKNriYDT98bzQQ7NgwKRaHirDimJZryuhASdL0QQC+MjwrcsOzC3JFymhioSwl7EFJx/D9MMemsSur8F7Us01QlxJKFhYKb1BsBiVbpgvCWH1odFak5dlbIPYolqnCwalNsQpUTMyPEv3ZYCDY+UE9gAKpGaT5FBx1KXYAFT06mMAPb4zOiqxwsRMosJIUm0CgT6FWGApyqmdM6n4wOivywqsVcItiBYhYSY+3gVPVkKm6RysmZ0VOPdoDbVNsNw6hakOlF4BYxfhZMPCLyVmRN17MT7LqRxRrlSEhtUOhURluhengCr74xOSsyDMuVoYb1chVVOeIvgnF8oV0Aq7E6eAIvnhhclZkSutBmJXa2qWsG0jpUUo+eXAKF2Kmq0ELm8b++gA+SHExLKfdLexzCSeQ0qe0RqcXxpJsLlaCP54rBIJVpTTVQs6OSzEuZw9ShlxGbNmFIBqAScLfG5sV6bgHiEJSuNfJcHn7kBHm0jKdbhiyolxsCH98Z2xWJHCq+g86PUjG6E4REtbpRqx0fAYpUeOjQ4AnxmZFAkWV67GJdLNB97YhYUC39gvdNgSC8QGY2zT2F/ii7LoaXDwc7VBJARLOqSBW2kpZcGQH4BGAjxQCwYrCrlaAxHp/g8oaEEvkKSJeCKpYLBaED8AbhdYwiqzlr0ZdnGRtalGGUJ067C5cCOIMwFsAflAIBKuyl/oAxOtva9QmAqEtatLajFTxoTADcA4wrx70Gj5pcJEW7ilPjmzq1IFQkhoNrz9YCCrGc+HvfaYQCFY0lDsIsnKDGXW7hEjcpl7Rq+0K7pgGoBaAefWgr+CTJBeycKuyfRWlF6oQSNEDw0HOwq2cIHLuk58UAsGKNgXFICt1PaRXehA4oDeie7cLQS8AeQAAjxVawyh66xS3rEY2W/RQHwJZemc2qMexbT4R9N6PCoFgNWMu1Dynx4ZwZkXpKfsoK8ib+uVzhVmRano0qQJHORq1Dd98rdAaRk2KJtn9ChYqFmL0mvF+0beeKMyKVFOlWfnmBea62aNpKfjlfj3oR/jHpmGxzSk+kMrSvDL880ohEKwmCDPf9m7wD/VgjCGLwz+/KbSGUXPFIMjm8Jf0OQMhAx89EwSCvWGljkfGHwG3knW8Y3WDsCS9V4KPVh8KZ0XqdxKUf/4fztOwIjUGRtaCj74QzYrU74ZBM9tgkNij45QFn3zjc2sYoG18ws+/wQA+eel3IHgaoMU2wOwi/LHmbyDYCtjzP7hqZfjjW99mRVpnh0eBGPL477DfteCHp760hin3Bsn/v/tLymxuF+G5r70NBCem6XGn9P8X3639o+N6G1762JvWMPH0Vr+QHbb4P3WN7GA7V4FHXmudFVmJHAw2S43/9Fe+NepsDnfoN3uW7WydnEK3V/pmRZabGZpln3cO66e5yZVNjzQGKQsArGL6+GqWp++il7PZsHTUPKmfhaHDV5oCweGDSxq0M9w8SJfxp/CWTQ/kD+K4yzrtbu3VYjRjVoYGX+qZFRlp0ZBYbW+rN7VwT3FG7ewc5onfRAbZDRrQ6pxB1epDDYFgq0MTGtlB5CaO+cIz6paGg8RZ5G02Q78dlaHoZw2tYQr0WWbU306F4ai4Q706EAuntvvJffoomoaaN+qB4BP6p5VsTnJtyHhLrWJlyKrmTprJFgUCEiN+qRwIrtgU0LfFr0DelFqNsKRK/bBzbtNJEHLEj1ZUA8EDeix/u8VfVos6HcCV8vq4sGvTS9EyVPyiOitynwLqW3x3jqhTDy7dHhtsDvP0yB5UPFVsDXNDAaUtvooBdVqHKmvaO6InzqDghWIgOEIvRKDuOjArgMZFSf+YlceKgeAxvZCFugJ1Ooa6ap4SNt5G1iP98x1Ki1pQ8FwtEDxe7i2uP97ai1IoVoEqK0OdZlB3SLHYgYX3rJvDvZYfz4Dv1VrDRChp2OwW8V5iK0aRA6japl45KJvR0WS6fjKY4K6b8Sjv9VnAd2odgs8oYaPZa+OOVLJwPUnvcbFLqJpRryuoStFRPox5Er3NKAW6UPBMMQ3UoEDpYIq51umgDjU5apavQlHB7b4n3tvL08GGBQVPFHsDjemkdFjBIlbLw25Zm3wnSNvA6o7Cm0/7cDPv0VngmmJ/yHiNC8xGx2U4aeo4exdsuPVpWFByTEd2As4qB3u2B32lHqyqdoa4sTlH9LoCkZyW6zHiv3YgDt3jGfWR5NX+jv7rhKuhVajJRXlfKZKAhAYXi4bhntWgfiOo2NZy1Fhp2vynQhxqHoQeQFHxnHdtDIqQs+XVm2CaXijCPatGRxkLcsKRo507P9aFAtEKIK9b4h/OrXIR0sp0sJ+Aa1l6oQ/3ehovhFqngxjf2T1JQNmanu5QlfTJeBKZYjkjejJH+IKeiCbglnVJZxdYSqU7idSr0OFJ6GMY06WDTAKynNJAgUjfRIT7C2OehZ7BmPg+HYzhTrxFOZfHuWKxvrVBSUO4FN8QFhuN+Tr0AuZcezGlPUKBexsoa2J73MVvLD5jMOZN6A3MqeTp4BqunFPGbhV/KdY8rbxXoyQD0iH4A69Cr2DQJh3YFbhwQxm1MO5on1PGThtuFOjMbsOc56HnMChF7eMTOm4yXomSd9nQOgWaMOex2t1wdSXdVfiw7epYLzGjA5XCW6JGZ7ELmKKcCVSXpuYpaoeUcYr71r0Kh/bFUQODPlecFqVuRicTLOvS7W5u5E1asU6RG5iz+um7u6GPYFCXTqIVLKdOCTtlfOiGMi6wnMQGSQZjUNgcL1UbRauzNrT+efbct2IseNHFsU+RMxj0vfK4IHURnYdklRjF9sOYp2JTrBXHMnIM9AKw9lCxQYQ6YaFkv4olbFHCCeYbaL+0In4A8BQGvRH0CPJHV99XxMpQrGZhvvA+xc6xhCbfCcakyDke/dklbOUJTBpqK8L11K55nWi+hpGmSP4CBt32iDL+JrhOR/YFZCXVhjJYNYp1IKvSokgfBq19KugW7pskHe3GIaeoWtJLU8wOQ45Voki0DYOe3h0atgqDTmN6Dsv7ytfpSxQbQ85bCh3CoC9XQnd8ApM6Wi4/JaIUyhfhJEWxGqT0KHRpwZzVb0N3rbyEMeKKebQICdsakp1XFKtDwjQq84sMehr6p08/hkFjcflebJfqD92LPLWc3bRrZKCrQF+H7vv2EcyxhnQ2siCS0lLQ72vpGWclKRStwJxnK6EPvHoAc1LqL0wFCjXiEGlHKXQNkQKDvQN8/Do0xxsY1KHABM7aO3rOcccU2o/D2TXFzi0Ys/pZaK6fYE57n85iaTga68l1izPc4reSE4rlT2HO56H5fn0Cc3oUsFNwUtO16+6qjnjtUsIxzPkqtMiPazBnkwKtKRZb1xfn2aVSDS+dp9iuBWN+WAkt9PMqjGlnKJC5wEJH1FZ5zZEKQd71HYrtTGHMxx9sAINyItijSKOMBcoxjVWcI4WCQN2WiyQY8+iXkKMXMKdAkY0K5rumiF2BrGnM5X9Q8vvPLIx58H3I2cMvYUyi5nasqrVPkWvIa1LkEnOl85SQqcKY30Iiz9dgzFmeIo0LzNGVCQLKq9ruOkdux0gGugbwciUk9MUqjBlTKDPFh0oUmWAZx67KygeUcg1jnnwakvAU5hxRqJXCfadyQUB5iczy/YytJqUkLZjy6NuQlO9gTLhGITuNe5ram7xtU2QL/5TIUkqjClMevArJWXkGY07t5d+ixEmQEpZkzcilGnuVZ5Syk4Ix34RkvX4MY7qU0Ldwx8SD3h7ry6WL6y3KicCYn0LyPluFMW8pYRTG32ZeRC9GFEjibwcxynkLY548DC3hcxhjZSmhNsWfcp6k728oMsWt8B4lZS2YsvZjaClfwZjwkBKiXdza9CZ9X5D9tSn5PmNhmLL6c2g5Kz/AmHKGMppxvFPNe5O+r9hSnSOt4xglZcow5pOQUIBSoimbMoZFQOLQZgx3BjKHS8VzyoqewpgXoeX98gjGrOcpw54AVkMcBHRFfFl0COvQpqx8HcZ8KbEBDFZKtEs52UrauxevEwpMzikt1oMxj5+HXPkN5hxSTmtGZ7twzaqRDNI0TJdWvwhJC851oa0ADHz7nb07UU4aCqMAfN33fcZxd3T0/IGwFbpAW7Etpdgigm2Voq206vs/g3LVqiXYkNzk/y/mewJmCiQ055xbJH+Eh8Avq2NJTIk2BZxCWiFDNsHnoQruwRnwaVJ42Q8IY4p8ErwGrEtAgZ04DT59Cm0N4Xy2/vOvS0Ah3AejJoWUXkA4+7OWX/91CegYclOi6FI46whrg0LrgdEtFdbZC2C0Q2GU8ghrNUPhzDbA6K7yTWZdCG6W+bO3SaGkq2CjS0C+yawLAS8z5C2mCZbcMoWwNQVGF68p36TWhYDdJQqoCBMaFNyLfbDRGdDw+OeksdCmQAowo01BFVbBRmdAfRNcFwKQ71AQVZgxQwHN5cDpjjLn6nmw6lIQ7fUpByE55VfrGQoiuwlGugTkm+y60EAxQ4Fk3r/bRVBld6WSpoBqVbC68Ez5Jr0uNFA+oKBq77svUxjTB7deohBe74PReBlQ8XUhLV+nMA7q29UF+OHsuv1ChsKZy4PV6RPKNwvqQj/szFJItU9z3cbUvANPufmZVrNzMEuhpVtgdl/5ZkVdSNP5axOypfZ0feXL9rtey3XdVm/7y0Z9ur1FpnzcBbPrKgo3z4FZqk4WWMmBlc6ARuLRaXBzMyTcVhHczlxVvllTF/plv0KidVbBy18G1MaU6E/OZprE2mqA3yXlm1V1oUPz0yRUnf/jD9xTBskalT9UfEECLVchwJWzyjfb6kK/OTslkmYtDwF0CcgYcaPyv+2SNCsQQGdAjZE3Kn/I+UTSZNh//mOsDKiddaFfvpA8An4B+CgBWZ8S1WayJM80eI2XAbW2LqR1SCD2N4AegvfJ4rrQQF7ejwCiMjjpIXjfrK4LDfRJnAI46SH4Y01KShRokDh98HquDBI9Kj9QJXG6YOQ3AzoxKVGXxNkAH98loIlJia6MGI+czlLEXq93ydMnsBmvBDQJdaF8bVQbfGHzNUUmW3g3j5FVoQ9gMlYJaDJSoi3ykklh4MP6R4pAuuOuQpsRdw24o3ybjJTowTFzEOVuhYxaXinmcejzqPcfkyfKIBtG5Ys+/gCr7lyJjCjVe2X8ZbEgagpGD8EbY8OofJs8fHJx1O7O5y0KI9tuFucxLOcu0bAlBwzGLwFZnxItjhPH2W9sBCv4van0iymMkq9LWQPVQ/DGWDEq/5qGVFIYSbe9mu9fZMmvTGWlt+fg3+qeZ5PFLVgG1O6UqEtDXqRwPKdc3Wl+riynaZTZpcrnZmtmAX7kl0V8BRgtAVkxKp9fCrsFkZrfe/nK3dleb/b7Gxv95pfuZs8tTpVXMZYWDVnOIVYhSkD21oXWaUgbHJwl/k3Q81cVu+eI1f4bGlIEi57n8TTx0SUgfjHXhd5L+QIAcks0ZA5xuqwkuHYB8amSmC8A71MtZhCfh0qG2EblvW+9D8DD+5nUizzioYfghYgvJbpBw1pgs873TEgPwYtxH/GYomGlHNgspmlYFTHQJSBBniAOzkdhpzF4BlNqi4jDLSVJPKPyZRqWToHRB+K6D7yrZImjLuQU5HUyCzSskEPkHou5AYxxVH6NPHwFqwZ56CBaOgMqziVErE8k559Av+QyDKdEDkpAAt1DpBrkZQfM1shDZg/R0RlQiaKtCy3WyEN2EcxekpetBUTojpIp0lH5Dnl5C25OjbxUHETmhrgbwBjqQq9I5hUAmIv3lekheLEuIyILNfI0D3YuaTE9GNYZUMEeIhrT5Ok1+O3F2RXUQ/CSRVQXasls5P6wTN5cROG+ki2SutBuSegoh9Ykb6V9mMafAeUZle+Q3CsAsBfbcqCEDChHXSj/RvIVAKiRtxJMOyMgA8pQF3opdZbppw6NsA+ThGRAGepCPaGzTL+4NEIVZl1SdjBdF+qSt1eQYfVNPL8D7ilbGB6V75KnLQdC1MlbCyZdseAGMJpR+RZ5WoMU5Wzk68EySkBMo/JT5KUk4N/AvzSJos2GScuAxpsSdWqS7wAGcgfkZRWmSMuAxjwqvyIvC3jEXo2ibKzIKQHxpETLs3RUKQVRXBq2DUMkZkDjrQv16YjZGQizRkct5WHKRUElIJa6UK5Nf8kKOJ3jiNx0VO9RqRnQWEflFz/SHzL8x7MOc+boT2+KMEMPwdvJZEo01aFDBSHPAI5yt+jQwVcY81zZyuiofPUtDWSnRZzP6Cm1/eLna3QdGCI5Axp3SnTx1bteVdjd/1Hlxrsdk69RZglIQEr0v3HugbLaPSSCE1sCYk+J/jekloCsGJWfAE+U/W6eQiIQ2SUg+aPy9pNdApI+Km+/U0/VZDj5GImx2ZMBPd7ti0iMyYYSkORRefvZUAISPCpvPTtKQGJH5a1nSQlI7Ki89WQMwf9k36i89ezLgB7vQXIj6JOkIXilpNaFJpmkIXilRKZEJ5ptJSBpo/LWs60EJG1U3nbShuC/E1kXmlQ2loBEjcpbzu4MqIBRecvZWgLy7zoSE5wB9VUXSkxwBvR4V5OU6Ah2l4BEjMpbbjIyoEldKKgzlpeA+Efl7SZ8CP67pC4UIflD8N8ldaEhSQY0qQslGdCkLpRkQJO6UFICSupCSQloLNeSutBPNg3BqyQlapxdQ/BKJSlRs2wbgldK6Kj8t3bOLQVhGAqiJNoUjWgbX1Q0YHH/a9RPUcFb2o9mZs4WAu3k5swtFrgSkOpCckCtPGSJQpaAZImyl4DsOPIgiFoCUl3IRg1bApIl+p+CF8G/kCU6mpIXwU/JifYqgF0CsrMjFYTQS0B2AmUO4HFADUQ+Q6jSBeCdxPY4rPP/IHRUI6G1vv9fJKIs2Cr//SKT/AdqvC2AE+Ezw1ToTiuAWDhesE2xZcvrfxgJuYF9JK5uCn8WfIrNCm00sDh3vWa/A/Db1DsADpsY495d53n4T0DTw3bLTwOwAAAAAElFTkSuQmCC;" parent="3tKYfOBs04xEkgBUD2MP-35" vertex="1">
          <mxGeometry width="61.94" height="60" as="geometry" />
        </mxCell>
        <mxCell id="3tKYfOBs04xEkgBUD2MP-39" value="" style="sketch=0;points=[[0,0,0],[0.25,0,0],[0.5,0,0],[0.75,0,0],[1,0,0],[0,1,0],[0.25,1,0],[0.5,1,0],[0.75,1,0],[1,1,0],[0,0.25,0],[0,0.5,0],[0,0.75,0],[1,0.25,0],[1,0.5,0],[1,0.75,0]];outlineConnect=0;fontColor=#232F3E;gradientColor=#F78E04;gradientDirection=north;fillColor=#D05C17;strokeColor=#ffffff;dashed=0;verticalLabelPosition=bottom;verticalAlign=top;align=center;html=1;fontSize=12;fontStyle=0;aspect=fixed;shape=mxgraph.aws4.resourceIcon;resIcon=mxgraph.aws4.ec2;labelBackgroundColor=default;fillStyle=auto;pointerEvents=1;opacity=80;" parent="3tKYfOBs04xEkgBUD2MP-35" vertex="1">
          <mxGeometry x="50" y="60" width="48" height="48" as="geometry" />
        </mxCell>
        <mxCell id="3tKYfOBs04xEkgBUD2MP-40" value="" style="sketch=0;points=[[0,0,0],[0.25,0,0],[0.5,0,0],[0.75,0,0],[1,0,0],[0,1,0],[0.25,1,0],[0.5,1,0],[0.75,1,0],[1,1,0],[0,0.25,0],[0,0.5,0],[0,0.75,0],[1,0.25,0],[1,0.5,0],[1,0.75,0]];outlineConnect=0;fontColor=#232F3E;gradientColor=#F78E04;gradientDirection=north;fillColor=#D05C17;strokeColor=#ffffff;dashed=0;verticalLabelPosition=bottom;verticalAlign=top;align=center;html=1;fontSize=12;fontStyle=0;aspect=fixed;shape=mxgraph.aws4.resourceIcon;resIcon=mxgraph.aws4.ec2;labelBackgroundColor=default;fillStyle=auto;pointerEvents=1;opacity=80;" parent="3tKYfOBs04xEkgBUD2MP-35" vertex="1">
          <mxGeometry x="121" y="60" width="48" height="48" as="geometry" />
        </mxCell>
        <mxCell id="3tKYfOBs04xEkgBUD2MP-41" value="" style="sketch=0;points=[[0,0,0],[0.25,0,0],[0.5,0,0],[0.75,0,0],[1,0,0],[0,1,0],[0.25,1,0],[0.5,1,0],[0.75,1,0],[1,1,0],[0,0.25,0],[0,0.5,0],[0,0.75,0],[1,0.25,0],[1,0.5,0],[1,0.75,0]];outlineConnect=0;fontColor=#232F3E;gradientColor=#F78E04;gradientDirection=north;fillColor=#D05C17;strokeColor=#ffffff;dashed=0;verticalLabelPosition=bottom;verticalAlign=top;align=center;html=1;fontSize=12;fontStyle=0;aspect=fixed;shape=mxgraph.aws4.resourceIcon;resIcon=mxgraph.aws4.ec2;labelBackgroundColor=default;fillStyle=auto;pointerEvents=1;opacity=80;" parent="3tKYfOBs04xEkgBUD2MP-35" vertex="1">
          <mxGeometry x="192" y="60" width="48" height="48" as="geometry" />
        </mxCell>
        <mxCell id="vJi5SJJjgkvMFI4-lIAW-5" value="" style="shape=image;verticalLabelPosition=bottom;labelBackgroundColor=default;verticalAlign=top;aspect=fixed;imageAspect=0;image=data:image/png,iVBORw0KGgoAAAANSUhEUgAABwgAAAFYCAYAAABHzahLAAAACXBIWXMAAC4jAAAuIwF4pT92AAAgAElEQVR42uzdS3YiR/r38V/X8Ry9E6aiB4xFr0DpFUh9WIBwbKDwCopaQVEbiEotgGO0AqdWYDRm0GjK5C9W4HeQkS5KpQsRec/8fs7RsbstEDwZGRkRT1z+9ffffwsAAAAAAAAAAABAP3wgBAAAAAAAAAAAAEB/kCAEAAAAAAAAAAAAeoQEIQAAAAAAAAAAANAjJAgBAAAAAAAAAACAHiFBCAAAAAAAAAAAAPQICUIAAAAAAAAAAACgR0gQAgAAAAAAAAAAAD1CghAAAAAAAAAAAADoERKEAAAAAAAAAAAAQI+QIAQAAAAAAAAAAAB6hAQhAAAAAAAAAAAA0CMkCAEAAAAAAAAAAIAeIUEIAAAAAAAAAAAA9AgJQgAAAAAAAAAAAKBHSBACAAAAAAAAAAAAPUKCEAAAAAAAAAAAAOgREoQAAAAAAAAAAABAj5AgBAAAAAAAAAAAAHqEBCEAAAAAAAAAAADQIyQIAQAAAAAAAAAAgB75hRCgifbT8UTS2bP/ezNcbZ+IDgAAAAAAAAAAQLh//f3330QBpdhPx5H71+NkX3T0KyNJ5wX9ufujf9+5H0naSHqStBuutjuuCgAAAAAAAAAA6DsShAi2n47PlCb/sgRg5P550eCP/ajvCcSd0gTibrjabriiAAAAAAAAAACgD0gQ4iRuy8/nP4OOfc0HuYShpERsaQoAAAAAAAAAADqIBCF+sp+OR0oTgJH752WPw5ElDTeSElYaAgAAAAAAAACAtiNBiCwhGB39nBOVVx2Uri5MRMIQAAAAAAAAAAC0EAnCntpPx9dKk4HXIiGYx0HSWmnCcM2WpAAAAAAAAAAAoOlIEPaEWyWYJQWviEhpHiTFYnUhAAAAAAAAAABoKBKEHXaUFJxJuiAilXtUurowJlkIAAAAAAAAAACaggRhx5AUbKwsWbgcrrY7wgEAAAAAAAAAAOpCgrAj9tPxTGlikO1Dm+9B0lKcWQgAAAAAAAAAAGpAgrDF9tPxRNJcaWJwQERa6VbpFqQJoQAAAAAAAAAAAFUgQdhCbrXgXGwh2iWPSlcVxqwqBAAAAAAAAAAAZSJB2BLubMGZ0sQgqwW766D0rMIFZxUCAAAAAAAAAIAykCBsuKNtRG+IRu/cSVqy/SgAAAAAAAAAACgSCcKG2k/HkaSFpEui0Xv3ShOFa0IBAAAAAAAAAADyIkHYMCQG8YZHpVuPxoQCAAAAAAAAAACEIkHYECQG4YFEIQAAAAAAAAAACEaCsGYkBpHDvdJEYUIoAAAAAAAAAADAqUgQ1mQ/HY8kxSIx+JpHSUtJXwjFu+4lzYer7YZQAAAAAAAAAACA93wgBNXaT8dn++k4lvQ/kRx8yUHS5+FqO5L0RDhOcinpr/10HLvEMwAAAAAAAAAAwKtIEFZoPx0vJO0k3RCNF91LmgxX24X739eExMuNpM1+Ol7sp+MzwgEAAAAAAAAAAF7CFqMV2E/H10q3yzwnGq/6Olxt58/i9iRpQGiCPCrddnRNKAAAAAAAAAAAwDEShCVy2z0uJV0RjTf9Nlxt4xdi9z9Ck9ud0kThjlAAAAAAAAAAAACJLUZL47YT3Yjk4Ht+f54cdEaEphBXSrcdnRMKAAAAAAAAAAAgSb8QgmLtp+OJpFjSBdF41+1wtV2+8t8iwlOYgaQv++l4Jmk2XG03hAQAAAAAAAAAgP5iBWGB3KrBv0Ry8BQPkljVVq0LSX+5cgoAAAAAAAAAAHqKFYQFYNVgkNlwtX0iDLX4tJ+Or8VqQgAAAAAAAAAAeokVhDmxajDIZxJTtctWE7KKEwAAAAAAAACAnmEFYaD9dDxSumrwkmh4eRyutgvC0Bhf3GrCa1Z0AgAAAAAAAADQD6wgDOASKhuRHAzBirXmuZS0c+UaAAAAAAAAAAB0HAlCT/vpeCnpD0kDouHtfrjark/8XVazVWsg6Q9XvgEAAAAAAAAAQIexxeiJ3Jaia3HWYB6xx+9yRmE9Pu6n40hSxJajAAAAAAAAAAB0EysIT3C0pSjJwXCPw9U29vj9HSGrzYXSLUcjQgEAAAAAAAAAQPeQIHzHfjpeiC1Fi+C1deVwtd1JOhC22gwk/bmfjjkzEgAAAAAAAACAjiFB+Ir9dHy2n47Xkj4RjUKsA16TELbafdlPxzFhAAAAAAAAAACgO0gQvsCdN5hIuiIahbhzKwJ9JYSuEW720/FmPx2fEQoAAAAAAAAAANqPBOEz++l4Is4bLFpS8etQvAtJG3d/AAAAAAAAAACAFiNBeGQ/Hc+UJqU4b7BYIduLarjabiQ9Er7GOJeUkCQEAAAAAAAAAKDdSBA6Ljn4TSQHi/YYuL1oZk0IG2Ug6S93vwAAAAAAAAAAgBYiQShpPx3HSpODKF6S8/UxIWykbyQJAQAAAAAAAABop94nCF1y8IaiUJpNnhezzWijfdtPx0vCAAAAAAAAAABAu/Q6QUhysBKbAt6DJFRzfXT3EQAAAAAAAAAAaIl//f3337370vvp+Ezp1pcXFIFyDVfbfxV0vf6PaDba7XC1nREGAAAAAAAAAACar3crCEkOVupQxJsMV9snSbcN+U4PXNYX3bCSEAAAAAAAAACAduhVgpDkYOU2Bb5X3IDv8yBpwWV9FUlCAAAAAAAAAABaoDcJQpKDtXgq6o2Gq20i6b7G7/IoKZI04rK+iSQhAAAAAAAAAAAN14sEIcnB2mwKfr+4pu9xkHTttjo947K+iyQhAAAAAAAAAAAN1pcVhIlIDrbecLWNla7kq9p8uNpmyc6IK3ESkoQAAAAAAAAAADRU5xOELklBcrA7lhX/vTuXmIQ/koQAAAAAAAAAADRQpxOELjlxw2WuTVLCe8ZKt/yswkHS7Nn/xxajfm720/GcMAAAAAAAAAAA0BydTRCSHOwmdw5gXNGfm7m/d4zVqP6+7KfjGWEAAAAAAAAAAKAZOpkgdMkIkoPdVcU2o/fD1XZNqAvzbT8dXxMGAAAAAAAAAADq17kEoUsOfuPS1m+42iYlve9O0l3JH3/GFSxcvJ+OJ4QBAAAAAAAAAIB6dSpB6JIPSy7rq35Tdef3la3M63zrkpAo1kBSsp+OR4QCAAAAAAAAAID6dCZB6JIOidIkBF62kxSpA0lCtzrxsaS3X1BUSjOQtN5Px2eEAgAAAAAAAACAenQiQeiSDWuRHHzP2XC13UiaSHoo+W/dV/B9ylhFyOrB8l1IigkDAAAAAAAAAAD16MoKwlhp0gFvm0j/nOEXqfwkYRXXvWiLd/77PcWoEFf76XhBGAAAAAAAAAAAqN4vbf8CLslwxaX0M1xtn/bTcaR029EyVl7uKvoOdwVe/3tWD1bq03463gxX2zWhAAAAAACgfNbaiSSfYz82xpgnIgcAQPe0OkG4n46vJX3iMoY5ShImKj5JuKvoa8QqLkEYn/A7NIoLvn776ThyW98CAAAAAIByLSVdevz+r0rHjQAAQMe0dovR/XQ8EueY+Zo8/z9cYmZewt+qJJHmVp8dCnirw3C1PaU8kcgq1kBpkvCMUAAAAAAAAAAAUI02n0G4VjlbY3bZi0kYlxi7LfhvbSouC1W9x45iVLgLpTMYAQAAAAAAAABABVqZINxPx0ulSQX42b3x3+YqZiVepsqtOKtMELKCsBw3++l4RhgAAAAAAAAAAChf684gdOcOfuTSBdm99h/ceYRzSd+K+ENVnik3XG3X++n4oPAVpQe3VelJ32s/HVOSyrHcT8cbziNEHtbaqGvfyRiTcGUBAAAAAAAAFKlVCULOHSzXcLWN3Squy5xvdajh468l3eR4rY/7AmKEnw3c/T0hFMjhz659IWvt8f981PfJHsnRP5+MMSTXAQAAAAAAAJykbSsIY3HuYNkWyj/AXscgdZ4EYRLw/UgQluNiPx0vh6vtnFAALzp3Pzqqhz5J/yQSH5QmEDeSElYfAgAAAAAAAHhJa84gdNtfkpTJ593E3XC1TZSukMtjV/UXO3WL0Ff4vjahKJXq4346jggDEORC0pXSpOGf1tq/rbUba+3SWntNeAAAAAAAAABILVlBuJ+OJ5K+cLlyezrx92LlS8buavp+d0oHxn08DFfbJ8/XJBSl0sX76XgScG0A/OzC/Xx0qwzvlE6MWBtjuMcAAAAAAACAHmrLCsKYS1WIk7b+HK62sfKdI5jU9P2SKl7jklb3FKdSnXPfA6W5kvRN0v9Za9fW2pm19oywAAAAAAAAAP3R+AThfjpeKF35gHwOnqux4hx/a1fTdwzZZjSp8G/Bz9V+OmZLRKDk+0xpsnDntiEdERIAAAAAAACg+xqdIHRbi37iMhVi4/n7cegfGq62uzq+oPu7jyXHJUOCsBrL/XTMyiagfANJHyX9z60qjAgJAAAAAAAA0F1NX0G45BIVJvH55eFqu5F/sk2qf+tNn+/5GJrMdK97oFiV7lzSgjAAlbqS9Ke1NmFFIQAAAAAAANBNvzT1g+2n47mkSy5RYUJWyq2Vrigp++8UaS3ppqLPulS6NR/K9XE/Ha+Hq21CKIBKXSpdUXgraW6MeSIkAAAAqIq19lrS5IX/tDPGxEQIAAAgn0YmCN2WggsuT6GSwNe0LUGYVPhZ1yJBWJXlKx1DAOW7kXRtrZ0zEAMAAICyWWsnrr99/sqv3CvHsSgAAABINXUF4VLpeUgoxsNwtQ1Z+ZEEvKbWBOFwtX3aT8cPki5K+n7P/9atTl+xiHAX++l4Plxt2XYYRbs3xkRN+1Bua8/R0f+Vfcbs/59U/JwcSPrmZnHPWE0IAACAEs31enIQAAAABWlcgnA/HUci4VK0JORFnsk2STq4swvrtjnxM+8K+Fsx5bUyi/10HAcmu4FWMcbsntVRL9bj1tpIabIw+7ko+aNdSdpZa6+NMQlXCgAAACWgjw0AAFCBDw38TKwQKl5S0WuTFn3fw3C13eX9Q+5cvAeKWCUG1A/Aj4wxiTFmaYyZGWMmkv6fpP9K+irpscR78U9r7ZwrAAAAgCK57UUBAABQgUYlCPfT8Uzlr37oneFqu87xcp8VgUlDvvKm4O/1HpJW1blxq4wBvMAY82SMWRtj5saYkaT/qLxk4RdrbUzUAQAAUKAzQgAAAFCNxiQI99PxmUi0lOEu5+tblyA8cZvTTYF/L5Z0oKhVZkEIgNMYYzZHycL/FvBMeO7GWhtbaxnIAQAAAAAAAFqkSSsI50q3LUOx8qwelMeZgo8NOX8wc//Of98V/PdIblfn0q02BuDBrSy8lvRvSbcFvvWNpIQkIQAAAAAAANAejUgQ7qfjkdIEIYq3LuA9TjljL2nY997k/O++lmIVYZUWhAAIY4zZGWNmKjZReCEmSgAAACC/iBAAAABUoykrCBdi9WAZ7oar7VMB77M74XfWDfvulSYIXZwZHK/OOasIgXyOEoW/6rSJIO+54UxCAAAAAAAAoB1qTxC61YM3XIpSFJW0ey+Zdhiutm1KEB4KSpw+xyrCai3d2aUAcjDGJMaYiaTPBbzdjbV2QVQBAAAAAACAZmvCCsIFl6EUBxWXINy989/jpn35d85D3JT0N1lFWK2B2JoYKIwxZqF0NWHeiQ6frLXXRBQAAAABmAQKAABQkVoThKweLNW6wFVyu3f+e9zQGDwEfp88WEVYrTmrCIHiGGMSSSPl33I0ttaOiCgAAAA8TQgBAABANepeQbjgEpQmLvC93lpxd//Oar067Tz//9xYRVg5VhECBTPGPEmKlC9JOFBzJ48AAAAAAAAAvVdbgpDVg6V6HK62SVFv9s5KxLjBcXgtcZmU/HdZRVgtVhECBTPGPLlzCW9zvM2ltZYEPgAAAAAAANBAda4gXBD+0pSxgu3+hf/vcbjaxg2Ow+6V//+pzD/KKsLKsYoQKIkxZqZ8KwkX1loS+AAAADjViBAAAABUo5YEIasHS7eu6O8sGh6H3Uv/ZxVbog5X24WkR4piZWaEAChNpPAk4UBMmAAAAMDpzgkBAABANepaQchqn/LcDVfbXQnvmzz7301fPSi9vMVolUm7BcWxuk7kfjqeEQageO5MwmuFb518Y60dEUkAAAAAAACgOSpPELqzwmaEvjRxRX+n8dfwlbMTdxX+/Vj5tuaDnwUhAMphjNnlrPe5PwEAAAAAAIAGqWMF4UzplmMo3mG42pa1vWhy9O/3w9U2aUlMnifodhX/fVbLVud8Px1HhAEohzFmLelr4MtZRQgAAIA3WWsnRAEAAKA6dSQISZiUp4qzBw9q1wrQ56sId1X+cZdIvadoVmZBCIDS77FH7k8AAACU4IwQAAAAVKfSBOF+Or4WB06XaVnWGx+tGFyUdMZhWTbv/O8qLCialbncT8cjwgCUw51HGDrR58Zay6APAAAAAAAA0ABVryBk9WB5HoerbdnJr/vhartsWVye3vnfpWMVYeWoZ4ASua1GQ+u0GREEAAAAAAAA6ldZgtCt6rkk5KUpfXvR4WobtTAuT8++Q1LT5yBpVZ0ZIQBKt+D+BAAAQMEiQgAAAFCdKlcQkiAp15oQvGjThA/hVneyirAag/10PCMMQHmMMUlgnXZhrZ0QQQAAAAAAAKBeVSYIZ4S7NIcaV8a1Sd0JugWXgPoG6JDQLaevCR0AAAAAAABQr0oShPvp+FrSgHCXJiEEr3p65d8rx1mElbp02xoDKIk7i/Ax4KUkCAEAAPCSM0IAAABQnapWEM4IdakSQvAyt7VnpgnbjcZclcqwrTFQvpDtrS+stQz+AAAA4Dm2ogcAAKhQ6QnC/XR8JumKUJeK8wdP81T3BxiutrHCVtzAH6uUgPLFga+LCB0AAAAAAABQnypWEDJIX67H4Wq7Iwwn2TTkc8Rcikqc76fjiDAA5THGbBQ26YF7EwAAAAAAAKhRFQlCtvkrV0II3vXg/rlryOeJuSSVmRECoHQhq9jZPgoAAADPjQgBAABAdUpNEO6n45GkC8JcKrYXfd+TJDVlpaX7HPdclkqwghkoXxLwmkvCBgAAgGfOCQEAAEB1yl5ByOB8+RJCcJKHhn2emEtSicF+OqYeAhr4HLLWsooQAAAAAAAAqAkJwnZ7GK62T4ThXRu5VYQNwsrP6lAPASUyxjwp7BzCEdEDAAAAAAAA6lFagnA/HZ+JLcTKRpLpNDulScLGcIndOy5NJUgQAuULqWNZQQgAAABJ7C4BAABQhzJXEDIoX76EEJwkVjOTqSR4qzHYT8d0NoFyhSQIzwgbAAAAaBsCAADUgwRhiw1X24QonBSnp4bGigRhdWaEACjVLuA1JO4BAAAAAACAmpSZIIwIb6nYnrLl3DajD0SiEkxYAMq1IwQAAAAAAABAe5SSINxPx5GkAeEtVUIIuI442fl+Oh4RBqA0TwGv4Z4EAABAJiIEAAAA1SprBSGrdcqXEIJOYJtROpxA6xljQs4gPCdyAAAAAAAAQD3KShBGhLZUh+FquyEM7cc5kpVi4gIAAAAAAAAAAJJ+KfoN99PxmaQLQluqhBB0ygP3TCUiQgCgz6y1z+vBjTHmicgAAIAGOCMEAAAA1fqlhPeMCGvpWD3YLYlIEFZhsJ+OJ6y+BdBV1tqJpInS8x0jpQNtF++8JvvXR0k718bYKU0eJkS18Gt05q7RxF2f7J9y/37KGd4P+n7u58b9+0bSLnC7X3Tj3o/cvT854d7P7ves7GwkJV2cMGCtHR3Vidm/nzKh9d79c+d+EneP7ShxrS4Px+Ug+/Gpf5+Xi417XlIuijEhBDjheTc6au9m9/Bl4P1L26k75eLsqP+T1SWnLmDJ2tZPR32hHX0hoBPtvax+OLU+yPpJveprkyBsJx5S3UKDtDoR8QZK8yjOFay64XumdPvkyP1zkOPtzt3P5dH7S9Kda3esGQAN7pxkP5Oc1yhz3LG5fPb3pHQA7Djpw3Xr7r2f3f+DwPtdkq6O3vfB3e9xWzvAz+rFKMdz6fLZPz+59390McrqRVZhN7csjJ7Vv0VMyLx8pe49ZHWuq3fprwPFt6MuS7p/s7ZTVq8zXtD85/xx3X5ZwNsePx+unpWNh6PnfsJzH2h0nRAV0N477ie99LzI6oRO9bX/9ffffxf6hvvpeCNWQ5VquNr+iyh0x346jiT9SSQqcTdcbTmLsNuNA9+H2r0xJiJyhcR+J8+BWGPMv1ry3ZJ3Op8PkhbGmHVFnyeSNJN0U3Eo7iXFYlD8rWsz0vfkxFVDPtajpLW7bglXyfuaLuSSQ684SFoaYxYVfJaZK19XFZWbpdJk4VPDr1GWFJzX0A+9c/dWzN3SiLJwnDivc9LS4ajeXXNlCmtv0YavJ9aS9GtVbYij+zjv5Le8929Mu6kx5XVyVCbqHm++O6rfn3p+XbzGXtrS9294v4NnoX6aLFl3n7v1EyylclYQkhws1z0h6Jbhapvsp2MCUQ06kUB5+rx68ELSH9baf5c5g8wlBxY1xvrS/SyttUulSZHeJwprTk6cem9+lPTRrXKJ296BaZiBpE/WWpWRJHTla650UsB5xeXmi6SFtbaSBGhAbEauTqxrEFluUOIqqxOpF2spBxN3j9RZDl6qF24k3RzVu0tWdL9rRAh6ex+Pjp51gwbdv4/uOcPkuHrKRNa+blI/88r9fLPW3rm6PeGKAb1t8124n49uN5asr92qZ0ahCUK3EgrlYjCnmw4Nqty6jHMIAZRp5gYRim4IR0oHnpuSfBoondk4t9bO+ro6oiHJiZBr9/GoA7Nk5VMz7/+jxOC85vKVJUBnkmZNGAQ7uvduGnZvZfUiicJqysFMzZ2Y8Vq9e690x4GEK/gitqrv330cufr8ssFl8pvc5LgmTpbpaJmYNewZ/5psktCjq9tpUwP9fFZkLvR9guXa1Qu7NsS46BWEEcW2dCQ2untdLwlDJSbcRwBKUmg7yCUIYjVnq8rnejmxxXVQ5g2+Lj4dmG9uK5uFmB2f13mBZexa6aSA84Z9vz+ttV+NMfOa7r0zV1Y/NrgcMIGi/HIwU72r6fO4dPcRicLv13Mi6SzgpWfuedxET6zSP6kttVB7xkCOJ8vMqdspEy+0kf5pU5MoBHpfLxyvRL9VCxKFRScIJxTf0tHQ7KadSBBWhXoKKL7hdkYUCo/ptdLkYNOTcJseXZORuyZde15ns+MX1loGNXLWhXmSrC2YFCClq6AiSVGVCeUW1YnHAwN/uO3HZiTfCykDM7U3Mfhclii8U5ps2HXg+hwn+s6e9bme/7ciVn1eSPqzoeG4F5Pn32pLLdXeSVbn1O2Fl4lI7U0MvtimttbOXd2ecIWBzvaJTpUlCr8qTRQ28rlBgrBl2Bqxs3aEoDLUU0Az7ivO1H29QbxUs1fIZA59OE+pJauWinA8+3nGoEZwXZgElrM2JcAuJG2stddlr5LpwADBlaSdtTZiRVFwGYjUrG22iy4fkZucsWzRNZlIWostQeFXbhaqf9vsouv2a9pLuZ7vS7VjK9GQdtKfbuXQnEQy0Nk+kY+PkmZN3WHkQ1FvtJ+Oz2gglu6BEAC5sVITKB4rCAvqKLu96tuSiNr04JpcK53E87FHRTHbSjJmdXBl5Wwp6Y+WdYTPJSUuUVBWXLJt4ds+e3gg6S+3Ag5+z8Sl0lViFx3+qgNJX6y1iVtd1ZZ2H2M/OLkut9ZulG6/POjYvfunWy0GvzIxd+3rm45/1Ru5SUJcdeCkdl/cwj6R73PjD2vtumn97CJXELIqp3w7QsC1RX776XjCalygUCFtgC7We8GNPNdATNSuQdCkyx0UVbtq6UFSNrt4c/Tvz++zs6N/L7vjdCPpmtnxpZezIu/7+3fq6aLLzEBS7FbHPRUcmzJmDx/09sSGsu+rb9ZasY3vSdc/cte/rCTUg2uHbNw/szbJi2fHPds+M9L3LTSLnHh4qXRlLmdXokv38kJpYrDsttNb91XZvlhrJ8aYGVf8pHbPusTr8ujq88SVjX/q85fasm5SxuhZOzsquD2QJZI/G2MWlALgxbph5OqGMsZCDi+0917qbz/fHj1r75XxmbJV6I1p8xWZIIwo0qUjodFdO0JQqQn3E1D4PUW9F9h4bGlysLPtkpK3TntwcfvnJ+eZdROlAxsTFT+gIX0f1PhqjGGG/PvOKixnd64MJT7lyCVeRq68XBdQXi7cZ5gUeA/OlJ6Lmcej+1yJpJ1Pkttdm8nRfVVk3UyS8P34L1R8QuHu6F5JfF/8LGmYvFBeIkmzAspKNrP89zZtOQq80rYtKhGUu+109Owro16X0vOlRJLwzWtQxsSfB1fOkpBy4Y5K2L1Stx+3laICPvcn97zg7Erg53ZUUmDdcDiqFxLPI1HW7/QNiuo/Hbf5GjF5oMgE4YhiXToSGgD1FdBEIQPDPNNUanLwcEKM8yaTNh28HnNJXwq+DlkHZV30gIAbtN4cd2bcINi1+ykqyfnRvW/EoMa799T6hHIW2hG+kxTnmWl6lByJj8rLTPm2+bqw1sZFDIzmTA4+uu+1znPe39F9lX2mkbufZgXV1SQJX38eFrmy5NaVhVJnZh+Vl+VRWZnnrH9ZkYQ238uRu5dD25iFt52eTwxw9U3WVipqtwiShK+XiYWKm/jxcPSs35VYt+/c34mP2id5y8uV0u3ZaU8DKjQ5mD034jJ2vjlq62X1wfXRM6QTkwdIELYLDxCgGBEhAApr1I0UNgi2I3aFJQcf9ONKmY3n53i+Cu2UwdlDmZ3ymq5HrOLOQrl3HZS46u/hOkWJpHnW2XA/RawU27gtR0nwV9cRPkhauvK0K6u8uOR49hNSVm6stbmSMTmSg/eSFmVthevivlSaAIokLZQ/ifXNWvvEVpI/3BdxAc/Dx6P7pfK+c8FlpcnJho2rmwaUXjy7l/NMtMo9CcbjXn1ydU523nKe59/z+3bDCuAf+jrLAtrX2eD/oq7+h2vTx67vu8jxnS5cu2tGexq0/XInB2tp97nn1Np9j2wSYasnDxSZILykeFfSEGQ70ZQAACAASURBVAeQ34gQAIWJAhtVPNPy7bN/516fe2Z14Cq0pEOdkyLPG7xVjYMXr1zbuZu5fa10QCPPqpbzo84L93C5HeEsMbisoqPo/sbCJcqXgfdDbK0dhXxeV+f4JgdLTQy+EqdEUuQ+71L5Elox91KhA0SLJq3KfFZWFgobL2lkktAY82StXau4STXoxr0cB5SJg2uDLWtM/GTPv6WKSRR+cUnCpOfloYiJkJW2hU4sLztJM9e2XgTWg1mScNK1CZdARW2/g2v3LRtQJ6wlrQuaPBC7PnvlCkkQ7qfjM4p3+YarLSsIgWKcEwKgMFHAa+5pFNtY/oOFpa4ketbQTfTjKrTs/I2sMT/ryHUoahXnnaR5Uzv5z2bKz13nJbRDNhBJwtecFdQRrq08ub957VbzLT3LycC9ZuZ5H560NeuzunBW5+o7V0dOcm6bNnD35aSvN0yXBojeKStR4D0lNXcl4Vzp5KKZ2neGMopvS/luD9zExE8RE2Uy69AJM7Sv/3Hr2kKNjOFRonCpsBXwA1dO2G4Ufawf4hxtv0bWDQVNHljU9fmLWkE4oYiX7kAIgOLsp+NouNomRALILWSGU6/vPTdI6NNgrHUQ5fl5XB3rnCTKN3jxqDRR0ZoybYxZusGvhaSPgW9DktCjT+SRBKk98XVUTmJr7Ub+yZsbdx5h4nEf+gwS3KnmMzqexWnhVlL5xilzYa1dGGMWfbtZCkgONqosnHhPrRW2Yr1xSUIX96X7KaI8RJL+9HjJvTEm4rHTyrZUo3ZbeKFs75ROlMmzXepAadI0okx4e3B1eyval+5zhk4YuhBnEqJ/QnfgaEw/6YRnyOyov33q5JmvddZ7Hwp6nxHlu3QMvgDFYuUzkL8DGHooc9LhmExO+O8+g2l3kibGmAUdx8Ll2eJVkj4bY0Zt3ELKGPNkjJlL+lVpkjNEliRkouDb93w2UPZeXXkvadSkTq/rpEZKB+t8LEoaJPjdGHPdwBnDG6XJ4YfAt/jUt/soZ3LwIOm/TSwLJ9a915J+D3j5jZtgBDTt+XZqHf4o6VdjzKwN2yq6lcn/Ufhk/cu+3bMFJAc/G2MmbZx85ib6hJSXbFtBoA91xLXCVtY9KB0TWbeoTkjcRKbfT6gXHlXj6kGJBCGA/mJAE8gvpNN76PiZHO9NPoh1+vlj2QDojqJWeOckVvj52QelA1yLtsch2yZR6Wz+EFmSkL7Ay+Xs1OTgV2NMI2ePu0G6mfwGvC7daqCiBgmy+rDJ20juFJZMzSx7dF/kSQ62boDolfISmnj4xqQMNOz5dmoiqJWTqo4myoQmCZcuVn0ROvmuE21rV15GAW2BK7cCEej6cyMObPtFbR0TcW2+kd4+Zqf2HTFIEALNQEeveqwgBPI18EYKO5tj3eOYnbpSJmsErylppVyHhcIPD39Qusor6Uo83IqWmcJWtEjfz1Dhufpz2yI+4Z7/za3mbHIZyQZIfSwKGiQ4tKU+dB37SGEDyb1YaZLz3JlbtXiA6I37yre8UN+iCfdxcmKbNls1uOjhvZq1keY9KRexwibfZf2eTrStj9oCvknCT6dMrgJaLOQc5qx+eGp7veBWE/72wrPktgn1HwlCoBno5FWPpCyQT2hnN+ljsNyM/1POe7t3jWC2Fi/nOlzL/3yQzF0XOihvdFyWr3RaTnGhHq2AeicOWVlb6O1JFNmquLgl5WMjvyTy5TsrnRY67UzGVtWHOZOEix7cI7HCVpfcum0JO1X/BiYezsV2dKivHeWTHMy2yU86cq/OAl/+qes7LQScr5556GK/J0eSMGYCCDpaR4wC6ohOJAef1Q2xMeZM6TEfv0n6T1POly4qQUgFBgBAvwYHQhoyh7YMhpfglO9929RtBjvUMQktf7dtPO8qpNOi8OTGjbV2TkmT3AzwtxLRrVkV96x8LJUO+J5q/sa9eMqEiXlLzyHaKGwSzXmXVxGekDR/q/7tbFwCk4RXbsILULVTt5D8vWvtJvfM/hz48kWH6/aJpG8BL+3c4P+z8hKSJDxXPyYLoX98y/VBDdh2s8T6IXHJwsb0c4pKEF5Q1oFcIkJQuUtCAASbK2x7sF5umemSJu+1lTo9ANoQcWC57dW1CdxO8p/OX9/Px3ITKNbvdHjbPFt+rtMTGdevzIQ/ZZDgc5snlLjPfhdyD3X0vpgobPV2L+pfVx/4JvyWrDRBxfdxfEIfuvFnxua8VxcKO2v2pov36wltntd0Ojl4VF6yJOGjx8s+stUoOlZPjOS/enDBjkrV+kAIWoNkBgCgKQ280FVCfdiC8OyFjvPihE4yK6/KLbeLwLbUQx8Tt65D9lvASwdi67u1Xk9Etz05KHf+29KjPFwHDBLct/m8qiM+ydTMedcGBnMMIPdtckYiv218z2k7oOL67L26u5Wr4wPMcsSwaxauLvLxqB4kB4/q9icFTAChykGP68z7rk4yabLcCcL9dDwijEBuJIBrQP0FBAk5XDpr6PVhFtjEM169mEFbpxxJ7Qf1eIW/WwH1e8BLL1xCljbdz+YdqQeX8lhF+Ox/v1c2DgoffG3aPbRT2CDfrGP3xEL+A8i9nDjjBsTuPV7S+bPN0BhXJ9yzkz609d13DNlqtFN1u5vM8tHzZQdJ133r9wSc43zR5S3H0Tu+ZXlByKpXxApCGqQV2U/HE6LQyevKPVQfYg/4dwSvAl8e9zBeI70927rTe+s3SCz/pDbXRkFnzmXmDFr/5LeunMHq7otTE19XR3Ximd6fRb9wibWu8EmmZjqzFZ3bWpQBZD/XnmVmQfWKmmWT3XY9+s4hdft5x84ODWnTzPu6bWDABBDqdnSlHegzSeze7aiAirHFaLtwxkA3jQgBgBY07kK3CJOkx64MjHt6r2M3Y2/90svttcJW6c+5Nt/LqfzOTpHShCxbw3x328E68OTB0aMB0ZneWVHdtS2FPJOpx647VE6865yeJRpeKjM+qydvmJCBGvVyJ4y+1+1upwjfleFfe9offN6mPjWxfM4qQnSkzPtYELJ6kCBsl4gQcF1RKJLuwOlihW0tKvVwm7ATVg9+7cEZLU0QMnhzxwDGd24QbBbw0quunaUWqJPnWLpycWodFp04SNDVZ0UvB5HdwKbvBA2ejfpni2dWmqDxzzf1e5v8kFWEXajbzwKe14/UU0Fbj1O3o+18+oKPrB6sz4eKLzbyYYtRriuIPVBHR3Cu8K1F73s62Legk1x7uV3If3ZzZ84/K5LrrH0t+D7og4O6sxLsJacOckVu0sTFO8+KpKP3z5OkW8+XXXVgm1Hf+59nY3j8OrMtLVr1fOv1GdqeE2Uygw5sMxpyHj1HKvwYP1YRoi8uPH6XydM1YgVhu5DM6KaIEABoKteJ/ZLjLRY9jNlIb68epJNc/jUImd0spVuLcm1ev5d9txq97Pkqwk5vlei24T2lTFzo/cR717ekDRn0aO294wY0fSdoUP/+eH8l8ltFOCdqqEjvk4M5n11trtvf6+O85JZVQT/U7b7bSM+IGlpaX/jWddQTNSJB2C7n++l4RBi6w13PAZEA0NBG3URhB9BnvvawQzh6pyP3lU5yJWYBz9d7thZ9nRvQWAS8dNHTkPVlq8RTv+OnN/7bY9dj5b6f71Z0UYu/su99f8/WornjOCNcqMg15zT/U7efOlGmr3X7QUxeeKncxB5tgkvXJwfaZuT5+zxXakSCsH0iQsD1BICyuY5IovBJDH3dKmz0Rkf4ILZPq0rIYATX5h0B52JJ/VxF2Kf6LyngPZY9iZVvAqyV903g6kHq35fr3ETpOW+nOO/A1oVovt+Y6Ja7br9o45bAgasHl6w0LaTtMyNcaKGRZ5tnR8jqQ4KwfWj0cz0BoOwOYN7koNTfbTQv34gb26dVU35n8h+cvmfA62SLgNf0bfZ4n+q/Iu6bNbF60UVLv6dvHcH2c2/zGUSmb4ky3bLTwotCYhK1sW3j+fsH9WcCUNnlZka40HGPhKBeJAjbJyIEXE8Qf6AsBSUH2UbzhUYvgyqVYfVgiQLOxZKkKzfzvA96lWx2idCHHG/x0KMZw96J0LatvnWfl9WDxd5jsU7fio4EIcryYIyZEYYX79GN/LeQbuOWkb7ta1YPvl1udpLuTvz1ASvE0XE7QlAvEoTtM9hPxzwYOmA/HUfi/EEADeJWXv2Vs256MMZw1sTPZoSgkjI8kf+qG1YP+ou5B3AkqbgstZIbKPWdId22QWTf+/yeLaVOcmpymUFklIW2fbHPwaiFfUSf/iGrB4tvA1G3o20iQtAeRSQIOSy1ejwYuI4AUHTHL5b0LefbHGgIvogEVHVmJXfOoX9WtDxWcG3QDpscr02IVTf62u5MLd/zqRbcPifxWX1KHxNoft0+6nj7es3qwZPa02udvvqUPja6XC9eEq56FZEgPCOMlbvZT8fEvf3ovAGonbV2Yq3dyH9Q77mDpIjO4IsWhKAyM8/fZ+vXcL5xO2dlS2ftQp8bbmu2PunyILLv/f3I5JnTMIgMNJ5vXXbeli/mtoj3Hbyn71N82Tl3O6UAbcG4UIuwxWh7zQhBe+2n40mbGoUAuslau1C6pehFAW933cOB3lMwAFpdeb6W//a4ayIXLA6pJwhb9+So4/pYN/p+5zYNBnqfT8XdU0rZOe/Rma9AU3j3gVp0xqxv2+2BraNL64tEhAsd7suTAK9REQlCBgPb0QED1w8A/umQWmt3kj4V9Ja/kQR71YIQVCYk+cQAdSA3+HNXwTVCd/WxH+k7m7oV55W7hJTvZCMmaPjxaWdFhAuotE30pNNX+bbNjLY1dTtQAcp3jYpIELJktB7n++l4Rhjax20PywAZgMq5xGAi6U8Vt4r5N7ZofBXbV1aLGc7V8x3gH7DNaGfdB7ymdwnCkJX2LVkNFlH/li4p8XoAyK9zZ8wy+aOSdsFOp5/rTd2OrrZbQvryKBBbjLbbjBC09roNCAOACjt3x4nBog6APkj6lQTYm4hNdWV8EvBs5frkFzIIFBE2OEw0Pc2oBZ/Rd1CH+teTZ3KZbbqA5j/TzjpYt99zHn2QU+v3AVtIo0V2nr9/SfmuDwnCdrvcT8cRYWgdthcFUDpr7Zm1du62Ei0yMSilycGIbUXfFROCyoTMOKT85uQGgR4quFbo3iCAevwMue/gd7ry/H1WmJRbdi4IFVC5Lq6Kj6jbG1d2RoQLLekn7uS/9fKCyNWDBGH7cfO0iNsW9pxI0IgHyuCSgjNr7VrS/0n6UkKd8yBpFLJNWs/csX1apSLP33+kDBfGdzDonNmhnUR9V55G3y/W2pD6l/JSct/FrawH0J22axs+IwnCMEnHyg0QUrYl6SagXYkC/EIIWu9yPx3PhqttTChaYUEIGoXtL9B6bgAocj9XJf+5r8YYVkGfhudyxe2hkjsreDuWnzxfE3GP9N4jITjZqOGfL/L8fQaQw+08yw0TYYDqdGpsIWD7fiZ/VFe3A22xlv8YVWytnbBdcbVIEHbDQgyyNB6rBwEU1FEbKT1bJnL/rOJM04OkmTGGQb0T40WsKr0vooCXJUSuGMaYxFrr+zJWtmDX8+9+2aHv41sHU/+G8z2HkLYI0Mz7k7odx23pnUdbekTE0CJrSd88X3MuKbHWRiQJq1NEgpCLVb/z/XS8GK62C0LRTPvp+EztWT34IM6tQH+cNWgLg4l+Pqw+Ovpvg5o+153S5CDP+9PFhKBSIfdwQtgKdS+/hEdEyNBju459H99kJ6vaKmrjEgIAFbavqdvzedRpCwqYZIfWMMY8WWtvJd14vvRC0tJaO2ccqhpFJAj79BC4lzRzFXLVqzfeM99Px/Fwtd1RrBtprmauHrx39/BO0ma42ib76fha0h9cMvTEhaQ/CcOrnZSZMSYhFN6YsV8t344yWyAVL5FfkoCJSN1D572HAs65o/7NwXPFNoPIAKpsX5MgzGen08YMB4QKLRPLP0Eo95oJKwmrwRajnlwCbqejwb/9dJwlDLOfOraMGUhaSrrmKjWLWz3YhDO7smTgRmky8LUGXJ/K0I4SCvzkIGlpjFkQCrQEAxj1846p6+wlhK6/ZQC9rH9pewNAw1lrz+Q5wZ02XaXXZ8RkG7SFm9x0J/+zCKV0UmlirZ0ZY+hrlIgEYQEdIJdo+aGguqRhpO9JwypmSl/tp+Pr4WrLyoVmWaraWT4HVx4T98/dG8nAl5AgBPrp4OqrJTO00KIOsvcAhkhklCEkphOx1SvQdiPP3+eerw4rCAFUVX88ELJC2tKnLjYZibEstMtcaY4kZGw8SxIujDFLQlkOthj1M9hPx7Phahu/94uvJA0j/Zg0LGPLyXg/HY+Gqy2Duw2wn45HCltKfarnycBNnm1m99PxTGxZAPQNiUG0WcgAaELYimWM2Xlse5cZETmg9SLGDip36pmv9OkAVNW+3hGy3OiHo+t9xYWkL4FvMZD0xVp7LWnOasLi5U4QDlfbp/103KeYXSvdPzckVomOBqXc1pPZSsNIxZxnOHCfj61GmyEu8L0e9X2L0ETpysBdCeWbRhjQDw9Kk4IxoUCLhSQId4StFKcOWue5dgCa5Yy2NwD0vm5nsB7Am4wxS2ttpLCtRjOXkv6y1t5KWrDVbnHYYtTflVuhl7sQulV+iX5MGo70PWkYep7h1akrHVEet2I09DzK58nATdmrQl3Zu+rTNfLcehXogoPSiQsxs67QEb4DGKIjUZqdZ7tnRMiA1vM6RoMzqgCgFaKANiCqwzb9aKuZK7t5j2G7kXRDorA4RSUIfWcMd6FAL8p4Y5d43En65xxBd55h9hOdeCMt99NxUsIKM5zu1DLyoO/JwI1baVpXuQbQPY+uEbY2xnBGLbrYQfbBGSnl8W1znhMyoL3cGbC+r0mIXHXPPWvtGdvHA6jA3Fo7Iwy5jDx+94xwoY2MMU+urkhUzFboWaLwTunuWLQzA7GCMPDhp5IShC954zzD46Th80GWgdIkI9s31cCd5fdS0vxe6QBa3cnA18p1nzxSUtFR2dmka0kJKwXRcWxv1xw73xdYa0fM+ARaK6SfeUnYKr9GCWEAUHL9fkHIAJzCGLNxW40mKu685CtJV9baR33fMYs+poeiEoS7njX2B3Vv4fnOeYZZ4vBiPx0vh6vtnKJeuYXSZODxysDGDtK7hGbfDrLnYYGuOJ54QEIQfeM7gMH90azn6ojnMQAAQKMMCAGAspSUJJTSxVOfJH2y1j4oTRauSRa+r8gEYd8sXEFrhHfOM0T112PUso/cxyQyq0jQBo9Hz9id+3lSmuTY0dABvDsU1P08VwEUg34mAAAAvLkk4UjFnEn4kgtJXyR9IVn4PhKE4c7rXkX4nqPzDIFXue1q+7glBKtIIEn3xpiIMAC9QRKr3E6e78sisf0d0FacgdR8jAUA8OJW9QBAFf3HJ0kTa+1S0scS/9RxsvBR6XE8MbtvffeBhmcuC4oQKMetxSAxALRY4AAGnQAAQC8wSx4AOikhBOhYe2Uu6VelO2iV7VxpMvIva+3OWru01l73/RoUlSDs62DLuTu7DWglt3rwsqdfn0FiAAAAAF10TwgAoJMYy0LnGGMSpdvXf63wz2bJwj+stU/W2thaO7PW9m6XjEIShO78u75acBuD8ttKOy4/AACFevD8fbYoBIDiPaqfZ8wDQJcdJP3mtmUEOscY8+RWE/5H1U90Gki6kfRN0v9Za9d9Shb+UuB73aufK5EafxYh8JKerx7MzugEAPQLHepmxXdCyIDWGnn+/q0k+swV1MOcqQOgQg9iQkIl3AoroA9lfSMpckeKLFTP2PWV+/lmrb1Tem7huqsJ+iIThDv1N9mw3E/H656vpET7LHreiAUA9LOzAQDIb+T5+zsGNwGgc56o2wGU1HdPlCYKJ0onItzU9FGOk4W3ShOF6y7F+kOB77XrcZkdiBkzaBF3duZlj0OwoxQAQOtFhAAAAAAAgG4yxmyMMTNJ/0/S76p30ceN0jMLd9bapbV21IUYF5kgTHpeXj/tp+MRty2abj8dn4mzM1lBAgAAAAAAAAAN584oXBpjJkrPKfyq9NzlOpxL+ijpf9baxFo7a3NsWUFYrJgQoAXmriLrMxKEAAAAQDiO1wAAAEDl3KrCuTFmJOm/Ss+6PtT0cS6Vbj+6a2uisLAE4XC13dV4IZri0m3dCDSSW+X6iUiQIAQAAABoTwMAAKCtjDFrY8zMGHOmepOF52ppovBDwe9HJ0Faui0cgSaKCYEObkIDAAAAAAAAAKDlniULf1U925AeJwqjNsSt6ARhQlHUQCRh0ED76XiudNlz3zGRAQAAAAAAAAA6yBiTHG1D+h9Jv0t6qPAjnEv601q7ttY2ejEZKwjLcbWfjq8JA5rCbS26IBKSmMgAANTnAAAAAPKaEAIATefOLFwaYyaS/i3pN0l3Ff35K0mNXk1IgrA8sUvKAI0oj0pXt4J6CgB6y1rLIAYA1CMiBADQeE+ev884E4BWMcbsjDGxMeZa0v/T92RhmecWDpSuJlw0MSaFJgjduV6PFLV/LnxMGFA3thb9CQlCAOgvzoluVnwTQga01o4QAEC3GGMYLwHQpzrvKUsWunML/yvpVuUlCz81ccvRDyW8Jw+T7y730/GCMKAu++l4IukLkfjHo5vIAAAAindBCIDeoE0NAFDTz9YCgFMZY9bGmNlRsrCMbUivJCVNqjvLSBAmFKcffNpPxxFhQNX20/GZWMVK/QQAAADUjy2eAYD6HQBawSULs21IP6vYXTMv1KAkIQnCaqxdsgao0lLM5Kd+AoDuNthD6nQGMJrliRAArbXz/H3OqQKAdrgnBACQctuQLowxI6XnFRaVKLxQQxb2FJ4gHK62G5V7qGMbDSStCQOq4s4dvCESP0kIAQD0GhO2SmKtDUm+cjQB0FLGmF1APTEicgDQOUzAA9CX9m9ccKLwylq7rPt7fSjpfROKzE84jxCVcFvacu7gzzh/EAC6x3dSGgnC8hBbgDr4PSNCBgCN5zuBizYggF45ShR+Vv6Fch+ttVGd36esBCGr5V72aT8dXxMGlGU/HU+4/16VEAIA6BzfAQxmOJdnVMH1A9DuOnhEyACg8Xy3gI8IGYA+MsYslI4x5N2aeV3neYSsIKxe7JI4QKHcOZexON+DegkA+sN3AIMZzuUZBXSoOIMQaLdd2fUEAKByrCAEgNP7tDtjTCTp9xxvM5C0qOs7lJIgdNv4PVJEXr3ga5fMAQrhylOi9IBTvIyVlQDQPb4DGDwnyzPy/P0HQga03s7z9yNCBgCdq9tpXwPoPWPMUtKvCt9y9GNd53V/KPG9GYx/3TnxQcGWNMre9DBcbVmlAADds/N9QV2N7h7wjSvPZaD9kpLrCQBAxYwx3lvAW2vZKQ0A9acxidIJcaFJwkUdn5sEYX0u99NxTBiQlytHN0SC+ggAemgX8BoGMEpq23r+fkLIgN7Vwed1nq8CADiZ704PtK8BQP9MsogUliS8qaOtXFqCcLjaJgrPlvbFzX46XhIGhCI5eDIShADQzcZ3EvAyBjAKFrgqc0fkgNbXwbuAPj91MAA0n+8qQup2APjeRt5ImgW+fFb15/2l5Pdfi+TFez7up+NrFyuSGPBpfM3EtqKneByuthvCAADdreeVbt/u8wxF8e0SXzybgW7YyG8FcSRWEANAG+p2n/HciJABwHfGmLW19rOkT54vjZQeJVYZEoTNcC7po/sBUHw9BADoro1IENbNO6Yh59sAaKRE/glCAEDz29c+Lqy1Z8YYzpgGgO993oW1dia/8Yqrqj9nmWcQarjaMjAPoG4xIQCATks8f/88cEtMvC7y/P17QgZ0hu8g8iUhA4BmC9zGPyJyAPCThe8LrLWV1qcfKvgbt5QDADVhe1EA6L6Qej4ibIW6rOCaAWimxPcF1tprwgYAjec7oYv2NQA8Y4yJlR6L4qPSXY+qSBCyihBAXah/AKD7De4k4GURkStG4OzGhMgBnamDnyQ9UAcDQOf4tteY/IGi+wxAV/ieKXhW5YcrPUHothk9UA4A1CAmBADQC8xwrk9ILBPCBnSK76Q8BpEBoHt1+7m1lrO++4OxfqC8/m/nVhCGPFQAIC+2FwWA/mAAoz6+A/0PbsURAOpgAEBDGWM28k8CRUSuNxhvA/zqUx/dWkHoxBQFABWj3gGA/kgCXsMKlpystSNJF54vY+Ig0DGBg8gzIgcAjefbbpsTMrwiIgToufumfrBKEoTD1TaR/2GMAJBHTAgAoB/c4LRvW5MEYX4hMSRBCHQT24wCAHU7K8T7gx1BgI7cMx8q/Fsx5QBARe6Hq+2OMABAr/gOYFwwgJHbzPP3HwO2VwHQzTr43FpLkhAAGswYs5b/CnFWEfaDb5s+ImTgnmkmEoQAuoj6BgCo+08xI2xh2F4UwDE3iOy7kps6GACaz3uFuLX2jLB1nu9qKMoE0FCVJQjdap47Qg6gZIfhahsTBgDol8BtRmdELlhI7Hg+A93mO4h85SYbAACay7f9NhDbSPeB72qoC0IGNNOHiv8egwIAqGcAAE15BgystTPCFsR3+yi2FwW6bxnwmgVhA4DmMsYk8p+ER93efTvfF1hrI8KGHjsr8/7Ko9IE4XC1Ddl2BAB8LAkBAPRWHPAazknx79zPlM4O5/kM4B/GmJ2ke8+XsRUdADSfbzvunEl4vXjm++L8d/SZT/nfVfnBfqnpofKFMvGDx6ovPDpTsQwIww/u3HbGAICedlSttXeSrjxedmGtjdzsaJxmEfCamLABvbCUdOnx+wOlEzUWhA4AGit29bTPGNSC9l/n3Xs+8yMxafC9+ACS/xmfudSRIAx5qHT+QTtcbekQwct+Ok48H8R9QEMDALCUX4JQrm1Kh+wEbjb4uefLbo0xT0QP6D5jzNpa++hZT3yy1saBqxEAAOXX7U/W2rWkG4+XnVtrZ8aYmAh21kb+CUK83MfypvHPRgAAGP5JREFUnWCF9rn0vLcqU/UZhBqutk/yP7wcAN7zMFxtE8IAAP0WeE7KpbX2muidZFHRawBQTwAAWl63s410pyWevz+gz/UzNwHzI5Ho9DUeeb6k2wlCGv8ASsLqQQBAnrYmz5H3OzZzha0e3BE9oD/cahHfiRo31tqI6AFAY+v2naRbz5edi/O+uywJeA0Jwh/7VxP6ob3g08Z9rHr3nVoShO6MsFvKBoCCPA5X25gwAACk4MHpc2vtgui92nk9E4lXAKcLqS9ozwNA9+r2Ty4Jgu71uZ4kPXi+jATh9/7VRGmSlWPYui/y+N2k6g/3ocbA0PgHUBQGHwEAzy0CXjMP2P6jL+KAzuutMWZD6ID+YaIGAHSybt9J+hrYjkQ3JZ6/P3Bbavaam3wZ0r9CO12XeE/lVluC0J0Vdk/5AJDTgcYmAOA5Nzjt29Yc8Ex5sQN7Lekq4KULogf0Wsi2cp/YahQnuCQEQG0WSsdhfFxYa5nY3U0hfadZz/tWZ0qTQBcUn970pX0SwUnVn/FDzTFi0ABAXsvhavtEGAAABbU1L1nB8kOHZhTY8f/K2YNAvxlj1gqbFLx2g2cAgObV7U+BbeyPbqAc3SoPG/nvGHDZ18lAJAd7aebxuw919KFrTRCyihBATgexvSgA4PUOa6KwbZBYwfLdWv5b3xzEREAAqVnAawaqYfY0arXzfQFnmgG1trGX8j97TpJi7t3O9hd89a6vQHKwf9xkW5+deGoZ4/7QgFgxeAAgFKsHAQCntDUPAa9b930Aw1obB3ZgZ252OYCec7OgPwe89MLVQXi5fo7cz6hD5cTXiJIA1GoW8JqBWCX+Vt0+cXV72/ogIUmNyz6tKPVIDh64Ezpl4fG7B4Ul23OrPUHIKkIAgVg9CAB4l0tUzQJeOlA6y7mXAxjW2rmkm4CX3rltBQEgq4cXCltpckOS8Ke6ObLW7iT96X7+Z62d9TQcESUCqLVu3yhsAsi5pIQk4Q91+8ham0j6y9Xtf7n/3ZaysFPY2P6yD+XAJXx3ej85+FXShjuiO202z/70uq5Jth8aErMFxQaApzmrBwEAJ3Za1wrbavRCPRzAcIPNXwJeelBYMhZA910rbFY8ScK0Xj6z1i6VDhyfP/vP3zqyCsN3cDnitgJqb2MvFDYBpJdt7Dfa3RtJl8/+02XLnn+LgNecq+M5Afd8TvT+kQ13xph5B7//yFo7s9Yuerg7z7KCe6gQjUgQulWEdzxaAZzocbjaxoQBAODZ4GYA4/1O3EzSt8CXX7O1KICXuNUFoQNfvU4SugG1RNLHN36tC+d6+T4/LrqyxSrQcqETQHqdJHQTP9au3T144/k3a8lzPpH0GPDSj13datTtyPKH3k8OPuj7JMtNh75/LOl/rox/klsZ24dnt7V2Ib+jOm4Dt1svxIcGxW4uADjNghAAADw7rdlWo3kGMDo969GtTglNDn52AwMA8Fo9HCtsNbeUDpKue7iie6F0y7n3Bpm6sC12yKDojDsLqL1u3ylNEoa4kLTp28oilxDbSbo64de/ua0K22AR+Lq4S2XgKPl7yo4sD5Kio0mWTx2JwWvHVVy6ez7q+P39qaJ7pxCNSRAOV9udpFserQDecc/qQQBACHdWyizw5VmSsHOdmaNO7MfAt7h1W0wBwHv18Fxh5xRJ6UBq0oeB5KOzBn0GmC4ktfkM2CTgNfOmJEVZzYie1+2JpN8CX56dSTjrepyOzho8ZVXZsXUb6hg3ESjkGd+Zs99dX3Gj05K/z5ODXSnnE72dHB1I+tMlEdXB7x57vuxznasHpWatIJTSVYQHAcDrFoQAAJCj47pW+ABG1pnpzLPoaOu6q8C3eBA7gQDwc62wLZ+l75M1OlnvHA0ev3TWYNefz0ngc3le8zWbuWTu/6y1S85UQ4/b2LHCF34MlK6Ui7t4D7nJeAul2y1edrwohPaTWr3l7DtnBb/Wh4o6ejxDfOLvfXFbjp515D7P+tU+yf9H+Z9VWLhGJQiHq+1TE4ICoLFu3ZmlAAAEy7nNnSR96sL5CR5b1/WxYwugvDr4SVKk8CThQN8HlUZdiIlLDMbKN3j8oPBt/poiZOXJvI5y8Oz8sGww+KP8Vw4AXarfZ8q3O9yNOrb9oJvQspP/loOZg2tv71pSBpIc/awsSThq2TWOlK4aPHU3lrf6ULuWl/eFZ9/yUtKu7SuIA5ODkjRrQl+6aSsINVxtFwo71BRAtx3E6kEAQHGd17nyDWBcKl0tsGjbrMfAret8OrYA8F4dnDdJ2Op6+Kg+Pk4M3lAnB22ROlC6/d5ZhdftrdX3V+78IaCv9fssZxv7XOmOHeu2TgJxEwjmrr39Rf5Jg0yWHNy0LAQLhY/tZ+dSRi15hq/lt+r/vef1rq33vrtfQ/qX2QriVk78cpMA/gq4zz8H7p5QuA8Nje2MRyqAZ5burFIAAApRwACGXCeoFbMeXWIwUf6t60gOAiiiDi4iSXhcD7cmUWitvXaDinkTg12rk0PPULxQRSv3Tlx9z1ajoI2dv419pXQSSNyWpIFLGC2VJnm+5GxvtzU5mD3f8/SNsmMdGlmXPpvc43NMQ9f7UE8KP2daatnEr6OdBL4EvPzOGLNoyndpZILQbSF4xyMVQPYQdauLAQAougM7k/R7zrfJZj0+NbFD8ywxmPfcE5KDAIqsg4tKEg70PVG4bOJgcjZw7FaU/KHws1+P3XapTnZb6IUmFa6stZuynsHuWbrRaasjzsXuN6B+nyl/klBKJ1H8z60obNzqXJckmLn64X9Kt5kc5HzbrL29afH1TyR9zvk2H5WuJpw16DkeK2xyz60xZtLlPpQx5skYE6m4CbiNTRQebR18FXh/z5r0fX5pcLmau47CQAD6bk4IAAAldmaW1tonpecI5ZENUH+y1t5KWhtj1nV8Jzc4PnM/5wW97Z0ack4CgE7VwU9uK7FY+ZNmA6UDih+ttQ/uPdd1nd3ktqKMXF18UfDb/26MWXawSMQKX1WZbU03K2rbLvc8XQR8po/W2rjNA/xAAfV7ljj7UsDbXSmdCPCodLVxbfeXqxcipee+XhX89p1pbxtjFi5WeVbKnyudiLmQtHBnyVd5rc/cdZ4pfKKlz/N615H7PsnZt8761XO3Sm/RhHM4XbJ6kaN/3cjJto1NEA5X291+Ol4U9BAB0F5f3apiAADK7MjEbgAjUTET1G4k3VhrD+49E0lJWQMZrvMaHQ1WnBf8J766cxsBoIw6+EnStRsA/FTQ21648YQvLll4XBeXMjDjEoKTo/r4vIQ/86B08HjT0bKQWGvvFT4Qm51fdq90QDEJvJbZgHCewf9rSSQI0ff6fena2OuC2tjn+j4R5PFZ3b4rqW4fPavbL0r4MwdJ86oTYBWYu9hdFHDdv7ktXNcqcSJmgQngg6Rrn+eQMWZnre1S33qdsy00OOpX3+v7xK/KEmwFTrxt7E48TV5BqOFqu9xPx7OSKl4AzXcQW7MAAKrryGxcByBWcbOBB+69rlwH46B0sHCj9JyGrMO4OaWz4AafzySN3E82GH1eUlgOSgei15QQABXUwws367yogeTMhfv56OrSR6Wz9LM6OPvn01uJN7fSMZPVx9k/LysI0ecmnVlTopnSLdzyuFSaKDxOIGxeu77u2o5UXHL3tifXCjilbk9cG3atYsd4z+WSB6+0s7N/vtnWPmpf66iNfdzWLnt3uzulycFdB699tktAUtC1P04YSemZd4m71jvfyTNukuXk6KeI+j/7XNd93nnF9a0nBfatL93PN2vtnatPSpkYUMIOEI0+puOXFpSnmdIDoAH0z2y42rKNGQCg0k6s0lUsc6WTVIoeEBgcdW6ko5UyDZwt2vuOLYBa6uGkhMkaz527nzbUxVl9POvi4PErZWBnrf2sYlaTPk8gVPEVbt35awCO7mtJk4JXir/Xzv5BA+v3R6WJwXXHr33RScJjP1xvd42zRPFbzlTegqTPTBD5qW997dp1RfWtjyfgPur7xICd+3k6JVn8wuTbSMVPCmh8m6DxCcLharvZT8dFNQwBtMfdcLVltQIAoK7OzNKddxCrmlUhTdLVLY4AtKcOLmtAqW0eXH2c9LAMLNzA3VXLPnpXz4YEiry315KWPWxjH7e1l31KIh0lCZfKdybhKQY1la2itgB/VHm7w9R1/dclTv7KJn398L4NmBDQmj51G1YQarjaLvbT8bW6u9Xop/10TAIU+LESnREGAEDNHZmdpMgNUC+71lF7xVelZzaxahBAE+rhbEBpIbc9aE88KB08jnteBGYqZ8VJaX1YtuQGTqrbN66NPXNt7L5MAjm477vsY1vbfeeZO5vuS8eu66LAySG7LvY7jyZ/Re4+6PKRcq3a+eFDyxqGAPrhmq1FAQAN6sysjTEjSb8pndHZRbeS/m2MmZMcBNCwOvjJGDOX9G9XV3XZnaRfjTETkoP/DCZGShOmTb9uI5KDgPc9Hivd1u+z0iRLVz1K+s0Yc2aM6f1EPJdI+08L6vZT+1AjVo57Xf/EGDPpaN/64O71qE3bwrcmQThcbTeSfuc2Ajrv63C1TQgDAKCBnZm4g4nCLDHYm7OtALS2Dt65M1y6lih8VDo4/m9jzHUftxN957pnScK7hl67/7rrxuQaIPAed1ttjtStROHBPat+NcaMmPTx03XfuCRRW6/5vaT/uD4U9X9g31rpeX9duO8P7nu08l7/pU0fdrjaLt1Wo5fcRkAnPSjdPggAgKZ3ZmK39ehM7Tsf6VHp+Q9LOrQAWlgH75RuUTaXNHf1cNu24jpIWktas+rspGuebUs2d/3FQQOuX2+3CQRKvM8XkhZu69GZ2jn+e3dUv1M/vH/dF9ba2F37mxZ85FtJccmTeTbqSe7jhft+0bI2XSfaA7+08DPP3I3S10PKga46SJqxtSgAoEUdmrWk7HysLFnY1LMUssHomNUpADpSBx8PKkWuDr5u8FjBg9Lz9NbUw8HXfGmtXSud5FLH4CmJQaCaez1WOhlv5Or2mZqbNMja2Fn9Tt3gf713Sif+LPR94k+TnuXZ5Mq4oh1X1urXucvP7/s2TMJ9cO2BTtzzrUsQDlfb3X46nkn6gyoU6JSF20oYAIA2dmqXkpZuICNSOkgd1dy5vdf3wQqesQC6XA8nrr6TSxZmdXCdkzYelE5uTiQlbONc6DM3ctd5rmoGEO/cszTmCgCV3+8LpRNBRkd1e52Jg8dndTtt7GKv91zS3K0mu67xWte20t8Yk1hrf1P7VtMV9f2zSbhnrgxcqxnJwmyi17Jrbbp//f3336384PvpeKkeZtOBjrodrrYzwgAA6JqjhOHk6KeMpGE2EL1TOliR/P/27iarjeUMA/AbbcDKpKeQgcYmK7CyApOjBRjvAO+Au4LgDSRiAX0O3oHYgRj3IGKqSdAKnEG37tXFP/wYkFr1POfoyGAPXF9VtyRevirVB9yD/z3s7rvr+/BhXiY0vOruv4u0Pzya6yJ51dfZ5+7iX3XzeBnhLuzqtX/33v4SXcXX3X19vn64H2zldXzc3eeP8nK/+LPKH8GvX67czbUw7tbC+AU/U2+66dbDbN/fC/Q2IEyS5WQ0z+5u4wQ8/A3X2NaiABT4ASfdh5vhxl/d/XptnmTztXK2/r4fQgM8+h58mPYHyuvH2t2v795z3YN3e17vBsLDbj4P7vk8eps/BwB+MAz9vgekuw+sbX5/06J73H2/vRAE7vznqPU9frzx+v2QbrurO3Mv+O3/e7m7a2GYh+dF6/cAtxvX/7y093d9DwgP4zxC6LNV2nDQBzAAAAAAAHglgz7/56u6WaRtMQb66VQ4CAAAAAAAr2vQ9wFUdTNL8slUQu98rupmqgwAAAAAAPC6er3F6KblZDRN8sGUQi98qepG9y8AAAAAAGzBYI/Gcpr2YElgt10nOVEGAAAAAADYjr3pIEyS5WQ0TLJI8sbU/tRVVTdjZXj29fdVFe61SnLUnR8KAAAAAABswT51EKaqm9sk47QhBLBbVknGwkEAAAAAANiuwb4NqKqbeWxfeJ+hErAFJ931CQAAAAAAbNFgHwdV1c1lko+m94feKgGv7GN3XQIAAAAAAFs22NeBVXUzTfKbKf6+5WR0qArPWs+xKvzQp+56BAAAAAAAdsBgnwdX1c1ZkgvT/F2HSvCsbNv6fRdV3ZwrAwAAAAAA7I7Bvg+wqpuTCAm/Z6wEz+pICb5x0V1/AAAAAADADhmUMEgh4XeNlUA9X5BwEAAAAAAAdtRfvn79Wsxgl5PRLMk70/67v1Z1c6sMv7yuhkn+pxK/Ew4CAAAAAMAOGxQ23uMk16b9T/VAHZ+TcBAAAAAAAHZcUQFh1y03jpBw7UQJ1PEZCQcBAAAAAKAHitpidK3bEvI8yQdLIH+r6mahDE9eS4dJ/qsSwkEAAAAAAOiLQYmDrurmtgszLiyBnCmB+v0i4SAAAAAAAPRIkR2Em5aT0TQ6CXURPm3tHEb34Keqbs6tBgAAAAAA6I9B6QXQSZik3W6Vx5sWPv6PwkEAAAAAAOifgRL8HhJ+KrgE75eT0dhKeLjlZHSc5F2hw18l+WdVN1MrAQAAAAAA+qf4LUY3LSejkyT/KXT4N0mOqrq5tRLuXSfDJIskbwoc/irJuKqbuZUAAAAAAAD9pINwQ9cR9fe0IUhpDmLLzIe6TJnh4HXaEFk4CAAAAAAAPSYgvKMLP8Zpw5DSvF9ORqdWwY8tJ6PzlLm16Je0nYMLqwAAAAAAAPrNFqM/0G0jeZkyw6B/VHUzswq+WRMnKXML2s9V3QiOAQAAAABgTwgI77GcjKZJPhQ2bOfMfbsOTlJeOLhKctptvQsAAAAAAOwJAeEDFBwOCQnLnf/rJCfmHwAAAAAA9o+A8IGWk9FR2i1HDwoadvEhYaHh4Je04eCtKx8AAAAAAPaPgPARunMJp0neFzb0jyVuM7mcjE6T/KuwYX+q6ubc1Q4AAAAAAPtLQPgEhQZHn6u6OS1kfodJzlPW2ZO2FAUAAAAAgEIICJ+o0C1Hr5McV3Wz2PN5nSZ5W9C8fk5yZktRAAAAAAAog4DwFxTaabZKGyad7+F8niY5S/KmoLk8qerm0tUMAAAAAADlEBA+g+VkdJy26+xNQcO+TnJa1c1sD+bvKG3Q+66g+fuSNhzUNQgAAAAAAIURED6TrptwmuR9YUP/kjYoXPR0zkrsANU1CAAAAAAABRMQPrNCuwmT5CLJtA8dhV0weNo9SponXYMAAAAAAICA8CUU3E2YtFuPnie53LUgajkZHaY9Y/A4ZQWDN2mDwZmrEwAAAAAAEBC+oOVkNE4bFB4UOPxVksu0QeHlFudgmDYQPElZZwyu/ZbkXNcgAAAAAACwJiB8BcvJ6CzlbWd515cksySzqm7mL1zvw7Sh4DhldnEmyVXarsGFKxAAAAAAANgkIHwlXWh1nnIDq7uuksyTLNbPTwmzlpPRUZJh2jDwqHsuOYi1nSgAAAAAAPBTAsJX1m07ep7krWr80NUD/s1Ryg4C71olOavq5lwpAAAAAACAnxEQbslyMjpJcpYyzyfk+azSBs7OGQQAAAAAAB5EQLhFy8lomPZswtLPJ+RpLpKcCgYBAAAAAIDHEBDuAEEhj3SRdjvRhVIAAAAAAACPJSDcIYJC7iEYBAAAAAAAfpmAcAcJCtngjEEAAAAAAOBZCQh3WBcUHic5S3KgIkW5SRsMTgWDAAAAAADAcxIQ9sRyMjpO21H4TjX22lXabsFLpQAAAAAAAF6CgLBnlpPRUdqg8Di2H90XqyTTtMHgQjkAAAAAAICXJCDsqY3tR0+TvFWRXrpKu4XoVCkAAAAAAIDXIiDcA11X4Un30FW4227SdgtOdQsCAAAAAADbICDcM91ZheuHsHA33CS5TBsKzpUDAAAAAADYJgHhHhMWbpVQEAAAAAAA2EkCwkJshIXjJAcq8iKu024fOhMKAgAAAAAAu0pAWKDuzMJx2sDwnYo82U2SWdpOwVlVN7dKAgAAAAAA7DoBIVlORuO0geE4AsOfWQeCs7SB4EJJAAAAAACAvhEQ8o2NwPCoe5S4JekqyTxtGDiPDkEAAAAAAGBPCAi513IyGqYNCsfd82GSt3s0xOski7RB4DzJXHcgAAAAAACwrwSEPFl3luEwbXC4DhEPs5sdh9dJbtMGgOvnRVU3czMJAAAAAACUREDIi9joOkz3POz+fNg9Nj323MObtB1/m9bBX7q/WyRJVTczswEAAAAAAPAHASEAAAAAAAAUZKAEAAAAAAAAUA4BIQAAAAAAABREQAgAAAAAAAAFERACAAAAAABAQQSEAAAAAAAAUBABIQAAAAAAABREQAgAAAAAAAAFERACAAAAAABAQQSEAAAAAAAAUBABIQAAAAAAABREQAgAAAAAAAAFERACAAAAAABAQQSEAAAAAAAAUBABIQAAAAAAABREQAgAAAAAAAAFERACAAAAAABAQQSEAAAAAAAAUBABIQAAAAAAABREQAgAAAAAAAAFERACAAAAAABAQQSEAAAAAAAAUJD/A5dp2GhitIoQAAAAAElFTkSuQmCC;" vertex="1" parent="3tKYfOBs04xEkgBUD2MP-35">
          <mxGeometry x="50" y="130" width="190" height="36.31" as="geometry" />
        </mxCell>
        <mxCell id="3tKYfOBs04xEkgBUD2MP-43" value="" style="group;fillColor=none;" parent="1" vertex="1" connectable="0">
          <mxGeometry x="-240" y="500" width="280" height="190" as="geometry" />
        </mxCell>
        <mxCell id="3tKYfOBs04xEkgBUD2MP-44" value="" style="rounded=1;whiteSpace=wrap;html=1;fillColor=#FFFFFF;strokeWidth=0;shadow=1;sketch=0;glass=0;strokeColor=none;" parent="3tKYfOBs04xEkgBUD2MP-43" vertex="1">
          <mxGeometry x="30" y="20" width="230" height="170" as="geometry" />
        </mxCell>
        <mxCell id="3tKYfOBs04xEkgBUD2MP-45" value="" style="shape=image;verticalLabelPosition=bottom;labelBackgroundColor=default;verticalAlign=top;aspect=fixed;imageAspect=0;image=data:image/png,iVBORw0KGgoAAAANSUhEUgAAAgAAAAHwCAMAAADn3CdMAAABL1BMVEUAAAAva+QQVMUybeYybeYybeYkXN0ybeYybeYxbeYybeYxbOYxbOYxbeYuauMtZ+MxbeYxbeYwa+QxbOUxbOUwa+UuZ98ybeYxbOYxbOYxbOYxbOYva+QxbeYxbOYybeYvaeMxbeYwbOUwauQnZNoxbOYybeb///82cOc+duj3+v9/pPDz9/78/f84cec7c+jM2/lgjuxym+7s8v3F1vllku37/f+0yvZRg+rR3/pLf+pHfelEe+ni6/xumO5ple3o7/3l7fysxPbx9f5CeOi4zfexx/Z6oe92nu+auPOowfWgvPTa5fuDp/D6+//X4/u+0fjJ2PmQsPLu8/2TsvKNrvLC1PiXtfOJrPGGqfFUhuvc5/tXiOtci+zU4fqkvvRPgurf6fy7z/edufRaiuvVU/8xAAAAJnRSTlMASAT5/ewJ8+TT225mwxwRpLM0XVA7Fst/jJx2KJRWuyKsQy4NhS14dRcAACaMSURBVHja7N2LVhJRFAbgIww3wRsqqAiI2t5UWlRaYXbxkmlrZVe7m9b7P0RStiLmQAw6M3vv2d8rMLqY/z/nx0RRbDQ/VJnMZbPZUjabqywuJY2KinypNhyHDk66VsrHjBJvsQpdpWfnjRJtaAR6ciamjZIqVsnA/40MGSVRbDID/SlW9MuAOMncMPQvM6mPgCjJbBq8Gc7pi6EYY6UEeJcuLRslwNhMAgaTmBkzirnR2RQMLjVbMIqx0XIcLiZeHjWKqfm5OFxcfE7jQZaWxh24HE5tyShm8hMOeKEJsSjTVfBEE2JRhkbAD8UpjQcZiE0VwRNNiCVpNT6eaEIsSSw3DH5LZ/URIMpz46MJsSTLpQQEJXVFE2JiPDc+mhBLUvDa+GhCLEmr8QmDM64JMQELXhsfTYglmR93IFTVRaNCk685ELrilFGhmJ4g8PFrQuwV8cZn0IRYH4FgTRWBFk2IfWO/4kVPoqQJcS+sGh9NiMlK5tJAV2pWE2ILfoXfRRLiBaPaMW58NCEmpXAlBTw4E3mjfqFyxatvmhDT1Gp8mBnRhPgSGx92H39LRodGLsUShcZHE2JvBDY+mhCHYbEK3CV0aERG4afHyPshvvHRhLg3Nle8ghYva0LsQZJs4Te4+LgeIxfT+AzGqWlCTOyKV+CqeoxcROGnQyPtotv4dNApaqZXvPqlx8gtIl346dAIxVE/JnSKul2ed+OjCTG5UT8edIpaUOOjCTG5UT8eIj00QqDxubH+6ejZcR1CE+GEmMAVr9O9FWxZ2bsPoYno0AiBxqd+cBf/WD2pQ3iilxBTaHw2m9iucRVCFK0pahKNz8YW/qt5A8IUnYS4QKLx2X2InZ5DuKKREFNpfNbQ7RhCJ/0YOZnGZx8t3gMBkhPi0Ef9/vqCFqsPgAKpQyMkRv3O3UKr60CDxClqWle8PmALwa+Bv8lLiKk1Pj/Q6gfQIenHCuk1Pg20egqUCEmISV7xaqLVPSCG/9AIgcbHjc8DwH2KmuyoH58HgHNCTKDw66aBVntAEs+hERKNTzev0OojEMUvISY+6neCVutAFq8pavJXvF6g1QYQxichXiBS+PXwFW0OgTYeQyMsRv3qK2jxHaijP0XNZdRvjXoSbEd9ippW49PLdbR4BxzQnaLmNOp3ihaPgAmSCTG1wq+3m+xeAtrRm6KOVcgVfr3V0e0acEJpiprAFS/PVtBlC3ihkhDzHPX7hi4N4IZCQky48enpHrpsAz9hT1HHmH78AAfo8gY4CvUY+RDHf/4t1jbgGfCUKiVNKJbngK9H6HILuBoOJRfI8/3zP3OMLqfAllNeNkGrEG98/2MDXa4CY5mgK4Icl9S/i6vYaRVYS1VMkLLMP39LFLgDvDkzJjiT3D9/gEPuQaBb2QRlmsGZj94sWfAXYK9sglHgmv60u4MdXgJ/syYQEyDAE+zQBAGyJgCTIMEW/y7IwhkyvhsjfOHDA9cD8BokSIwav10BER5ihzUQoWp8VuCdAJ6T+wBAzvhrBmQQ+wAkCsZPMRnfAAQ/AD6nAVMgw+5dkW8BLfEF46MayHDkLoM2QYg545+kkK+AN56gywcQIl4wvlkEGbbRbUfMv4CSaaMhgMUJ2jR3QYaM8Q2r+1/dfcNfZIaBZ+aNT2ICeuCWLTzD/25QVznjkzyIUF9Fq9U6yDBufJIFETYQGY4EeZA2bTQFcFnHLhonR7ePWZ8OPudXJyjgKNCDW/tHr7Cnt43to8e83wkrxhcLwNjm+qeTte+H2K8n7w8esX0vLJs2kT8LtLn+cbu5g4N4uPfiMzBUNL4oAzcP9p83dvBi7ty7TuPHhH6Sd5/bbRtREIAVl/TuOInT6wxAEuxd7E2UxCKJqlQv7/8MKU5iWSYW2MUSWJ58v+Uji5RAEjt3roQnyxkVW60ikOq41KYmp9uF1fqIuJRs4G+rMw6SamxdU69uaZjCyrg3JvT/OwnqxQ8nXIbYzTCJ1XAvGvg/S4P1TnYdLk+i1FiJ14J3llEgZX4RZHJ4WOSytbbLMN8S6kQfmR4GueskGI7KhvGXgSXMCP0Kk6XiU4Yot2n4R8Of17T7EOaqXnYZsuKNAdvG3SzlPOhTmOqu7zAKaZPrpfVng00thWqmGZlTc98MPFvT7EsYqVlhpK5NrRd8GQ43aiTEOmtkG2XoE/3T/5fTIbSxmpfpdm40CH6zQX8y9AWCOe/H+JdEvwlNznZphGkBWqT2WvxHO46AnvxbIWtGINja0v6AVUs0Rv4MwTXbvCdvIxjNOyXefowgdviaLQsBpbYnNIjT6SGgMV93aiOQ39e0eo4g9vhAfh2BbLRomO6JhQBq29Q8r/zRmlbfIoBqjA8lmlA3T9NA0wyUrdf5pjiCePxXibghgeAO35Q4h6LkbZFm6thQU6tzgZaFIJ6v6fQU6lIJLpCrQknmmsZqNaDCHnGhLIL4ds2UQHCDC41syEtt0Wj9HqRZu1xsgCA+W/uTEYHgTS6WtyArU6fhcg3IuqWLEYJ4uqbRNwigRBd9C1KsTYfm66QgpUA3XQTy3dqaGYHgHbpJ9yDh6oIroX4OCc0E3SQQgNYh4U+eIIASXVUs+DZMcEVMjuFb3KGrNtToPw96C0Hc0l0HPiU7XCE3NvxpOHR3iEDeNyUQnKXAJnypTrlS6mfwoxCjwAECefKlIYFge0KBPfjQ7FKLen9vRHcxatM9h7dMjALFGoL5wpRAcJ8ix/B04Gh57gs2gIrov5KaZw86lQQ1SGTgpZCgSAcBvTClGuaMDHKlSw4YTO7m7+f+pRHdHeGlanYz32VAiQLEmjGKzGoI6CtjqmE6FDqCSK/CABI3J2Xc16a7S9xTjpdyDCLWhMhGkSJOE0E9ftuUQHDqlELbcHdVp7LT24yFB2Z0N8AD8+Mgc4aTLNwdUMiJI7jnxlTDrNcpVLLg4nxGRdP9MhaY0N0N3pQalrpUVNyAC6tDsThU6T8P+hjB2RcUSttYKBtTneCbYyGLArtYyGr0Y1RzgoV6aYo5BajSfx70AzTolSh0XcUCcUdtaqcJNzYFLuAmFd+lkj0scN6m2OgOOjx9ZEQg+B+ZKUVyGbzhhApa+zW4q1LgGgLl7S4VbOINxxMKtcYW9NCzU/oraBJvUaA4xgN7lHfhMawzp0AOQsn4iPK28Lr1PIViRyno8qEBgeD7ksc5CnQs3LdJafkCPGQoMIGXZp7SBhb+1rMB2HtdijiDGvT5NPpA8APiX4HKOV45oqzDc3hqUiQJT2c7lFWyAFgHiVmpcxij0M0cOr0feSD4TcmDHN1dbO71u5UygH1Kyt/BhyxFavDh7pCS+hbupn6+bg7NPjZxV3DyKEax2AEOKKdSgC9xilzBl0yacnYuHXqqnEG7H6IKBItd5enhmlJaG/DphCLn8GlYp2bdMbTTUhr7HZYh26I+sc0U/NqnSBN+JfcS1KlUwzJ8ZWw1jMZ8d74K/24pMoR/6zfUptXAMmgpjf0GS6FtwiM3hIwtjXfgG23qMbCxLL8Y3BCc3HTCf+wG1BjCSnU0jxLo97XGQLB+mXbol84bimxCUrPNoA57WKIfo6+GEbF3GETfhqw8RS4hyx4wkOIeluqdR4bvitxzqCoWh7wKRQaQt5GgulwGS/a56bsiGwmqGV1BwYgiO1BQnlJVZR3L9oHxDcFnOaoYJKGiTZE0FKinVktJLN3P5u+KLLeULv9qZhSZQs1JUS0qEIJ3V2BXZDlGSa1zKJpQpA5FhRmldRCKn1ZgV+Qe5VzUoMii0AyqqqeUFOshFM9WYFekPaGMfhKqbAoVocxOU84hwvG9/kCwfhVK2Ia6KsWSUJbsU8o+wvFe5IFgHw7pmzNGAHOK1RDAFmVsIBxPPlmBXZG1a6lpG3UZipURxC0lNBGSt0wIBHupXctMXKprUiyDQI5kXsjCEag09rfHCIfv34ADBJNd8p9l2rznHx+txq7IDv1wbi0EEafYEEGsm/j84/GjVdgVeefQn4srBHBCsTECGHbpUyKFED03JxDs7oJ+xcZQt0+xPSizS/TvEiH6Vvkk6CnCMqaEnR5U3S7p9rxsuMW5Q3h+Nn9XZK1LGbkmFG1RbAsqFEpMLxCep4YFghcoUdJlEkoGFCtBgVKJ6Rjh+c70XZEZShvNoeKGYjtQEU9Q2sxGaJ4ZvivSmlJe7BgK8qT2REhvhyq2EJpvDN8VOaaSfA3SKqTuREizRSXFMsLyvomB4FfsXHiB+hHF2pCUvOR/DD0PVi6NfYFw3FLZVhJy2hTrQs58RHUFhOULMwPBL63HqO70DFJmFHMg5WHbj6kfBV9EWw0j1mEQkwPImNBDCv7V8gxmiJB8FHk1jLuyQwHN7wUtelmHb9kZA7q2EI7Hb0dfDeOmz6BmWfhl08scvmgaDI0jJM+NDQTPGeaepiqpKRFyXqcGdQvh+NbYQHCfOlzfwZc5vTTgh7VfJLlCl4DPVHZFhqFMPYr78COjJ6pZTZPkKl0CFEpjnyEMA+qSXoe3Jr2cwIvnPLCR2eBfzQwEV4vUpjuEpywZOBFi96nRFOH40KBqmHsuqdMgBQ9xermFh0KLngxMh39qVDXMv+wEhXKblFLPQOwk6BmddetQSv6QYrsIxfvyuyJDcECxMeJFynCOLIjskwESIQpdECXrakKxM4TiYxMDwW0KjSygEaOUShUCt8GO6MYxyrn08T0HCMUPgXdF6tfwPi2TXxqU2IC7LVI9EdI7VFoXkmpRaNJDGF4YVw0D5H39MV7V9XWHDehlBDeNHOUU4/hb3Igx4a/MCwRXfb441i4op52Bix1SMRGS3KKkWAMvWafy31K/x78ZFwi+pdAN/pXKU46zaWGhKb3EsNDZKSXNMvhXlmINhOEX0wLBVo4iTvnelw7oQm6ArOdQ7Tx4b0JJ7TJeuaDQDsLwtWmB4IbM57FNSkrE8aYDteKO9V3KOl3HPU0KOTWE4EfTqmFupA7mxw4l3dh4oDejt9gZHhh2Kati4zVTCu0hBO88Mqsaxp7IXRaz8l1yBbxuh360argvNaC0nSRel6XQKcLwuVmB4LhsMCMzo6xtC69YJfozWscrmbrSnriHTil0jhB8YFY1zK70/Zhym7Km5Vf/ukK/ZnELL9nbjp4C0LgBU0KfGhUI7jkUyWKB2pSyJjvDFIBks+RQQutyeHdWOLmJUd4xFkjOKJKzsHzvGhUIHlOkbWERe5fynPq0XmRYJkMstGnAjMjHJgWC80pvi60SzZZoYrH1YvS9wc8Mqoaxi4o1uts0We4ObvoUmVlYvu+Vd0XqN1Q+lD+muepXcNWM/jXgPeVdkfqV1B+N4YSGmtYg0I78c8CTT8wJBM8CtPYXujRS2obIUfRHgm8p7orU75wiRxCbt2ignSSEqhSaY/l+NyYQvE+RKjysj2icjgUP6chjIR8ZEwhOU6ACT3aahtmEpxOKpLF87zwyJBCcnFDgGN6SfZrEOYE38c3Poo3l+9yIXZFAQcOI/iXN4XOJwS5Fsli+DwyphjnScS3coyn8LjEYR/5B8GdDAsF5LemIjSKNkDuDP7XIQwFPzdgVaSX0bG1pJmiAehV+XVCkhuX7yYhdkXNduxvPcozcRQ++HUX+JuCZEYHguLYm/eo1I5ZPwb+7yDfJfmNENUxH37i0XWGk+hZk5KJuDn3PiEBwhe6KKUhJ7jBCl5DTp0ALy/fkSxMCwTGdN8SsDiOzD0ljivSwfF8YUA1zpfmFcJ/RcOLyP3rkmYAXBgSCs7ofhHiREYg1IK9FgQMs30cGBIKP6K6YhIJmjKHrZqCgH3VVxOO3o98VWdJfmnU+Y8hac6g4iPpAEM+jr4a5WEI69qrOUJ2uQ0mGAjmE4NvIA8HoLqM6tXbBEFVsqEn+wd59tqdxRFEAJpLlktiOnTiO0/s5y9J7FwgQIEAFVAFJVvv/vyGPHSVRZNgZdmZ3Nnnyfpc+SDA7O/fMvXk6CMN7L43Pigx7M749UaJvjhJwa2j6iuCa8UDwDRfbseBau0GfjCy4VjDeOvpb061h0l41Tk1TXnJ0zzmltapw78B0NQBPDQeCccLFClAxpML09j3KOoaCtOn3QLww3Rpm4NlRyKHKGp64pJh6Q5cL4++Bjk1jXz+A5wqe9cs6o5xGG3MUo37M+rLyilkIda8Nz4rMcrEiVLQpZecMc6UpZRNKNriYDT98bzQQ7NgwKRaHirDimJZryuhASdL0QQC+MjwrcsOzC3JFymhioSwl7EFJx/D9MMemsSur8F7Us01QlxJKFhYKb1BsBiVbpgvCWH1odFak5dlbIPYolqnCwalNsQpUTMyPEv3ZYCDY+UE9gAKpGaT5FBx1KXYAFT06mMAPb4zOiqxwsRMosJIUm0CgT6FWGApyqmdM6n4wOivywqsVcItiBYhYSY+3gVPVkKm6RysmZ0VOPdoDbVNsNw6hakOlF4BYxfhZMPCLyVmRN17MT7LqRxRrlSEhtUOhURluhengCr74xOSsyDMuVoYb1chVVOeIvgnF8oV0Aq7E6eAIvnhhclZkSutBmJXa2qWsG0jpUUo+eXAKF2Kmq0ELm8b++gA+SHExLKfdLexzCSeQ0qe0RqcXxpJsLlaCP54rBIJVpTTVQs6OSzEuZw9ShlxGbNmFIBqAScLfG5sV6bgHiEJSuNfJcHn7kBHm0jKdbhiyolxsCH98Z2xWJHCq+g86PUjG6E4REtbpRqx0fAYpUeOjQ4AnxmZFAkWV67GJdLNB97YhYUC39gvdNgSC8QGY2zT2F/ii7LoaXDwc7VBJARLOqSBW2kpZcGQH4BGAjxQCwYrCrlaAxHp/g8oaEEvkKSJeCKpYLBaED8AbhdYwiqzlr0ZdnGRtalGGUJ067C5cCOIMwFsAflAIBKuyl/oAxOtva9QmAqEtatLajFTxoTADcA4wrx70Gj5pcJEW7ilPjmzq1IFQkhoNrz9YCCrGc+HvfaYQCFY0lDsIsnKDGXW7hEjcpl7Rq+0K7pgGoBaAefWgr+CTJBeycKuyfRWlF6oQSNEDw0HOwq2cIHLuk58UAsGKNgXFICt1PaRXehA4oDeie7cLQS8AeQAAjxVawyh66xS3rEY2W/RQHwJZemc2qMexbT4R9N6PCoFgNWMu1Dynx4ZwZkXpKfsoK8ib+uVzhVmRano0qQJHORq1Dd98rdAaRk2KJtn9ChYqFmL0mvF+0beeKMyKVFOlWfnmBea62aNpKfjlfj3oR/jHpmGxzSk+kMrSvDL880ohEKwmCDPf9m7wD/VgjCGLwz+/KbSGUXPFIMjm8Jf0OQMhAx89EwSCvWGljkfGHwG3knW8Y3WDsCS9V4KPVh8KZ0XqdxKUf/4fztOwIjUGRtaCj74QzYrU74ZBM9tgkNij45QFn3zjc2sYoG18ws+/wQA+eel3IHgaoMU2wOwi/LHmbyDYCtjzP7hqZfjjW99mRVpnh0eBGPL477DfteCHp760hin3Bsn/v/tLymxuF+G5r70NBCem6XGn9P8X3639o+N6G1762JvWMPH0Vr+QHbb4P3WN7GA7V4FHXmudFVmJHAw2S43/9Fe+NepsDnfoN3uW7WydnEK3V/pmRZabGZpln3cO66e5yZVNjzQGKQsArGL6+GqWp++il7PZsHTUPKmfhaHDV5oCweGDSxq0M9w8SJfxp/CWTQ/kD+K4yzrtbu3VYjRjVoYGX+qZFRlp0ZBYbW+rN7VwT3FG7ewc5onfRAbZDRrQ6pxB1epDDYFgq0MTGtlB5CaO+cIz6paGg8RZ5G02Q78dlaHoZw2tYQr0WWbU306F4ai4Q706EAuntvvJffoomoaaN+qB4BP6p5VsTnJtyHhLrWJlyKrmTprJFgUCEiN+qRwIrtgU0LfFr0DelFqNsKRK/bBzbtNJEHLEj1ZUA8EDeix/u8VfVos6HcCV8vq4sGvTS9EyVPyiOitynwLqW3x3jqhTDy7dHhtsDvP0yB5UPFVsDXNDAaUtvooBdVqHKmvaO6InzqDghWIgOEIvRKDuOjArgMZFSf+YlceKgeAxvZCFugJ1Ooa6ap4SNt5G1iP98x1Ki1pQ8FwtEDxe7i2uP97ai1IoVoEqK0OdZlB3SLHYgYX3rJvDvZYfz4Dv1VrDRChp2OwW8V5iK0aRA6japl45KJvR0WS6fjKY4K6b8Sjv9VnAd2odgs8oYaPZa+OOVLJwPUnvcbFLqJpRryuoStFRPox5Er3NKAW6UPBMMQ3UoEDpYIq51umgDjU5apavQlHB7b4n3tvL08GGBQVPFHsDjemkdFjBIlbLw25Zm3wnSNvA6o7Cm0/7cDPv0VngmmJ/yHiNC8xGx2U4aeo4exdsuPVpWFByTEd2As4qB3u2B32lHqyqdoa4sTlH9LoCkZyW6zHiv3YgDt3jGfWR5NX+jv7rhKuhVajJRXlfKZKAhAYXi4bhntWgfiOo2NZy1Fhp2vynQhxqHoQeQFHxnHdtDIqQs+XVm2CaXijCPatGRxkLcsKRo507P9aFAtEKIK9b4h/OrXIR0sp0sJ+Aa1l6oQ/3ehovhFqngxjf2T1JQNmanu5QlfTJeBKZYjkjejJH+IKeiCbglnVJZxdYSqU7idSr0OFJ6GMY06WDTAKynNJAgUjfRIT7C2OehZ7BmPg+HYzhTrxFOZfHuWKxvrVBSUO4FN8QFhuN+Tr0AuZcezGlPUKBexsoa2J73MVvLD5jMOZN6A3MqeTp4BqunFPGbhV/KdY8rbxXoyQD0iH4A69Cr2DQJh3YFbhwQxm1MO5on1PGThtuFOjMbsOc56HnMChF7eMTOm4yXomSd9nQOgWaMOex2t1wdSXdVfiw7epYLzGjA5XCW6JGZ7ELmKKcCVSXpuYpaoeUcYr71r0Kh/bFUQODPlecFqVuRicTLOvS7W5u5E1asU6RG5iz+um7u6GPYFCXTqIVLKdOCTtlfOiGMi6wnMQGSQZjUNgcL1UbRauzNrT+efbct2IseNHFsU+RMxj0vfK4IHURnYdklRjF9sOYp2JTrBXHMnIM9AKw9lCxQYQ6YaFkv4olbFHCCeYbaL+0In4A8BQGvRH0CPJHV99XxMpQrGZhvvA+xc6xhCbfCcakyDke/dklbOUJTBpqK8L11K55nWi+hpGmSP4CBt32iDL+JrhOR/YFZCXVhjJYNYp1IKvSokgfBq19KugW7pskHe3GIaeoWtJLU8wOQ45Voki0DYOe3h0atgqDTmN6Dsv7ytfpSxQbQ85bCh3CoC9XQnd8ApM6Wi4/JaIUyhfhJEWxGqT0KHRpwZzVb0N3rbyEMeKKebQICdsakp1XFKtDwjQq84sMehr6p08/hkFjcflebJfqD92LPLWc3bRrZKCrQF+H7vv2EcyxhnQ2siCS0lLQ72vpGWclKRStwJxnK6EPvHoAc1LqL0wFCjXiEGlHKXQNkQKDvQN8/Do0xxsY1KHABM7aO3rOcccU2o/D2TXFzi0Ys/pZaK6fYE57n85iaTga68l1izPc4reSE4rlT2HO56H5fn0Cc3oUsFNwUtO16+6qjnjtUsIxzPkqtMiPazBnkwKtKRZb1xfn2aVSDS+dp9iuBWN+WAkt9PMqjGlnKJC5wEJH1FZ5zZEKQd71HYrtTGHMxx9sAINyItijSKOMBcoxjVWcI4WCQN2WiyQY8+iXkKMXMKdAkY0K5rumiF2BrGnM5X9Q8vvPLIx58H3I2cMvYUyi5nasqrVPkWvIa1LkEnOl85SQqcKY30Iiz9dgzFmeIo0LzNGVCQLKq9ruOkdux0gGugbwciUk9MUqjBlTKDPFh0oUmWAZx67KygeUcg1jnnwakvAU5hxRqJXCfadyQUB5iczy/YytJqUkLZjy6NuQlO9gTLhGITuNe5ram7xtU2QL/5TIUkqjClMevArJWXkGY07t5d+ixEmQEpZkzcilGnuVZ5Syk4Ix34RkvX4MY7qU0Ldwx8SD3h7ry6WL6y3KicCYn0LyPluFMW8pYRTG32ZeRC9GFEjibwcxynkLY548DC3hcxhjZSmhNsWfcp6k728oMsWt8B4lZS2YsvZjaClfwZjwkBKiXdza9CZ9X5D9tSn5PmNhmLL6c2g5Kz/AmHKGMppxvFPNe5O+r9hSnSOt4xglZcow5pOQUIBSoimbMoZFQOLQZgx3BjKHS8VzyoqewpgXoeX98gjGrOcpw54AVkMcBHRFfFl0COvQpqx8HcZ8KbEBDFZKtEs52UrauxevEwpMzikt1oMxj5+HXPkN5hxSTmtGZ7twzaqRDNI0TJdWvwhJC851oa0ADHz7nb07UU4aCqMAfN33fcZxd3T0/IGwFbpAW7Etpdgigm2Voq206vs/g3LVqiXYkNzk/y/mewJmCiQ055xbJH+Eh8Avq2NJTIk2BZxCWiFDNsHnoQruwRnwaVJ42Q8IY4p8ErwGrEtAgZ04DT59Cm0N4Xy2/vOvS0Ah3AejJoWUXkA4+7OWX/91CegYclOi6FI46whrg0LrgdEtFdbZC2C0Q2GU8ghrNUPhzDbA6K7yTWZdCG6W+bO3SaGkq2CjS0C+yawLAS8z5C2mCZbcMoWwNQVGF68p36TWhYDdJQqoCBMaFNyLfbDRGdDw+OeksdCmQAowo01BFVbBRmdAfRNcFwKQ71AQVZgxQwHN5cDpjjLn6nmw6lIQ7fUpByE55VfrGQoiuwlGugTkm+y60EAxQ4Fk3r/bRVBld6WSpoBqVbC68Ez5Jr0uNFA+oKBq77svUxjTB7deohBe74PReBlQ8XUhLV+nMA7q29UF+OHsuv1ChsKZy4PV6RPKNwvqQj/szFJItU9z3cbUvANPufmZVrNzMEuhpVtgdl/5ZkVdSNP5axOypfZ0feXL9rtey3XdVm/7y0Z9ur1FpnzcBbPrKgo3z4FZqk4WWMmBlc6ARuLRaXBzMyTcVhHczlxVvllTF/plv0KidVbBy18G1MaU6E/OZprE2mqA3yXlm1V1oUPz0yRUnf/jD9xTBskalT9UfEECLVchwJWzyjfb6kK/OTslkmYtDwF0CcgYcaPyv+2SNCsQQGdAjZE3Kn/I+UTSZNh//mOsDKiddaFfvpA8An4B+CgBWZ8S1WayJM80eI2XAbW2LqR1SCD2N4AegvfJ4rrQQF7ejwCiMjjpIXjfrK4LDfRJnAI46SH4Y01KShRokDh98HquDBI9Kj9QJXG6YOQ3AzoxKVGXxNkAH98loIlJia6MGI+czlLEXq93ydMnsBmvBDQJdaF8bVQbfGHzNUUmW3g3j5FVoQ9gMlYJaDJSoi3ykklh4MP6R4pAuuOuQpsRdw24o3ybjJTowTFzEOVuhYxaXinmcejzqPcfkyfKIBtG5Ys+/gCr7lyJjCjVe2X8ZbEgagpGD8EbY8OofJs8fHJx1O7O5y0KI9tuFucxLOcu0bAlBwzGLwFZnxItjhPH2W9sBCv4van0iymMkq9LWQPVQ/DGWDEq/5qGVFIYSbe9mu9fZMmvTGWlt+fg3+qeZ5PFLVgG1O6UqEtDXqRwPKdc3Wl+riynaZTZpcrnZmtmAX7kl0V8BRgtAVkxKp9fCrsFkZrfe/nK3dleb/b7Gxv95pfuZs8tTpVXMZYWDVnOIVYhSkD21oXWaUgbHJwl/k3Q81cVu+eI1f4bGlIEi57n8TTx0SUgfjHXhd5L+QIAcks0ZA5xuqwkuHYB8amSmC8A71MtZhCfh0qG2EblvW+9D8DD+5nUizzioYfghYgvJbpBw1pgs873TEgPwYtxH/GYomGlHNgspmlYFTHQJSBBniAOzkdhpzF4BlNqi4jDLSVJPKPyZRqWToHRB+K6D7yrZImjLuQU5HUyCzSskEPkHou5AYxxVH6NPHwFqwZ56CBaOgMqziVErE8k559Av+QyDKdEDkpAAt1DpBrkZQfM1shDZg/R0RlQiaKtCy3WyEN2EcxekpetBUTojpIp0lH5Dnl5C25OjbxUHETmhrgbwBjqQq9I5hUAmIv3lekheLEuIyILNfI0D3YuaTE9GNYZUMEeIhrT5Ok1+O3F2RXUQ/CSRVQXasls5P6wTN5cROG+ki2SutBuSegoh9Ykb6V9mMafAeUZle+Q3CsAsBfbcqCEDChHXSj/RvIVAKiRtxJMOyMgA8pQF3opdZbppw6NsA+ThGRAGepCPaGzTL+4NEIVZl1SdjBdF+qSt1eQYfVNPL8D7ilbGB6V75KnLQdC1MlbCyZdseAGMJpR+RZ5WoMU5Wzk68EySkBMo/JT5KUk4N/AvzSJos2GScuAxpsSdWqS7wAGcgfkZRWmSMuAxjwqvyIvC3jEXo2ibKzIKQHxpETLs3RUKQVRXBq2DUMkZkDjrQv16YjZGQizRkct5WHKRUElIJa6UK5Nf8kKOJ3jiNx0VO9RqRnQWEflFz/SHzL8x7MOc+boT2+KMEMPwdvJZEo01aFDBSHPAI5yt+jQwVcY81zZyuiofPUtDWSnRZzP6Cm1/eLna3QdGCI5Axp3SnTx1bteVdjd/1Hlxrsdk69RZglIQEr0v3HugbLaPSSCE1sCYk+J/jekloCsGJWfAE+U/W6eQiIQ2SUg+aPy9pNdApI+Km+/U0/VZDj5GImx2ZMBPd7ti0iMyYYSkORRefvZUAISPCpvPTtKQGJH5a1nSQlI7Ki89WQMwf9k36i89ezLgB7vQXIj6JOkIXilpNaFJpmkIXilRKZEJ5ptJSBpo/LWs60EJG1U3nbShuC/E1kXmlQ2loBEjcpbzu4MqIBRecvZWgLy7zoSE5wB9VUXSkxwBvR4V5OU6Ah2l4BEjMpbbjIyoEldKKgzlpeA+Efl7SZ8CP67pC4UIflD8N8ldaEhSQY0qQslGdCkLpRkQJO6UFICSupCSQloLNeSutBPNg3BqyQlapxdQ/BKJSlRs2wbgldK6Kj8t3bOLQVhGAqiJNoUjWgbX1Q0YHH/a9RPUcFb2o9mZs4WAu3k5swtFrgSkOpCckCtPGSJQpaAZImyl4DsOPIgiFoCUl3IRg1bApIl+p+CF8G/kCU6mpIXwU/JifYqgF0CsrMjFYTQS0B2AmUO4HFADUQ+Q6jSBeCdxPY4rPP/IHRUI6G1vv9fJKIs2Cr//SKT/AdqvC2AE+Ezw1ToTiuAWDhesE2xZcvrfxgJuYF9JK5uCn8WfIrNCm00sDh3vWa/A/Db1DsADpsY495d53n4T0DTw3bLTwOwAAAAAElFTkSuQmCC;" parent="3tKYfOBs04xEkgBUD2MP-43" vertex="1">
          <mxGeometry width="61.94" height="60" as="geometry" />
        </mxCell>
        <mxCell id="3tKYfOBs04xEkgBUD2MP-47" value="" style="sketch=0;points=[[0,0,0],[0.25,0,0],[0.5,0,0],[0.75,0,0],[1,0,0],[0,1,0],[0.25,1,0],[0.5,1,0],[0.75,1,0],[1,1,0],[0,0.25,0],[0,0.5,0],[0,0.75,0],[1,0.25,0],[1,0.5,0],[1,0.75,0]];outlineConnect=0;fontColor=#232F3E;gradientColor=#F78E04;gradientDirection=north;fillColor=#D05C17;strokeColor=#ffffff;dashed=0;verticalLabelPosition=bottom;verticalAlign=top;align=center;html=1;fontSize=12;fontStyle=0;aspect=fixed;shape=mxgraph.aws4.resourceIcon;resIcon=mxgraph.aws4.ec2;labelBackgroundColor=default;fillStyle=auto;pointerEvents=1;opacity=80;" parent="3tKYfOBs04xEkgBUD2MP-43" vertex="1">
          <mxGeometry x="50" y="60" width="48" height="48" as="geometry" />
        </mxCell>
        <mxCell id="3tKYfOBs04xEkgBUD2MP-48" value="" style="sketch=0;points=[[0,0,0],[0.25,0,0],[0.5,0,0],[0.75,0,0],[1,0,0],[0,1,0],[0.25,1,0],[0.5,1,0],[0.75,1,0],[1,1,0],[0,0.25,0],[0,0.5,0],[0,0.75,0],[1,0.25,0],[1,0.5,0],[1,0.75,0]];outlineConnect=0;fontColor=#232F3E;gradientColor=#F78E04;gradientDirection=north;fillColor=#D05C17;strokeColor=#ffffff;dashed=0;verticalLabelPosition=bottom;verticalAlign=top;align=center;html=1;fontSize=12;fontStyle=0;aspect=fixed;shape=mxgraph.aws4.resourceIcon;resIcon=mxgraph.aws4.ec2;labelBackgroundColor=default;fillStyle=auto;pointerEvents=1;opacity=80;" parent="3tKYfOBs04xEkgBUD2MP-43" vertex="1">
          <mxGeometry x="121" y="60" width="48" height="48" as="geometry" />
        </mxCell>
        <mxCell id="3tKYfOBs04xEkgBUD2MP-49" value="" style="sketch=0;points=[[0,0,0],[0.25,0,0],[0.5,0,0],[0.75,0,0],[1,0,0],[0,1,0],[0.25,1,0],[0.5,1,0],[0.75,1,0],[1,1,0],[0,0.25,0],[0,0.5,0],[0,0.75,0],[1,0.25,0],[1,0.5,0],[1,0.75,0]];outlineConnect=0;fontColor=#232F3E;gradientColor=#F78E04;gradientDirection=north;fillColor=#D05C17;strokeColor=#ffffff;dashed=0;verticalLabelPosition=bottom;verticalAlign=top;align=center;html=1;fontSize=12;fontStyle=0;aspect=fixed;shape=mxgraph.aws4.resourceIcon;resIcon=mxgraph.aws4.ec2;labelBackgroundColor=default;fillStyle=auto;pointerEvents=1;opacity=80;" parent="3tKYfOBs04xEkgBUD2MP-43" vertex="1">
          <mxGeometry x="192" y="60" width="48" height="48" as="geometry" />
        </mxCell>
        <mxCell id="vJi5SJJjgkvMFI4-lIAW-6" value="" style="shape=image;verticalLabelPosition=bottom;labelBackgroundColor=default;verticalAlign=top;aspect=fixed;imageAspect=0;image=data:image/png,iVBORw0KGgoAAAANSUhEUgAABwgAAAFYCAYAAABHzahLAAAACXBIWXMAAC4jAAAuIwF4pT92AAAgAElEQVR42uzdS3YiR/r38V/X8Ry9E6aiB4xFr0DpFUh9WIBwbKDwCopaQVEbiEotgGO0AqdWYDRm0GjK5C9W4HeQkS5KpQsRec/8fs7RsbstEDwZGRkRT1z+9ffffwsAAAAAAAAAAABAP3wgBAAAAAAAAAAAAEB/kCAEAAAAAAAAAAAAeoQEIQAAAAAAAAAAANAjJAgBAAAAAAAAAACAHiFBCAAAAAAAAAAAAPQICUIAAAAAAAAAAACgR0gQAgAAAAAAAAAAAD1CghAAAAAAAAAAAADoERKEAAAAAAAAAAAAQI+QIAQAAAAAAAAAAAB6hAQhAAAAAAAAAAAA0CMkCAEAAAAAAAAAAIAeIUEIAAAAAAAAAAAA9AgJQgAAAAAAAAAAAKBHSBACAAAAAAAAAAAAPUKCEAAAAAAAAAAAAOgREoQAAAAAAAAAAABAj5AgBAAAAAAAAAAAAHqEBCEAAAAAAAAAAADQIyQIAQAAAAAAAAAAgB75hRCgifbT8UTS2bP/ezNcbZ+IDgAAAAAAAAAAQLh//f3330QBpdhPx5H71+NkX3T0KyNJ5wX9ufujf9+5H0naSHqStBuutjuuCgAAAAAAAAAA6DsShAi2n47PlCb/sgRg5P550eCP/ajvCcSd0gTibrjabriiAAAAAAAAAACgD0gQ4iRuy8/nP4OOfc0HuYShpERsaQoAAAAAAAAAADqIBCF+sp+OR0oTgJH752WPw5ElDTeSElYaAgAAAAAAAACAtiNBiCwhGB39nBOVVx2Uri5MRMIQAAAAAAAAAAC0EAnCntpPx9dKk4HXIiGYx0HSWmnCcM2WpAAAAAAAAAAAoOlIEPaEWyWYJQWviEhpHiTFYnUhAAAAAAAAAABoKBKEHXaUFJxJuiAilXtUurowJlkIAAAAAAAAAACaggRhx5AUbKwsWbgcrrY7wgEAAAAAAAAAAOpCgrAj9tPxTGlikO1Dm+9B0lKcWQgAAAAAAAAAAGpAgrDF9tPxRNJcaWJwQERa6VbpFqQJoQAAAAAAAAAAAFUgQdhCbrXgXGwh2iWPSlcVxqwqBAAAAAAAAAAAZSJB2BLubMGZ0sQgqwW766D0rMIFZxUCAAAAAAAAAIAykCBsuKNtRG+IRu/cSVqy/SgAAAAAAAAAACgSCcKG2k/HkaSFpEui0Xv3ShOFa0IBAAAAAAAAAADyIkHYMCQG8YZHpVuPxoQCAAAAAAAAAACEIkHYECQG4YFEIQAAAAAAAAAACEaCsGYkBpHDvdJEYUIoAAAAAAAAAADAqUgQ1mQ/HY8kxSIx+JpHSUtJXwjFu+4lzYer7YZQAAAAAAAAAACA93wgBNXaT8dn++k4lvQ/kRx8yUHS5+FqO5L0RDhOcinpr/10HLvEMwAAAAAAAAAAwKtIEFZoPx0vJO0k3RCNF91LmgxX24X739eExMuNpM1+Ol7sp+MzwgEAAAAAAAAAAF7CFqMV2E/H10q3yzwnGq/6Olxt58/i9iRpQGiCPCrddnRNKAAAAAAAAAAAwDEShCVy2z0uJV0RjTf9Nlxt4xdi9z9Ck9ud0kThjlAAAAAAAAAAAACJLUZL47YT3Yjk4Ht+f54cdEaEphBXSrcdnRMKAAAAAAAAAAAgSb8QgmLtp+OJpFjSBdF41+1wtV2+8t8iwlOYgaQv++l4Jmk2XG03hAQAAAAAAAAAgP5iBWGB3KrBv0Ry8BQPkljVVq0LSX+5cgoAAAAAAAAAAHqKFYQFYNVgkNlwtX0iDLX4tJ+Or8VqQgAAAAAAAAAAeokVhDmxajDIZxJTtctWE7KKEwAAAAAAAACAnmEFYaD9dDxSumrwkmh4eRyutgvC0Bhf3GrCa1Z0AgAAAAAAAADQD6wgDOASKhuRHAzBirXmuZS0c+UaAAAAAAAAAAB0HAlCT/vpeCnpD0kDouHtfrjark/8XVazVWsg6Q9XvgEAAAAAAAAAQIexxeiJ3Jaia3HWYB6xx+9yRmE9Pu6n40hSxJajAAAAAAAAAAB0EysIT3C0pSjJwXCPw9U29vj9HSGrzYXSLUcjQgEAAAAAAAAAQPeQIHzHfjpeiC1Fi+C1deVwtd1JOhC22gwk/bmfjjkzEgAAAAAAAACAjiFB+Ir9dHy2n47Xkj4RjUKsA16TELbafdlPxzFhAAAAAAAAAACgO0gQvsCdN5hIuiIahbhzKwJ9JYSuEW720/FmPx2fEQoAAAAAAAAAANqPBOEz++l4Is4bLFpS8etQvAtJG3d/AAAAAAAAAACAFiNBeGQ/Hc+UJqU4b7BYIduLarjabiQ9Er7GOJeUkCQEAAAAAAAAAKDdSBA6Ljn4TSQHi/YYuL1oZk0IG2Ug6S93vwAAAAAAAAAAgBYiQShpPx3HSpODKF6S8/UxIWykbyQJAQAAAAAAAABop94nCF1y8IaiUJpNnhezzWijfdtPx0vCAAAAAAAAAABAu/Q6QUhysBKbAt6DJFRzfXT3EQAAAAAAAAAAaIl//f3337370vvp+Ezp1pcXFIFyDVfbfxV0vf6PaDba7XC1nREGAAAAAAAAAACar3crCEkOVupQxJsMV9snSbcN+U4PXNYX3bCSEAAAAAAAAACAduhVgpDkYOU2Bb5X3IDv8yBpwWV9FUlCAAAAAAAAAABaoDcJQpKDtXgq6o2Gq20i6b7G7/IoKZI04rK+iSQhAAAAAAAAAAAN14sEIcnB2mwKfr+4pu9xkHTttjo947K+iyQhAAAAAAAAAAAN1pcVhIlIDrbecLWNla7kq9p8uNpmyc6IK3ESkoQAAAAAAAAAADRU5xOELklBcrA7lhX/vTuXmIQ/koQAAAAAAAAAADRQpxOELjlxw2WuTVLCe8ZKt/yswkHS7Nn/xxajfm720/GcMAAAAAAAAAAA0BydTRCSHOwmdw5gXNGfm7m/d4zVqP6+7KfjGWEAAAAAAAAAAKAZOpkgdMkIkoPdVcU2o/fD1XZNqAvzbT8dXxMGAAAAAAAAAADq17kEoUsOfuPS1m+42iYlve9O0l3JH3/GFSxcvJ+OJ4QBAAAAAAAAAIB6dSpB6JIPSy7rq35Tdef3la3M63zrkpAo1kBSsp+OR4QCAAAAAAAAAID6dCZB6JIOidIkBF62kxSpA0lCtzrxsaS3X1BUSjOQtN5Px2eEAgAAAAAAAACAenQiQeiSDWuRHHzP2XC13UiaSHoo+W/dV/B9ylhFyOrB8l1IigkDAAAAAAAAAAD16MoKwlhp0gFvm0j/nOEXqfwkYRXXvWiLd/77PcWoEFf76XhBGAAAAAAAAAAAqN4vbf8CLslwxaX0M1xtn/bTcaR029EyVl7uKvoOdwVe/3tWD1bq03463gxX2zWhAAAAAACgfNbaiSSfYz82xpgnIgcAQPe0OkG4n46vJX3iMoY5ShImKj5JuKvoa8QqLkEYn/A7NIoLvn776ThyW98CAAAAAIByLSVdevz+r0rHjQAAQMe0dovR/XQ8EueY+Zo8/z9cYmZewt+qJJHmVp8dCnirw3C1PaU8kcgq1kBpkvCMUAAAAAAAAAAAUI02n0G4VjlbY3bZi0kYlxi7LfhvbSouC1W9x45iVLgLpTMYAQAAAAAAAABABVqZINxPx0ulSQX42b3x3+YqZiVepsqtOKtMELKCsBw3++l4RhgAAAAAAAAAAChf684gdOcOfuTSBdm99h/ceYRzSd+K+ENVnik3XG3X++n4oPAVpQe3VelJ32s/HVOSyrHcT8cbziNEHtbaqGvfyRiTcGUBAAAAAAAAFKlVCULOHSzXcLWN3Squy5xvdajh468l3eR4rY/7AmKEnw3c/T0hFMjhz659IWvt8f981PfJHsnRP5+MMSTXAQAAAAAAAJykbSsIY3HuYNkWyj/AXscgdZ4EYRLw/UgQluNiPx0vh6vtnFAALzp3Pzqqhz5J/yQSH5QmEDeSElYfAgAAAAAAAHhJa84gdNtfkpTJ593E3XC1TZSukMtjV/UXO3WL0Ff4vjahKJXq4346jggDEORC0pXSpOGf1tq/rbUba+3SWntNeAAAAAAAAABILVlBuJ+OJ5K+cLlyezrx92LlS8buavp+d0oHxn08DFfbJ8/XJBSl0sX76XgScG0A/OzC/Xx0qwzvlE6MWBtjuMcAAAAAAACAHmrLCsKYS1WIk7b+HK62sfKdI5jU9P2SKl7jklb3FKdSnXPfA6W5kvRN0v9Za9fW2pm19oywAAAAAAAAAP3R+AThfjpeKF35gHwOnqux4hx/a1fTdwzZZjSp8G/Bz9V+OmZLRKDk+0xpsnDntiEdERIAAAAAAACg+xqdIHRbi37iMhVi4/n7cegfGq62uzq+oPu7jyXHJUOCsBrL/XTMyiagfANJHyX9z60qjAgJAAAAAAAA0F1NX0G45BIVJvH55eFqu5F/sk2qf+tNn+/5GJrMdK97oFiV7lzSgjAAlbqS9Ke1NmFFIQAAAAAAANBNvzT1g+2n47mkSy5RYUJWyq2Vrigp++8UaS3ppqLPulS6NR/K9XE/Ha+Hq21CKIBKXSpdUXgraW6MeSIkAAAAqIq19lrS5IX/tDPGxEQIAAAgn0YmCN2WggsuT6GSwNe0LUGYVPhZ1yJBWJXlKx1DAOW7kXRtrZ0zEAMAAICyWWsnrr99/sqv3CvHsSgAAABINXUF4VLpeUgoxsNwtQ1Z+ZEEvKbWBOFwtX3aT8cPki5K+n7P/9atTl+xiHAX++l4Plxt2XYYRbs3xkRN+1Bua8/R0f+Vfcbs/59U/JwcSPrmZnHPWE0IAACAEs31enIQAAAABWlcgnA/HUci4VK0JORFnsk2STq4swvrtjnxM+8K+Fsx5bUyi/10HAcmu4FWMcbsntVRL9bj1tpIabIw+7ko+aNdSdpZa6+NMQlXCgAAACWgjw0AAFCBDw38TKwQKl5S0WuTFn3fw3C13eX9Q+5cvAeKWCUG1A/Aj4wxiTFmaYyZGWMmkv6fpP9K+irpscR78U9r7ZwrAAAAgCK57UUBAABQgUYlCPfT8Uzlr37oneFqu87xcp8VgUlDvvKm4O/1HpJW1blxq4wBvMAY82SMWRtj5saYkaT/qLxk4RdrbUzUAQAAUKAzQgAAAFCNxiQI99PxmUi0lOEu5+tblyA8cZvTTYF/L5Z0oKhVZkEIgNMYYzZHycL/FvBMeO7GWhtbaxnIAQAAAAAAAFqkSSsI50q3LUOx8qwelMeZgo8NOX8wc//Of98V/PdIblfn0q02BuDBrSy8lvRvSbcFvvWNpIQkIQAAAAAAANAejUgQ7qfjkdIEIYq3LuA9TjljL2nY997k/O++lmIVYZUWhAAIY4zZGWNmKjZReCEmSgAAACC/iBAAAABUoykrCBdi9WAZ7oar7VMB77M74XfWDfvulSYIXZwZHK/OOasIgXyOEoW/6rSJIO+54UxCAAAAAAAAoB1qTxC61YM3XIpSFJW0ey+Zdhiutm1KEB4KSpw+xyrCai3d2aUAcjDGJMaYiaTPBbzdjbV2QVQBAAAAAACAZmvCCsIFl6EUBxWXINy989/jpn35d85D3JT0N1lFWK2B2JoYKIwxZqF0NWHeiQ6frLXXRBQAAAABmAQKAABQkVoThKweLNW6wFVyu3f+e9zQGDwEfp88WEVYrTmrCIHiGGMSSSPl33I0ttaOiCgAAAA8TQgBAABANepeQbjgEpQmLvC93lpxd//Oar067Tz//9xYRVg5VhECBTPGPEmKlC9JOFBzJ48AAAAAAAAAvVdbgpDVg6V6HK62SVFv9s5KxLjBcXgtcZmU/HdZRVgtVhECBTPGPLlzCW9zvM2ltZYEPgAAAAAAANBAda4gXBD+0pSxgu3+hf/vcbjaxg2Ow+6V//+pzD/KKsLKsYoQKIkxZqZ8KwkX1loS+AAAADjViBAAAABUo5YEIasHS7eu6O8sGh6H3Uv/ZxVbog5X24WkR4piZWaEAChNpPAk4UBMmAAAAMDpzgkBAABANepaQchqn/LcDVfbXQnvmzz7301fPSi9vMVolUm7BcWxuk7kfjqeEQageO5MwmuFb518Y60dEUkAAAAAAACgOSpPELqzwmaEvjRxRX+n8dfwlbMTdxX+/Vj5tuaDnwUhAMphjNnlrPe5PwEAAAAAAIAGqWMF4UzplmMo3mG42pa1vWhy9O/3w9U2aUlMnifodhX/fVbLVud8Px1HhAEohzFmLelr4MtZRQgAAIA3WWsnRAEAAKA6dSQISZiUp4qzBw9q1wrQ56sId1X+cZdIvadoVmZBCIDS77FH7k8AAACU4IwQAAAAVKfSBOF+Or4WB06XaVnWGx+tGFyUdMZhWTbv/O8qLCialbncT8cjwgCUw51HGDrR58Zay6APAAAAAAAA0ABVryBk9WB5HoerbdnJr/vhartsWVye3vnfpWMVYeWoZ4ASua1GQ+u0GREEAAAAAAAA6ldZgtCt6rkk5KUpfXvR4WobtTAuT8++Q1LT5yBpVZ0ZIQBKt+D+BAAAQMEiQgAAAFCdKlcQkiAp15oQvGjThA/hVneyirAag/10PCMMQHmMMUlgnXZhrZ0QQQAAAAAAAKBeVSYIZ4S7NIcaV8a1Sd0JugWXgPoG6JDQLaevCR0AAAAAAABQr0oShPvp+FrSgHCXJiEEr3p65d8rx1mElbp02xoDKIk7i/Ax4KUkCAEAAPCSM0IAAABQnapWEM4IdakSQvAyt7VnpgnbjcZclcqwrTFQvpDtrS+stQz+AAAA4Dm2ogcAAKhQ6QnC/XR8JumKUJeK8wdP81T3BxiutrHCVtzAH6uUgPLFga+LCB0AAAAAAABQnypWEDJIX67H4Wq7Iwwn2TTkc8Rcikqc76fjiDAA5THGbBQ26YF7EwAAAAAAAKhRFQlCtvkrV0II3vXg/rlryOeJuSSVmRECoHQhq9jZPgoAAADPjQgBAABAdUpNEO6n45GkC8JcKrYXfd+TJDVlpaX7HPdclkqwghkoXxLwmkvCBgAAgGfOCQEAAEB1yl5ByOB8+RJCcJKHhn2emEtSicF+OqYeAhr4HLLWsooQAAAAAAAAqAkJwnZ7GK62T4ThXRu5VYQNwsrP6lAPASUyxjwp7BzCEdEDAAAAAAAA6lFagnA/HZ+JLcTKRpLpNDulScLGcIndOy5NJUgQAuULqWNZQQgAAABJ7C4BAABQhzJXEDIoX76EEJwkVjOTqSR4qzHYT8d0NoFyhSQIzwgbAAAAaBsCAADUgwRhiw1X24QonBSnp4bGigRhdWaEACjVLuA1JO4BAAAAAACAmpSZIIwIb6nYnrLl3DajD0SiEkxYAMq1IwQAAAAAAABAe5SSINxPx5GkAeEtVUIIuI442fl+Oh4RBqA0TwGv4Z4EAABAJiIEAAAA1SprBSGrdcqXEIJOYJtROpxA6xljQs4gPCdyAAAAAAAAQD3KShBGhLZUh+FquyEM7cc5kpVi4gIAAAAAAAAAAJJ+KfoN99PxmaQLQluqhBB0ygP3TCUiQgCgz6y1z+vBjTHmicgAAIAGOCMEAAAA1fqlhPeMCGvpWD3YLYlIEFZhsJ+OJ6y+BdBV1tqJpInS8x0jpQNtF++8JvvXR0k718bYKU0eJkS18Gt05q7RxF2f7J9y/37KGd4P+n7u58b9+0bSLnC7X3Tj3o/cvT854d7P7ves7GwkJV2cMGCtHR3Vidm/nzKh9d79c+d+EneP7ShxrS4Px+Ug+/Gpf5+Xi417XlIuijEhBDjheTc6au9m9/Bl4P1L26k75eLsqP+T1SWnLmDJ2tZPR32hHX0hoBPtvax+OLU+yPpJveprkyBsJx5S3UKDtDoR8QZK8yjOFay64XumdPvkyP1zkOPtzt3P5dH7S9Kda3esGQAN7pxkP5Oc1yhz3LG5fPb3pHQA7Djpw3Xr7r2f3f+DwPtdkq6O3vfB3e9xWzvAz+rFKMdz6fLZPz+59390McrqRVZhN7csjJ7Vv0VMyLx8pe49ZHWuq3fprwPFt6MuS7p/s7ZTVq8zXtD85/xx3X5ZwNsePx+unpWNh6PnfsJzH2h0nRAV0N477ie99LzI6oRO9bX/9ffffxf6hvvpeCNWQ5VquNr+iyh0x346jiT9SSQqcTdcbTmLsNuNA9+H2r0xJiJyhcR+J8+BWGPMv1ry3ZJ3Op8PkhbGmHVFnyeSNJN0U3Eo7iXFYlD8rWsz0vfkxFVDPtajpLW7bglXyfuaLuSSQ684SFoaYxYVfJaZK19XFZWbpdJk4VPDr1GWFJzX0A+9c/dWzN3SiLJwnDivc9LS4ajeXXNlCmtv0YavJ9aS9GtVbYij+zjv5Le8929Mu6kx5XVyVCbqHm++O6rfn3p+XbzGXtrS9294v4NnoX6aLFl3n7v1EyylclYQkhws1z0h6Jbhapvsp2MCUQ06kUB5+rx68ELSH9baf5c5g8wlBxY1xvrS/SyttUulSZHeJwprTk6cem9+lPTRrXKJ296BaZiBpE/WWpWRJHTla650UsB5xeXmi6SFtbaSBGhAbEauTqxrEFluUOIqqxOpF2spBxN3j9RZDl6qF24k3RzVu0tWdL9rRAh6ex+Pjp51gwbdv4/uOcPkuHrKRNa+blI/88r9fLPW3rm6PeGKAb1t8124n49uN5asr92qZ0ahCUK3EgrlYjCnmw4Nqty6jHMIAZRp5gYRim4IR0oHnpuSfBoondk4t9bO+ro6oiHJiZBr9/GoA7Nk5VMz7/+jxOC85vKVJUBnkmZNGAQ7uvduGnZvZfUiicJqysFMzZ2Y8Vq9e690x4GEK/gitqrv330cufr8ssFl8pvc5LgmTpbpaJmYNewZ/5psktCjq9tpUwP9fFZkLvR9guXa1Qu7NsS46BWEEcW2dCQ2untdLwlDJSbcRwBKUmg7yCUIYjVnq8rnejmxxXVQ5g2+Lj4dmG9uK5uFmB2f13mBZexa6aSA84Z9vz+ttV+NMfOa7r0zV1Y/NrgcMIGi/HIwU72r6fO4dPcRicLv13Mi6SzgpWfuedxET6zSP6kttVB7xkCOJ8vMqdspEy+0kf5pU5MoBHpfLxyvRL9VCxKFRScIJxTf0tHQ7KadSBBWhXoKKL7hdkYUCo/ptdLkYNOTcJseXZORuyZde15ns+MX1loGNXLWhXmSrC2YFCClq6AiSVGVCeUW1YnHAwN/uO3HZiTfCykDM7U3Mfhclii8U5ps2HXg+hwn+s6e9bme/7ciVn1eSPqzoeG4F5Pn32pLLdXeSVbn1O2Fl4lI7U0MvtimttbOXd2ecIWBzvaJTpUlCr8qTRQ28rlBgrBl2Bqxs3aEoDLUU0Az7ivO1H29QbxUs1fIZA59OE+pJauWinA8+3nGoEZwXZgElrM2JcAuJG2stddlr5LpwADBlaSdtTZiRVFwGYjUrG22iy4fkZucsWzRNZlIWostQeFXbhaqf9vsouv2a9pLuZ7vS7VjK9GQdtKfbuXQnEQy0Nk+kY+PkmZN3WHkQ1FvtJ+Oz2gglu6BEAC5sVITKB4rCAvqKLu96tuSiNr04JpcK53E87FHRTHbSjJmdXBl5Wwp6Y+WdYTPJSUuUVBWXLJt4ds+e3gg6S+3Ag5+z8Sl0lViFx3+qgNJX6y1iVtd1ZZ2H2M/OLkut9ZulG6/POjYvfunWy0GvzIxd+3rm45/1Ru5SUJcdeCkdl/cwj6R73PjD2vtumn97CJXELIqp3w7QsC1RX776XjCalygUCFtgC7We8GNPNdATNSuQdCkyx0UVbtq6UFSNrt4c/Tvz++zs6N/L7vjdCPpmtnxpZezIu/7+3fq6aLLzEBS7FbHPRUcmzJmDx/09sSGsu+rb9ZasY3vSdc/cte/rCTUg2uHbNw/szbJi2fHPds+M9L3LTSLnHh4qXRlLmdXokv38kJpYrDsttNb91XZvlhrJ8aYGVf8pHbPusTr8ujq88SVjX/q85fasm5SxuhZOzsquD2QJZI/G2MWlALgxbph5OqGMsZCDi+0917qbz/fHj1r75XxmbJV6I1p8xWZIIwo0qUjodFdO0JQqQn3E1D4PUW9F9h4bGlysLPtkpK3TntwcfvnJ+eZdROlAxsTFT+gIX0f1PhqjGGG/PvOKixnd64MJT7lyCVeRq68XBdQXi7cZ5gUeA/OlJ6Lmcej+1yJpJ1Pkttdm8nRfVVk3UyS8P34L1R8QuHu6F5JfF/8LGmYvFBeIkmzAspKNrP89zZtOQq80rYtKhGUu+109Owro16X0vOlRJLwzWtQxsSfB1fOkpBy4Y5K2L1Stx+3laICPvcn97zg7Erg53ZUUmDdcDiqFxLPI1HW7/QNiuo/Hbf5GjF5oMgE4YhiXToSGgD1FdBEIQPDPNNUanLwcEKM8yaTNh28HnNJXwq+DlkHZV30gIAbtN4cd2bcINi1+ykqyfnRvW/EoMa799T6hHIW2hG+kxTnmWl6lByJj8rLTPm2+bqw1sZFDIzmTA4+uu+1znPe39F9lX2mkbufZgXV1SQJX38eFrmy5NaVhVJnZh+Vl+VRWZnnrH9ZkYQ238uRu5dD25iFt52eTwxw9U3WVipqtwiShK+XiYWKm/jxcPSs35VYt+/c34mP2id5y8uV0u3ZaU8DKjQ5mD034jJ2vjlq62X1wfXRM6QTkwdIELYLDxCgGBEhAApr1I0UNgi2I3aFJQcf9ONKmY3n53i+Cu2UwdlDmZ3ymq5HrOLOQrl3HZS46u/hOkWJpHnW2XA/RawU27gtR0nwV9cRPkhauvK0K6u8uOR49hNSVm6stbmSMTmSg/eSFmVthevivlSaAIokLZQ/ifXNWvvEVpI/3BdxAc/Dx6P7pfK+c8FlpcnJho2rmwaUXjy7l/NMtMo9CcbjXn1ydU523nKe59/z+3bDCuAf+jrLAtrX2eD/oq7+h2vTx67vu8jxnS5cu2tGexq0/XInB2tp97nn1Np9j2wSYasnDxSZILykeFfSEGQ70ZQAACAASURBVAeQ34gQAIWJAhtVPNPy7bN/516fe2Z14Cq0pEOdkyLPG7xVjYMXr1zbuZu5fa10QCPPqpbzo84L93C5HeEsMbisoqPo/sbCJcqXgfdDbK0dhXxeV+f4JgdLTQy+EqdEUuQ+71L5Elox91KhA0SLJq3KfFZWFgobL2lkktAY82StXau4STXoxr0cB5SJg2uDLWtM/GTPv6WKSRR+cUnCpOfloYiJkJW2hU4sLztJM9e2XgTWg1mScNK1CZdARW2/g2v3LRtQJ6wlrQuaPBC7PnvlCkkQ7qfjM4p3+YarLSsIgWKcEwKgMFHAa+5pFNtY/oOFpa4ketbQTfTjKrTs/I2sMT/ryHUoahXnnaR5Uzv5z2bKz13nJbRDNhBJwtecFdQRrq08ub957VbzLT3LycC9ZuZ5H560NeuzunBW5+o7V0dOcm6bNnD35aSvN0yXBojeKStR4D0lNXcl4Vzp5KKZ2neGMopvS/luD9zExE8RE2Uy69AJM7Sv/3Hr2kKNjOFRonCpsBXwA1dO2G4Ufawf4hxtv0bWDQVNHljU9fmLWkE4oYiX7kAIgOLsp+NouNomRALILWSGU6/vPTdI6NNgrHUQ5fl5XB3rnCTKN3jxqDRR0ZoybYxZusGvhaSPgW9DktCjT+SRBKk98XVUTmJr7Ub+yZsbdx5h4nEf+gwS3KnmMzqexWnhVlL5xilzYa1dGGMWfbtZCkgONqosnHhPrRW2Yr1xSUIX96X7KaI8RJL+9HjJvTEm4rHTyrZUo3ZbeKFs75ROlMmzXepAadI0okx4e3B1eyval+5zhk4YuhBnEqJ/QnfgaEw/6YRnyOyov33q5JmvddZ7Hwp6nxHlu3QMvgDFYuUzkL8DGHooc9LhmExO+O8+g2l3kibGmAUdx8Ll2eJVkj4bY0Zt3ELKGPNkjJlL+lVpkjNEliRkouDb93w2UPZeXXkvadSkTq/rpEZKB+t8LEoaJPjdGHPdwBnDG6XJ4YfAt/jUt/soZ3LwIOm/TSwLJ9a915J+D3j5jZtgBDTt+XZqHf4o6VdjzKwN2yq6lcn/Ufhk/cu+3bMFJAc/G2MmbZx85ib6hJSXbFtBoA91xLXCVtY9KB0TWbeoTkjcRKbfT6gXHlXj6kGJBCGA/mJAE8gvpNN76PiZHO9NPoh1+vlj2QDojqJWeOckVvj52QelA1yLtsch2yZR6Wz+EFmSkL7Ay+Xs1OTgV2NMI2ePu0G6mfwGvC7daqCiBgmy+rDJ20juFJZMzSx7dF/kSQ62boDolfISmnj4xqQMNOz5dmoiqJWTqo4myoQmCZcuVn0ROvmuE21rV15GAW2BK7cCEej6cyMObPtFbR0TcW2+kd4+Zqf2HTFIEALNQEeveqwgBPI18EYKO5tj3eOYnbpSJmsErylppVyHhcIPD39Qusor6Uo83IqWmcJWtEjfz1Dhufpz2yI+4Z7/za3mbHIZyQZIfSwKGiQ4tKU+dB37SGEDyb1YaZLz3JlbtXiA6I37yre8UN+iCfdxcmKbNls1uOjhvZq1keY9KRexwibfZf2eTrStj9oCvknCT6dMrgJaLOQc5qx+eGp7veBWE/72wrPktgn1HwlCoBno5FWPpCyQT2hnN+ljsNyM/1POe7t3jWC2Fi/nOlzL/3yQzF0XOihvdFyWr3RaTnGhHq2AeicOWVlb6O1JFNmquLgl5WMjvyTy5TsrnRY67UzGVtWHOZOEix7cI7HCVpfcum0JO1X/BiYezsV2dKivHeWTHMy2yU86cq/OAl/+qes7LQScr5556GK/J0eSMGYCCDpaR4wC6ohOJAef1Q2xMeZM6TEfv0n6T1POly4qQUgFBgBAvwYHQhoyh7YMhpfglO9929RtBjvUMQktf7dtPO8qpNOi8OTGjbV2TkmT3AzwtxLRrVkV96x8LJUO+J5q/sa9eMqEiXlLzyHaKGwSzXmXVxGekDR/q/7tbFwCk4RXbsILULVTt5D8vWvtJvfM/hz48kWH6/aJpG8BL+3c4P+z8hKSJDxXPyYLoX98y/VBDdh2s8T6IXHJwsb0c4pKEF5Q1oFcIkJQuUtCAASbK2x7sF5umemSJu+1lTo9ANoQcWC57dW1CdxO8p/OX9/Px3ITKNbvdHjbPFt+rtMTGdevzIQ/ZZDgc5snlLjPfhdyD3X0vpgobPV2L+pfVx/4JvyWrDRBxfdxfEIfuvFnxua8VxcKO2v2pov36wltntd0Ojl4VF6yJOGjx8s+stUoOlZPjOS/enDBjkrV+kAIWoNkBgCgKQ280FVCfdiC8OyFjvPihE4yK6/KLbeLwLbUQx8Tt65D9lvASwdi67u1Xk9Etz05KHf+29KjPFwHDBLct/m8qiM+ydTMedcGBnMMIPdtckYiv218z2k7oOL67L26u5Wr4wPMcsSwaxauLvLxqB4kB4/q9icFTAChykGP68z7rk4yabLcCcL9dDwijEBuJIBrQP0FBAk5XDpr6PVhFtjEM169mEFbpxxJ7Qf1eIW/WwH1e8BLL1xCljbdz+YdqQeX8lhF+Ox/v1c2DgoffG3aPbRT2CDfrGP3xEL+A8i9nDjjBsTuPV7S+bPN0BhXJ9yzkz609d13DNlqtFN1u5vM8tHzZQdJ133r9wSc43zR5S3H0Tu+ZXlByKpXxApCGqQV2U/HE6LQyevKPVQfYg/4dwSvAl8e9zBeI70927rTe+s3SCz/pDbXRkFnzmXmDFr/5LeunMHq7otTE19XR3Ximd6fRb9wibWu8EmmZjqzFZ3bWpQBZD/XnmVmQfWKmmWT3XY9+s4hdft5x84ODWnTzPu6bWDABBDqdnSlHegzSeze7aiAirHFaLtwxkA3jQgBgBY07kK3CJOkx64MjHt6r2M3Y2/90svttcJW6c+5Nt/LqfzOTpHShCxbw3x328E68OTB0aMB0ZneWVHdtS2FPJOpx647VE6865yeJRpeKjM+qydvmJCBGvVyJ4y+1+1upwjfleFfe9offN6mPjWxfM4qQnSkzPtYELJ6kCBsl4gQcF1RKJLuwOlihW0tKvVwm7ATVg9+7cEZLU0QMnhzxwDGd24QbBbw0quunaUWqJPnWLpycWodFp04SNDVZ0UvB5HdwKbvBA2ejfpni2dWmqDxzzf1e5v8kFWEXajbzwKe14/UU0Fbj1O3o+18+oKPrB6sz4eKLzbyYYtRriuIPVBHR3Cu8K1F73s62Legk1x7uV3If3ZzZ84/K5LrrH0t+D7og4O6sxLsJacOckVu0sTFO8+KpKP3z5OkW8+XXXVgm1Hf+59nY3j8OrMtLVr1fOv1GdqeE2Uygw5sMxpyHj1HKvwYP1YRoi8uPH6XydM1YgVhu5DM6KaIEABoKteJ/ZLjLRY9jNlIb68epJNc/jUImd0spVuLcm1ev5d9txq97Pkqwk5vlei24T2lTFzo/cR717ekDRn0aO294wY0fSdoUP/+eH8l8ltFOCdqqEjvk4M5n11trtvf6+O85JZVQT/U7b7bSM+IGlpaX/jWddQTNSJB2C7n++l4RBi6w13PAZEA0NBG3URhB9BnvvawQzh6pyP3lU5yJWYBz9d7thZ9nRvQWAS8dNHTkPVlq8RTv+OnN/7bY9dj5b6f71Z0UYu/su99f8/WornjOCNcqMg15zT/U7efOlGmr3X7QUxeeKncxB5tgkvXJwfaZuT5+zxXakSCsH0iQsD1BICyuY5IovBJDH3dKmz0Rkf4ILZPq0rIYATX5h0B52JJ/VxF2Kf6LyngPZY9iZVvAqyV903g6kHq35fr3ETpOW+nOO/A1oVovt+Y6Ja7br9o45bAgasHl6w0LaTtMyNcaKGRZ5tnR8jqQ4KwfWj0cz0BoOwOYN7koNTfbTQv34gb26dVU35n8h+cvmfA62SLgNf0bfZ4n+q/Iu6bNbF60UVLv6dvHcH2c2/zGUSmb4ky3bLTwotCYhK1sW3j+fsH9WcCUNnlZka40HGPhKBeJAjbJyIEXE8Qf6AsBSUH2UbzhUYvgyqVYfVgiQLOxZKkKzfzvA96lWx2idCHHG/x0KMZw96J0LatvnWfl9WDxd5jsU7fio4EIcryYIyZEYYX79GN/LeQbuOWkb7ta1YPvl1udpLuTvz1ASvE0XE7QlAvEoTtM9hPxzwYOmA/HUfi/EEADeJWXv2Vs256MMZw1sTPZoSgkjI8kf+qG1YP+ou5B3AkqbgstZIbKPWdId22QWTf+/yeLaVOcmpymUFklIW2fbHPwaiFfUSf/iGrB4tvA1G3o20iQtAeRSQIOSy1ejwYuI4AUHTHL5b0LefbHGgIvogEVHVmJXfOoX9WtDxWcG3QDpscr02IVTf62u5MLd/zqRbcPifxWX1KHxNoft0+6nj7es3qwZPa02udvvqUPja6XC9eEq56FZEgPCOMlbvZT8fEvf3ovAGonbV2Yq3dyH9Q77mDpIjO4IsWhKAyM8/fZ+vXcL5xO2dlS2ftQp8bbmu2PunyILLv/f3I5JnTMIgMNJ5vXXbeli/mtoj3Hbyn71N82Tl3O6UAbcG4UIuwxWh7zQhBe+2n40mbGoUAuslau1C6pehFAW933cOB3lMwAFpdeb6W//a4ayIXLA6pJwhb9+So4/pYN/p+5zYNBnqfT8XdU0rZOe/Rma9AU3j3gVp0xqxv2+2BraNL64tEhAsd7suTAK9REQlCBgPb0QED1w8A/umQWmt3kj4V9Ja/kQR71YIQVCYk+cQAdSA3+HNXwTVCd/WxH+k7m7oV55W7hJTvZCMmaPjxaWdFhAuotE30pNNX+bbNjLY1dTtQAcp3jYpIELJktB7n++l4Rhjax20PywAZgMq5xGAi6U8Vt4r5N7ZofBXbV1aLGc7V8x3gH7DNaGfdB7ymdwnCkJX2LVkNFlH/li4p8XoAyK9zZ8wy+aOSdsFOp5/rTd2OrrZbQvryKBBbjLbbjBC09roNCAOACjt3x4nBog6APkj6lQTYm4hNdWV8EvBs5frkFzIIFBE2OEw0Pc2oBZ/Rd1CH+teTZ3KZbbqA5j/TzjpYt99zHn2QU+v3AVtIo0V2nr9/SfmuDwnCdrvcT8cRYWgdthcFUDpr7Zm1du62Ei0yMSilycGIbUXfFROCyoTMOKT85uQGgR4quFbo3iCAevwMue/gd7ry/H1WmJRbdi4IFVC5Lq6Kj6jbG1d2RoQLLekn7uS/9fKCyNWDBGH7cfO0iNsW9pxI0IgHyuCSgjNr7VrS/0n6UkKd8yBpFLJNWs/csX1apSLP33+kDBfGdzDonNmhnUR9V55G3y/W2pD6l/JSct/FrawH0J22axs+IwnCMEnHyg0QUrYl6SagXYkC/EIIWu9yPx3PhqttTChaYUEIGoXtL9B6bgAocj9XJf+5r8YYVkGfhudyxe2hkjsreDuWnzxfE3GP9N4jITjZqOGfL/L8fQaQw+08yw0TYYDqdGpsIWD7fiZ/VFe3A22xlv8YVWytnbBdcbVIEHbDQgyyNB6rBwEU1FEbKT1bJnL/rOJM04OkmTGGQb0T40WsKr0vooCXJUSuGMaYxFrr+zJWtmDX8+9+2aHv41sHU/+G8z2HkLYI0Mz7k7odx23pnUdbekTE0CJrSd88X3MuKbHWRiQJq1NEgpCLVb/z/XS8GK62C0LRTPvp+EztWT34IM6tQH+cNWgLg4l+Pqw+Ovpvg5o+153S5CDP+9PFhKBSIfdwQtgKdS+/hEdEyNBju459H99kJ6vaKmrjEgIAFbavqdvzedRpCwqYZIfWMMY8WWtvJd14vvRC0tJaO2ccqhpFJAj79BC4lzRzFXLVqzfeM99Px/Fwtd1RrBtprmauHrx39/BO0ma42ib76fha0h9cMvTEhaQ/CcOrnZSZMSYhFN6YsV8t344yWyAVL5FfkoCJSN1D572HAs65o/7NwXPFNoPIAKpsX5MgzGen08YMB4QKLRPLP0Eo95oJKwmrwRajnlwCbqejwb/9dJwlDLOfOraMGUhaSrrmKjWLWz3YhDO7smTgRmky8LUGXJ/K0I4SCvzkIGlpjFkQCrQEAxj1846p6+wlhK6/ZQC9rH9pewNAw1lrz+Q5wZ02XaXXZ8RkG7SFm9x0J/+zCKV0UmlirZ0ZY+hrlIgEYQEdIJdo+aGguqRhpO9JwypmSl/tp+Pr4WrLyoVmWaraWT4HVx4T98/dG8nAl5AgBPrp4OqrJTO00KIOsvcAhkhklCEkphOx1SvQdiPP3+eerw4rCAFUVX88ELJC2tKnLjYZibEstMtcaY4kZGw8SxIujDFLQlkOthj1M9hPx7Phahu/94uvJA0j/Zg0LGPLyXg/HY+Gqy2Duw2wn45HCltKfarnycBNnm1m99PxTGxZAPQNiUG0WcgAaELYimWM2Xlse5cZETmg9SLGDip36pmv9OkAVNW+3hGy3OiHo+t9xYWkL4FvMZD0xVp7LWnOasLi5U4QDlfbp/103KeYXSvdPzckVomOBqXc1pPZSsNIxZxnOHCfj61GmyEu8L0e9X2L0ETpysBdCeWbRhjQDw9Kk4IxoUCLhSQId4StFKcOWue5dgCa5Yy2NwD0vm5nsB7Am4wxS2ttpLCtRjOXkv6y1t5KWrDVbnHYYtTflVuhl7sQulV+iX5MGo70PWkYep7h1akrHVEet2I09DzK58nATdmrQl3Zu+rTNfLcehXogoPSiQsxs67QEb4DGKIjUZqdZ7tnRMiA1vM6RoMzqgCgFaKANiCqwzb9aKuZK7t5j2G7kXRDorA4RSUIfWcMd6FAL8p4Y5d43En65xxBd55h9hOdeCMt99NxUsIKM5zu1DLyoO/JwI1baVpXuQbQPY+uEbY2xnBGLbrYQfbBGSnl8W1znhMyoL3cGbC+r0mIXHXPPWvtGdvHA6jA3Fo7Iwy5jDx+94xwoY2MMU+urkhUzFboWaLwTunuWLQzA7GCMPDhp5IShC954zzD46Th80GWgdIkI9s31cCd5fdS0vxe6QBa3cnA18p1nzxSUtFR2dmka0kJKwXRcWxv1xw73xdYa0fM+ARaK6SfeUnYKr9GCWEAUHL9fkHIAJzCGLNxW40mKu685CtJV9baR33fMYs+poeiEoS7njX2B3Vv4fnOeYZZ4vBiPx0vh6vtnKJeuYXSZODxysDGDtK7hGbfDrLnYYGuOJ54QEIQfeM7gMH90azn6ojnMQAAQKMMCAGAspSUJJTSxVOfJH2y1j4oTRauSRa+r8gEYd8sXEFrhHfOM0T112PUso/cxyQyq0jQBo9Hz9id+3lSmuTY0dABvDsU1P08VwEUg34mAAAAvLkk4UjFnEn4kgtJXyR9IVn4PhKE4c7rXkX4nqPzDIFXue1q+7glBKtIIEn3xpiIMAC9QRKr3E6e78sisf0d0FacgdR8jAUA8OJW9QBAFf3HJ0kTa+1S0scS/9RxsvBR6XE8MbtvffeBhmcuC4oQKMetxSAxALRY4AAGnQAAQC8wSx4AOikhBOhYe2Uu6VelO2iV7VxpMvIva+3OWru01l73/RoUlSDs62DLuTu7DWglt3rwsqdfn0FiAAAAAF10TwgAoJMYy0LnGGMSpdvXf63wz2bJwj+stU/W2thaO7PW9m6XjEIShO78u75acBuD8ttKOy4/AACFevD8fbYoBIDiPaqfZ8wDQJcdJP3mtmUEOscY8+RWE/5H1U90Gki6kfRN0v9Za9d9Shb+UuB73aufK5EafxYh8JKerx7MzugEAPQLHepmxXdCyIDWGnn+/q0k+swV1MOcqQOgQg9iQkIl3AoroA9lfSMpckeKLFTP2PWV+/lmrb1Tem7huqsJ+iIThDv1N9mw3E/H656vpET7LHreiAUA9LOzAQDIb+T5+zsGNwGgc56o2wGU1HdPlCYKJ0onItzU9FGOk4W3ShOF6y7F+kOB77XrcZkdiBkzaBF3duZlj0OwoxQAQOtFhAAAAAAAgG4yxmyMMTNJ/0/S76p30ceN0jMLd9bapbV21IUYF5kgTHpeXj/tp+MRty2abj8dn4mzM1lBAgAAAAAAAAAN584oXBpjJkrPKfyq9NzlOpxL+ijpf9baxFo7a3NsWUFYrJgQoAXmriLrMxKEAAAAQDiO1wAAAEDl3KrCuTFmJOm/Ss+6PtT0cS6Vbj+6a2uisLAE4XC13dV4IZri0m3dCDSSW+X6iUiQIAQAAABoTwMAAKCtjDFrY8zMGHOmepOF52ppovBDwe9HJ0Faui0cgSaKCYEObkIDAAAAAAAAAKDlniULf1U925AeJwqjNsSt6ARhQlHUQCRh0ED76XiudNlz3zGRAQAAAAAAAAA6yBiTHG1D+h9Jv0t6qPAjnEv601q7ttY2ejEZKwjLcbWfjq8JA5rCbS26IBKSmMgAANTnAAAAAPKaEAIATefOLFwaYyaS/i3pN0l3Ff35K0mNXk1IgrA8sUvKAI0oj0pXt4J6CgB6y1rLIAYA1CMiBADQeE+ev884E4BWMcbsjDGxMeZa0v/T92RhmecWDpSuJlw0MSaFJgjduV6PFLV/LnxMGFA3thb9CQlCAOgvzoluVnwTQga01o4QAEC3GGMYLwHQpzrvKUsWunML/yvpVuUlCz81ccvRDyW8Jw+T7y730/GCMKAu++l4IukLkfjHo5vIAAAAindBCIDeoE0NAFDTz9YCgFMZY9bGmNlRsrCMbUivJCVNqjvLSBAmFKcffNpPxxFhQNX20/GZWMVK/QQAAADUjy2eAYD6HQBawSULs21IP6vYXTMv1KAkIQnCaqxdsgao0lLM5Kd+AoDuNthD6nQGMJrliRAArbXz/H3OqQKAdrgnBACQctuQLowxI6XnFRaVKLxQQxb2FJ4gHK62G5V7qGMbDSStCQOq4s4dvCESP0kIAQD0GhO2SmKtDUm+cjQB0FLGmF1APTEicgDQOUzAA9CX9m9ccKLwylq7rPt7fSjpfROKzE84jxCVcFvacu7gzzh/EAC6x3dSGgnC8hBbgDr4PSNCBgCN5zuBizYggF45ShR+Vv6Fch+ttVGd36esBCGr5V72aT8dXxMGlGU/HU+4/16VEAIA6BzfAQxmOJdnVMH1A9DuOnhEyACg8Xy3gI8IGYA+MsYslI4x5N2aeV3neYSsIKxe7JI4QKHcOZexON+DegkA+sN3AIMZzuUZBXSoOIMQaLdd2fUEAKByrCAEgNP7tDtjTCTp9xxvM5C0qOs7lJIgdNv4PVJEXr3ga5fMAQrhylOi9IBTvIyVlQDQPb4DGDwnyzPy/P0HQga03s7z9yNCBgCdq9tpXwPoPWPMUtKvCt9y9GNd53V/KPG9GYx/3TnxQcGWNMre9DBcbVmlAADds/N9QV2N7h7wjSvPZaD9kpLrCQBAxYwx3lvAW2vZKQ0A9acxidIJcaFJwkUdn5sEYX0u99NxTBiQlytHN0SC+ggAemgX8BoGMEpq23r+fkLIgN7Vwed1nq8CADiZ704PtK8BQP9MsogUliS8qaOtXFqCcLjaJgrPlvbFzX46XhIGhCI5eDIShADQzcZ3EvAyBjAKFrgqc0fkgNbXwbuAPj91MAA0n+8qQup2APjeRt5ImgW+fFb15/2l5Pdfi+TFez7up+NrFyuSGPBpfM3EtqKneByuthvCAADdreeVbt/u8wxF8e0SXzybgW7YyG8FcSRWEANAG+p2n/HciJABwHfGmLW19rOkT54vjZQeJVYZEoTNcC7po/sBUHw9BADoro1IENbNO6Yh59sAaKRE/glCAEDz29c+Lqy1Z8YYzpgGgO993oW1dia/8Yqrqj9nmWcQarjaMjAPoG4xIQCATks8f/88cEtMvC7y/P17QgZ0hu8g8iUhA4BmC9zGPyJyAPCThe8LrLWV1qcfKvgbt5QDADVhe1EA6L6Qej4ibIW6rOCaAWimxPcF1tprwgYAjec7oYv2NQA8Y4yJlR6L4qPSXY+qSBCyihBAXah/AKD7De4k4GURkStG4OzGhMgBnamDnyQ9UAcDQOf4tteY/IGi+wxAV/ieKXhW5YcrPUHothk9UA4A1CAmBADQC8xwrk9ILBPCBnSK76Q8BpEBoHt1+7m1lrO++4OxfqC8/m/nVhCGPFQAIC+2FwWA/mAAoz6+A/0PbsURAOpgAEBDGWM28k8CRUSuNxhvA/zqUx/dWkHoxBQFABWj3gGA/kgCXsMKlpystSNJF54vY+Ig0DGBg8gzIgcAjefbbpsTMrwiIgToufumfrBKEoTD1TaR/2GMAJBHTAgAoB/c4LRvW5MEYX4hMSRBCHQT24wCAHU7K8T7gx1BgI7cMx8q/Fsx5QBARe6Hq+2OMABAr/gOYFwwgJHbzPP3HwO2VwHQzTr43FpLkhAAGswYs5b/CnFWEfaDb5s+ImTgnmkmEoQAuoj6BgCo+08xI2xh2F4UwDE3iOy7kps6GACaz3uFuLX2jLB1nu9qKMoE0FCVJQjdap47Qg6gZIfhahsTBgDol8BtRmdELlhI7Hg+A93mO4h85SYbAACay7f9NhDbSPeB72qoC0IGNNOHiv8egwIAqGcAAE15BgystTPCFsR3+yi2FwW6bxnwmgVhA4DmMsYk8p+ER93efTvfF1hrI8KGHjsr8/7Ko9IE4XC1Ddl2BAB8LAkBAPRWHPAazknx79zPlM4O5/kM4B/GmJ2ke8+XsRUdADSfbzvunEl4vXjm++L8d/SZT/nfVfnBfqnpofKFMvGDx6ovPDpTsQwIww/u3HbGAICedlSttXeSrjxedmGtjdzsaJxmEfCamLABvbCUdOnx+wOlEzUWhA4AGit29bTPGNSC9l/n3Xs+8yMxafC9+ACS/xmfudSRIAx5qHT+QTtcbekQwct+Ok48H8R9QEMDALCUX4JQrm1Kh+wEbjb4uefLbo0xT0QP6D5jzNpa++hZT3yy1saBqxEAAOXX7U/W2rWkG4+XnVtrZ8aYmAh21kb+CUK83MfypvHPRgAAGP5JREFUnWCF9rn0vLcqU/UZhBqutk/yP7wcAN7zMFxtE8IAAP0WeE7KpbX2muidZFHRawBQTwAAWl63s410pyWevz+gz/UzNwHzI5Ho9DUeeb6k2wlCGv8ASsLqQQBAnrYmz5H3OzZzha0e3BE9oD/cahHfiRo31tqI6AFAY+v2naRbz5edi/O+uywJeA0Jwh/7VxP6ob3g08Z9rHr3nVoShO6MsFvKBoCCPA5X25gwAACk4MHpc2vtgui92nk9E4lXAKcLqS9ozwNA9+r2Ty4Jgu71uZ4kPXi+jATh9/7VRGmSlWPYui/y+N2k6g/3ocbA0PgHUBQGHwEAzy0CXjMP2P6jL+KAzuutMWZD6ID+YaIGAHSybt9J+hrYjkQ3JZ6/P3Bbavaam3wZ0r9CO12XeE/lVluC0J0Vdk/5AJDTgcYmAOA5Nzjt29Yc8Ex5sQN7Lekq4KULogf0Wsi2cp/YahQnuCQEQG0WSsdhfFxYa5nY3U0hfadZz/tWZ0qTQBcUn970pX0SwUnVn/FDzTFi0ABAXsvhavtEGAAABbU1L1nB8kOHZhTY8f/K2YNAvxlj1gqbFLx2g2cAgObV7U+BbeyPbqAc3SoPG/nvGHDZ18lAJAd7aebxuw919KFrTRCyihBATgexvSgA4PUOa6KwbZBYwfLdWv5b3xzEREAAqVnAawaqYfY0arXzfQFnmgG1trGX8j97TpJi7t3O9hd89a6vQHKwf9xkW5+deGoZ4/7QgFgxeAAgFKsHAQCntDUPAa9b930Aw1obB3ZgZ252OYCec7OgPwe89MLVQXi5fo7cz6hD5cTXiJIA1GoW8JqBWCX+Vt0+cXV72/ogIUmNyz6tKPVIDh64Ezpl4fG7B4Ul23OrPUHIKkIAgVg9CAB4l0tUzQJeOlA6y7mXAxjW2rmkm4CX3rltBQEgq4cXCltpckOS8Ke6ObLW7iT96X7+Z62d9TQcESUCqLVu3yhsAsi5pIQk4Q91+8ham0j6y9Xtf7n/3ZaysFPY2P6yD+XAJXx3ej85+FXShjuiO202z/70uq5Jth8aErMFxQaApzmrBwEAJ3Za1wrbavRCPRzAcIPNXwJeelBYMhZA910rbFY8ScK0Xj6z1i6VDhyfP/vP3zqyCsN3cDnitgJqb2MvFDYBpJdt7Dfa3RtJl8/+02XLnn+LgNecq+M5Afd8TvT+kQ13xph5B7//yFo7s9Yuerg7z7KCe6gQjUgQulWEdzxaAZzocbjaxoQBAODZ4GYA4/1O3EzSt8CXX7O1KICXuNUFoQNfvU4SugG1RNLHN36tC+d6+T4/LrqyxSrQcqETQHqdJHQTP9au3T144/k3a8lzPpH0GPDSj13datTtyPKH3k8OPuj7JMtNh75/LOl/rox/klsZ24dnt7V2Ib+jOm4Dt1svxIcGxW4uADjNghAAADw7rdlWo3kGMDo969GtTglNDn52AwMA8Fo9HCtsNbeUDpKue7iie6F0y7n3Bpm6sC12yKDojDsLqL1u3ylNEoa4kLTp28oilxDbSbo64de/ua0K22AR+Lq4S2XgKPl7yo4sD5Kio0mWTx2JwWvHVVy6ez7q+P39qaJ7pxCNSRAOV9udpFserQDecc/qQQBACHdWyizw5VmSsHOdmaNO7MfAt7h1W0wBwHv18Fxh5xRJ6UBq0oeB5KOzBn0GmC4ktfkM2CTgNfOmJEVZzYie1+2JpN8CX56dSTjrepyOzho8ZVXZsXUb6hg3ESjkGd+Zs99dX3Gj05K/z5ODXSnnE72dHB1I+tMlEdXB7x57vuxznasHpWatIJTSVYQHAcDrFoQAAJCj47pW+ABG1pnpzLPoaOu6q8C3eBA7gQDwc62wLZ+l75M1OlnvHA0ev3TWYNefz0ngc3le8zWbuWTu/6y1S85UQ4/b2LHCF34MlK6Ui7t4D7nJeAul2y1edrwohPaTWr3l7DtnBb/Wh4o6ejxDfOLvfXFbjp515D7P+tU+yf9H+Z9VWLhGJQiHq+1TE4ICoLFu3ZmlAAAEy7nNnSR96sL5CR5b1/WxYwugvDr4SVKk8CThQN8HlUZdiIlLDMbKN3j8oPBt/poiZOXJvI5y8Oz8sGww+KP8Vw4AXarfZ8q3O9yNOrb9oJvQspP/loOZg2tv71pSBpIc/awsSThq2TWOlK4aPHU3lrf6ULuWl/eFZ9/yUtKu7SuIA5ODkjRrQl+6aSsINVxtFwo71BRAtx3E6kEAQHGd17nyDWBcKl0tsGjbrMfAret8OrYA8F4dnDdJ2Op6+Kg+Pk4M3lAnB22ROlC6/d5ZhdftrdX3V+78IaCv9fssZxv7XOmOHeu2TgJxEwjmrr39Rf5Jg0yWHNy0LAQLhY/tZ+dSRi15hq/lt+r/vef1rq33vrtfQ/qX2QriVk78cpMA/gq4zz8H7p5QuA8Nje2MRyqAZ5burFIAAApRwACGXCeoFbMeXWIwUf6t60gOAiiiDi4iSXhcD7cmUWitvXaDinkTg12rk0PPULxQRSv3Tlx9z1ajoI2dv419pXQSSNyWpIFLGC2VJnm+5GxvtzU5mD3f8/SNsmMdGlmXPpvc43NMQ9f7UE8KP2daatnEr6OdBL4EvPzOGLNoyndpZILQbSF4xyMVQPYQdauLAQAougM7k/R7zrfJZj0+NbFD8ywxmPfcE5KDAIqsg4tKEg70PVG4bOJgcjZw7FaU/KHws1+P3XapTnZb6IUmFa6stZuynsHuWbrRaasjzsXuN6B+nyl/klBKJ1H8z60obNzqXJckmLn64X9Kt5kc5HzbrL29afH1TyR9zvk2H5WuJpw16DkeK2xyz60xZtLlPpQx5skYE6m4CbiNTRQebR18FXh/z5r0fX5pcLmau47CQAD6bk4IAAAldmaW1tonpecI5ZENUH+y1t5KWhtj1nV8Jzc4PnM/5wW97Z0ack4CgE7VwU9uK7FY+ZNmA6UDih+ttQ/uPdd1nd3ktqKMXF18UfDb/26MWXawSMQKX1WZbU03K2rbLvc8XQR8po/W2rjNA/xAAfV7ljj7UsDbXSmdCPCodLVxbfeXqxcipee+XhX89p1pbxtjFi5WeVbKnyudiLmQtHBnyVd5rc/cdZ4pfKKlz/N615H7PsnZt8761XO3Sm/RhHM4XbJ6kaN/3cjJto1NEA5X291+Ol4U9BAB0F5f3apiAADK7MjEbgAjUTET1G4k3VhrD+49E0lJWQMZrvMaHQ1WnBf8J766cxsBoIw6+EnStRsA/FTQ21648YQvLll4XBeXMjDjEoKTo/r4vIQ/86B08HjT0bKQWGvvFT4Qm51fdq90QDEJvJbZgHCewf9rSSQI0ff6fena2OuC2tjn+j4R5PFZ3b4rqW4fPavbL0r4MwdJ86oTYBWYu9hdFHDdv7ktXNcqcSJmgQngg6Rrn+eQMWZnre1S33qdsy00OOpX3+v7xK/KEmwFTrxt7E48TV5BqOFqu9xPx7OSKl4AzXcQW7MAAKrryGxcByBWcbOBB+69rlwH46B0sHCj9JyGrMO4OaWz4AafzySN3E82GH1eUlgOSgei15QQABXUwws367yogeTMhfv56OrSR6Wz9LM6OPvn01uJN7fSMZPVx9k/LysI0ecmnVlTopnSLdzyuFSaKDxOIGxeu77u2o5UXHL3tifXCjilbk9cG3atYsd4z+WSB6+0s7N/vtnWPmpf66iNfdzWLnt3uzulycFdB699tktAUtC1P04YSemZd4m71jvfyTNukuXk6KeI+j/7XNd93nnF9a0nBfatL93PN2vtnatPSpkYUMIOEI0+puOXFpSnmdIDoAH0z2y42rKNGQCg0k6s0lUsc6WTVIoeEBgcdW6ko5UyDZwt2vuOLYBa6uGkhMkaz527nzbUxVl9POvi4PErZWBnrf2sYlaTPk8gVPEVbt35awCO7mtJk4JXir/Xzv5BA+v3R6WJwXXHr33RScJjP1xvd42zRPFbzlTegqTPTBD5qW997dp1RfWtjyfgPur7xICd+3k6JVn8wuTbSMVPCmh8m6DxCcLharvZT8dFNQwBtMfdcLVltQIAoK7OzNKddxCrmlUhTdLVLY4AtKcOLmtAqW0eXH2c9LAMLNzA3VXLPnpXz4YEiry315KWPWxjH7e1l31KIh0lCZfKdybhKQY1la2itgB/VHm7w9R1/dclTv7KJn398L4NmBDQmj51G1YQarjaLvbT8bW6u9Xop/10TAIU+LESnREGAEDNHZmdpMgNUC+71lF7xVelZzaxahBAE+rhbEBpIbc9aE88KB08jnteBGYqZ8VJaX1YtuQGTqrbN66NPXNt7L5MAjm477vsY1vbfeeZO5vuS8eu66LAySG7LvY7jyZ/Re4+6PKRcq3a+eFDyxqGAPrhmq1FAQAN6sysjTEjSb8pndHZRbeS/m2MmZMcBNCwOvjJGDOX9G9XV3XZnaRfjTETkoP/DCZGShOmTb9uI5KDgPc9Hivd1u+z0iRLVz1K+s0Yc2aM6f1EPJdI+08L6vZT+1AjVo57Xf/EGDPpaN/64O71qE3bwrcmQThcbTeSfuc2Ajrv63C1TQgDAKCBnZm4g4nCLDHYm7OtALS2Dt65M1y6lih8VDo4/m9jzHUftxN957pnScK7hl67/7rrxuQaIPAed1ttjtStROHBPat+NcaMmPTx03XfuCRRW6/5vaT/uD4U9X9g31rpeX9duO8P7nu08l7/pU0fdrjaLt1Wo5fcRkAnPSjdPggAgKZ3ZmK39ehM7Tsf6VHp+Q9LOrQAWlgH75RuUTaXNHf1cNu24jpIWktas+rspGuebUs2d/3FQQOuX2+3CQRKvM8XkhZu69GZ2jn+e3dUv1M/vH/dF9ba2F37mxZ85FtJccmTeTbqSe7jhft+0bI2XSfaA7+08DPP3I3S10PKga46SJqxtSgAoEUdmrWk7HysLFnY1LMUssHomNUpADpSBx8PKkWuDr5u8FjBg9Lz9NbUw8HXfGmtXSud5FLH4CmJQaCaez1WOhlv5Or2mZqbNMja2Fn9Tt3gf713Sif+LPR94k+TnuXZ5Mq4oh1X1urXucvP7/s2TMJ9cO2BTtzzrUsQDlfb3X46nkn6gyoU6JSF20oYAIA2dmqXkpZuICNSOkgd1dy5vdf3wQqesQC6XA8nrr6TSxZmdXCdkzYelE5uTiQlbONc6DM3ctd5rmoGEO/cszTmCgCV3+8LpRNBRkd1e52Jg8dndTtt7GKv91zS3K0mu67xWte20t8Yk1hrf1P7VtMV9f2zSbhnrgxcqxnJwmyi17Jrbbp//f3336384PvpeKkeZtOBjrodrrYzwgAA6JqjhOHk6KeMpGE2EL1TOliR/P/27iarjeUMA/AbbcDKpKeQgcYmK7CyApOjBRjvAO+Au4LgDSRiAX0O3oHYgRj3IGKqSdAKnEG37tXFP/wYkFr1POfoyGAPXF9VtyRevirVB9yD/z3s7rvr+/BhXiY0vOruv4u0Pzya6yJ51dfZ5+7iX3XzeBnhLuzqtX/33v4SXcXX3X19vn64H2zldXzc3eeP8nK/+LPKH8GvX67czbUw7tbC+AU/U2+66dbDbN/fC/Q2IEyS5WQ0z+5u4wQ8/A3X2NaiABT4ASfdh5vhxl/d/XptnmTztXK2/r4fQgM8+h58mPYHyuvH2t2v795z3YN3e17vBsLDbj4P7vk8eps/BwB+MAz9vgekuw+sbX5/06J73H2/vRAE7vznqPU9frzx+v2QbrurO3Mv+O3/e7m7a2GYh+dF6/cAtxvX/7y093d9DwgP4zxC6LNV2nDQBzAAAAAAAHglgz7/56u6WaRtMQb66VQ4CAAAAAAAr2vQ9wFUdTNL8slUQu98rupmqgwAAAAAAPC6er3F6KblZDRN8sGUQi98qepG9y8AAAAAAGzBYI/Gcpr2YElgt10nOVEGAAAAAADYjr3pIEyS5WQ0TLJI8sbU/tRVVTdjZXj29fdVFe61SnLUnR8KAAAAAABswT51EKaqm9sk47QhBLBbVknGwkEAAAAAANiuwb4NqKqbeWxfeJ+hErAFJ931CQAAAAAAbNFgHwdV1c1lko+m94feKgGv7GN3XQIAAAAAAFs22NeBVXUzTfKbKf6+5WR0qArPWs+xKvzQp+56BAAAAAAAdsBgnwdX1c1ZkgvT/F2HSvCsbNv6fRdV3ZwrAwAAAAAA7I7Bvg+wqpuTCAm/Z6wEz+pICb5x0V1/AAAAAADADhmUMEgh4XeNlUA9X5BwEAAAAAAAdtRfvn79Wsxgl5PRLMk70/67v1Z1c6sMv7yuhkn+pxK/Ew4CAAAAAMAOGxQ23uMk16b9T/VAHZ+TcBAAAAAAAHZcUQFh1y03jpBw7UQJ1PEZCQcBAAAAAKAHitpidK3bEvI8yQdLIH+r6mahDE9eS4dJ/qsSwkEAAAAAAOiLQYmDrurmtgszLiyBnCmB+v0i4SAAAAAAAPRIkR2Em5aT0TQ6CXURPm3tHEb34Keqbs6tBgAAAAAA6I9B6QXQSZik3W6Vx5sWPv6PwkEAAAAAAOifgRL8HhJ+KrgE75eT0dhKeLjlZHSc5F2hw18l+WdVN1MrAQAAAAAA+qf4LUY3LSejkyT/KXT4N0mOqrq5tRLuXSfDJIskbwoc/irJuKqbuZUAAAAAAAD9pINwQ9cR9fe0IUhpDmLLzIe6TJnh4HXaEFk4CAAAAAAAPSYgvKMLP8Zpw5DSvF9ORqdWwY8tJ6PzlLm16Je0nYMLqwAAAAAAAPrNFqM/0G0jeZkyw6B/VHUzswq+WRMnKXML2s9V3QiOAQAAAABgTwgI77GcjKZJPhQ2bOfMfbsOTlJeOLhKctptvQsAAAAAAOwJAeEDFBwOCQnLnf/rJCfmHwAAAAAA9o+A8IGWk9FR2i1HDwoadvEhYaHh4Je04eCtKx8AAAAAAPaPgPARunMJp0neFzb0jyVuM7mcjE6T/KuwYX+q6ubc1Q4AAAAAAPtLQPgEhQZHn6u6OS1kfodJzlPW2ZO2FAUAAAAAgEIICJ+o0C1Hr5McV3Wz2PN5nSZ5W9C8fk5yZktRAAAAAAAog4DwFxTaabZKGyad7+F8niY5S/KmoLk8qerm0tUMAAAAAADlEBA+g+VkdJy26+xNQcO+TnJa1c1sD+bvKG3Q+66g+fuSNhzUNQgAAAAAAIURED6TrptwmuR9YUP/kjYoXPR0zkrsANU1CAAAAAAABRMQPrNCuwmT5CLJtA8dhV0weNo9SponXYMAAAAAAICA8CUU3E2YtFuPnie53LUgajkZHaY9Y/A4ZQWDN2mDwZmrEwAAAAAAEBC+oOVkNE4bFB4UOPxVksu0QeHlFudgmDYQPElZZwyu/ZbkXNcgAAAAAACwJiB8BcvJ6CzlbWd515cksySzqm7mL1zvw7Sh4DhldnEmyVXarsGFKxAAAAAAANgkIHwlXWh1nnIDq7uuksyTLNbPTwmzlpPRUZJh2jDwqHsuOYi1nSgAAAAAAPBTAsJX1m07ep7krWr80NUD/s1Ryg4C71olOavq5lwpAAAAAACAnxEQbslyMjpJcpYyzyfk+azSBs7OGQQAAAAAAB5EQLhFy8lomPZswtLPJ+RpLpKcCgYBAAAAAIDHEBDuAEEhj3SRdjvRhVIAAAAAAACPJSDcIYJC7iEYBAAAAAAAfpmAcAcJCtngjEEAAAAAAOBZCQh3WBcUHic5S3KgIkW5SRsMTgWDAAAAAADAcxIQ9sRyMjpO21H4TjX22lXabsFLpQAAAAAAAF6CgLBnlpPRUdqg8Di2H90XqyTTtMHgQjkAAAAAAICXJCDsqY3tR0+TvFWRXrpKu4XoVCkAAAAAAIDXIiDcA11X4Un30FW4227SdgtOdQsCAAAAAADbICDcM91ZheuHsHA33CS5TBsKzpUDAAAAAADYJgHhHhMWbpVQEAAAAAAA2EkCwkJshIXjJAcq8iKu024fOhMKAgAAAAAAu0pAWKDuzMJx2sDwnYo82U2SWdpOwVlVN7dKAgAAAAAA7DoBIVlORuO0geE4AsOfWQeCs7SB4EJJAAAAAACAvhEQ8o2NwPCoe5S4JekqyTxtGDiPDkEAAAAAAGBPCAi513IyGqYNCsfd82GSt3s0xOski7RB4DzJXHcgAAAAAACwrwSEPFl3luEwbXC4DhEPs5sdh9dJbtMGgOvnRVU3czMJAAAAAACUREDIi9joOkz3POz+fNg9Nj323MObtB1/m9bBX7q/WyRJVTczswEAAAAAAPAHASEAAAAAAAAUZKAEAAAAAAAAUA4BIQAAAAAAABREQAgAAAAAAAAFERACAAAAAABAQQSEAAAAAAAAUBABIQAAAAAAABREQAgAAAAAAAAFERACAAAAAABAQQSEAAAAAAAAUBABIQAAAAAAABREQAgAAAAAAAAFERACAAAAAABAQQSEAAAAAAAAUBABIQAAAAAAABREQAgAAAAAAAAFERACAAAAAABAQQSEAAAAAAAAUBABIQAAAAAAABREQAgAAAAAAAAFERACAAAAAABAQQSEAAAAAAAAUJD/A5dp2GhitIoQAAAAAElFTkSuQmCC;" vertex="1" parent="3tKYfOBs04xEkgBUD2MP-43">
          <mxGeometry x="50" y="130" width="190" height="36.31" as="geometry" />
        </mxCell>
        <mxCell id="3tKYfOBs04xEkgBUD2MP-53" value="" style="group" parent="1" vertex="1" connectable="0">
          <mxGeometry x="510" y="180" width="310" height="310" as="geometry" />
        </mxCell>
        <mxCell id="3tKYfOBs04xEkgBUD2MP-34" value="" style="whiteSpace=wrap;html=1;aspect=fixed;comic=0;sketch=0;fillStyle=auto;strokeWidth=0;rounded=1;glass=0;shadow=1;fillColor=#FFFFFF;strokeColor=none;" parent="3tKYfOBs04xEkgBUD2MP-53" vertex="1">
          <mxGeometry width="310" height="310" as="geometry" />
        </mxCell>
        <mxCell id="3tKYfOBs04xEkgBUD2MP-1" value="" style="shape=image;verticalLabelPosition=bottom;labelBackgroundColor=default;verticalAlign=top;aspect=fixed;imageAspect=0;image=data:image/png,iVBORw0KGgoAAAANSUhEUgAAAfQAAAH0CAYAAADL1t+KAABRJElEQVR42u2925bkVpmuvS4h7iBV5cqd/5O4hHkJcbyOdADNHsKsxmBs8LQX2IBtAjBgNk2LTbPrBgSYPlkNCOx10g1YGC4gLiH+tfnpw/qlzIoqZcT3ZcWc35xRysznGeMd3aPHaLkiFdITkl5987/8F7jW/L//9f8purRd5vw1AAAArr7Yp/wVAAAAAAAAAAAAAAAAAAAAAAAAAAAAAAAAAAAAAAAArg7/6x2PT7uUXRZdmi6evwoAAMDVkvfdC3nnWRr+UgAAAFdL3lJW/PUAAADGIfJd5a2l4C8JAADwqKX+ziiJDzPjrwgAAPDohd4ahe75KwIAADx6oVfRMv+7s1CMAwAAGIHQ5wHylkIxDgAAYARCdwHylvMuinEAAACPXurhAt8MxTgAAIARCL0NkLcUz18RAADg0Qu9CpC3FIpxAAAAj1zo73p8bpB5H4pxAAAAIxC6MwqdYhwAAMBIpB4u8XdfCMU4AACAEQi9DZC3FM9fEQAA4NELvQqQtxSKcQAAAI9c6O9+fB4p8nUoxgEAAIxA6M4o9D4Ff0kAAIBHL/Vwib+nz+k6FOMAAABGIPQ2QN5SPH9FAACARy/0KkDeUijGAQAAPHKhv+d0HiHxYSjGAQAAjEDozij0PgV/SQAAgEcv9TiRv/d+KMYBAACMQOhtgLyl+GT/lnc87rrMu1T9/2TvAAAA7C70KkDeUqKKcRvybrvcvZ93noXCHQAAwM5ife/pPEjg79vKQ4txO8hbDHsHAABgd6G7AHlrKQSJFyHyVjJlDwEAAOwu9RB5SxGLcREC30zJ3gEAANhV6O87bY1C94rQG6PQF+wdAACA3YVeGYXeKEJfBEv87y6EYhwAAECA0OfBEn//hawUoZcB8hbD3gEAANhd6C5A3loKQejTEHlv5V1noRgHAAAQIPUQeUuRi3Fh8pZSsncAAAB2Ffr7T1uDzPt4RehNgLylUIwDAAAIEHplFLpcjOuEHCjwzVCMAwAACBD6PFjiH7iQlSL00ih0inEAAAABQncB8tZSCEKfRon83RdCMQ4AACBA6iHyljJTrtJD5C2lZO8AAADsKvQPnLYGmffxitCbAHlLoRgHAAAQIPTKKHS5GNcJOVLk61CMAwAACBD6PErkH7yflSL00ih0inEAAAABQncB8tZSCEKfBgn8PX1ON0MxDgAAIEDqIfLezoeUYlyYvKWU7B0AAIBdhf7B0zZA3lK8IvQmQN5SKMYBAAAECL0KkLcUuRjXCdkg8z4U4wAAAAKEPg+Qt5SVIvTSJPT3nlKMAwAA2FnoHzp1RqH3KQShT0PkrYRiHAAAQIDUbUKfK8W4MHlv530U4wAAAEKE3gbIW4oXt/ve0yZQ4JuhGAcAABAg9CpA3lIaReiLAHlLoRgHAADXQLTveHzapeyy6NJ0udvFZRD6PEDeUlaK0MsAeYvhWwAAANdB3ud554X45P/t+akzCr1PsbXd951OLTK/F4pxAABw5eUtpc7yb7ILXS7GWWR+vrxryTcGAADGKHMfIG8py0xCb4ME/sRWvCL0JkDeUijGAQDACIX+zsddpMiHmWQQehUgbymNIvRFgLylUIwDAIBRCn1ikvnfncVlEPo8QN5S5GLc+0/LQIFvhW8NAACMVerLAHlL8cn/TU+cOoPM1ykEoU+tQu+3wbcGAADGKPQ6QN5S8hTj7EKfKVfp4RK/uC57ybcGAADGJ/TuCjtI4O/aSp5i3BOnbZDAP7wVrwi9CZC3FIpxAAAwSqG7AHlrSV+Me+K0CpC3lEYR+iJA3lIoxgEAwCiFPgmUtxSXQejzAHlfyP/+b31O5GLcB07LSJHfD98aAAAYp9Tf9fjSKHSf/N/04VMXIG8thSD0qVXo/Tau7XfhHY+7LvMuVZe2/985QgAAro7Q6yiRv/t+8hTjwuQtZaZcpYcJ/INbKa+pvKUpgRVHCADA1RG6D5C3lCzFuE7IbaDAN+MVoTcB8pZy5YpxO8pbSssRAgBwdYTuAuStJXkxrhNyZRR6owh9ESDvB3mwnOuVKcbdE/ldy4hfjhAAgKsj9EmkxIdxGYQ+Nwn975Vi3AdPywB5i7ky+/adjxcJxvs6jhIAgKty4n/340uT0N+TvhjXSdkFyFtLIQh9GiJvJVemGNcJeRU51ncdinEAAFdI6HWAvLucbiZLMS5Q3lLkYtyHokW+TnmFhN5EjvVdh2IcAMAVEroPkLeUPMW4vz9pAwW+Ga8IvTEK/coU4zpp+6ixvg96FRTjAACukNBdgLy1pC/G/f1JZRR6owh9ESTw7aVcr04x7u8en0WM9L0QjhAAgKty0u9kbJR5H5dB6HOT0D+iFOM+dFoGyFvMFRJ6ETnSN+s0QAAAyCf1ZZTI33s/PoPQXYC8tRSC0Kch8lZydYpx73p8ZZwGSDEOAOAKCb0OkLeUPMW4MHlLkYtxc7PQyysk9MYwCbAPxTgAgCskdB8g74t531nyFeM+EizxYbwi9CZa5ucrv12dYtzDpgE+/O0GinEAAFfmpP/eUxcgby3pi3EfOamMQm8UoS8C5C3l6hTj3vX4zDgJkGIcAMDoTu7veHzaZSIIfRIobykug9DnRqGvFKGXAfIWM7L9Ork36nV737778WKM0wABACBM3mWXRZdmMNdbLDn1t80jJD6MzyB0FyTwJ8UUgtCnoQIXMn1E+3Utb9+l7rIczGsvxf+fdz++Cp8AeKFDQTEOAOARy1uaEFYpQq+NQs9TjAuTtxS5GGcXevmI5S1loQi9CZC3FIpxAAAZTvJFgLx3Xhazv8IOEvj7t5KnGPeRkzZA3g/y0fvxitCbKJE/WKd9kWnf7ipvKY0idB8gbykU4wAAMpz0Z7HLYV62LGb/DDxA3lrSF+OePKkC5C2lUYS+CJC3lCbDvi2tK6SJ233P6cw6PIgjDwAg9Uk/07KYfUs9UN5SXAahzwPkLWWlCL0MkPdW+sViMuzbqWm/nk+EmwpCL4yDg/o4jj4AgPQn/izLYva3zY1C98mF/tETFyHxzRRbn/XDp9MQeSuZZti3MftzmFK5Sl8ZBgf1oRgHAJDhpJ9lWcxOyHWUyD9wP3mKcXahy8W4MHlLKfeyb8NWSVsoQm+CBwddfPRCMQ4AIMNJ30ee7C9dFrO/wg6Qt5Q8xbiPnrTRMv/YWcQ7B52Qm0CBb2aRYd8uIvbnMHJn4L3dvo0fGtSHYhwAQPKT/sOWxXxX3LKY/TPwAHlrSV+M++hJFSBvKY0i9IVR6E2GfVvG7M+H7tv3ns4MQ4POwpEHAJD+pF8Yl8QUl8XsW+qREh/GZRD6PEDeUlaK0MsokQ8Wi8mwb6fG1dH6bBfj3ndaGOcMZJkGCACA1DMti9nfNjcK3ScX+sdOXKDApRSC0Kch8lYyzbBv4/bpg2Expbjd952ugiV+8ZELxTgAgAwn/cZ40q8UoddBAv/gVvIU4+xCnylX6SHyllI+kn17+ejWhSL0JnBY0GYoxgEAZDjpe+NJv1WE7gPkLSVPMe5jJ220zJ86i3jnoBNyEynydRYZ9u0icInTzTSK0H3EsKBhKMYBAGQ46c+MJ/27itBdgLzP86GtpC/GfeykCpC3lEYR+sIo9PTFuHc/XlpXSBO3+/7TmXHOAMU4AIAMJ/0sy2J2gp4EyluKyyD0eYC8pawUoZdBAhcWismwb6dR+/PisJipIPTCMGMgW+kRAACpxyyLeXbif/zSZTH72+YB8pbikwv9qRMXKHAphSD0aYi8lUwz7Nu7xhXSSuUqfRU5Y2AdinEAABlO+k2AvHdeFrMTcm2QeZ88xTi70GfKVfrdoHXXt1Nm3bdxC6osFKE3hhkDfSjGAQBkOOn7AHnvvCxmf4UdLfP5WfIU4546aaNl/vGziHcOOiE3RqEnl1wvZOMKaXIx7rLS426hGAcAkOGkn2VZzP4ZeIC8taQvxj11UgXIW0qjCH1hEvqTJ22GfVsaV0fTSo+zYIlv9Cg48gAA0p/0C5PQlWUx+5Z6oLyluAxCnwfIW8pKEfosQN5iMuzbqXF1tD5TQehF4FwBKY6jDwAg/Yl/FXP19rBlMfvb5hESH8YnF/rHT1ygwM/z9IUUgtCLEHkrcRn2rWV1tD6lcpW+Cno1cfvuDMU4AIAMJ/0m8uptLYFKEXptFHqeYlyYvKXIxbgnT1ZBAt9eHCa55Lr90xhWR+sjF+M+2G3X9loixTgAgAwnfW+4glOXxeyvsIMl/sSF5CnGffykDZC3FK8IvQmQt5Qqw75dWFZH60e9KkL3xtcSKcYBAGQ46c8MV3Dqspj9M/AAeWtJX4x7+qSKFPk6jSJ0HyBvKemLce87La0rpInb/VD3nbG9lkgxDgAgg9CzLIvZt9QD5S3FZRD63Ch0uRj30ZOZQeZnySD0qWFltHWmgtCLyNcRs5YeAQCQesyymBdFIBfjnjhdGmTex2cQuosS+TMXUghCL0xCPx9H6zLs29iV0dYplav0VeTriOtQjAMAyHDSb4xXcZUi9Dpa5h8+S55iXJi8pcyUq/RVgLylpC/GrSe7xWehCL2JfB1xHYpxAAAZhO6NV3GtInQfIG8peYpxT5+0AfKW4hWhNwHylpK+GNcJOVrm5++Wy8W4mNLjxVCMAwDIIPQsy2L2z8AD5L2V//3f+pykL8Y9c1KFCfx4M3Ix7mMnPnrN9fOkL8a9/7SMXBXtfhShz4xvMVCMAwDIcNIvrELv4gShTwLlLcVlEPo8QN5SVorQZ0ah382wb6eRq6INMxWEXiR4i8Fx9AEApD/xr4zrXMvFuA+fLgPkLcVnELoLkPfFfOJ+CkHoRZTIL46jTS4542IqfUrlKn1lfIuBYhwAQAahN8Z1ritF6HWAvKXkKcaFyVvKTLlKXwXIW0r6YtwHun0bI/IHE+DkYtwT3XZtbzFQjAMAyCB0b1znWnz+219hG4Wepxj3zHEbIG8pXhF6EyBvKemLcR84XYSuiLaRRhG6j3hzYRiKcQAAGU76M+utWUXoLkrkf38h6YtxnziuIiQ+jFyMe6r7AfNUtMz7tBn2bRmxItpDJ7t1kp5FvLlwIRx5AADpT/qF8basuCxm31IPlLcUl0Hoc6PQV4rQZ0ahpy/GffB0GrEi2mamgtCL8DcX8pceAQCQ+npZzPi1rufKVfoyQN5SfAahu2iZf/J+CkHoRbDEt1d9Sy65iBXRNlOK2/1w953ZXd5SKMYBAGQQemO5Lasti9kJuY4U+Tp5inFh8pYyU67SVwHylpK+GLee7BafhSL0JkDeUijGAQBkuIrzxtuyrSJ0bxL6RzIV4z5x3AbIW4pXhN4EyFtaiz19Ma4TsnFBlUa5+2ItPVKMAwDIIPSZ8bbsXUXoLkDeWtIX4z55XAUJ/NmtyJL7eCe53eUtJX0x7kOnZeBqaFtRhD4zlB3PwpEHAJD+pF9Y17nu4gShTwLlLcVlEPo8QN5SVorQZwHyFpNh304DV0OTMhWEXhjKjtlKjwAASP2yZTF3u8KTi3EfOVkGCnwzPoPQXYC8tRRb2326k5xtzfU+ySVnXEylT6lcpa+MHQmKcQAAGYTeBD5b3WlZzE7ItVHoeYpxz5qFLhfjnu4kZxN6+mLcvNu3hsVUuojFuE7IjVHoFOMAADII3Yc+W91lWcz+CjtY4k9eSJ5i3LPHrVHoXhF6EyTw7YVi0hfj5qcL42IqjSJ0H1hy3AzFOACADCf9mfXWrCJ0FyBvLemLcc8eV8ES9xfSKEL3AfKW0mbYt6VxMRWt9DiLKDleCEceAED6k35hErqyLGbfUg+U93k+eiEug9DnAfKWslKEPguQt7iEa/J9+8Tp1LiYSj8wZioIvYgoOWYvPQIAIPX1spjhz1gvXRazv20eIG8pPoPQXYC8tRRb232mk1yAvJUkl5xxMZU+pXIHZmUS+pMU4wAAcgi9iXzGeumymN1Juw6Qt5Q8xThvknkfWXLPdJLbXd7S0q3pi3Hakqe7z2JfKEJvDP2IPjVHHgBA+pO+N96alYtx3RV2pMjXyVOM88eNUeiy5J7ptmtbd73KsG8XhoVU+jSK0L2xH7HkyAMASH/Snxmfs95VhO6MQu/XGU9fjOuEHCzx5y6kUYTuA+QtJX0x7sOnpWEhlbMoQndB/Qh5/044+gAA0gq9MD5n7eMEoU8C5S3FZRB6GSBvMYrQZ8YlWtMX4z58OjXOXu+zXYx7stu38d2IbKVHAACk/sTpKvY5670rvrlylb4MkLcUn0Ho0xB5i3n+eFtynzgurELvl3lN/nktMj9/Ha0Ut/uksm93j+fIAwBIfyXXGJ+1VorQ6wB5S8lTjAuTtxRZcp84XhnXXE9ejOufg8cupHIvC3Xf2h6nUIwDAMggdG981ioX47orbKPQ8xTjnjtuAuQtZaEIvTGuuZ68GNc31Q0LqfRpFKF74+MUinEAABmEPrM+a1WE7qJE/tSFpC/GPXe8CJC3lEYRujetuf5s+mJcf8vcOHs9vPS4+76mGAcAkPgqrkhQnnKC0CeB8pbikn/e549Lo9BlyX3yeGZYb/0sGYQ+jZb5g9fRpoLQJ4Hy3kvpEQAAqffLYoYXph66LGZ/azVA3lJ8BqFPrUL/P/9dKMZ98rgwrLe+TvofMHGLqAxTPnTfxt2J8Rx5AADphd5EFKYeuixmd9KuI0W+Tp5iXJi8pciSe/Z4ZVzRLX0xbnPJ0/BxrQtF6HXkY5Ss+xYA4KYL3UcUpoZpFaF7k9A/nqkY9/xxEyBvKQtF6I1R6OmLcZ2QjYupNIrQfeRjlHUoxgEAZLiKm2UpTz114gLkrSV9Me7540WAvKU0itB9lMgfDLdJX4z7yEkZuYjK/Zj3rR6KcQAAiYVeGEpT6rKY/Qk7UN5SXOrP298yNwr9riL0WeAa61vJIPRpxAIqm5nuvG/D7sA4jj4AgPRSX0WWptaRi3EfP1kGCfzprfgMQp9ahf5/PiUU4549LgLXWJeSXHIRC6hsvo5WKlfpS+MdGM+RBwCQXuhNZGlqnUoReh0gbylZylOB8pYiS84fr4wruqUvxj3Z7Vvb+vQLRei16Q7M0xTjAADSC/2yZTF3S6sI3QfIW0qW8lT/HDxA3lIWitCtS7SmL8Y9ebIwrk/fXLpv4+68ZNu3AAA3XeizLOWpp0+cQebrJC9P9U31AHlLaRShe+MSremLcR89Ka3L2SpCd4Y7L9n2LQDATRd6kaA85QShT6JF/sz9uORC/9RxaRT6XUXosxxLtBqFPo1YQGUzU0HokwQ/1hxHHwBAeqmvgstTF2/jzpWr9GWAvKX4DEKfWoUuFuP8cRG9ROuDd+KTSy5iAZXNlNH79vL97jnyAABSn/QfVp56+DPYSjnp1wHyFnKcpxgXKvBPb0WW3HPHq8ilWddJX4z7aLdvbfPXFzvt2/AfbRTjAAAyCN0Htp83IxfjuquwAHlLyVOM+9RxEyBvKQtF6E3k0qzrpC/GdUI2zl5vFKH7iDsuw/1NMQ4AIMNV3CxLeeqZExcgbzmfOE5fjPvUvWLcpyPywllkyT1/7I0LwKQvxn3spDTOXg/ct0E/2CjGAQAkFnoRLfNLlsXsTuSTQHlLccmF/unjMkDeYhShz3Is0WoU+tQ4e73PVN63QfKW9rXj6AMASC/1VUQDehi5GPfM8TJA3lJ8BqFPQ+StZCoIvYhYknUzySWXYPZ6qVylLw0/1LLsWwAAhL4uT4U1oIepFKHXAfKWkqcY90KMxI+GKZWr9FXgkqybSV+Me6rbt/Fz1/ss1H0b/0Mt274FALjZQteWxdw9cjGuuwozCj1PMe6F4yZA3lIWitCbwCVZN5O+GPfUycK48l1zlfYtAMBNF/rM2Ia+q5z0XdTJ/pMXkr4Y98LxIkDe23nxSJRcJ2RvXAAmfTHuqZPSMHf9LEn37cV9TDEOACCx0AtrG7pfK1s46U8C5S3FpRf6URkgbzGK0GfG1dzSF+OeOpka5q6vM43atw/fx46jDwAgvdRXxjb0XLmSWwbI+2LOlyT1GYQ+DZG3kqkg9MK4mluf5JIzzl3v8/B9G7qPM+1bAACEbilPnUcuxn3yuA44wUvJU4x7MVjgmymVq/SVYTW3PumLcU93+9Y2e71ShD7KfQsAcNOF7k1C/7hSjPvksQ84wUvJU4x78agxCl0sxl06iW63pC/GaZPddh/beqX2LQDATRf6LPB1pq2I23322AWe5KWkL8Z1QjYJ/TNKMe5Tx94o9PTFuKe7fWtbKOdK7VsAgJsu9CLwdSapWOWEk/4kwUnfZRB6GSBvMYrQZ9EyvzfoJoPQi/iFcu6/Z55+356vUOc4+gAA0kt9FfpK007lqWePlxEn+mF8BqFPQ+StZCoIvYhcxW2Y5JLr5LyKnLm+jm3f6uvFe448AIDUJ/2PnzQRrzQ9vDz17HEdcaIfJk8x7jPBAt9MqVylryJWcRuOok1fjHum27dxM9fX2X3f+qBQjAMAyCB0b2xDt8pJ30ec6IfJU4z7zFFjFLpcjPv0cRO4gttm0hfjnun2QdzM9XXkfdtdYRv2a7Z9CwBws4W+S3nqIVFO+s540u+TvhjXCdko9EYRug9dwW0j6YtxzxzPImeu30+WfXu+fjzFOACAxEIvDK82reOEk/7EeMLv4zIIvQwS+Ge3owh9Zlz8JX0x7hPHhXH2urjkadC+fU6N4+gDAEgv9VXsq033Mleu5JaGE34fn0Ho0xB5K9kuxr1wXBgXf+mTXHKdkFeGmfp9dt+3z+2Y89XoPEceAEB6oTeGV5v6VMpJv4464T848Tc5Pm+gvB/kc/dTitt94XgVtfjLg8Z9+mLcJ44bw0z9PvK+fa7bt7vLWwrFOACA5Cf9Z0684dWmPq1y0p8HXrVtZpVF6J89agLkLUUuxr3QbTdy4Zd7SV+MWy95GjZvfRht3/oAeUuhGAcAkEHos6BXm57ZsTz13LELvGqTUmQQ+iJA3lIaRejesPBLn/TFuE8ezyLmrV+IuN3nu337fPC+3AzFOACAtEI/LoyvN4nlqXsnfutJf5Zc6J87KiMkfiHidl88mlkXgMkg9CJi3vpDp/b1Mrbs13uL2DiOPgCA9FJfWV5v6jJXhN4ahe4zCH1qFXq/DUHoRYIV3ZJLrhPyyjiuVdu3ywB5S/EceQAAqU/6l5WndkulnPSryKu3dfIU42JF/tL9lMpV+ipwwZfNpC/GPdvt2/gRvH20fVsHyFsKxTgAgAxC91Eif/BMtlVO+vPIq7d18hTjPnfUBMhbykIRehO64MtG0hfj1lP74se1ivu2v8IOFPhmKMYBAGQQ+iziHeULUYTuIq/ehikyCH0RIG8pjSJ0H7HgyzDpi3HPdvvWOLVPEbqL3qcP5t5TjAMASCz0IuId5c22tFNO/HeNSV+Me+mojJD4hYjb/czRzLoATPJ967t9ax/V6oT9OgmUtxTH0QcAkPrE/8njVcR7ysPMFaG3xis5n0HoU6vQ+20IQi/MK7p9NkMxznf71jaqVdu3ywB5S/EceQAA6YXexLynPEilnPQr45VcnmKcReYvn6VUrtJXllnxXdIX43y3b22jWuV9+6njOkLiw1CMAwBIftLXylO7RytPzQNvw24mTzHupaMmQN5SForQG+Os+PTFOGmyW9jQn1YRuo+W+fmKdBTjAAAyCH1meFdZL0996tgZr+L6FBmEvgiQtxS5GPfZI2+YE98nfTHuuW7f2ib22fbt5WvEU4wDAEgs9MLwrvI6TjnxW4Wevhj38lEZKPCtKEKfGebEq5PoTPv2+W7f2qf2OWG/TgLlLa0V7zj6AADSS30V+a7yOnNF6G3E7dhhfAahT61C77chCL0wzIlfJ7nk+sVuDGNa+8j79tPHywB5S/EceQAAqU/6UnkqLFp5qoq8HbtOnmKcReavnKUUt/u5o5VxtGz6Ytzz3b6NH9Pap1KEXgfIW1onnmIcAEAGoXvjO8taeWoedDt2Ww55inEvHzUB8payUITemIT+UoZi3PPdvo0f09pH3rfdFXaAvKVQjAMAyCD0WeDAka0oV3HOeFu2T5FB6IsAeUtpFKH7iPnwwyQvxvUDeqxDfhShuwB5a+vDU4wDAEgs9CJw4Ij06pNTpB55W/a+IPIU414JlPjnL0YR+ixiPvxDJ9EZhV4YRrSqk926/TMJlPdeVpkDAEDqzx2vAoeObGauXMm1xluzPrnkXjmahshbyVQQepFgEl1yyfWL3USOaF1H2bdHywB5S/EceQAA6YXeBA4d2UylCL2KvjV7Lok8xbgweUspxe2+dLQyCj15Ma5fjjZyROs68r598ag2rgNPMQ4AILnQN8pTEVHKU0fziGerw+Qpxn3+qDHIvM9CEXpjGCvbJ3kxzjTZ7TytInQfLfPzSXoU4wAAMgh9Zh1CogjdRTxb3UyRQegLo9AbRejeMFa2T/pi3KeOZ8Z5AHcVobsAeWuhGAcAkFjoReTgkWGccuK/a0z6Ytznj8ookS8eRBH6zDBWVp1EZxR6YZwHIE5261vqgfKW4jj6AADSS30VMXjk4VPFXjxqjUL3GYQ+DZG3ku1i3MtHRYJJdMkl1y92EzEHYBh5337maGlcOtZz5AEApBd6Y3xnWStPVZHPWNfJU4wLk7eUUtzuy0cro9DTF+M+3e3buDkA6yJjpQi9jlz/fR2KcQAAyU/6//3YG4WulafmhmesffIU4xZHTaTI11koQm8iR8quk74Y9+ldJ7upbyK0itB95Prv61CMAwDIIPSZdQiJInRneMa6TpFB6Auj0BtF6D5ypOw66YtxL3T7NnwGwIUSoyJ0F7n++3D4DsU4AIDEQi8CJ4jtNFXs3on/rjHpi3GLozJK5F/oc3gWReizyJGyl06iMwq9CJH3rpPd+pZ6xNrv2VeZAwBA6uupYvHvLHtF6G20zM+l4DMIfRoibyXbxbhXjoqYcbIbSS65TtYr4+uDcjHus0fL0LXfN+I58gAAUp/0P3VcG4eQ1IrQq8Cy1GbyFOPC5C2lFLf7SifP8HGyw6Qvxr141BjfNpCLcZ87qo3LxlKMAwDIIPTwqWIXm9NLRejzwLLUZvIU475w2ERIfBi5GGefRJe+GGef7NYqQveRy8WuQzEOACCD0F3oFDEhWyWnTsgusjA1TJFB6Auj0BtF6N4o9PTFuBePZtbJborQXeRyscNQjAMASCz0SfAUse33mZ247bjC1DDpi3FfOCyjZf7F8yhCn1mm0GmT6IxCL3JMdutb6rHLxeZcZQ4AAKl/+ngZMUlsGK8IvTU+a/UZhD4NkbeSqSD0wjiFrk9yyfXv9BvfNpCLcS8dLY2rzHmOPACA9EKvwyeJXXglSi7Gfe6oMgo9TzEuTN5SSuUqfWWYQtcnfTHuM0eNcbJbpQi9Nq4yRzEOACD5Sf+FXaaKXfou81IR+txYnspTjPviYRMk8C9tRS7G2SfRpS/G2Se7tYrQravMUYwDAMggdBc8SWz7veaJIPQU5akig9AXAfKW0ihC9yahf+EwfTHuM0ezqDcNBvtIEbqzrjLXhWIcAEBioU+ME8XEqWL3pG4tT6Uvxn3xsAyQtxhF6LOY6XPDJP+snz0qjFPdxMlufUt9jKvMAQAg9ReOloaJYuqSp92Jvx1beaoT8tQi83uZCkIvIqfPDZNccv07/Yapbn3kYtzL3XcmRuQPBvB4jjwAgNQn/RePauNUsVoRemUS+suZinF2oZfKVfrK+J57+mLc544aYzmxUoReB64qtxmKcQAAGYRunSq2VIQ+j2hAD5OnGPelwyZY4q9eiFyMs0+iS1+Mi5nsdnHftIrQfeCqcptjcSnGAQBkELqzThXrV+IShO4iGtCbKTIIfREgbymNInRvHFyTvhj3uaOZsZgodwZe6fatbUGaPhTjAAASC32SY6rYvSs5a3kqfTHuS4dlgLy38n9fVYpxXzicWQfXZBB6YSwmipPdOmFPjAvSZFllDgAAqX/maGmcKuYVobdGofvkn/XVw2mIvJVMBaEX5sE1X8pQjHvpaGUsJ8rFuM933xnbDHvPkQcAkF7otUnon1WKcS8fVYYmdJ88xbgweUspxe1+8XBlGFrTJ30x7qWjJnKi2zqVIvQ6SuQP3gKgGAcAkEHoPmI06DBLRehzQxO6T5ZiXCfk5v+GSvzLF7JQhN4Yhtb0SV+Mu2yy224/slpF6D50EZqNUIwDAMggdBcxGnRzSMlEELoLbkJvP5ctMgh9ESBvKXIx7kuH3vhKXPpi3EtHM8NEt7MoQncRi9BshmIcAEBioU8SrGHuxG2HyVtK8mJcf8s8QN5iFKHPrO+5J9+3Lx8V5nLiK0Ix7vPdd8Y2vz7LKnMAAEj9s0dL4xrmXhF6a2xE++RC//LhNFbkg0wFoRfRMn/wPD+55Pp3+iM7DOvIxbhF950Jnlt/YXqe58gDAEgv9No4VUwuxn3+qDK2obMU4xIIvVSu0leBg2o2k74Y9/JRE9lhWP8IqxSh1zFz6wehGAcAkPykHzNV7GKWitDnRqHnKcZ9+bCJEvlX7mehCL0JHFSz2bZPX4x7pdu34d2FYVpF6D5ybv06FOMAADII3RlGhK4zEYTuIl9rGqbIIPRFgLylyMW4Vw+98T339MW4V45mkdPc7kfc7hcOnXHcbR+KcQAAiYU+sYwI1aaK3ZN6zGtNw6Qvxn35sAyQtxhF6DPre+4ZhF4Y75KIk916GRtG3a7jOPoAANJLfZljydP+lq2xDe2TC/0rh9MggX9VzFQQemF8x71Pcsn1jy6iZX6+D+bKVfoydtTtvXiOPACA1Cf9l45qo9DlYtziqDIKPU8xLkzeUkpxu68ergzvuPdJX4z7/FFjeOTRp1KEXgePur1YEqQYBwCQQeg+Yt3yYZaK0OdRIn9QtMpTjPvKYRMgbykLReiN5R33LumLcdJkt7D9IRfjuivsiBG3w1CMAwDIIHQXsW75ZiaC0F3g+8lSiuRC74RsFLp456ATsje+Epe+GLc4mlkHwShCdxEjbjdDMQ4AILHQJ5Hrlg/jFKHcNb7ilL4Y99XD0ij0u4rQZ9b33DMIvTDeJemztW97GVun4+VYZQ4AAKm/fLTMseRpJ4PW+HqTzyD0aZDAXxMzFYReRL7bPkxyyXWCXhnvksjFuC8dLg2T8fp4jjwAgPRCr41LntaK0CuT0L94mKcYFyZvKaVylb6KeLd9mPTFuMVRY7xLUilCrw2T8fpQjAMAyCB0b1zydKkIfR75nvI6eYpxXz1sAuQtZaEIvQl+t/3ij4r0xbgvHHrjXZJWEboPnYy30f6nGAcAkEHocUueXmxQTwSZOMO7yuvSVZFc6J2QjUKXi3FfOfQR77UPk74Y94XDmXEIjDZMx0VMxNt8nY9iHABA0pP+K0cT43Kn4lSxe0LZXd5yazp9Me61w9Io9LuK0GcR77U/tHBnFHphHAIjTnbrpD2JmYiXe5gOAABSf+VoaVjuVF3ytJNBa3hfuY/PIPRpsMS/tpXtYtxXDwtrg75Lcsn17/QbhsD0EZ/t97fNA6fhbcZz5AEApD7pf/6oNs79rhWhV8b3lfMU48LkLaUUt/vVw5VJ6K9lKMZ98bAx/qiqFKHXgdPwNkMxDgAgg9C9ce63XIzrru6M7yvnKca9dq8Y97XoLBShN8ZX4tIX49aT3eL3gfhsP8EwHYpxAAAZhO6Mc7/7TAShu2iRPChZFcmF3gnZIPM+jSJ0b3wlLn0x7kuHM+sgGEXozrC2/DoU4wAAEgt9Ypz73ccpQgkdOrKZ9MW4rx2WRqHfVYQ+y1G4Mwq9MAyAWccJQp8Y1pbPNkwHAACpL46WOZY87W/ZBg4d2XwFymcQ+jRY4l/fynYx7rXDwir0Lskl1z+6iBwAs94Hc+UqfRm8tvzFuxeeIw8AIL3Q62iZn08hk4txrx5WkcNH1slTjAuTt5RS3O5rh6tomZ//99MX47502Bj3gVyM+8phbXz3nmIcAEAGofuIxTuGWSpCn0cPHzlPnmLc1w6bAHlfzDf63FkoQm8iX4VbJ30x7tVDb9oHympwF4bpxDX7KcYBAGQQuotYvGMzWyWnTgjOMHxknSK50L9+uAiQt5RGEbqPfBVunfTFuFcPZ8a/v9YZcOZ371+jGAcAkFroE+Pcb3G5zXtSjx0+sk76YtzXD8sAeYtRrvxnOQp3ps/66mFh/PuLk906IU8iBJ69MwAAgNS/cLg0rpDmFaG0xneWfQahT0PkrWQqCL2wCr1Lcsn1jy6M+2CuXKUvjSvYeY48AID0Qq+NK6SJJadOBpVRJnmKcXahl8pV+srYok9ejDtbDS7273/+nLxShF4Hvmu/GYpxAAAZhO5Nq6N9US459Vd3RpnkKcZ9405jEvo3lWLcunAX36JPXozbebKb3lqXi3FSZyAsFOMAAJIL/YuHzrg6Wp+JIBNnlEmfIoPQFwHyltIoQveBr8ANnuOf/feSF+P6HkLk8JdLV4Prn4EnWOyGYhwAQGKhT4wLefRxilDiZPJAKOmLcd+4UwbIW4y43a938txd3jsX7kyftftBFDH45aGrwfUt9QSL3TiOPgCA9FJfGmd/e0UorVEoPoPQpyHyVjIVhF6EyFtJcsn1jy4CB79sZq5cpS+Ni914jjwAgNRC/9JhbRR6rcikipgkNkyeYpxd6KXyY2FlLNylL8aFrAYnRy7Gfe2wNrb6KcYBAGQQujcu5rFUhD43yiRPMe6bdxqT0P9BKcZZC3ffuJO+GKetBrf7u+OtInRvbPVTjAMAyCB0F7kq2nCk6ESQSYqpYkUGoS8C5C2lUYTuI1rzw6QvxvWrwcWt037panD9M3DzbPxv3KEYBwCQWOiT0FXRhClkThGKdapY+mLcN++UAfIWowh9FtGaf2jhzij0InKd9ksnu/Ut9eBW//ZUPsfRBwCQWuqvHi4DV+PajFeE0o5tqlhfaguRt5KpIPQipjW/keSSM60Gdx65GPf1w2XEPPxhPEceAEB6odeBK6JtvlNeK0KvjFPF8hTj7EIvlR8LK2PhLn0xbtfV4PRXzypF6HXMPPxBKMYBACQ/6XdX2DErcg2yVGQyN14d5inG/cOdxij0hSJ0a+EufTHuYZPdIleDi+oMXAzFOACADEJ3kStyDTMRZOJMQj8XSpFB6IsggX9rK40idB8o8M2kL8a9djiLXNb10tXg+mfgxhJgH4pxAABJT/qdjI2LqYjLbd4TSux40HXSF+P+4U4ZIG8xitBngY35nQp3ps+aaTW4vqVuLQHm6AwAACD1Lx8uDYup9PGK0NvI8aDZpor1pbYQeV/IP97PVBB6EdqYF5JccsGrwX19t9Xg+tvmxhKg58gDAEgv9Nq4mEqtyKQyXh3mKcaFyVtKqfxYWBmFnr4Yd9lqcLu9clYpdyRqYwmQYhwAQAahe8vKXF2WikzmRqHnKcZ9604TIG8pC0Xo8YW7839L+mLcerJb2Apww7SK0K2dAYpxAADJT/pfOXTGlbn6TASZOOOY0D5F8s/bCTlC4sM0itB9ZNFunfTFuMtWg9ux0KYI3Vk7A10oxgEAJBb6xLgyl7jc5j2p28aEfj1DMe4f75RGod9VhD6LLdpdVrgzCr2IXAHu0slufUt9jJ0BAACk/tXDpXH+uleE3gbd8t0eWOIzCH1qEnp1lu1i3LfuFJElu2GSS860GtwlQ2/62+ZGoXuOPACA9EKvDQup9KmVK8QqcM73ZvIU48LkLaUUt/utTp7hJbth0hfjdl0NTn8GXilCr43v9FOMAwDIIHQfuYjKOktF6PPAOd+byVOM+8dOcrvLW8pCEXpjvJ2fvhgnTXYLa6S3itC98Z1+inEAABmE7iIXURlmIsjEGZ/f9imSf95OyIEC30yj/FDwRqGnL8Z945KhN9+MXw2ufwYe1BOQPy/FOACAxEKfGGevi8tt3hPKXeMz3PTFuOpOaRT6XUXoM+Oz+fTFuPXQm7gZ82qBrZP0JPI9/qydAQAApP7a4dI4f90rQm+Nz3B9BqFPTUL/9lmmgtAL47P5Psklt9NqcBFDb/rb5sY7Ep4jDwAgvdBr4/z1WhF6ZXyGm6cYFyZvKaVylb4yPJvvk74Yt7kaXHgjvVI+a20UOsU4AIAMQveRy2yus1SEPjc+w81TjKs6ye0ubymLnbcblvTFuF2H3uhpFaH7mMcKg1CMAwBIftKPmey2nYlwdeispaxOKEXyz9sJOVDgm2kUoXuj0NMX46ShN4GvmilCd5GPFYahGAcAkFjoE7PQv64U42yFrD7pi3HfvlMahX5XEfrM8Fxe3a5R6IVhJO06ThD6JPKxQtbOAAAAUv/a4dIwd72PV4TeGgpZWaaK9aU2k9C/c5apIPTC8Fx+neSSu7AaXNyrZnPlB8zSKHTPkQcAkF7otWHuep9aEXplKGT1yVOMC5O3lFKR3Cryufw66Ytxm6vMhb9qVimftY69E3EvFOMAADII3YfNXd96/WypXB3OjaWsPMW4b3eS213eUhbKdmvj7fzkkuuk7Q1LxqpDby7tDOz2WSnGAQAkP+l//dBZl9vsMhGE7kxCPxdRkUHoi0CBn+e799Mo2/VGoSeXnGnozWWrzFXdvq1sXYQuFOMAABILfZJjuc17Ur9rXC88fTHuO3fKAHmLUYTuIp7Hbyap5HYeenN5U90Jn3ViLRd2n9Vx9AEApJbcN+4sjUL3itBb03rhGaaK9aW2EHkrmQZJbvc7AckltzX0Jvw1s7nyA2Zp/PHiOfIAANILvY6Ytz6MXIz71p3KuJBHnmLcd6NFvk6pSi7+Vn6f9D9g1qvMJR56o3YGdv/sFOMAADII3UfMWx9mqQh9blzII08x7rud5GxCXyhX/7XlVn6X9MW4TENvzjoD8T9c+lCMAwDIIHQXMW99MxNB6M5ayuqfA2cQ+iJK5N+7n0YRujfeyk9fjAsderPrMJ3vdPs2/ofLOhTjAACSnvQ7GZtHtX5TKcbZhZ6+GPfdO2WAvMUo23UJbuenLcZdNvRm9xKbE4Q+MfxwWcdx9AEApJf60jiq1StCby1rheeYKtaX2kLkLeX/+95jU2G7E7PQv5ehGNcPvbG10ufK33Fp/KyeIw8AIL3Qa+Oo1loRemVcKzxPMS5I3mcC30xplpz830v/A0YaphP2ilmlfNba+FkpxgEAZBC6N45qXSpCnxvXCs9TjPteJ7nd5S1lESS53X9ApC/GhQy9kZ+Lt8pn9ZbP2v2tKcYBACQ/6Vsnu51nuxi3nipmS5FB6IsAeV/MP52lUSUXdwt/nfTFuG/fmZleMfvuJZ2BuM84DMU4AIDEQp8Yx7SKy23ek7pN6N9OX4zrb5kHyFuM8kPBRYotm+S6v19heL1MLbB1n2Vi+Izrv6/j6AMASC/1pXENba8IvbW8NtXfMs4g9GmIvJVMHya5yKv/5JLrZL0yvF7WZ678gFkGfrbNeI48AID0Qq+jxrQ+eEZeK0KvjK9NZSnGRQh8M6XyY2FpvPpPLrkEw3Qq5bPWoXc2NkIxDgAg+Ul/uNxm3BraS0Xoc+NrU1mKcf1zcKPQFztL7p8ereTUAtvuDfVW+aze+DekGAcAkEHoLnJE6zDbxbjQlcjkFBmEvogW0ffP0ijbHZ3kOjHPDK+XqcN0+scD5jsd36cYBwCQWuiTBJPdnLjtuPefh0lfjPunx8oAeYvJJrl/SlyM++6dIv71svt3GpzwWScRP4Q24zj6AABSS/0f7yyjZX7JZLdO0G3E+89Zl9vsS20h8lYyNUtO/m8nl1wn55WxgT9X/o7L0B9CF/IDinEAADmEXgeOZt1MrQi9ilhic9jGzlOMCxX4D7ZSBklud9kll9zmMJ2IdnqlfNba8PfrQzEOACCD0H3gaNbNyMW479yZG9+DzlOM+/5jTaB8NrNQJRd71Z9JcmcFNsN7911a5W/oDX+/PhTjAACSCz3NZLeJIHRnfA+6T5FB6ItA+WymCZLc7tJLLrlO2DPje/dyZ+AHjznD328dinEAAImFPkkw2c2J27YvLZq+GPeDx0qrjBShO8MVaxbJdUIuEpT1nPA3nJiF/kOKcQAAOaS+zDHZrRNyaxS6zyD0aYKry6kg9EmC7SaXXCfklbGsN1f+jssAeUvxHHkAAOmFXhsnu9WK0KuIgSbD5CnGxV1RDlOaJScn/Q+Yhw3Tefhjgkr5rHWAvKVQjAMASC70kOU25SwVoc9jBpoMkqcY94NOcuFXlMMsgiS3+38rfTFuOPQmrpkuF+O6K+wAeUuhGAcAkEHo9slu3xGKcf1ym98NXVZ06/WqIoPQFxFXlMM0yna98YdC+mLc9x+bRZb0Lu8M/PAxZxL6j85CMQ4AILHQJ4aJbus4cdth8paSvhj3w8dK49Xlw9vf8dtOW4z7/mOFoaSnPtvv/52B8pbiOPoAANJLfRk50e3SyW79Ih8B8pZesfIZhD61Cl1qaQdJLmC7Ce5IrIyN9Lnyd1wGyFuK58gDAEgv9Dpimtsw4vPfTs6VcbhJnmLcDzvJxd0mXmd3yYUl/Q+Yh3UGHv5YoFI+ax0o8M00HHkAAKmF3l1hR0xzG2apCH1uHG6Spxj3w05ycbeJ19ElF/8joU/6Ypz2bH/3f6dcjOt+1JiE/uM8+xYA4KYL3UVOcxtm6/lvopXIigxC95G3idcJb3/vtt30xbgfPDbL0hn4Ubdvd5e3loKjDwAgpdA7GSeY7ObEE799/ez0xbgfdZKz3S6+vP1t23baYtwPHysSNNKd8ncMkffF/PNZZhx9AADppb4MlvjF5rpXhN4a18/2GYReWIUuSa6XcY7tJpD6ythInyt/xzZA3lI8Rx4AQHqh14GT3DZTK0KvTOtnfz9TMe5HneTinv2uo0luaXiu3Cf9DxipMxD2b5M7Az/u9u3u8pZCMQ4AIIPQfeAkt83X0ZaK0OfGdcjzFON+1Eku/tlvn0rZbm18rlxn+KzeeNegVYQ+DxT4ZijGAQAkF/r37rgEg2C2i3HSSmThq5IV2SX34+C0O8szbLvLDJ91ZrxrIHcG/rnbtxah/8tZCo4+AIC0Qp8Eylt6Fc2JJ377tLL0xbgfd5L7cXCJ60KU7TrrdrukLcbt2hm4/N/qFKmHyFsKxTgAgOSS+95jS8MQGHWyW7/Ix+hWIvtxJ7nwEtdmnLDdSY7tJpD6ytBG7zNXhN4GyFuK58gDAEgv9NowBKZPrQi9MoweVRdESSD1lfEZ8FzZ7tK43Rw/YBpDG71PpQi9ChT4ZijGAQAkP+kPl9uMy1IR+twwerRPnmLcP3eSs4lXk1xt3G76YtyPu30b30bvI3cG/qXbtxah/4RiHABADqE7wwCYdSaC0J1h9Og6RQahe6N42+TbPRfdMsNnnRk/611F6C5A3loKjj4AgLRCnxgGwKzjxG3bVyJLX4wLlZwgKWW7zlgU6zNJ/FkLww+MdZwi9RB5S6EYBwCQQerLyAEwlxbY+kU+RrcS2WWS2/22sRO2OzEWxVR5Gj/vyvADo4/cGfhJt29/EizxYTxHHgBA6pP+9x+rI4a/DFMrQq+MK5HlKcb1krOVuubKVevSuN0cP2Aaww+MPpUi9Cpa5j/tc5tiHABABqH7yOEv6ywVoc+NK5HlKcb9Syc5m3grZbu1cbt1hs/qjf+mVhH6PEDeUijGAQAkP+lLBbbwTAShp1iJrLgykovd7gMBLjN81pnh33MWReguQN7b+dlZCo4+AIC0Qp+YZH5+1e3EbdtXIktfjMsluV3a3w+/qp0k/qyF8d/TR963YfKWQjEOACCD1JfG98a9IvTWuMKZzyD0LJLrW+qG1vel8jR+3pXh39Nnrgi9DZC3FM+RBwCQXui18b3xWhF6ZZwnnqcYl0tyP+l+GI2s/d1tszH+m+TOwM9uV4EC3wzFOACA5Cf97grb+IrZUhH63LTCWablNrNJ7ifdDyPbdusMn9WHtdC3bpu3itDn0TKvz0IxDgAgg9CdeRDMj4RiXMhKZPr70sUjl9x22jTy3BLoMsNnnQXIW4widBcgby0FRx8AQFqhT4zvjPdx4rZtq5D1SV+Mu0xyO8pX2a6LeIVrM5PEn7UIkbciZqdIPUTeUijGAQBkkPrS8M54Hy9uV1pu81GvRLaWnE2+TtjuJPgVrp/uJk/T5/3p7VVgA30zcmegvt1GSHwYz5EHAJBe6LXxFbNaEXplFHqeYtxPHltFyfeBDLX29zLyNa5s7e9+MpuxwFYpQq+iZf7zs1CMAwBIftLvrrCNQl8qQp8bFwjJU4zrJWe7DV0p260jX+NaJ30xrvuRYBJ6rRTj6tvzAHlLoRgHAJBB6C7yXfFhJoLQnXGBkD5FBqF7423oNos8f5ahGPez27PABvpWFKG7AHlrKTj6AADSCn0S+a74ME65SrcsENInfTHupwGSU6LI01m324kxbTHuZ7eLiAb6ZuR9+/MoiQ9DMQ6uNX/7H7dcl3mXqkv7t3+7xXce9iL1ZeB74jsV2Pr556NbiUyTXFicsN1J5HvZD5Wn6fPWt5c5CmydkNtomf/iLJ4jD66xvO8K4TsPexD6jx+rI94TH6ZWhF5Fy/y8eZ6nGPez2yvjlfRc2e4y8r3sbO3vbpu1scBWK0KvAuQthWIcXGd5S+E7D3sRuo94T3yYpSL0ecwiKIPkKcb9LKD9LctOG4taR76XvU76Ylz3I8FYYFsqQp8HyPtifnkWinFwneUthe887EHoDyuw7dZQnwhCd5GLoAxTZBC6Nz5bbk3y1JO+GJemwLa9b3/RbXd3eWspOPrgmspbC995yC70SaTEh3Hitm2jVvukL8b17W+beHdvf4ff4k5bjKtvTxIU2OR9GyZvKZSE4DrL+zy/vhC+87AXqS+Nr5l5Rejt6FYiq28XVqFLBbYzeYbJe2d5mj7vz28vDeU1tcDWCbmNkPgwniMPrrG8pfCdh70IvTa+ZlYrQq+MC5fkKcbVt1dGoWtjUZfGW9zpf8D8/HZtKK/1qRWhV9Eyf/0slITgOstbCt952IPQuyts4ytmS0Xoc+Ps9DzFuPp2E3E7fJgqWp6XJ30xrvuREFxeuyjgpSL0eYC8pVASgussbyl852EvQneG18vWmQhCdwkWLikyCN1H3A4fpt1JnuFJX4x7WIFtt6vqiSB0FyDvC/nbgxQcfXBN5b2d35yF7zxkF/rE8HrZOk7cdtzM9GHSF+Pqe8U4g3wVoTvj8+o+aYtx3faM5bU+8r4Nk7cUSkJwneUthe887EXqS8PrZWqBrZN2a1y4ZJHhNnSRo/3dt9SNz6v7uOSf95e3lzkKbJ2w2wB5P8iv7sdz5CHvayzv7fyWYhzsQ+g/eaw2NtLl8tTPblfGUat5inE/v70yCn2ubHcZPGzl4tVz8gO+22YdUVobRty3nZyrAHlLoSSEvK+zvKXwnYe9CN1Hy/z8CnypCL00jlq9m0nojeG2eJ9KucVdG4eupC/GdT8SIkprwywVoc8D5C2FkhDyvs7ylsJ3HvYidBcgby0TQehT6zKeXaYZhO4Nt8X7tIrQvXHoSvpi3LrAFl5aG2Zr33ZCdhES30zB0Ye8r6m8tfCdh+xCnwTKWyq3OeUq3bqMZ5lB6LOo2+IDQV8qT1vSFuM6GUeW1oZX3+K+jRb5v94PJSHkfZ3lLYXvPOxB6j+9vYx4rWwYL2439L3v7aQvxv3idpFgHrkThD5JIHSX/PO+fnsZUVp7aIGt+7+3AfLus+xSd5l3cRx1yPuay/s8zYV4vmGwD6HXEa+VDVMrQl8YhZ6nGPeL2yvjK11z5Sp9aZig1if5Ad+Juo4orQ1TK0KvdpC37+XdZcJRhrxvmLylUIyDPQhdW4ls9ywVoZeRi5Vc+t63+fP+8nZjvJKulO3WhglqaqvcKHRvfNYtF+POr7SRN/JG3ruHYhzsRejO2kjvFykRhD6NXKxkmPTFuMva37ul3Wm7r4flb6+nL8aZC2zn0p4IQp8g79HKe9ql7LLo0iDvRyJvLQXfUMgt9EmCRrpTrtLvGqezlRmEPjMJ/XWlGPd698PI1igXW+VGoU8iCmubV96IG3kjb0t+dz8U42AvUl8aG+le3G7oe9/bSV+M++XtwjBsZR0nCH1iapSfx2W4Sl8GyJvb5sgbeaeRtxTPNxn2IfTaWGCrFaEvomV+XlrLU4z75e1V7CIj9yIW4/4W0ip/ffdWuVHoNfJG3sh77/KWQjEO9iD0y1Yi2y1LRehl5ES2+8nyeV+/3UQ84x6mUoReR45DvbRVbpLDubiRN/JG3nuVdyGFYhzsRejOuFZ4n4kg9GnkRLbha2Xpi3Gvdz9g4lcL69MqQveR41AvbZUD8kbeV07ecn5fFBwJkFvoE2MbXVyJ7GzbEdPYNlJmEPos8hn3/att5fZ2irGoXEkjb+R9PeQthWIc7EXqS2OBzStCbyKmsQ2TvBjXSbkwTlATx6IGtcr1prnj24i8kfe1kLcUzxED+YX+89u1Uei1IvSF8b3vLEWSTtYrwwS1PnPlKn0Z8ZrYsLCG0JE38r4e8j7PGxdCMQ72InRvXFpULsb98nZpnXOe5cT8q9uN8dZ4pWy3DpA3bXPkjbyvr7ylUIyDvQjdGZcWFVcM60ttxhnnfZIX4/pXxIxCl4tx55JG3sgbeSNvLQVHHOQW+iS4hb7jimHGGed9ygxCn1kLbIrQC+SNvJH3oxD4KOUthWIc7EHqv7i9jFxSdB2vCL0xzDjvk74Y96tOvHFreQ+vvKd8a5A38kbeO+XN+/EcmbAPodeRS4quIxfjOiEbZ5znKcb96vYqsLDGlffVkTjyRt5jkLcUinGwB6HbVyJbKkIvTTPOf5WpGPevtxvkfU2ljryR9zjkLYViHOxF6C5BgW17uc3Xb08TvPedvhj3r7dL5H1thd4ib+Q9AnlrKThKIbfQJwkKbE48wcbPN1+nZA9BgNAr5I28RyLvrfzn/6QYB/uR+jKmwDYQtRdPsPb3vhfsnWsm3QeFNZdB6HPkjbxHIm8pnjMA5Bf667drQ3mtT60IfWEUOkWS6yFvqW2e/i2GX99yyBt5j0Teyy51L/EurguP9mBvQvdR5bWHrBjW3zI3zDc/C3vnWshbSp63GJA38kbecKNPxq/fdobimrpiWF9qC3zXm7b59ZS3mExCb5E38kbecJOFPjEU19aZKVfpyBt5a0n/FsOvb1XIG3kjb7jZJ+5dVwzT48Xtnr/3jbyRt9Q2LzMIfY68kTfyhpsu9Mq4pjcFNuQd+qpY+mLcb2455I28kTfcdKHPI+abD6+8mXE+XnkXI51tnqcYh7yRN/KGGy50R2Htmu7bf7s1G+ts8yyf97e3WuSNvJE33OwTP/K+rkIvRjzbPH0x7re3KuSNvAFuutCR9/WV+mqks83LDEKfI2/kDQBwXYVej3S2efpi3G9vOeSNvAEA9itauW2efBGHbpt+pLPN8xTjkDfyBgDYs7yl+OT/7ZRzzhO/551J6C3yRt4AAPuU917mnHcinox4tnn6Ylxzq8oj71vIG3kDAPLeOass/85f31qOdLZ5mUHoc+SNvAEA9ilvrWleZBB6PdLZ5umLcb+75ZA38gYA2K+85bZ5+mLcb275kc42z1OMQ97IGwBupLz78aizEY1H9RmE7sY62zyT0FvkjbwB4OaIvAwaurK/CWvpi3G/uTUZ8Wzz9MW43xXV6OX9BvIGAEhz0v+3M6GPZrb5IHmKcb+9tRzlbPPfZSjG/a6YI2/kDQA3R+jTkc02Hz7TLjIIvR7pbPP0xbjfFw55w5j4z38viv/8j2LWxXdZ8BcBSC/1Mc02HyZ9Me63t/xIZ5vnKcYhbxiHvJsuqy53B1nxV4KbJ9wHhTWfSejNiGabDwtryT9vJ1g3ntnmFwtrWfbtG0WLvGEE8lZyUPDXgxsh73tt883Cmkv+3/z1rcWIZptnnXPeSXcyBnkrSV+Me6OokDeMQ95nAt/MjL8o3BR5S5lnEHo5ptnmg+QpxjW3liOQt9Q2LzMIfT5Sea+Q942TtxTPXxluirylVBmEPh3ZbPNhkt+S6wRdj3S2efpi3BuFG4m8m3vynnXhNuvNlPd5/nAhDX95uCnyltJm+TePa7b5MOmLcU23X8Y52zxPMQ55wzjkLYViHNwYeYtt8yyf4zfdv308s82HSX5Lbvc55/ufsJZJ6C3yRt4jkLcWvjdwM+StxGUQ+mJEs82zzjnvZD0Z8Wzz9MW4N4sKeSPvkchbCsU42IvA3QjkLSV9Me43t8oxzTYfJE8x7nfFcqSzzcsMQp8jb+Q9Enk/yB/vx7M3Ib/Q/+1WNaLZ5sOkL8b99tZ0ZLPNh0kulE7Y9UgXJkm/b98sHPJG3iORtxSKcbAXoc9HNNt8mDzFuDHNNr9YWEtfjPt94Uc62zzLvkXeyHsk8t7OnyjGwX6E7kY223yY5O/t9oNcRjTbfJjkt+TUOecjGI+aSejIG3mPQd5a+H7CXqQ+ptnmw7gMQl+MaLb5sLCWvhj3+2Iy4tnmjiMPeV9jeUuhGAd7EXo7otnmw6S/am1ulWOabT5InmLcG8VypLPN5xx5yPsay1uK51sD+YX+61vViGabD1NnEPp0ZLPNh6W15LfkOhnXI51tXnHkIe9rLG8pFONgL0Kfj2i2+TDLLJ93HPKWkr4Y90bhRzbbfF1Y45b7mOX978g7Sd66EIpxsBehu5HNNh8mfTGuudWMQN5S0j9iGM45ZzwqIO99yVsLxwHsRepjmm0+lG3yK7lOyIsRyFu6Yk5fjHuzmCBvQN6PRN5SKMbBHoT+m1vtiGab555zXo5A3lLyFOPeLJbIG3kj773LW4rn2wn7EHo1otnmw6Qvxv3u1nQE8taSXJCdnGvkjbyR997l/SDt/VCMgz0I/be35iOabT5MnmLcOOQtJX0x7s3CI2/kjbz3Lm8pFONgL0J3I5ttPiyspS/G/a5oRiBvqW2e/JZc3yhH3sh77/L+w42XtxaON9iL1Mc023wYl/yz/r5YjGi2+TDJb8l1wp4gb+SNvB+JvKVQjIO9CL0d0Wzz3HPOyzHNNh+EW3LIG3lfH3lv588U42A/Qq9GNNt8mPTFuDeK6chmmw/DVTTyRt7XQ95SKMbBHoTe3JqPaLb5MHmKceOabT4srHFLDnkj7+shbynchYO9CN2NbLb5MOmLcW8UzYhmmw8LayXfRuSNvK+FvO/+59tiphxFsA+pj2m2+TAug9AXI5ptTmENeSPv6ylvKfxoh70IvR3RbPOhbH3yz/pmUSJvQN7IO7O8pSw42iC/0H93qxrRbPNh0hfj3iymyBt5I2/knVneUijGwV6EPh/RbPNh8hTjkDfyRt7IO6+8H+QvD8JRCXsQeuFGNtt8mPTFuDeLBnlfU4n/R1Eib+Q9BnkroRgHe5H6mGabDwtrLoPQF8j72gq9Qt7IeyTyllJylEJ+of++aEc02zz3nPMSeV9boc+R9w2V959HJ28pFONgL0KvRjTbfJiavQO7C/3AIW/kPRJ5b+evFONgP0Kfj2i2+TBL9s41FO+/F5PuKtpl2TbyRt7jkLcYjn7IL/Q3Cjey2ebDstqEPXT15X2vbV53Wa5vi2f57/3hoEXeyHsM8u6y6q/Ku/gusy482oO9SX0Us82Fxrlj71x9eStJvm87AVfIG3kjb7jpQm9HIG+pbc4V+vWQt9Q2n2cQ+hx5I2/kDTdd6NUjkPfde/Je3Gufc2BcX3lLqTII3SFv5I284WYL/c1ivmd5M2ThZslbapu3WT4D8kbeyBtuuNAd8kbe+56wlknoLfJG3sgbbrrUkTfy3veENZdB6BXyRt4b6eW96FJ24RwFN0LoLfK+pkLfWeB7n7CWvhj3p4M58kbeyBtu9kn/fxYV8r62Qq9HOdv8jxmKcX86cMgbeQPcdKE75H1dhX7gRzrbPE8xDnkjbwCAayp0N9bZ5pmE3maX91vIG3kDAAzls11YS74qUyfvyYhnm7vkn/etgwp5I28AgH3KWyqrrbL8t/9wsBzpbPP0xbi3DubIG3kDAOxT3lrbvMgg9Hqks83TF+PeOnDIG3kDAMTJ+9+Tvuc9yyB0P9LZ5nmKccgbeQMA7FneUnwGobuxzjbPsp/agxZ5I28AgH3KW7pibpJ/lj8eTEY829xlEHqFvJE3ACDvRz0eNU8x7o8Hy5HONk9fjGsP5sgbeQPATRL5uGabD1Mk/6x/OqhHOts8fTGuPXDIG3kDwM0S+phmmw+Tvhj3pwM/ytnmb2UqxiFv5A0AN0rozWhmm18srPkMQncjkLd41Zxl3/75oEXeAAA3RujdCXA8s82HSV+M+9PBZAzyVuIyCL1C3gAAY5Lug8Ja+pP+f3QnxBHNNh8U1vIU4946WI50tnn6YtzbB3PkDQDw6OUttc3r5P+9PxxMRzbbfJgig9Drkc42T1+Me/vAIW8AgEcvbynLLP+Occ02HyZ9Me6tAz/S2eZ5inHIGwDgkctba5tPMgi9GdFs82F8BqG7sc42zyT0FnkDADx6eUtxGYS+GNFs82HSF+PeOpiMeLZ5+n37l4MKeQMAPHp5S23z9FetfzyYjWm2+SB5inHtwXKks83TF+P+cjBH3gAAj17eUtIX4/54UIxstvkwRQah1yOdbZ6+GPeXA4e8AQB5j2e2+TB5inF/PFiNaLb5MOmLce2BH+ls8zzFOOQNADda6P9xJvMxzTYfJn0x7k/dCXw8s82H8RmE7sY62zyT0FvkDQA3Xepjmm0+LKy5DEL3I5ptPrxaTl+Maw8mI55tnn7f/vWgQt4AcMOF3l3ZjGe2ee4557MxzTYfJE8x7s8Hy5HONk9fjPvrQYG8AeCmC70a0WzzYdIX4/7UnfTHNdt8mCL55337oB7pbPOKIw8AIL3Q5yOabT5MnmLcWwerEc02HyZ9Me7tAz/S2eYtRx4AQOqT/h8O3Mhmmw+Tvhj31kEzotnmw8KazyB0N5r55hslNY48AIA8Uh/TbPNhXAah+xHNNh8mfTHu7YPJGOSttM0LjjwAgPRCb0c02zz3nPPZmGabD5KnGPf2wXIE8qZtDgCwJ6FXI5ptPpRt+mJce1CMbLb5MMmvWjvp1sgbAOCmCP2PB/MRzTYfJk8xrj1YjWi2+TDpi3F/OfDIGwDg5gjdjWy2+TDpi3FtJ6TxzDYfxmcQukPeAAA3Serjmm0+jMsgdD+i2ebDpC/G/eVgEiDv9t7ENeQNAHCFhd6OaLb5sLCW/qq1PZiNZrb5xcJanmLcXw+Wl8h73sVxBAAAXB+hVyOabT5M+mLcnw+KEchbS5FB6AvkDQBwc4Q+H9Fs82HyFOP+fLAagbylzPg2AgBAvODeOnAjm20+TPpi3NsHzcjmm6/j+TYCAIBV6mOabT6MyyB0P7L55vdb5XwTAQDAKvR2RLPNh0l+1dq/8z2m2eaDrPgmAgCAVejViGabD5O+GPf2QTGS2ea0zQEAILnQ51nl3Ua/KpanGPeXgxXyBgCA6yf09sCNQN5a0hfj/nLQIG8AALiuUh+DvKUkl2LQnHPkDQAAV0zo7Qjkva855zPkDQAA11Xo1QjkLbXN0xfj/nJQIG8AALieQv9zJ6/xzDYfJk8x7q8HK+QNAADXUehuZLPNh0lfjGNVMQAAuLZSH9ds82G4cgYAAAgQejui2ebMOQcAAIgUejWi2ebD1OwdAACA3YU+H9Fs82FhrWTvAAAA7C50x2xzAACA6yB15A0AAHAthN4ibwAAgKsv9Ap5AwAAXH2hz5E3AADAVRd6J2fkDQAAcD2kjrwBAAAAAAAAAAAAAAAAAGT+fzo0FfhXRFNPAAAAAElFTkSuQmCC;imageBorder=none;sketch=0;opacity=90;noLabel=0;portConstraintRotation=0;fixDash=1;collapsible=0;backgroundOutline=0;comic=0;strokeWidth=1;perimeterSpacing=0;imageBackground=none;fillStyle=auto;" parent="3tKYfOBs04xEkgBUD2MP-53" vertex="1">
          <mxGeometry x="30.138888888888914" y="31.111111111111114" width="249.72222222222223" height="249.72222222222223" as="geometry" />
        </mxCell>
        <mxCell id="3tKYfOBs04xEkgBUD2MP-54" value="" style="group" parent="1" vertex="1" connectable="0">
          <mxGeometry x="1240" y="180" width="310" height="310" as="geometry" />
        </mxCell>
        <mxCell id="3tKYfOBs04xEkgBUD2MP-52" value="" style="whiteSpace=wrap;html=1;aspect=fixed;comic=0;sketch=0;fillStyle=auto;strokeWidth=0;rounded=1;glass=0;shadow=1;fillColor=#FFFFFF;strokeColor=none;" parent="3tKYfOBs04xEkgBUD2MP-54" vertex="1">
          <mxGeometry width="310" height="310" as="geometry" />
        </mxCell>
        <mxCell id="3tKYfOBs04xEkgBUD2MP-27" value="" style="shape=image;verticalLabelPosition=bottom;labelBackgroundColor=default;verticalAlign=top;imageAspect=0;image=data:image/png,iVBORw0KGgoAAAANSUhEUgAAAdgAAAIACAMAAAAWgo10AAADAFBMVEUAAAC2YAHVZAXjmwLqYx3tXyLwWijwWijqWhfsWB/uXiTtWyLkVhzuWyLwpQzwWijpWyHrnQnwWifxkhT1sQnydB/yihbwWifwXSbwXiXyeR7wWijwWifwWifwWyfwXCbvWybzjRfwWSfybCL2mRbwWifvWybtWCX1jBfwWiX2lhfwWyfzeh7wWijwWifwWSf2lxfwWyfwWyb0kBfxZSX3mRfwWifzdCD6xAv1jBr2oRP5wgnxbSH3uQvwWij0gB3xWyfyciHyciD0hxvwWyb1kBjzeh32oBP1lxTzdyD4qBPxYyX2mxbwWyfvWib6wQv4qhH4vAr5qhL2mBfycCL3mBfybiLwWif4pBTzdyD3oxP0hBv2jxnzdyDxaCPybCLybCL3oxP3swzzcCL2lBjwWij2kBn1ihv4qBLwWif0gB3wWyfxZyT4qBL6wgzwWif2khj2qhD0gB37xAzybiL4qhL0fR77xAv2lRj2mBf1iBv3mhb4rxD6vwzxZST5rBL3mxb0gR33mhbycSH4rBH3oRTwdx3yiRTzeR/4ohX7wwz2khnyZyT4oRX0gR33nhXzbiL4pBTycCH6wAz3mxb2kBn7wwv4qhLybCLzfR34wwr1ixrxZSX7xwrzdiDxZCX4qxHydh/yciH6wgv3qRHxYSb4rxH1iBv0hxv5wQv6vQ36wQz5rRH1ixr6xQv7xgv6xAr1ihv7wwz0gh37ygrzdiD6vA7yZSXxXifxZCX5rhH5tg/vWif1iBv7ywr7yArwXSfwWij5sxD4rRL5uA/6uw76vw32kxn4qRP5tRDxZiX1jxryayPybyL3ohXzdiD3nhbxYyX5sBH2lhj0gx3xaCT0fh7ybSP2mRf0hhzzeCDyciH4rxH1jBv2mBjzfB/6wgz1iRvxXif4phT3pRT3nBb6vQ72lRj3oBXyaSTzex/2mxf1ixv1iBzzcyH0gB7wXCf1kBr4qxPycSL7xwv0hR3xYCb7xQz1kRn6wQ30hB30gR77xAz7ygr7yQv7zAo75P6RAAAAwXRSTlMAAwUIEyT3/AwPKhsJIBDeFgy8IRdDG5pVSTvywqF+Tzwnql9RykM2NC/FlJfoj3ZvYlxA+/fWuJx8RzYzHOzV0K2MiGxZUjgs78fCgHBnZ1Mj9fDn2sq1raFeSd7BtZaDdSr26OTPwbmvq6ahnIaFZTD38O/o5tOvp5SNfG/W0s62m3BpZi4V+vr59/Px7+Xf3NW7ubirknhdQ/Hq5t2OhoNoXkDv3XRrTuPGpaKPelXo3Mm4fPbh2q36sor588n9R2UpfgAAHulJREFUeNrs3bvOqkAQAOCB/OyKSjA0aOQWEiXGiMHC0ljYausTWBgLX/Bv5s3OPcdzfm/cd2G+BzCaibA7MzsL7aY5YRdI0yhLhsjjDyCNok3wp81eAdIcyRj/2EZAGkIP8QaPO0CaIDLxX2YARH47hv/jVxWI3PoXvGeiAZFZb4L3jYdA5BUt8KE5PY6l5TN8wqJshaT2HJ8yKcUopU98ZTwCIhvFxtd4AkQuaohv8YDIRA3xTTEQeahnfJtN9R5pKCEiRbaBXEzFBSKFGFOaA5HAElO7AhHeCjPYAxFcwDADTsUewRkbzIRRK5TQ9DVmtOgBEVeImU36QES1xH/QdrYhAo55HIAIaXDCXNgMiIiOmNOaXrMiOuAXlFtsAI1hflMgglEcLMBJByKWPX5HD+PGMcZYCE4HtsRyxIJsqZ9CJEMszA6IMPomFmZDJz/E4eEbqCFVOoMxFogZQMQwxy+ozNMAGsdCcTqFJ4YQkf6yDdTlWDBOb1kRuHiDEouNYXAs3JhqAfWzsQRLIDX7YFgCkzLG2QjSmPgYTaeomWJiKUIgtRphORiVAlITOzlBTcZC+GBYEgtIakK1nD7AB0DSErAj5qtLElBs66IzLNXGme+CDhRI6UV+svdi271cLq4dX30gX62wCma4nOqQ10ewm1smo7L+O0KsCl/bSReymu1cEx+4APligZXahLv0we0ll6dfk9MZvy96WL2TuxrA24ylw/GFI5B/DTysx+QaKPCanjj4DpprcmvmTTjWZ+MO9Rdf0B7je85AflFH9glrx46HATwysvB91Dz3K6ruGAXBrcMH3DFcYxo2kGC+QaHw46oP/xptqRMnHcMzUUBjO4C/ZhaNckxFHR45imq9HMBPnU+O6W2htbTPBQqNhQEATE38H+14HlN8CyWwTWJqZE5B3wv5Zi3Uon1dkUYszObmIZpDlFrXFXfB9AptZR+KztgWJ2iPSIoVU1FaU7yLjtgqLTkt1G3PQ/g3B1qgZ7dkyXSDNf9m8c6VYQuJPutP1QeGYWha76OjQBYrAUqt72n+S1YxpqtlHFoTc8zxBlusnbPtHfxZB94UTbClxOqjGEx/NMtyfOnkuMtRD17QW/hy/cMEQRjDT2uB6Wysqz+Ah1aCV3DKJUC1XQ2W5w1mZbqrHtyhtSohIdzqSYmWFsO81nO//9/nLlu5Fr6RQH30obvAgrBzctMINmvtoqn+S2x7hyPDQnEr0eEH1WvvoqnmQzz6weFYAhb6KnTp71pPUlHxQ4alOdltf7vWtN/Rrq3ehVRmDJUaCdz02TAKVEZdrZFU5QMqs0NSnR68JuLtGOQFAyoTI6mOBm8QeBYwqT+wIZIn5H0Ut7zeUrEBVMZBUh0VKkM53AoxqM4WyXOS5oop71ShCVSn+QdTBRLCQxRYmV3hIQqszBJ4iAIrswgeosBKjHfgIQqsxNbwBG13UmLmxArtT29/GI6CWVfTjO80rTuLpsPV3ptfrO0Gn5NyCkVTM0/ctGwvmXZ1eEPfmCae69wNsKRrpwbmik+OvfQ1NdttDYe5M8ayOB14jqo79/GJvQt0yEtbxX+iK3FkmzLgY+3uoj4URpntwgWixJG9oPT4JB4OoATdw2UjbWTnKLd1PNKhPErkORwLZPWhGleU1/h8MKB8+urMsDBnFZ4S/J7s8p3mUxWq0veLu6UgVKAKCcroFAcKVEsdhkymPMUIpbOZBwrUQU8sLIIHFYhQLvzsq5CaYOcSD/CMvJfHZWd6PaiZ4uc/nMiHUDoV5WH5Yoxfzz8SnUXwhJT3eGbGbIGuEevs1pjLwoD72lbe2XiC3aau+BPMY63DXe06vHPad0A8UwtzsBQo1yeK7rTrg5hyzUiPoVwHFNtmKWpY84Z2BaWaosjYVYDBkk8FlqBLY6E3sm7t29Y3TLeYzancXyfubK2JJBf9KckJM3G+sXfHOGoDURiAfyMMrG0EosGIgFEiiKwoiYKsVCtEQWeRdjuSJkUEUm7ACXKAFEhUnAGQUsStO1/BJ6CiTpFE8u5isNk3Y3u83wV2mdGM37yZeVPACaLftxt9SEc6Igqt205fANVxUqlZRJaoc+caOh4Re0e2lr0n/gbXJKPaMh4Td+Ou/C7NS5ww0rTtxDbWcI/QYXEt7Q/UhKneperB4LRtAzTTmD+MSI/fmC2wkq5H5kYGsuymE3ujp47HxCun2MhCSuIsI+6gvUOAoNFTuZudtWuoetwNsynYuElNHepRC0IYxguPSzKCxMs9jasQhNyPl1qU8IhA1zxeZjgafqjwvZyCdyqHThp0IZRBnBiqpCBIpBRFSYdg1BdOdH0JQeIUohhlNdl0RuGdE90E94hSP/5rio6WEtKjR8dtFQwYTrI+Zj4rEcKsJfscdKXkJKmfra3XOIoNJyoDQSKUGHmR9vNqT1FoOhHVNNCbOtfIWlmGZEzLCdZGlZ2onvs1NqMUO7MoQFZR/H4FXo9ix0+Z37rr56BfAbmW2J676SRiLHLcFFAfR1v2Sfgr68mnWsruRrJz8yJGDYPMz8VvZeSGdhepRSqgpjjctU3kSOHlFUueTN5sLwtyXCIqqRMvZZzZp58/IWekTiLHjIslJ74UX+hOoSg9W6oiIIPFKBoCHEdk0rMdUBscONrlZAH7gPTtcMlvBcSk2oGbfAXEAYXG4ZI5qL0/cDNEXlX6F4esDGL10oGTN8iv4sfDBU1Q6xz4GBeQY+qlT15JBTHT56Kdo0ziKcrGP+8XqDV8HvL7gf2nV/LP2lRArOVzMEfu6b/9s6agNvaZq+VzBXvf+wttJIHY0Gftd/bKwbDQ9M/SQUza+YzleaUTULD9c2wA2Rqyu1yccYqgeH4ImQAyNWSfJ+L/zDbfiU0/stTBs0gtvbkBMWl8ZGcl7iWdK6yPZ0xAzTiyk/vUxD2SfQw3BrnGkRUbz4Lqq2M4E9TMIyOWmLebn2BwDPcG5JoeG2uki1SsVmXFVBRFVosFJKHrhdpooFbfeCysUpJLrNzq0/Xc3j34ldZmZ+8X3yfGbRHcSLYXSge5qcfCByROHq4bW++ijb3oGlXwoK68MDOQk8YevaWEJGmD7l28mWhjr/UqWDO8MFYR5F579FpIjNTr2pZ3le1+oiAE64jmE+itPWozJKSiL1ZPDA7mH+pgprLzQtigV9l6xG6RBE3fWx4F+6cJRnqh/6EKegOP1h4JGCw2lEFCV0EAh+lxgv9SOxknkJsoTpcetWVXBT1tyXEuhrZ0CS3AmbL44bJgzXQN1HpWyB+rgwGFsGUsGVwNZi47qy8qiK3d0z6BhVdZHbAt22XL2vdAqrJ1T5qBhZZLhesXdmC7HPR1CYQM96QfGhhYuFT24MacuZwsXxVAZ++eZICeRveNvQUn9c+Wy8+W8B3U6unW/gx6ukvFBh/S9A/5dbOiNhiFAfj9nAQcnYJQUqqbtmRRCrMqBTdCSSiCdCsBKf6A21lKlwNFmLqYhbiyUCzjPUjpLZRIViIkV6ALN95Aof8ztTXJ934xQ5+9kJxz3pPj5edknT8VIBnvnh3wffrMUkQiKs7n5J0X1f691PFVKjfxOZJw8uHZ54No5VTeqi/Adn/BYiIBj88Xh/KsrYGhtdihBbazBcn7EyiX6TxbHNB7EwS5Xe9wKdilulyQdKDcHWdxYC9zkNde7FABV5G2qPJQ7cH7xcE962Qgq7ArTH1wtRckLSgmPixSwZHP1jiB+n1ckBShltZapIR8aLM7Vs97UD1ZkXwUUCo3XKWHo0POdPUnHUzjFUkHShUvV2lyaUJKZseYmmB6uSK5A5XMVdqcZdkv1AaRtiJp4YZ07hWi8xwkiPM/9zuI7rskJhT64KZR7wEkmO5N3Qx4zlyOyyyUEW03pTpC5ivr3lQBT93lOIMy4sxNrZbEPE9Vbr2cS2Lgh/+pr647yiOukz9C1QZN3+WoC6iS2j38Tb2CuMbuDS9B03I52lDFdlOuW0RMx72b1xhYRC/tm3jspt7SpA1tHiSVJYeyTWwub4M+4skvbzBoeVhytKHGw+7yVuggHmt53RQkrSVHEUroveUtEbOzpeV1NkhIhesdQYXsaHlrxOyss7ymBY7cksOCEtbyFrEZN8QIHNM5hwkVxvNbJVZmT3rz33UFKM7mHAUoUJrfMn3EYM+vyYNiNKdwoIA2nDN0h6OR4zijem9OwF9cufk1JTAc85YQnzWXM7Q6pqFn8ZPQLgyzc+Yo7HAV0TkKPmrGnKMEPlMmpeWZoeGv8sVOWU13uyXZFx2n6TrpCdDle7GTahtH2EtU+lZ3TlfXEVX22pvaqdh231ngK8csrF1BaBnDHs7JhgVE1eDXcril6IPO3MZhVQUiqtj1LZVzhIhK2980QaBtOS7AVuhtI+u2dcQhjEZ3S9SWytcIBMaWog66RvS22gXEpvWHW54pIrLZxewHFBbYSkFE3XYBUkS1GbBEPo0vgl+2gpGLgKIPMuEE0ZR1xjSVA5J6HtGMgl80yHMCigrIzIh1rIKjxEptUyCSTvCLDmmiy9k8GXBl60EU7WPQGKOAooNILrgx0UnjCbJZpLgaYBLTWsBgxN7FBqRVAwobXFqU0loFkGmUy6OuIYqr4KcqpI03FFVwXW3Cm0EBY7KRZyGKyuYnE9IaGwod4AZ2E1bNgBIn7Y08E1EMNz9MIa25YagBBwrsJAdVjLp8Xe4hgl+jNIa0+oahCaps6MA6BahTKG9klRGBsfnhCrKOPQobVH0vpHIWKomZJ8tEeEddXj0rHoUJJjEJ29cjKPaq5smpaQjP8r47hayqR1HhVtMLx8pAOX3iyWkgvOmvH8maeRQnYCqHzGsGCdCanhwDoek/RxayTj2GCZjueKE0s0jEkeVJGWUQ2uTHzBLCwVAG01W4YdKQECE5/f3oOXMga5TCo3gS6ih5hORcJXU/vaM1tuYxTEFU8kLwX+EfUtbZU4SlDThXsd7wKAwQhVp8M/xTujo7CL9d7G8Z1yHjTmPgc9wDj6j5+5WRtFNfgoWwhD3w/UkJErTTgU8yEOAx/P1qBSRNNHwJFYSmlS4E4hP9mk8zSToaVSQvU/b/Ik0bxnju35SWx37t79XAIRzL1MxAEgqWT3UKngt/r9caDuLOaz+2JhIwrflcM/D0/b3e4UAMiaukBNX0ps/Dr3Q5HcO/Wz8ln6vdcV3TGaA5Gqz3qeBwrHVsF1CpUF7/VSqeubTep4EDOp6s42pAoVev1yq8Bc1svcfgLg6pNFjHNLgHVcTVWo0MaN6s9zjFYcWv4Rdq7p9VbTAKA/gT7dBCWyiig5vQIYObk1AINCjtRyja9QacioOUbFlsoeDmIEKhXXRxEOnYT5A1CA4irkW5dLjLdek/WihtTvR4kvf4+wD38Z5jzpu8vvoBKSm9/JKO55DTS3rfP4BZOecLUy+PVJR7m5S8h5hSUtYLmPZkwzVCGj6+3aTFgZhmUlYfxlU3TAvIy1U36XkJMR8So8y7yx59fUi793KTogBiOonTTIHRhukphJWcTZo6EOPQSb08NFhseHo5iOr/PTsUN9bq0klVqFDeMDUhqTxYpusFpBSWNBs6BEueDgS1usu/KW5smQ7qQYn+kqd7D2Ka3WXaqpAyooOeQovOkmck19flPxQ39hMdVIYW9pInuKDrVXIUV8mcQQ5qBMxZfOeC+rrsZDThAuhR5M7iC7lvEm7sSzJnAkUcg7Uqd68zIddYh8zR8rDz0+iaRWI56Q+u/0txY3tUTNeCIneZ1S3iXCWiSrICSCGLtYAq1WsWF2e6Fz/W9DaWXDuU7Cf+Zl+zODhPLjhkZgEpZMwUujgHljc4S/WQHQdCLDKmCF3qB5YmzjGNMjSAkFxEKUGXSsRSxRmKhyhLFmRYEUHXTfEPTsThgK8wiDL1BkLogmjjZl2t/CLKVgVCukSIB23KEUsLXH6UsSKEUJOmA21yvMHogqkRZW0EIT0iZAZ1gogjuJAF9rtJFrcjyvYnfphk+RCRW9xmzocQjwhxoY59y1IAh3ubvQBCOpfV2Hz3lqMJhvKNAQ6E+ESIwsZiccNRx+nuOzcGdCFkcmGN9W84OqwkI0qQ0biwxk6zGnDllRlFEIRevw99ePX+bOFEeWdlxhQy7hAZ+jYoiNdLK+BE7soQH0Lm8Rn6thQBDFYcLZym8nlliAchXnxGGwotMhlw3sqUMYT4xMqk6Lj4H8GKw8VJGitzCpAxIjIq0MdfcXRwirvzvTlNyKiQGfrU9xwLnMLdG+RChjWOz6hDn+meY44TlD7vDfIgJIjPGEKf0Z7jM04w25s0tiBjQmSoO/QENPcsb3A0e781qg8ZNpGh6rs7v7S2LBUcbbg1awoZ1jw+Q+EiW96y2DhWbWvYDEJm8RkK956YjW3hWN7WsHkGw22n7cg4u7GNi7lgY5YNhvvj+Axt395hN/YVjuTtjBMr+iw+4wra1HYsk6P/vHmvIaRFhDyDMq0dSx3HGe7MG+fE7ovjQ9R92N5ItbH2ToMahLjEu+chdHmVamNnaw18CCkQIap+OAbAdM1SP3KXeK1BG1KG8SHz+1ClnmZj3bUONoS0LueS9VNsbG6+1qEOKVfEJfsImjBXwQmO0FgrcQUZ9L+k63ixl2Jjh6EWzyDEaoex3qk6IdMOWSZIVgrVcCGlQaSo+rx9HLJMkaweqtGGFOuKiHkFNe6EPK+Omlp61CClRaSMC9DCDnkaSFQLFZlBzJCI8dSckXkc8jxGIj9UZJyHlMo7IkfNUQruOthCIjfUpAExLl0YHWYhj41E1utQEQ9i8m1qNCh55rkKeSpIlve+KiJY8No39u7fZW0gjAP4N2YtgqRkFzJIpoBkqGsRQ8lQCAGxLoLYLgU7FGKzhMCLiLxIwXfq2rV/RzYRXJycKgpO3Tq2hZaW/rDJ5Z67S+lnl+fMN8/l8oPkWp2hEk/JaMsPbEzkUJ98UMcr8PPqWqGJCpcWjQ+MdORhDj8o400D3OhX91hbgWStD2yWyMcYflSGA3685bVKT+Un+/AjmyFyao4/qmKogZ/p1VKTOSR7+pHNBHl540wVFjh6l10zNCCVtszYTO4hr5Yyydrg6N4ku2bchkytjNWkWcGe7YEj4/rfWjqQyMmYBe3qJXsHnlrL7KqoDmmijN2yi7yaqiTbAk9Wdt2wDUm0ICtjiryMYaaECFx1s79I65Cil5XjIC9zkimhJfhQNu5CBj8TlmzdzlRwB8HJZnYb4pVvoyny0qNMBW3hyWZ3hWrWH9hD+0EdZZhCT/q1+KQAG5x1lzmKWlruWIPTF+MmSpieylu2itRTgAXOnixzVB0+MPF3Rhycvgrvgd36xMHYRG7t4CRdqIOz1viUx3pq4ppG9+70gymYzTlNbjXk1gxP0jngzZzk3VR+u4HfMqbRT40fgZlz4iNFfvVoJ1tggjc93eXlJqnTMXR8Z7adWbj7xRrM7B0nXeSn+TvZZuBv6u4KGSf23WwW3dnhn36YglWTXw8YKMAKdpK1wZ8XKjPIeMeNraEAw97JldTAnx4rMq3Uxjt+RsVKxzu5HoBCO+SYaw2sujuO3CYK6YwPMrlNUNB9l9P4pmBnH3iyNRQyjw4y2RpIGBGX0TXBzjvwNUVBg+AgkQMi7eRQUuBoKCE98DVuoCBjfZDHNUDFKhftzEQZ990DZzEKGwR7aWwNZCybfVg9lOPveWNZkJizvTQ+CPVmLlOsHZRUJ+iVGRh0wr0kbguU5k5SdECzHgDlGvYzj/EUYS9H2AAtLw4LjGZkorxGsCcQgYlRZD6WPsUU443Wbp5U4xYAKNqw+z3r6HrJRYopBNA7/jq4/FkQOR44mQcXEjOw6oYXCdwXEMSwRqm9+jnSZOZbBjiKL0QMsKrdrC7ihXWIpM29XsfqDgZdq9NrNsCb4V6IxGCnOxKiXSvz9h4eoguVoIFy0R5F8/HvaB/p3KCU2iA8CmbhX1Gj3HYJStKs9VEo9wX+EaMjpRZK81L3KNBKibf3lGfQbrUYHNRvkqM4ifw3gfBAPNOtNHDRSm+3ovwTS+ObLbEOONGtvrsVI0XlmT/3gdIbqTHoi+nbGFW33lJbaeCpYaWrLb0Rqs3Z0uuBN8+hb1wHVeaJmNh8ENB6oz5t596guhrhVoAEVEzL74eLLZEBKivdCjEHJc14O/i2UvjfswxnOuwsUDNvzxQqmmxvcRYjBjn/TKKSa2NzdRYkATn99ZlEBW/i6clZlIUOctaZRlq1q4ta/yxOD/TWZxp9HZUSnwVyQM9YbGg8kv5u8CJGG5GeQwB/Q+S1h8oYbIR6BAH01xsitx1UhLXYCHULEd5uqCwqctrT+Wuu1dzjn2/IPK/CEipHrtU8RtVXGzKP1PkOrCrz8LM6RHm8oXOr+mOpj8XmuvA1iNPfEIprUNiN2FxXbyHS/ZfvCT1S5Huhv+O/F+p5HWI9fk/pVtVbtNrz9yKtLAjXf0+qfx8K+sTOHesmDgQBAB2gR4qOH7jfsETNyc2ZrRAdrty4cOHOkRuj0xVXoCvcWjpkKZGLq1JAZ1OsW2o68wX+ggskJAEcJZew6931vD+wRvbOzM64a215Cq+Av667Zco1QDjD2ZYjy4FaaNszir+02q8tP7P6ioOwYEysk7blFfzMpm2oTccvWLPESY97VvE6lcJ67xspWPsZCdJinLsFL7pR+8zBtGBvJkIS1Y62BR/EHoAARgUHeu0L0t/8gg896IIQujPKQ/IFatT2COWg0CcC3X84hPJAwh7UZeBT9ma2Ici7ejClfJDoB9ShG1LGZlZkiFax79iUExLxf/zW1GXwIJal37NGdjQxHGH/1tDRKS8k5HwIaT5lwAM59F3Kz2gA3DgWZWEmSGX+tjmhHOnjDvBgjigbc5BGQLlyo6/AmjOijNggkZBypo+vgCHNoqzEwiZLVVoW5Y3YWguYuAp8eqyhH+Kdrl/y54bzy8d2YJOSoRAk03fLOri21rnkU0z8kilfmoz4iUPKepBRMIRL6AVWyRip/TrjA7RFVpvYHvfhU8yJXmbMSbKZdMIoszrFSeC04CP6YzvOeLBATkFWN6KHwaAL79d2giTOOHFFbPW/i5eJoHStcGKYb8S3Yxpe4vM8PhaSVTovhZlAiG8loRcY2sAc9nt7fXOgGYEXJrrLOyOQ9YB9lGToFSOQWZSharFgAxL/yc9QJWKCzMwMVRNhhvYTvA2qJMvQxGv8DaqSgNx6G1RFl6/1f2y8QRViaTtOB8kanXOHIDt3jc4shFiy+hRzjc4sJC90doI1OrURaikfj9iLCUABcYpOyN6Y2Oul6EQEKrhJkYpxBS9FKsYVlilSMa6YOymYN+10UvTCNajCSdEzFfoSj4wUHajQR8Sk+NytxBPE5+wcPYjlHlw7tczRni/9vfoxP0c7S6n+RfAOtzm6p0z5etDJUZ7fqZQOP+jnKI9l3Fh/g5mjpdz7OdXmq6ZT73jdu1k1nFpdiWd/V822VKx6ffJn1WR3SgytVfq+arBbtZqIR65XDbYEdTU6sL9BXRjYf+3cP4q7QBQH8OemDwgeRhg8w+AV9gDCYmGVC9gKFoKVlRFUgqRMKj2HVU4ghEB+u79N9k/Y3Ww2mkkyvuenSxm+jM483xukSAeL+VHMS8J8wIt0sDrgFZWEWYBXXBKGp9f0p6AkLAe8WEkYA7zMkjCsHwB2xiVdc8BsXpKVAGbTFVmYj7EAyYosDpj5K7Iwb4oBrBVV877fgXkar6jCvXeCoKIKc6X4lVFdiW7NKqkFgJoyr65hzgHgyXIqabnYxuu+S6orcB7hjTnx5pWUMPfF7OmVeOkIDtQ4lfGhjPmb3ZW2xTMG35lcn1Zy6f8F4n9glViuNYKjzEiXaOU6gJ1aCZU8wQlanHl2JQPkh50dZyNOyBX4kxFn/mxzZ4inOz7oG1HcdAznUllk+Y67uRPkZae9qBZj45vQlmIEkaV7jl3fGPo98SujFsJjcAHVZDHPUt33Emca2m79ybWn01o0F3NXzKepiFgDEEp5UMc7qrL74dWCYZ4BONAFr1bxtLAWC3md+F1eX8T1GVxbUAuF/xC7N3br7mzLgBvI6nrYOrWW1F05XIXb8GtxbIwXOx2TbTuxdQY3oy63whCoOr0xtx14kQq3pM22grgGUOGs29kmEw1u7dFei4G7n/iLbN2CW3AN7oGJSZbQggVjfa6ZHqtwNimTTYEQ77xQuQntSJisTaKa+CFqTrOTNJfhCcbC5lJktsR7qt38wnV8KzcVkMTjpcmG2JsTv0mbr9a2U+gWD+SJ9J3hNBfBPYn1kxZFfDKZcB7lccBMTbY8D8ZFc4GlvH+MPMVqusM9Ydd3+aLpiFBtopdMp+kkpFL9761R2nSB+WInLIKwaY1GQ0zfjfXnlkJSNaceC2bPrcQw6IdRtmiR67Aj7hFDf/53Jgf3XSLosOK8XBcEhnWQCZbnBBvBoHeCv1ft8ILtJ+afftcuhxdsXxlW+Huuwwm2zx7y4uW4xfBNp+e0bPlyxFCZQMD8mS2VSR30DO4vXg5ItZtip7CseA93OOigY+ZpERYyNDn9B7pxpOgWSJ+9AAAAAElFTkSuQmCC;perimeter=rectanglePerimeter;dropTarget=0;container=0;fixDash=0;metaEdit=0;backgroundOutline=0;noLabel=0;portConstraintRotation=0;direction=east;aspect=fixed;imageBackground=none;opacity=80;snapToPoint=0;" parent="3tKYfOBs04xEkgBUD2MP-54" vertex="1">
          <mxGeometry x="36.299999999999955" y="27.5" width="237.41" height="255" as="geometry" />
        </mxCell>
        <mxCell id="3tKYfOBs04xEkgBUD2MP-56" value="" style="shape=waypoint;sketch=0;size=6;pointerEvents=1;points=[];fillColor=#FFFFFF;resizable=0;rotatable=0;perimeter=centerPerimeter;snapToPoint=1;strokeColor=none;rounded=1;strokeWidth=0;shadow=1;glass=0;" parent="1" vertex="1">
          <mxGeometry x="195" y="25" width="40" height="40" as="geometry" />
        </mxCell>
        <mxCell id="3tKYfOBs04xEkgBUD2MP-57" value="" style="edgeStyle=none;rounded=0;orthogonalLoop=1;jettySize=auto;html=1;startArrow=none;startFill=0;endArrow=classic;endFill=1;strokeColor=#808080;strokeWidth=3;exitX=1;exitY=0.5;exitDx=0;exitDy=0;entryX=0;entryY=0.25;entryDx=0;entryDy=0;" parent="1" source="Co6Q3oRFIBekqbzRCRj0-8" target="3tKYfOBs04xEkgBUD2MP-34" edge="1">
          <mxGeometry relative="1" as="geometry">
            <mxPoint x="540" y="270" as="targetPoint" />
          </mxGeometry>
        </mxCell>
        <mxCell id="3tKYfOBs04xEkgBUD2MP-58" value="" style="edgeStyle=none;rounded=0;orthogonalLoop=1;jettySize=auto;html=1;startArrow=none;startFill=0;endArrow=classic;endFill=1;strokeColor=#808080;strokeWidth=3;exitX=1;exitY=0.5;exitDx=0;exitDy=0;entryX=0;entryY=0.477;entryDx=0;entryDy=0;entryPerimeter=0;" parent="1" source="3tKYfOBs04xEkgBUD2MP-36" target="3tKYfOBs04xEkgBUD2MP-34" edge="1">
          <mxGeometry relative="1" as="geometry">
            <mxPoint x="30" y="330" as="sourcePoint" />
            <mxPoint x="510" y="336" as="targetPoint" />
          </mxGeometry>
        </mxCell>
        <mxCell id="3tKYfOBs04xEkgBUD2MP-59" value="" style="edgeStyle=none;rounded=0;orthogonalLoop=1;jettySize=auto;html=1;startArrow=none;startFill=0;endArrow=classic;endFill=1;strokeColor=#808080;strokeWidth=3;exitX=1;exitY=0.5;exitDx=0;exitDy=0;" parent="1" source="3tKYfOBs04xEkgBUD2MP-44" edge="1">
          <mxGeometry relative="1" as="geometry">
            <mxPoint x="30" y="335" as="sourcePoint" />
            <mxPoint x="510" y="400" as="targetPoint" />
          </mxGeometry>
        </mxCell>
        <mxCell id="3tKYfOBs04xEkgBUD2MP-60" value="" style="edgeStyle=none;rounded=0;orthogonalLoop=1;jettySize=auto;html=1;startArrow=none;startFill=0;endArrow=classic;endFill=1;strokeColor=#808080;strokeWidth=3;exitX=0;exitY=0.5;exitDx=0;exitDy=0;entryX=1;entryY=0.5;entryDx=0;entryDy=0;" parent="1" source="3tKYfOBs04xEkgBUD2MP-52" target="3tKYfOBs04xEkgBUD2MP-34" edge="1">
          <mxGeometry relative="1" as="geometry">
            <mxPoint x="30" y="55" as="sourcePoint" />
            <mxPoint x="550.1388888888887" y="289.64491219255433" as="targetPoint" />
          </mxGeometry>
        </mxCell>
        <mxCell id="3tKYfOBs04xEkgBUD2MP-65" value="" style="group" parent="1" vertex="1" connectable="0">
          <mxGeometry x="600" y="630" width="145" height="120" as="geometry" />
        </mxCell>
        <mxCell id="3tKYfOBs04xEkgBUD2MP-63" value="" style="rounded=1;whiteSpace=wrap;html=1;shadow=1;glass=0;comic=0;sketch=0;fillStyle=auto;strokeColor=none;strokeWidth=0;fillColor=#FFFFFF;gradientColor=none;" parent="3tKYfOBs04xEkgBUD2MP-65" vertex="1">
          <mxGeometry width="145" height="120" as="geometry" />
        </mxCell>
        <mxCell id="3tKYfOBs04xEkgBUD2MP-64" value="" style="sketch=0;outlineConnect=0;fontColor=#232F3E;gradientColor=none;fillColor=#3F8624;strokeColor=none;dashed=0;verticalLabelPosition=bottom;verticalAlign=top;align=center;html=1;fontSize=12;fontStyle=0;aspect=fixed;pointerEvents=1;shape=mxgraph.aws4.bucket;rounded=1;shadow=1;glass=0;comic=0;fillStyle=auto;" parent="3tKYfOBs04xEkgBUD2MP-65" vertex="1">
          <mxGeometry x="35" y="22" width="75" height="78" as="geometry" />
        </mxCell>
        <mxCell id="3tKYfOBs04xEkgBUD2MP-66" value="" style="edgeStyle=none;rounded=0;orthogonalLoop=1;jettySize=auto;html=1;startArrow=none;startFill=0;endArrow=classic;endFill=1;strokeColor=#808080;strokeWidth=3;entryX=0.5;entryY=0;entryDx=0;entryDy=0;" parent="1" target="3tKYfOBs04xEkgBUD2MP-63" edge="1">
          <mxGeometry relative="1" as="geometry">
            <mxPoint x="673" y="490" as="sourcePoint" />
            <mxPoint x="830" y="345" as="targetPoint" />
          </mxGeometry>
        </mxCell>
        <mxCell id="3tKYfOBs04xEkgBUD2MP-67" value="" style="endArrow=none;dashed=1;html=1;rounded=0;strokeColor=#808080;strokeWidth=3;" parent="1" edge="1">
          <mxGeometry width="50" height="50" relative="1" as="geometry">
            <mxPoint x="-240" y="840" as="sourcePoint" />
            <mxPoint x="1560" y="840" as="targetPoint" />
          </mxGeometry>
        </mxCell>
        <mxCell id="3tKYfOBs04xEkgBUD2MP-68" value="&lt;h1&gt;&lt;font color=&quot;#333333&quot; face=&quot;Tahoma&quot; style=&quot;font-size: 32px; font-weight: normal;&quot;&gt;Data Collection&lt;/font&gt;&lt;/h1&gt;" style="text;html=1;resizable=0;autosize=1;align=center;verticalAlign=middle;points=[];fillColor=none;strokeColor=none;rounded=0;shadow=1;glass=0;comic=0;sketch=0;fillStyle=auto;" parent="1" vertex="1">
          <mxGeometry x="-220" y="860" width="240" height="80" as="geometry" />
        </mxCell>
        <mxCell id="3tKYfOBs04xEkgBUD2MP-69" value="&lt;font color=&quot;#333333&quot;&gt;Data Aggregation&lt;br&gt;Processing&lt;br&gt;Indexing&lt;br&gt;Storage&lt;/font&gt;" style="text;html=1;align=center;verticalAlign=middle;resizable=0;points=[];autosize=1;strokeColor=none;fillColor=none;fontSize=32;fontFamily=Tahoma;" parent="1" vertex="1">
          <mxGeometry x="530" y="850" width="270" height="170" as="geometry" />
        </mxCell>
        <mxCell id="3tKYfOBs04xEkgBUD2MP-70" value="&lt;font color=&quot;#333333&quot;&gt;Analysis &amp;amp;&amp;nbsp;Visualization&lt;/font&gt;" style="text;html=1;align=center;verticalAlign=middle;resizable=0;points=[];autosize=1;strokeColor=none;fillColor=none;fontSize=32;fontFamily=Tahoma;" parent="1" vertex="1">
          <mxGeometry x="1220" y="890" width="350" height="50" as="geometry" />
        </mxCell>
      </root>
    </mxGraphModel>
  </diagram>
</mxfile>
